<svg width="240" height="39" viewBox="0 0 240 39" fill="none" xmlns="http://www.w3.org/2000/svg">
<path d="M25.9598 23.84V28.6H13.8398V23.84H25.9598ZM13.8398 34.88V29.72H25.9598V34.88H13.8398ZM37.5998 11.6C38.1998 11.6 38.6398 11.4 38.7598 10.96C36.8398 9.36 33.7198 7.08 33.7198 7.08L30.9598 10.48H22.7198V6.48C25.8398 6.24 28.7198 5.92 31.1198 5.6C32.4798 6.16 33.4798 6.12 33.9598 5.72L29.0398 0.720001C23.4398 2.76 12.5198 5.28 4.07984 6.44L4.15984 7.04C8.23984 7.12 12.7198 7.04 17.0398 6.8V10.48H1.31984L1.63984 11.6H12.8798C10.3198 15.76 5.95984 20.2 0.839844 23.04L1.11984 23.48C3.59984 22.76 5.95984 21.84 8.15984 20.84V38.76H8.99984C11.3598 38.76 13.8398 37.52 13.8398 36.96V36H25.9598V38.72H26.9598C28.8398 38.72 31.7198 37.72 31.7598 37.4V24.76C32.5998 24.6 33.0798 24.2 33.3198 23.88L28.0798 19.92L25.5598 22.72H14.1598L8.63984 20.6C11.8798 19.04 14.7198 17.2 17.0398 15V21.36H18.0798C20.9998 21.36 22.7198 20.2 22.7198 19.92V13.72C26.7198 15.88 31.3598 19.4 33.8798 22.44C39.9198 23.88 40.5998 12.8 22.7198 12.64V11.6H37.5998Z" fill="#1E1E1E"/>
<path d="M54.9198 34.56V27.72H65.2798V34.56H54.9198ZM64.9198 26.6H55.4798L52.9198 25.68C55.4398 24.76 57.8798 23.72 60.0798 22.56C61.7598 23.84 63.6398 24.88 65.6798 25.8L64.9198 26.6ZM63.4398 13C62.3998 14.68 60.9998 16.4 59.2798 18C57.7198 17.16 56.3598 16.16 55.1998 15C55.8798 14.36 56.5598 13.72 57.1998 13H63.4398ZM67.1199 8.72L63.5198 11.88H58.1598C58.4398 11.52 58.7198 11.16 58.9998 10.8C59.9598 10.92 60.5198 10.56 60.7198 10.08L54.6398 7.52H71.7198C71.5998 9 71.3199 10.84 71.0798 12.12L71.3598 12.36C73.3198 11.48 75.7998 9.88 77.2798 8.64C78.1199 8.6 78.5199 8.48 78.8399 8.12L74.0798 3.64L71.3598 6.4H61.7598C64.3998 4.88 64.3998 -0.079998 55.5998 1L55.3598 1.2C56.6798 2.28 57.7998 4.24 57.9598 6.16C58.1198 6.24 58.2398 6.32 58.3998 6.4H47.9198C47.7198 5.64 47.4798 4.8 47.1198 3.96H46.6398C46.6798 5.96 45.0398 7.8 43.7198 8.52C42.3198 9.16 41.3198 10.44 41.8398 12.12C42.4398 13.88 44.5998 14.36 45.9998 13.48C47.4798 12.56 48.4798 10.48 48.1198 7.52H53.3198C50.9598 13.2 46.9198 18.28 43.1998 21.2L43.5198 21.6C47.2798 20.32 50.9198 18.56 54.2398 15.84C55.0798 17.32 56.0398 18.68 57.1598 19.88C52.9198 23.28 47.3598 26.28 41.1198 28.24L41.3198 28.6C44.0398 28.16 46.7198 27.6 49.2798 26.84V38.84H50.3198C53.1998 38.84 54.9198 37.56 54.9198 37.16V35.68H65.2798V38.4H66.3198C68.1599 38.4 71.0398 37.4 71.0798 37.12V28.4C71.5599 28.28 71.8399 28.12 72.0798 27.96C72.8799 28.16 73.6799 28.36 74.4799 28.52C75.0398 25.76 76.4798 23.84 78.9198 23.2L78.9598 22.68C73.9198 22.36 68.7198 21.64 64.1598 20.12C66.6798 18.4 68.7999 16.52 70.4799 14.52C71.5599 14.4 72.0398 14.24 72.4398 13.84L67.1199 8.72Z" fill="#1E1E1E"/>
<path d="M81.9598 9.64H91.1599C89.7598 13.8 86.5998 19.24 82.5198 22.64L82.7598 23.04C88.8399 21.12 93.6398 17.36 96.5998 13.64C97.5598 13.72 97.9599 13.44 98.1199 13.04L91.4398 9.64H117.76C118.36 9.64 118.8 9.44 118.92 9C116.92 7.08 113.44 4.12 113.44 4.12L110.36 8.52H101.16C104.6 7.52 105.12 0.880002 94.4398 0.760001L94.1599 0.960003C95.8399 2.68 97.5599 5.4 98.1199 7.96C98.5599 8.24 98.9998 8.4 99.3998 8.52H81.6398L81.9598 9.64ZM103.36 10.72C106.84 13.24 110.48 17.4 112.04 21.28C118.2 24.52 121.28 12.12 103.64 10.44L103.36 10.72ZM104.4 16.88C103.32 20.08 101.72 23.2 99.5598 26.04C96.5998 23.92 94.1999 21.28 92.6798 17.96L92.1998 18.28C93.4398 22.36 95.2399 25.68 97.5199 28.44C93.5999 32.6 88.2399 36.08 81.0798 38.32L81.2798 38.8C89.5198 37.68 95.7999 35.08 100.52 31.56C104.32 34.92 109 37.16 114.32 38.8C115.12 36 116.76 34.12 119.36 33.6L119.44 33.12C114.12 32.32 108.64 30.96 103.92 28.64C106.36 26.2 108.28 23.44 109.76 20.56C110.72 20.64 111.16 20.36 111.36 19.92L104.4 16.88Z" fill="#1E1E1E"/>
<path d="M124.4 1.52C125.64 3.28 127.08 5.8 127.56 8.2C132.6 11.64 137.16 2.2 124.68 1.32L124.4 1.52ZM120.92 10.68C122.2 12.28 123.68 14.72 124.12 17C129 20.16 133.16 11.04 121.2 10.48L120.92 10.68ZM133.32 10C126.16 24.08 126.16 24.08 125.16 25.52C124.64 26.32 124.48 26.32 123.8 26.32H121.96V27.04C122.8 27.12 123.52 27.32 124.08 27.72C125.08 28.36 125.2 32.4 124.36 36.72C124.8 38.32 125.96 38.84 126.96 38.84C129.2 38.84 130.84 37.4 130.92 35.2C131.04 31.52 129.16 30.28 129.08 27.92C129.04 26.92 129.36 25.44 129.68 24.16C130.16 22.16 132.52 14.36 133.92 10.16L133.32 10ZM147.56 11.12C148.16 11.84 148.76 12.68 149.36 13.6C144.72 13.84 140.36 14 137.2 14.12C139.4 12.64 141.8 10.68 143.88 8.64H157.64C158.24 8.64 158.68 8.44 158.8 8C157 6.28 153.92 3.76 153.92 3.76L151.16 7.52H145C146.08 6.4 147.04 5.28 147.84 4.24C148.64 4.2 149.08 3.84 149.24 3.4L141.48 0.960003C141.08 2.76 140.04 5.2 138.8 7.52H132.76L133.08 8.64H138.2C136.96 10.76 135.64 12.64 134.56 13.48C134.08 13.84 133.16 14.08 133.16 14.08L134.92 19.76L135.12 19.68V23.56C135.12 28.12 134.72 34.24 130.68 38.44L131 38.76C138.84 35.44 140.16 28.56 140.24 23.64V21C141.2 20.88 141.48 20.48 141.56 19.96L135.6 19.4C135.84 19.24 136.04 19.04 136.24 18.8C141.84 17.44 146.64 16.04 150.16 14.96C150.84 16.16 151.4 17.44 151.72 18.64C156.56 21.76 160.36 12.48 147.88 10.88L147.56 11.12ZM141.6 37.56H142.52C144.36 37.56 146.64 36.68 146.64 36.32V20.72C147.48 20.6 147.72 20.28 147.76 19.84L141.6 19.28V37.56ZM157.36 32.64H157C156.76 32.72 156.32 32.8 156.04 32.8C155.8 32.84 155.32 32.88 155.12 32.88H154.48H153.88C153.52 32.88 153.44 32.72 153.44 32.28V20.88C154.24 20.76 154.6 20.36 154.68 19.84L148.44 19.32V33.64C148.44 36.68 148.8 37.68 152.08 37.68H153.76C157.4 37.68 159.08 36.6 159.08 34.72C159.08 33.8 158.68 33.28 157.6 32.72L157.36 32.64Z" fill="#1E1E1E"/>
<path d="M163.8 1.84C165.32 3.44 167.12 6 167.84 8.32C173 11.2 176.56 1.64 164.08 1.6L163.8 1.84ZM160.8 10.6C162.24 12.12 163.8 14.56 164.28 16.84C169.2 19.92 173.12 10.56 161.08 10.36L160.8 10.6ZM190.8 24.24V33.88H180.12V24.24H190.8ZM191.52 14.4H188.24V7.28C190.72 6.96 193 6.64 194.88 6.32C196.28 6.84 197.28 6.8 197.8 6.4L192.32 1.12C188 3.28 179.44 6.2 172.8 7.76L172.88 8.28C175.88 8.24 179.16 8.08 182.32 7.84V14.4H172.44C173.04 12.64 173.6 10.96 174.08 9.64L173.52 9.48C165.64 24.32 165.64 24.32 164.56 25.84C164.04 26.64 163.84 26.64 163.16 26.64H161.28V27.32C162.12 27.4 162.84 27.64 163.44 28.04C164.4 28.68 164.56 32.56 163.72 36.76C164.16 38.32 165.36 38.84 166.4 38.84C168.72 38.84 170.4 37.4 170.48 35.24C170.6 31.64 168.68 30.52 168.6 28.24C168.56 27.2 168.92 25.68 169.28 24.36C169.68 22.92 171.04 18.56 172.4 14.52L172.68 15.52H182.32V23.12H180.36L174.44 20.84V38.68H175.24C177.64 38.68 180.12 37.44 180.12 36.92V35H190.8V38.44H191.8C193.76 38.44 196.52 37.28 196.56 36.92V25.16C197.4 25 197.88 24.6 198.16 24.28L192.96 20.32L190.36 23.12H188.24V15.52H198.28C198.84 15.52 199.32 15.32 199.4 14.88C197.56 13.12 194.36 10.48 194.36 10.48L191.52 14.4Z" fill="#1E1E1E"/>
<path d="M213.92 24.04H216V24.92H216.92C217.24 24.92 217.52 24.92 217.8 24.88L215.56 27.64H213.92V24.04ZM207.08 22.92V19.04H209V22.92H207.08ZM209 14.08V17.92H207.08V14.08H209ZM216 14.08V17.92H213.92V14.08H216ZM216 22.92H213.92V19.04H216V22.92ZM234.8 8.32L231.96 11.16H229.8C229.84 8.6 229.84 5.92 229.88 3.08C230.8 2.96 231.24 2.6 231.36 1.96L224.4 1.32C224.4 4.84 224.44 8.12 224.44 11.16H221.08L221.44 12.28H224.44C224.4 19.6 224 25.68 221.84 30.84C219.12 31.04 216.44 31.2 213.92 31.36V28.76H221.16C221.76 28.76 222.16 28.56 222.28 28.12C220.88 26.96 218.76 25.36 218.12 24.88C220.04 24.68 221.16 24.04 221.16 23.88V14.4C222.08 14.24 222.44 14 222.68 13.64L218.24 10.28L215.88 12.96H213.92V10.2H222.04C222.64 10.2 223.08 10 223.16 9.56C221.44 8.04 218.56 5.92 218.56 5.92L216.04 9.08H213.92V5.88C216.04 5.72 218 5.56 219.64 5.36C220.88 5.88 221.84 5.92 222.36 5.52L217.72 0.720001C213.96 2.32 206.6 4.52 201.04 5.72L201.12 6.28C203.6 6.28 206.32 6.24 209 6.12V9.08H201.16L201.48 10.2H209V12.96H207.48L202.16 10.96V25.68H203.04C205.56 25.68 207.08 24.92 207.08 24.56V24.04H209V27.64H201.8L202.12 28.76H209V31.64C205.68 31.8 203 31.92 201.36 31.96L203.64 38.48C204.16 38.4 204.64 38.08 204.92 37.56C212.76 35.08 218 33.12 221.52 31.56C220.44 33.96 218.92 36.2 216.88 38.28L217.28 38.8C228.08 33 229.52 24.4 229.8 12.28H232.44C232.2 25.6 231.84 31.08 230.64 32.2C230.28 32.52 229.92 32.68 229.36 32.68C228.6 32.68 227 32.6 225.96 32.52V33C227.36 33.4 228.2 33.96 228.72 34.76C229.2 35.48 229.32 36.68 229.28 38.44C231.52 38.44 233.32 37.88 234.72 36.48C236.96 34.32 237.4 29.88 237.68 13.2C238.56 13.08 239.12 12.76 239.4 12.4L234.8 8.32Z" fill="#1E1E1E"/>
</svg>
