<svg width="159" height="39" viewBox="0 0 159 39" fill="none" xmlns="http://www.w3.org/2000/svg">
<path d="M2.55992 1.76001C4.07992 3.28001 5.63992 5.76002 6.11992 8.08001C11.5199 11.36 15.7199 1.16002 2.79992 1.56001L2.55992 1.76001ZM8.67992 20.16C9.79992 18.32 11.2399 15.76 12.1199 14.12C12.7199 14.08 13.2399 14 13.6799 13.88C13.2799 14.88 12.8399 15.84 12.4399 16.68L12.8799 16.96C13.7599 16.36 14.5999 15.68 15.3999 14.92V20.2L11.8799 17.44L9.11992 20.16H8.67992ZM21.5599 8.40001L20.9599 8.16002C21.7599 6.88002 22.5199 5.44001 23.2399 3.96001C23.7199 4.00001 24.1199 3.88001 24.3599 3.76002C24.7599 5.00001 25.0399 6.40001 24.9999 7.68001C25.3599 8.00002 25.7199 8.24001 26.0799 8.40001H21.5599ZM23.8399 15.04H20.9999V9.52001H23.8399V15.04ZM23.8399 21.56H20.9999V16.16H23.8399V21.56ZM23.8399 28.8H20.9999V22.68H23.8399V28.8ZM15.3999 21.76V31.88H16.4399C19.3199 31.88 20.9999 30.64 20.9999 30.28V29.92H37.3599C37.9199 29.92 38.3999 29.72 38.4799 29.28C36.5999 27.6 33.3999 25.2 33.3999 25.2L30.5999 28.8H29.3199V22.68H36.0399C36.6399 22.68 37.0799 22.48 37.1599 22.04C35.3999 20.48 32.4399 18.24 32.4399 18.24L29.8399 21.56H29.3199V16.16H36.0399C36.6399 16.16 37.0799 15.96 37.1599 15.52C35.3999 13.96 32.4399 11.72 32.4399 11.72L29.8399 15.04H29.3199V9.52001H36.4399C36.9999 9.52001 37.4399 9.32001 37.5599 8.88001C35.7199 7.32001 32.7199 5.12001 32.7199 5.12001L30.0399 8.40001H28.3199C30.6799 7.28001 31.1199 2.60001 23.4799 0.640015L23.1199 0.840014C23.4799 1.44001 23.7999 2.12001 24.0799 2.88001L17.3599 0.800015C16.6399 4.96001 15.3599 9.44001 13.9999 13.08L9.83992 9.28002L7.51992 11.6H1.63992L1.99992 12.72H7.27992C6.35992 14.6 4.91992 17.32 3.71992 19.12C3.15992 19.36 2.59992 19.68 2.19992 20L6.67992 22.84L8.27992 21.28H9.31992C8.63992 24.28 7.19992 27.8 5.59992 30.36C4.19992 31.08 2.35992 32.12 0.919922 32.72L4.59992 38.2C4.87992 38.04 5.07992 37.8 4.99992 37.4C5.79992 35.2 6.59992 33.12 7.19992 31.84C7.55992 31 8.03992 30.92 8.63992 31.76C11.9599 35.92 15.3599 37.8 24.2799 37.8H35.3999C35.6799 35.6 36.9999 33.44 39.2799 32.92V32.48C34.6799 32.76 30.8799 32.8 26.2799 32.8C17.0799 32.84 12.1199 32.24 9.11992 30.12C8.79992 29.96 8.55992 29.8 8.27992 29.72C11.3599 27.48 13.8799 24.6 15.2399 21.76H15.3999Z" fill="#1E1E1E"/>
<path d="M65.9599 23.84V28.6H53.8399V23.84H65.9599ZM53.8399 34.88V29.72H65.9599V34.88H53.8399ZM77.5999 11.6C78.1999 11.6 78.6399 11.4 78.7599 10.96C76.8399 9.36001 73.7199 7.08002 73.7199 7.08002L70.9599 10.48H62.7199V6.48001C65.8399 6.24001 68.7199 5.92001 71.1199 5.60002C72.4799 6.16002 73.4799 6.12001 73.9599 5.72001L69.0399 0.720014C63.4399 2.76001 52.5199 5.28001 44.0799 6.44001L44.1599 7.04001C48.2399 7.12001 52.7199 7.04001 57.0399 6.80001V10.48H41.3199L41.6399 11.6H52.8799C50.3199 15.76 45.9599 20.2 40.8399 23.04L41.1199 23.48C43.5999 22.76 45.9599 21.84 48.1599 20.84V38.76H48.9999C51.3599 38.76 53.8399 37.52 53.8399 36.96V36H65.9599V38.72H66.9599C68.8399 38.72 71.7199 37.72 71.7599 37.4V24.76C72.5999 24.6 73.0799 24.2 73.3199 23.88L68.0799 19.92L65.5599 22.72H54.1599L48.6399 20.6C51.8799 19.04 54.7199 17.2 57.0399 15V21.36H58.0799C60.9999 21.36 62.7199 20.2 62.7199 19.92V13.72C66.7199 15.88 71.3599 19.4 73.8799 22.44C79.9199 23.88 80.5999 12.8 62.7199 12.64V11.6H77.5999Z" fill="#1E1E1E"/>
<path d="M90.6399 13.6H95.5599H95.7599V16.88L91.6799 18.68L92.4399 19.56L95.7599 18.12V24.4C94.0399 24.84 92.2799 25.24 90.6399 25.64V13.6ZM116.76 26.36H116.36C115.36 29.08 114.56 31 113.96 31.8C113.56 32.24 113.08 32.4 112.4 32.44C111.6 32.48 110.16 32.52 108.52 32.52H103.48C101.68 32.52 101.12 32.2 101.12 31.08V15.76L103.52 14.72V29.76H104.48C106.48 29.76 108.76 28.68 108.76 28.2V12.44L111.64 11.16C111.64 15.68 111.28 22.24 110.64 27.32L111.04 27.56C113.72 23.4 115.84 16.96 116.96 12.6C117.88 12.52 118.28 12.36 118.6 12L114.2 7.40001L111.84 9.84002L108.76 11.2V2.56001C109.88 2.40001 110.16 2.00001 110.24 1.44001L103.52 0.800015V13.48L101.12 14.56V8.48001C102.08 8.36002 102.48 7.92001 102.52 7.40001L95.7599 6.72002V11.88C94.5599 10.4 93.0799 8.80001 93.0799 8.80001L91.0399 12.48H90.6399V3.36002C91.7599 3.20002 92.0399 2.76001 92.1199 2.20001L85.1599 1.60001V12.48H80.8399L81.1599 13.6H85.1599V26.88C83.2399 27.28 81.6399 27.6 80.6399 27.76L83.6799 34.16C84.1999 34 84.5999 33.56 84.7999 33C90.0399 29.6 93.5199 26.92 95.7599 25V32.48C95.7599 36.68 97.6399 37.52 102.8 37.52H108C116.84 37.52 119.12 36.64 119.12 34.16C119.12 33.2 118.6 32.6 116.92 31.96L116.76 26.36Z" fill="#1E1E1E"/>
<path d="M139 26.2V23.12H140.76V26.2H139ZM141.92 20.6L140.52 22H139.16L135.96 20.68V29H136.4C137.64 29 139 28.32 139 28.08V27.32H140.76V28.76H141.28C142.24 28.76 143.8 28.12 143.84 27.84V23.28C144.28 23.2 144.68 22.96 144.8 22.8L141.92 20.6ZM142.16 15.6V12.88H143.12V14.16H143.96C144.96 14.16 146.32 13.84 147.16 13.52L145.4 15.6H142.16ZM136.48 11.76V8.68001H143.12V11.76H136.48ZM134.88 30.04V19.88H144.96V30.04H134.88ZM147.92 9.24001C148.6 9.12001 149 8.84001 149.2 8.60001L144.84 5.36001L142.76 7.56001H136.68L131.76 5.68001V14.72H132.4C134.32 14.72 136.48 13.72 136.48 13.36V12.88H137.36V15.6H128.84L129.16 16.72H146.52L144.6 18.76H135.12L130.48 16.92V33.84H131.12C132.96 33.84 134.88 32.88 134.88 32.44V31.16H144.96V33.08H145.72C147.16 33.08 149.36 32.24 149.4 31.92V20.4C150.04 20.28 150.48 20 150.68 19.76L146.72 16.72H150.52C151.08 16.72 151.52 16.52 151.6 16.08C150.36 15 148.52 13.68 147.84 13.2C147.88 13.16 147.92 13.12 147.92 13.08V9.24001ZM128.2 34.64V4.84002H151.64V34.64H128.2ZM153.8 0.880014L151.24 3.72001H128.64L122.8 1.40001V38.88H123.72C126.04 38.88 128.2 37.56 128.2 36.84V35.76H151.64V38.52H152.48C154.52 38.52 157.04 37.24 157.12 36.84V5.72001C157.92 5.52001 158.44 5.20001 158.72 4.84002L153.8 0.880014Z" fill="#1E1E1E"/>
</svg>
