<svg width="320" height="40" viewBox="0 0 320 40" fill="none" xmlns="http://www.w3.org/2000/svg">
<path d="M28.3201 25.0801C30.3601 27.9201 32.7201 31.7601 33.6801 35.2801C39.2001 39.0801 43.3201 28.2801 28.6801 24.8801L28.3201 25.0801ZM20.6801 5.36006H29.7201V14.4801H20.6801V5.36006ZM31.0001 21.8001H28.0801V15.6001H29.7201V17.4001H30.7601C33.7601 17.4001 35.5201 16.4801 35.5201 16.2801V5.72006C36.4401 5.56006 36.8001 5.32006 37.0401 4.96006L32.2001 1.28006L29.5601 4.24006H21.0801L15.1601 2.04006V2.92006L7.84012 0.760058C6.44012 8.56006 3.28012 16.6001 0.120117 21.7201L0.560117 22.0001C2.24012 20.8001 3.80012 19.4801 5.28012 17.9601V38.8001H6.36012C8.56012 38.8001 10.9201 37.6001 10.9601 37.2001V13.8401C11.7601 13.7201 12.0801 13.4401 12.2401 13.0801L9.80012 12.1601C11.3201 9.72006 12.6801 6.96006 13.8801 3.88006C14.4401 3.92006 14.8801 3.76006 15.1601 3.56006V18.2401H16.1601C19.0001 18.2401 20.6801 17.3601 20.6801 17.0001V15.6001H22.2801V21.8001H11.8401L12.1601 22.9201H22.2801V25.6001L17.3201 23.4001C15.8401 28.1201 13.3601 33.0001 11.2001 35.9601L11.5601 36.2801C15.4801 34.3601 19.2401 31.4801 22.2801 27.5201V38.7601H23.3601C26.3201 38.7601 28.0401 37.5601 28.0801 37.2401V22.9201H38.2001C38.8001 22.9201 39.2401 22.7201 39.3601 22.2801C37.3601 20.5201 34.0001 17.8801 34.0001 17.8801L31.0001 21.8001Z" fill="#1E1E1E"/>
<path d="M74.3601 6.00006C74.9601 6.00006 75.4001 5.80006 75.5201 5.36006C73.4801 3.60006 70.0401 1.04006 70.0401 1.04006L67.0001 4.88006H45.4001L45.7201 6.00006H74.3601ZM77.5601 25.2401H77.1601C76.2001 28.1201 75.4001 30.4001 74.8401 31.2801C74.5601 31.8001 74.3201 31.9201 73.8001 31.9201C73.2801 31.9601 72.5201 31.9601 71.7201 31.9601H69.0001C68.0401 31.9601 67.8001 31.7601 67.8001 31.1201V17.0801V16.0801H77.6401C78.2401 16.0801 78.7201 15.8801 78.8401 15.4401C76.7201 13.6001 73.1601 10.8801 73.1601 10.8801L70.0401 14.9601H41.3201L41.6401 16.0801H51.1201C51.0401 25.0401 49.3601 32.9601 40.7201 38.4401L40.8801 38.8001C53.7601 35.0801 57.0401 26.6001 57.6801 16.0801H61.8801V32.6801C61.8801 36.6001 62.9601 37.6001 67.4801 37.6001H71.0001C77.5601 37.6001 79.4801 36.4401 79.4801 34.1201C79.4801 32.9601 79.1601 32.2801 77.6801 31.6401L77.5601 25.2401Z" fill="#1E1E1E"/>
<path d="M95.0801 18.6001V12.7601H105.16V18.6001H95.0801ZM107.96 26.8401V34.0401H92.0801V26.8401H107.96ZM113.96 3.84006L111.12 6.68006H102.16C104.64 5.04006 104.6 0.560059 95.8801 0.680059L95.6801 0.880059C96.8801 2.08006 97.5201 4.20006 97.2801 6.16006C97.5201 6.36006 97.7601 6.52006 98.0001 6.68006H87.8801C87.7201 5.92006 87.4801 5.12006 87.1601 4.28006H86.6801C86.6001 6.24006 84.8001 8.04006 83.3601 8.72006C81.9201 9.44006 80.9201 10.7601 81.4001 12.4801C82.0401 14.3201 84.3201 14.8801 85.8001 13.9201C87.3201 12.9601 88.3601 10.8401 88.0401 7.80006H111.52C111.4 9.00006 111.24 10.4401 111.04 11.7601L107.24 8.92006L104.76 11.6401H95.3201L89.4801 9.44006V22.3601H90.2401C92.5601 22.3601 95.0801 21.1601 95.0801 20.6801V19.7201H96.7601C96.7601 21.4401 96.6801 23.9201 96.5201 25.7201H92.4401L86.4801 23.4801V38.7201H87.2801C89.5601 38.7201 92.0801 37.4801 92.0801 37.0001V35.1601H107.96V38.3601H108.96C110.88 38.3601 113.6 37.2401 113.64 36.9201V27.7601C114.48 27.5601 115 27.2001 115.24 26.8801L110.08 23.0001L107.56 25.7201H98.8001C100.32 24.0401 102.08 21.6001 103.32 19.7201H105.16V21.9201H106.16C108.04 21.9201 110.8 20.8801 110.84 20.5201V13.6801L111 13.6401C111.76 13.4401 112.2 13.0801 112.44 12.8001C114.2 11.6401 116.08 10.1601 117.28 9.00006C118.12 8.92006 118.52 8.80006 118.84 8.44006L113.96 3.84006Z" fill="#1E1E1E"/>
<path d="M122.56 1.76006C124.08 3.28006 125.64 5.76006 126.12 8.08006C131.52 11.3601 135.72 1.16006 122.8 1.56006L122.56 1.76006ZM128.68 20.1601C129.8 18.3201 131.24 15.7601 132.12 14.1201C132.72 14.0801 133.24 14.0001 133.68 13.8801C133.28 14.8801 132.84 15.8401 132.44 16.6801L132.88 16.9601C133.76 16.3601 134.6 15.6801 135.4 14.9201V20.2001L131.88 17.4401L129.12 20.1601H128.68ZM141.56 8.40006L140.96 8.16006C141.76 6.88006 142.52 5.44006 143.24 3.96006C143.72 4.00006 144.12 3.88006 144.36 3.76006C144.76 5.00006 145.04 6.40006 145 7.68006C145.36 8.00006 145.72 8.24006 146.08 8.40006H141.56ZM143.84 15.0401H141V9.52006H143.84V15.0401ZM143.84 21.5601H141V16.1601H143.84V21.5601ZM143.84 28.8001H141V22.6801H143.84V28.8001ZM135.4 21.7601V31.8801H136.44C139.32 31.8801 141 30.6401 141 30.2801V29.9201H157.36C157.92 29.9201 158.4 29.7201 158.48 29.2801C156.6 27.6001 153.4 25.2001 153.4 25.2001L150.6 28.8001H149.32V22.6801H156.04C156.64 22.6801 157.08 22.4801 157.16 22.0401C155.4 20.4801 152.44 18.2401 152.44 18.2401L149.84 21.5601H149.32V16.1601H156.04C156.64 16.1601 157.08 15.9601 157.16 15.5201C155.4 13.9601 152.44 11.7201 152.44 11.7201L149.84 15.0401H149.32V9.52006H156.44C157 9.52006 157.44 9.32006 157.56 8.88006C155.72 7.32006 152.72 5.12006 152.72 5.12006L150.04 8.40006H148.32C150.68 7.28006 151.12 2.60006 143.48 0.64006L143.12 0.84006C143.48 1.44006 143.8 2.12006 144.08 2.88006L137.36 0.80006C136.64 4.96006 135.36 9.44006 134 13.0801L129.84 9.28006L127.52 11.6001H121.64L122 12.7201H127.28C126.36 14.6001 124.92 17.3201 123.72 19.1201C123.16 19.3601 122.6 19.6801 122.2 20.0001L126.68 22.8401L128.28 21.2801H129.32C128.64 24.2801 127.2 27.8001 125.6 30.3601C124.2 31.0801 122.36 32.1201 120.92 32.7201L124.6 38.2001C124.88 38.0401 125.08 37.8001 125 37.4001C125.8 35.2001 126.6 33.1201 127.2 31.8401C127.56 31.0001 128.04 30.9201 128.64 31.7601C131.96 35.9201 135.36 37.8001 144.28 37.8001H155.4C155.68 35.6001 157 33.4401 159.28 32.9201V32.4801C154.68 32.7601 150.88 32.8001 146.28 32.8001C137.08 32.8401 132.12 32.2401 129.12 30.1201C128.8 29.9601 128.56 29.8001 128.28 29.7201C131.36 27.4801 133.88 24.6001 135.24 21.7601H135.4Z" fill="#1E1E1E"/>
<path d="M185.96 23.8401V28.6001H173.84V23.8401H185.96ZM173.84 34.8801V29.7201H185.96V34.8801H173.84ZM197.6 11.6001C198.2 11.6001 198.64 11.4001 198.76 10.9601C196.84 9.36006 193.72 7.08006 193.72 7.08006L190.96 10.4801H182.72V6.48006C185.84 6.24006 188.72 5.92006 191.12 5.60006C192.48 6.16006 193.48 6.12006 193.96 5.72006L189.04 0.720059C183.44 2.76006 172.52 5.28006 164.08 6.44006L164.16 7.04006C168.24 7.12006 172.72 7.04006 177.04 6.80006V10.4801H161.32L161.64 11.6001H172.88C170.32 15.7601 165.96 20.2001 160.84 23.0401L161.12 23.4801C163.6 22.7601 165.96 21.8401 168.16 20.8401V38.7601H169C171.36 38.7601 173.84 37.5201 173.84 36.9601V36.0001H185.96V38.7201H186.96C188.84 38.7201 191.72 37.7201 191.76 37.4001V24.7601C192.6 24.6001 193.08 24.2001 193.32 23.8801L188.08 19.9201L185.56 22.7201H174.16L168.64 20.6001C171.88 19.0401 174.72 17.2001 177.04 15.0001V21.3601H178.08C181 21.3601 182.72 20.2001 182.72 19.9201V13.7201C186.72 15.8801 191.36 19.4001 193.88 22.4401C199.92 23.8801 200.6 12.8001 182.72 12.6401V11.6001H197.6Z" fill="#1E1E1E"/>
<path d="M224.48 19.1201V19.4001C224.12 19.3601 223.72 19.3601 223.28 19.3601L223.08 19.9201C223.84 20.2001 224.44 20.6001 224.96 21.0001H222.08V19.1201H224.48ZM222.08 15.8801H224.48V18.0001H222.08V15.8801ZM215.16 15.8801H217.48V18.0001H215.16V15.8801ZM217.48 14.7601H215.16V12.7201H217.48V14.7601ZM224.48 14.7601H222.08V12.7201H224.48V14.7601ZM208.2 34.9201V25.9201L208.48 26.9201H211.4C212.16 27.9201 212.84 29.4801 212.84 30.9201C216 33.4001 219.6 28.4401 214.28 26.9201H221V29.4401C221 29.8401 220.88 29.9601 220.44 29.9601C219.88 29.9601 217.36 29.8001 217.36 29.8001V30.3201C218.8 30.5601 219.32 31.0401 219.72 31.5201C220.12 32.1201 220.24 33.0001 220.28 34.2001C224.96 33.8001 225.6 32.4001 225.6 29.4401V26.9201H230.6C231.12 26.9201 231.52 26.7201 231.64 26.2801C230.72 25.4001 229.36 24.3201 228.6 23.7201C230.88 23.4801 232.64 20.3601 226.48 19.5601C227.68 19.3201 228.88 18.8401 228.92 18.6001V13.1201C229.48 13.0401 229.88 12.7601 230.04 12.5601L226.08 9.64006L224.16 11.6001H222.08V9.52006H229.92C230.48 9.52006 230.88 9.32006 231 8.88006C229.56 7.60006 227.28 5.84006 227.28 5.84006L225.24 8.40006H222.08V6.88006C222.88 6.72006 223.12 6.40006 223.2 5.96006L217.48 5.44006V8.40006H208.68L209 9.52006H217.48V11.6001H215.36L210.76 9.80006V20.3601H211.36C213.08 20.3601 215 19.5201 215.16 19.1201H217.48V21.0001C213.72 21.0401 210.6 21.0001 208.68 20.9601L210.92 24.8801C211.32 24.8001 211.72 24.5601 211.96 24.0401C218.16 23.2001 222.68 22.5601 225.96 22.0001C226.2 22.3201 226.4 22.6001 226.52 22.9201C226.88 23.3201 227.28 23.5201 227.68 23.6401L226.04 25.8001H225.6V24.4801C226.44 24.3601 226.84 24.0801 226.92 23.4801L221 23.0001V25.8001H208.2V4.80006H231.64V34.9201H208.2ZM233.8 0.84006L231.24 3.68006H208.64L202.8 1.36006V38.8401H203.72C206.04 38.8401 208.2 37.5201 208.2 36.8001V36.0401H231.64V38.3201H232.52C234.52 38.3201 237.04 37.0401 237.12 36.6401V5.68006C237.92 5.48006 238.44 5.16006 238.72 4.80006L233.8 0.84006Z" fill="#1E1E1E"/>
<path d="M268.36 2.32006C269.76 3.76006 271.32 6.12006 271.84 8.28006C276.76 11.2001 280.48 2.00006 268.64 2.08006L268.36 2.32006ZM250.8 12.1201C252.36 9.76006 253.76 7.08006 255 4.08006C255.96 4.12006 256.48 3.76006 256.64 3.24006L248.64 0.760058C247.12 8.68006 243.72 16.8001 240.32 21.8401L240.72 22.1601C242.8 20.8001 244.72 19.2801 246.48 17.4801V38.8001H247.56C249.76 38.8001 252.12 37.6001 252.16 37.2001V13.8401C252.96 13.7201 253.28 13.4401 253.44 13.0801L250.8 12.1201ZM278.68 25.7201L278.32 25.6401C277.44 27.4401 276.12 29.7601 275.36 30.8401C274.92 31.4801 274.6 31.4801 274 30.9201C269.24 27.2801 267.24 21.5601 266.48 14.9601L277.68 13.6401C278.24 13.5601 278.68 13.2801 278.76 12.8001C276.32 11.2401 272.52 9.16006 272.52 9.16006L269.8 13.4401L266.36 13.8401C266.04 10.5601 266 7.04006 266.08 3.48006C267.08 3.32006 267.44 2.84006 267.52 2.32006L260.24 1.44006C260.24 6.00006 260.36 10.4001 260.84 14.5201L253.08 15.4401L253.52 16.4801L260.96 15.6001C262 23.9201 264.6 31.1201 270.68 36.4401C272.68 38.1201 276.52 39.9601 278.68 37.8001C279.48 37.0001 279.28 35.5201 277.64 32.8001L278.68 25.7201Z" fill="#1E1E1E"/>
<path d="M312.28 18.6801C311.24 20.4801 309.12 23.2401 307.08 25.4401C305.24 23.6801 303.76 21.3201 302.72 18.2401H317.52C318.12 18.2401 318.56 18.0401 318.68 17.6001C316.8 15.8401 313.64 13.2401 313.64 13.2401L310.84 17.1201H302.92V12.3601H314.6C315.16 12.3601 315.6 12.1601 315.72 11.7201C313.96 10.0401 310.88 7.52006 310.88 7.52006L308.2 11.2401H302.92V6.80006H315.92C316.48 6.80006 316.92 6.60006 317.04 6.16006C315.24 4.44006 312.12 1.88006 312.12 1.88006L309.4 5.68006H302.92V2.28006C304.04 2.12006 304.32 1.72006 304.4 1.16006L297 0.560059V5.68006H283.48L283.8 6.80006H297V11.2401H285.48L285.8 12.3601H297V17.1201H281.56L281.88 18.2401H294.08C291.32 22.4401 286.48 27.0801 280.64 29.9201L280.84 30.3201C284.36 29.4801 287.68 28.3601 290.68 27.0401V31.1601C290.68 32.0001 290.36 32.4801 288.32 33.6001L291.88 39.3201C292.2 39.1201 292.56 38.8001 292.84 38.4001C298.08 35.2001 302.2 32.1601 304.36 30.4801L304.24 30.0801C301.6 30.7601 298.88 31.4001 296.52 31.9601V23.8401C298.72 22.3201 300.6 20.6401 302.04 18.8001C303.96 28.6001 307.72 34.5201 314.52 37.6401C314.76 34.9201 316.36 32.7201 319.04 31.2401L319.12 30.6401C315.08 30.0801 311.4 28.9201 308.4 26.6001C311.56 25.6801 314.72 24.4401 317 23.2801C317.92 23.4401 318.32 23.2001 318.52 22.8401L312.28 18.6801Z" fill="#1E1E1E"/>
</svg>
