<svg width="320" height="40" viewBox="0 0 320 40" fill="none" xmlns="http://www.w3.org/2000/svg">
<path d="M10.6396 13.6001H15.5596H15.7596V16.8801L11.6796 18.6801L12.4396 19.5601L15.7596 18.1201V24.4001C14.0396 24.8401 12.2796 25.2401 10.6396 25.6401V13.6001ZM36.7597 26.3601H36.3596C35.3596 29.0801 34.5597 31.0001 33.9597 31.8001C33.5597 32.2401 33.0797 32.4001 32.3997 32.4401C31.5996 32.4801 30.1596 32.5201 28.5197 32.5201H23.4796C21.6796 32.5201 21.1196 32.2001 21.1196 31.0801V15.7601L23.5196 14.7201V29.7601H24.4797C26.4797 29.7601 28.7597 28.6801 28.7597 28.2001V12.4401L31.6396 11.1601C31.6396 15.6801 31.2797 22.2401 30.6397 27.3201L31.0396 27.5601C33.7197 23.4001 35.8396 16.9601 36.9596 12.6001C37.8796 12.5201 38.2797 12.3601 38.5997 12.0001L34.1996 7.40006L31.8397 9.84006L28.7597 11.2001V2.56006C29.8797 2.40006 30.1596 2.00006 30.2397 1.44006L23.5196 0.80006V13.4801L21.1196 14.5601V8.48006C22.0797 8.36006 22.4797 7.92006 22.5196 7.40006L15.7596 6.72006V11.8801C14.5596 10.4001 13.0796 8.80006 13.0796 8.80006L11.0396 12.4801H10.6396V3.36006C11.7596 3.20006 12.0396 2.76006 12.1196 2.20006L5.15965 1.60006V12.4801H0.839648L1.15965 13.6001H5.15965V26.8801C3.23965 27.2801 1.63965 27.6001 0.639648 27.7601L3.67965 34.1601C4.19965 34.0001 4.59965 33.5601 4.79965 33.0001C10.0396 29.6001 13.5196 26.9201 15.7596 25.0001V32.4801C15.7596 36.6801 17.6397 37.5201 22.7997 37.5201H27.9997C36.8397 37.5201 39.1197 36.6401 39.1197 34.1601C39.1197 33.2001 38.5997 32.6001 36.9197 31.9601L36.7597 26.3601Z" fill="#1E1E1E"/>
<path d="M41.8797 6.08006H48.1196L48.5196 9.56006C51.1596 9.64006 53.2797 9.20006 54.0797 8.12006L53.7997 6.08006H59.7197C60.2797 6.08006 60.7197 5.88006 60.7997 5.44006C59.3197 3.92006 56.6796 1.68006 56.6796 1.68006L54.3596 4.96006H53.6796L53.3596 2.44006C54.1596 2.20006 54.4796 1.76006 54.4796 1.28006L47.5196 0.84006L47.9996 4.96006H41.5597L41.8797 6.08006ZM61.5196 31.2801V28.2401H62.0797C63.2397 28.2401 65.0396 27.5201 65.0797 27.2401V22.2001C65.3196 22.1601 65.4797 22.1201 65.6796 22.0401C66.1197 24.6401 66.7197 27.0801 67.6796 29.2801C67.1197 30.2001 66.5196 31.0401 65.9196 31.8401C64.6396 30.6401 62.9996 29.2801 62.9996 29.2801L61.5196 31.2801ZM57.1197 31.8801V27.2001H58.2397V31.8801H57.1197ZM57.1197 20.8001V16.3601H58.2397V20.8001H57.1197ZM61.4796 26.0801H57.1197V21.9201H61.4796V26.0801ZM64.5596 16.3601C64.7197 16.3601 64.8797 16.3601 64.9996 16.3201C65.1197 18.0001 65.2797 19.6001 65.5197 21.1601L62.7997 19.1601L61.5196 20.4801V16.3601H64.5596ZM46.5996 18.4001V12.0801C47.4396 11.9601 47.8396 11.7201 48.0396 11.4401V18.4001H46.5996ZM78.6796 27.9601L78.2796 27.8801C77.6796 29.4001 76.8396 31.2801 76.2796 32.2001C75.9596 32.8001 75.6796 32.8001 75.1997 32.3201C74.0396 31.3201 73.0797 30.0801 72.3596 28.6401C74.3596 25.5601 75.9197 21.8001 77.0797 17.2001C78.0396 17.2801 78.5197 16.9601 78.7197 16.4801L72.6796 14.3201C72.2796 17.6801 71.5197 20.7201 70.4797 23.4801C69.7597 20.2001 69.4797 16.5201 69.4397 12.6801H78.1597C78.7197 12.6801 79.1197 12.4801 79.2397 12.0401C77.7997 10.6001 75.2796 8.48006 75.2796 8.48006L73.0797 11.5601H69.4397V10.4001C69.8397 10.3201 70.1596 10.2001 70.3596 10.0801C70.3997 10.2801 70.4397 10.5201 70.4797 10.7201C73.7597 12.8401 76.8797 7.24006 70.2397 6.80006L70.3596 6.08006H77.3997C77.9596 6.08006 78.3596 5.88006 78.4797 5.44006C76.9596 3.92006 74.3196 1.68006 74.3196 1.68006L71.9996 4.96006H70.5597L70.8796 2.88006C71.9996 2.80006 72.3196 2.32006 72.3997 1.84006L65.5197 0.80006L64.8797 4.96006H61.0797L61.3997 6.08006H64.7197L64.3997 8.16006C66.2796 8.56006 68.1196 8.40006 69.3196 7.92006C69.5996 8.28006 69.8397 8.76006 70.0396 9.20006L64.7597 8.72006C64.7597 9.68006 64.7597 10.6401 64.7997 11.5601H53.1196L48.0396 9.72006V11.1201L42.7996 10.6001V18.0001C42.3196 18.3201 41.8396 18.7201 41.5597 19.0801L45.6396 21.6401L46.9197 19.5201H48.0396V20.0401C48.0396 21.0801 48.0396 22.1601 47.9996 23.2401H40.9596L41.3196 24.3601H43.0396C42.9996 28.1601 42.8396 32.4401 40.7596 36.2001L41.3196 36.7601C45.3196 33.4001 46.3997 28.6801 46.6796 24.3601H47.9996C47.8396 29.2001 47.3196 34.2801 45.1596 38.4801L45.5996 38.8001C52.0396 33.6401 52.3997 25.7601 52.3997 20.0401V12.6801H64.8397C64.8397 13.4801 64.8796 14.3201 64.9196 15.0801C63.7197 13.9601 62.1996 12.6801 62.1996 12.6801L60.3196 15.2401H57.6396L53.3196 13.1601V31.4801C52.8396 31.8001 52.3596 32.2001 52.0797 32.5201L56.1596 35.0801L57.4397 33.0001H64.9996C63.1996 35.0801 61.1996 36.8801 59.0396 38.4001L59.4397 38.8401C63.3196 37.2801 66.5596 35.2401 69.2796 32.4801C70.1996 34.0401 71.3596 35.4401 72.7197 36.6801C74.2796 38.0401 77.2397 39.4801 78.8397 37.6801C79.4397 37.0001 79.2396 35.8801 77.9996 33.8401L78.6796 27.9601Z" fill="#1E1E1E"/>
<path d="M106.92 12.8801C107.4 14.6001 108.04 16.0801 108.84 17.4001L107.32 19.0001H105.16V16.5601C106.08 16.4401 106.44 16.0401 106.52 15.5201L101.64 15.0801C102.24 14.4001 102.8 13.6801 103.32 12.8801H106.92ZM105.16 28.4401V24.8001H107.64V28.4401H105.16ZM97.3196 28.4401V24.8001H99.9196V28.4401H97.3196ZM97.8397 19.0001L97.4397 18.8401C98.3196 18.2401 99.1196 17.6001 99.9196 16.8401V19.0001H97.8397ZM99.9196 23.6801H97.3196V20.1201H99.9196V23.6801ZM107.64 23.6801H105.16V20.1201H107.64V23.6801ZM111.24 6.36006H103.8C105.96 4.76006 105.56 0.360059 97.4397 0.760058L97.1597 0.960061C98.3997 2.24006 99.7197 4.32006 100.08 6.32006L100.16 6.36006H89.9996L83.9596 4.28006V17.0001C83.9596 24.1201 83.8397 32.1601 80.7197 38.4801L81.1197 38.7601C88.8397 32.8801 89.1996 23.8401 89.1996 16.9601V7.48006H99.0797C98.6396 8.96006 98.0797 10.4001 97.4797 11.7601H89.7997L90.1197 12.8801H96.9196C94.8796 16.8401 92.1196 20.1201 89.2796 22.3201L89.5996 22.7201C90.5196 22.4001 91.3997 22.0801 92.2796 21.7201V32.6001H93.1996C95.7996 32.6001 97.3196 31.4801 97.3196 31.1201V29.5601H99.9196V33.2001C99.9196 36.6401 100.96 37.5601 105.2 37.5601H108.84C115.24 37.5601 117.12 36.7601 117.12 34.6401C117.12 33.7201 116.6 33.1201 115.16 32.5201L114.96 32.4401H114.56C114.2 32.6001 113.6 32.6801 113.2 32.7201C112.88 32.8001 112.24 32.8401 111.84 32.8401C111.36 32.8801 110.32 32.8801 109.44 32.8801H106.48C105.4 32.8801 105.16 32.6801 105.16 32.0001V29.5601H107.64V31.4801H108.52C110.16 31.4801 112.68 30.5601 112.68 30.2401V21.6401C113.24 22.0801 113.88 22.4801 114.52 22.8801C115.08 20.4401 116.28 18.8401 118.04 18.2801L118.08 17.8801C114.24 17.1201 110.16 15.6801 107.88 12.8801H116.04C116.6 12.8801 117.04 12.6801 117.16 12.2401C115.44 10.6001 112.48 8.20006 112.48 8.20006L109.92 11.7601H104.08C104.28 11.4401 104.48 11.0801 104.68 10.7201C105.6 10.8001 106.16 10.4801 106.36 9.96006L99.5596 7.48006H117.56C118.16 7.48006 118.6 7.28006 118.72 6.84006C116.92 5.16006 113.92 2.68006 113.92 2.68006L111.24 6.36006Z" fill="#1E1E1E"/>
<path d="M122.56 1.76006C124.08 3.28006 125.64 5.76006 126.12 8.08006C131.52 11.3601 135.72 1.16006 122.8 1.56006L122.56 1.76006ZM128.68 20.1601C129.8 18.3201 131.24 15.7601 132.12 14.1201C132.72 14.0801 133.24 14.0001 133.68 13.8801C133.28 14.8801 132.84 15.8401 132.44 16.6801L132.88 16.9601C133.76 16.3601 134.6 15.6801 135.4 14.9201V20.2001L131.88 17.4401L129.12 20.1601H128.68ZM141.56 8.40006L140.96 8.16006C141.76 6.88006 142.52 5.44006 143.24 3.96006C143.72 4.00006 144.12 3.88006 144.36 3.76006C144.76 5.00006 145.04 6.40006 145 7.68006C145.36 8.00006 145.72 8.24006 146.08 8.40006H141.56ZM143.84 15.0401H141V9.52006H143.84V15.0401ZM143.84 21.5601H141V16.1601H143.84V21.5601ZM143.84 28.8001H141V22.6801H143.84V28.8001ZM135.4 21.7601V31.8801H136.44C139.32 31.8801 141 30.6401 141 30.2801V29.9201H157.36C157.92 29.9201 158.4 29.7201 158.48 29.2801C156.6 27.6001 153.4 25.2001 153.4 25.2001L150.6 28.8001H149.32V22.6801H156.04C156.64 22.6801 157.08 22.4801 157.16 22.0401C155.4 20.4801 152.44 18.2401 152.44 18.2401L149.84 21.5601H149.32V16.1601H156.04C156.64 16.1601 157.08 15.9601 157.16 15.5201C155.4 13.9601 152.44 11.7201 152.44 11.7201L149.84 15.0401H149.32V9.52006H156.44C157 9.52006 157.44 9.32006 157.56 8.88006C155.72 7.32006 152.72 5.12006 152.72 5.12006L150.04 8.40006H148.32C150.68 7.28006 151.12 2.60006 143.48 0.64006L143.12 0.84006C143.48 1.44006 143.8 2.12006 144.08 2.88006L137.36 0.80006C136.64 4.96006 135.36 9.44006 134 13.0801L129.84 9.28006L127.52 11.6001H121.64L122 12.7201H127.28C126.36 14.6001 124.92 17.3201 123.72 19.1201C123.16 19.3601 122.6 19.6801 122.2 20.0001L126.68 22.8401L128.28 21.2801H129.32C128.64 24.2801 127.2 27.8001 125.6 30.3601C124.2 31.0801 122.36 32.1201 120.92 32.7201L124.6 38.2001C124.88 38.0401 125.08 37.8001 125 37.4001C125.8 35.2001 126.6 33.1201 127.2 31.8401C127.56 31.0001 128.04 30.9201 128.64 31.7601C131.96 35.9201 135.36 37.8001 144.28 37.8001H155.4C155.68 35.6001 157 33.4401 159.28 32.9201V32.4801C154.68 32.7601 150.88 32.8001 146.28 32.8001C137.08 32.8401 132.12 32.2401 129.12 30.1201C128.8 29.9601 128.56 29.8001 128.28 29.7201C131.36 27.4801 133.88 24.6001 135.24 21.7601H135.4Z" fill="#1E1E1E"/>
<path d="M185.96 23.8401V28.6001H173.84V23.8401H185.96ZM173.84 34.8801V29.7201H185.96V34.8801H173.84ZM197.6 11.6001C198.2 11.6001 198.64 11.4001 198.76 10.9601C196.84 9.36006 193.72 7.08006 193.72 7.08006L190.96 10.4801H182.72V6.48006C185.84 6.24006 188.72 5.92006 191.12 5.60006C192.48 6.16006 193.48 6.12006 193.96 5.72006L189.04 0.720059C183.44 2.76006 172.52 5.28006 164.08 6.44006L164.16 7.04006C168.24 7.12006 172.72 7.04006 177.04 6.80006V10.4801H161.32L161.64 11.6001H172.88C170.32 15.7601 165.96 20.2001 160.84 23.0401L161.12 23.4801C163.6 22.7601 165.96 21.8401 168.16 20.8401V38.7601H169C171.36 38.7601 173.84 37.5201 173.84 36.9601V36.0001H185.96V38.7201H186.96C188.84 38.7201 191.72 37.7201 191.76 37.4001V24.7601C192.6 24.6001 193.08 24.2001 193.32 23.8801L188.08 19.9201L185.56 22.7201H174.16L168.64 20.6001C171.88 19.0401 174.72 17.2001 177.04 15.0001V21.3601H178.08C181 21.3601 182.72 20.2001 182.72 19.9201V13.7201C186.72 15.8801 191.36 19.4001 193.88 22.4401C199.92 23.8801 200.6 12.8001 182.72 12.6401V11.6001H197.6Z" fill="#1E1E1E"/>
<path d="M224.48 19.1201V19.4001C224.12 19.3601 223.72 19.3601 223.28 19.3601L223.08 19.9201C223.84 20.2001 224.44 20.6001 224.96 21.0001H222.08V19.1201H224.48ZM222.08 15.8801H224.48V18.0001H222.08V15.8801ZM215.16 15.8801H217.48V18.0001H215.16V15.8801ZM217.48 14.7601H215.16V12.7201H217.48V14.7601ZM224.48 14.7601H222.08V12.7201H224.48V14.7601ZM208.2 34.9201V25.9201L208.48 26.9201H211.4C212.16 27.9201 212.84 29.4801 212.84 30.9201C216 33.4001 219.6 28.4401 214.28 26.9201H221V29.4401C221 29.8401 220.88 29.9601 220.44 29.9601C219.88 29.9601 217.36 29.8001 217.36 29.8001V30.3201C218.8 30.5601 219.32 31.0401 219.72 31.5201C220.12 32.1201 220.24 33.0001 220.28 34.2001C224.96 33.8001 225.6 32.4001 225.6 29.4401V26.9201H230.6C231.12 26.9201 231.52 26.7201 231.64 26.2801C230.72 25.4001 229.36 24.3201 228.6 23.7201C230.88 23.4801 232.64 20.3601 226.48 19.5601C227.68 19.3201 228.88 18.8401 228.92 18.6001V13.1201C229.48 13.0401 229.88 12.7601 230.04 12.5601L226.08 9.64006L224.16 11.6001H222.08V9.52006H229.92C230.48 9.52006 230.88 9.32006 231 8.88006C229.56 7.60006 227.28 5.84006 227.28 5.84006L225.24 8.40006H222.08V6.88006C222.88 6.72006 223.12 6.40006 223.2 5.96006L217.48 5.44006V8.40006H208.68L209 9.52006H217.48V11.6001H215.36L210.76 9.80006V20.3601H211.36C213.08 20.3601 215 19.5201 215.16 19.1201H217.48V21.0001C213.72 21.0401 210.6 21.0001 208.68 20.9601L210.92 24.8801C211.32 24.8001 211.72 24.5601 211.96 24.0401C218.16 23.2001 222.68 22.5601 225.96 22.0001C226.2 22.3201 226.4 22.6001 226.52 22.9201C226.88 23.3201 227.28 23.5201 227.68 23.6401L226.04 25.8001H225.6V24.4801C226.44 24.3601 226.84 24.0801 226.92 23.4801L221 23.0001V25.8001H208.2V4.80006H231.64V34.9201H208.2ZM233.8 0.84006L231.24 3.68006H208.64L202.8 1.36006V38.8401H203.72C206.04 38.8401 208.2 37.5201 208.2 36.8001V36.0401H231.64V38.3201H232.52C234.52 38.3201 237.04 37.0401 237.12 36.6401V5.68006C237.92 5.48006 238.44 5.16006 238.72 4.80006L233.8 0.84006Z" fill="#1E1E1E"/>
<path d="M268.36 2.32006C269.76 3.76006 271.32 6.12006 271.84 8.28006C276.76 11.2001 280.48 2.00006 268.64 2.08006L268.36 2.32006ZM250.8 12.1201C252.36 9.76006 253.76 7.08006 255 4.08006C255.96 4.12006 256.48 3.76006 256.64 3.24006L248.64 0.760058C247.12 8.68006 243.72 16.8001 240.32 21.8401L240.72 22.1601C242.8 20.8001 244.72 19.2801 246.48 17.4801V38.8001H247.56C249.76 38.8001 252.12 37.6001 252.16 37.2001V13.8401C252.96 13.7201 253.28 13.4401 253.44 13.0801L250.8 12.1201ZM278.68 25.7201L278.32 25.6401C277.44 27.4401 276.12 29.7601 275.36 30.8401C274.92 31.4801 274.6 31.4801 274 30.9201C269.24 27.2801 267.24 21.5601 266.48 14.9601L277.68 13.6401C278.24 13.5601 278.68 13.2801 278.76 12.8001C276.32 11.2401 272.52 9.16006 272.52 9.16006L269.8 13.4401L266.36 13.8401C266.04 10.5601 266 7.04006 266.08 3.48006C267.08 3.32006 267.44 2.84006 267.52 2.32006L260.24 1.44006C260.24 6.00006 260.36 10.4001 260.84 14.5201L253.08 15.4401L253.52 16.4801L260.96 15.6001C262 23.9201 264.6 31.1201 270.68 36.4401C272.68 38.1201 276.52 39.9601 278.68 37.8001C279.48 37.0001 279.28 35.5201 277.64 32.8001L278.68 25.7201Z" fill="#1E1E1E"/>
<path d="M312.28 18.6801C311.24 20.4801 309.12 23.2401 307.08 25.4401C305.24 23.6801 303.76 21.3201 302.72 18.2401H317.52C318.12 18.2401 318.56 18.0401 318.68 17.6001C316.8 15.8401 313.64 13.2401 313.64 13.2401L310.84 17.1201H302.92V12.3601H314.6C315.16 12.3601 315.6 12.1601 315.72 11.7201C313.96 10.0401 310.88 7.52006 310.88 7.52006L308.2 11.2401H302.92V6.80006H315.92C316.48 6.80006 316.92 6.60006 317.04 6.16006C315.24 4.44006 312.12 1.88006 312.12 1.88006L309.4 5.68006H302.92V2.28006C304.04 2.12006 304.32 1.72006 304.4 1.16006L297 0.560059V5.68006H283.48L283.8 6.80006H297V11.2401H285.48L285.8 12.3601H297V17.1201H281.56L281.88 18.2401H294.08C291.32 22.4401 286.48 27.0801 280.64 29.9201L280.84 30.3201C284.36 29.4801 287.68 28.3601 290.68 27.0401V31.1601C290.68 32.0001 290.36 32.4801 288.32 33.6001L291.88 39.3201C292.2 39.1201 292.56 38.8001 292.84 38.4001C298.08 35.2001 302.2 32.1601 304.36 30.4801L304.24 30.0801C301.6 30.7601 298.88 31.4001 296.52 31.9601V23.8401C298.72 22.3201 300.6 20.6401 302.04 18.8001C303.96 28.6001 307.72 34.5201 314.52 37.6401C314.76 34.9201 316.36 32.7201 319.04 31.2401L319.12 30.6401C315.08 30.0801 311.4 28.9201 308.4 26.6001C311.56 25.6801 314.72 24.4401 317 23.2801C317.92 23.4401 318.32 23.2001 318.52 22.8401L312.28 18.6801Z" fill="#1E1E1E"/>
</svg>
