<svg width="320" height="40" viewBox="0 0 320 40" fill="none" xmlns="http://www.w3.org/2000/svg">
<path d="M23.3998 33.2799C27.2398 34.7199 30.4798 36.7999 32.0798 38.0399C36.7598 41.3999 47.6398 32.9599 23.5598 32.8399L23.3998 33.2799ZM29.3998 20.8799H16.9998L11.7198 18.8399H31.3598L29.3998 20.8799ZM26.0798 30.1199V26.4399H29.7598V30.1199H26.0798ZM16.7198 26.4399H20.4798V30.1199H16.7198V26.4399ZM20.4798 25.3199H16.7198V21.9999H20.4798V25.3199ZM29.7598 21.9999V25.3199H26.0798V21.9999H29.7598ZM32.0798 17.7199H9.35981L9.6798 18.8399H11.3998V33.3599H12.1598C14.3198 33.3599 16.7198 32.2399 16.7198 31.7599V31.2399H18.1198C15.6398 33.5999 10.6798 36.6399 6.2398 38.3199L6.35981 38.7999C11.7998 38.2799 17.5198 36.9199 21.0798 35.3999C22.3598 35.7199 23.1598 35.5999 23.5598 35.1999L18.3198 31.2399H29.7598V32.5199H30.7598C32.5198 32.5199 35.3198 31.5599 35.3598 31.2399V22.6399C35.9998 22.5199 36.3998 22.2399 36.5998 21.9599L32.3598 18.8399H37.9998C38.5598 18.8399 38.9598 18.6399 39.0798 18.1999C37.3998 16.6799 34.5598 14.4799 34.5598 14.4799L32.0798 17.7199ZM25.0398 11.8799V14.4799H19.4398V11.8799H25.0398ZM14.5198 7.03991V10.7599H10.5198L10.8398 11.8799H14.5198V17.3999H15.5598C17.3198 17.3999 19.4398 16.9199 19.4398 16.7199V15.5999H25.0398V17.1999H26.0798C27.8398 17.1999 29.9598 16.6799 29.9598 16.4799V11.8799H36.4398C36.9998 11.8799 37.4398 11.6799 37.5198 11.2399C35.9198 9.75991 33.1998 7.67991 33.1998 7.67991L30.7998 10.7599H29.9598V8.43991C30.7998 8.31991 31.0398 7.95991 31.1198 7.55991L25.0398 6.99991V10.7599H19.4398V8.47991C20.2798 8.35991 20.5198 7.99991 20.5998 7.59991L14.5198 7.03991ZM31.9598 5.35991H23.5998C25.8798 3.75991 25.5598 -0.48009 17.5198 0.59991L17.2798 0.79991C18.2798 1.79991 19.3998 3.59991 19.6398 5.35991H10.1598L3.7598 3.19991V16.2799C3.7598 23.5199 3.7198 31.8399 0.799805 38.3199L1.1598 38.5999C9.03981 32.5599 9.31981 23.3199 9.31981 16.2799V6.47991H38.2798C38.8398 6.47991 39.2798 6.27991 39.3998 5.83991C37.6398 4.15991 34.6398 1.67991 34.6398 1.67991L31.9598 5.35991Z" fill="#1E1E1E"/>
<path d="M77.8798 5.31991C78.4398 5.31991 78.8798 5.11991 78.9998 4.67991C77.1598 3.03991 74.0398 0.59991 74.0398 0.59991L71.3198 4.19991H55.8798L56.1998 5.31991H77.8798ZM63.3998 15.6399V10.1199H70.4798V15.6399H63.3998ZM71.4398 18.2799C73.1598 18.2799 75.9198 17.3999 75.9598 17.1599V10.9999C76.7998 10.8399 77.3198 10.4799 77.5598 10.1599L72.4798 6.35991L70.0798 8.99991H63.5598L58.1998 6.95991V18.9199H58.9198C61.0398 18.9199 63.3998 17.7999 63.3998 17.3599V16.7599H70.4798V18.2799H71.4398ZM44.7998 0.879909C45.6398 2.51991 46.4398 4.79991 46.5198 6.99991C51.1198 10.9599 56.8798 2.35991 45.0798 0.719909L44.7998 0.879909ZM52.7198 6.71991L49.7998 9.51991H41.3598L41.7198 10.6399H50.0398C48.5198 15.8799 44.8798 22.0799 40.3198 26.4799L40.6398 26.7999C42.5198 25.8799 44.2798 24.7199 45.9598 23.4399V38.5999H46.9198C49.5998 38.5999 51.3198 37.3199 51.3198 36.9599V20.1599C51.7998 21.5999 52.1198 23.1599 52.1598 24.5999C55.4398 27.6799 59.5998 21.4799 51.5598 18.0399C53.2398 16.0399 54.6398 13.9599 55.6798 11.9199C56.6798 11.7999 57.1198 11.6799 57.4798 11.2799L52.7198 6.71991ZM69.1998 34.6399V28.6799H72.0798V34.6399H69.1998ZM61.5198 28.6799H64.5998V34.6399H61.5198V28.6799ZM64.5998 22.0399V27.5599H61.5198V22.0399H64.5998ZM72.0798 22.0399V27.5599H69.1998V22.0399H72.0798ZM74.0798 18.2399L71.6398 20.9199H61.7598L56.3198 18.7999V38.7599H57.0798C59.2798 38.7599 61.5198 37.5999 61.5198 37.0799V35.7599H72.0798V38.4399H72.9998C74.7598 38.4399 77.3998 37.4399 77.4398 37.1599V22.9199C78.2798 22.7599 78.8398 22.3999 79.0798 22.0799L74.0798 18.2399Z" fill="#1E1E1E"/>
<path d="M95.0798 18.5999V12.7599H105.16V18.5999H95.0798ZM107.96 26.8399V34.0399H92.0798V26.8399H107.96ZM113.96 3.83991L111.12 6.67991H102.16C104.64 5.03991 104.6 0.559908 95.8798 0.679909L95.6798 0.879909C96.8798 2.07991 97.5198 4.19991 97.2798 6.15991C97.5198 6.35991 97.7598 6.51991 97.9998 6.67991H87.8798C87.7198 5.91991 87.4798 5.11991 87.1598 4.27991H86.6798C86.5998 6.23991 84.7998 8.03991 83.3598 8.71991C81.9198 9.43991 80.9198 10.7599 81.3998 12.4799C82.0398 14.3199 84.3198 14.8799 85.7998 13.9199C87.3198 12.9599 88.3598 10.8399 88.0398 7.79991H111.52C111.4 8.99991 111.24 10.4399 111.04 11.7599L107.24 8.91991L104.76 11.6399H95.3198L89.4798 9.43991V22.3599H90.2398C92.5598 22.3599 95.0798 21.1599 95.0798 20.6799V19.7199H96.7598C96.7598 21.4399 96.6798 23.9199 96.5198 25.7199H92.4398L86.4798 23.4799V38.7199H87.2798C89.5598 38.7199 92.0798 37.4799 92.0798 36.9999V35.1599H107.96V38.3599H108.96C110.88 38.3599 113.6 37.2399 113.64 36.9199V27.7599C114.48 27.5599 115 27.1999 115.24 26.8799L110.08 22.9999L107.56 25.7199H98.7998C100.32 24.0399 102.08 21.5999 103.32 19.7199H105.16V21.9199H106.16C108.04 21.9199 110.8 20.8799 110.84 20.5199V13.6799L111 13.6399C111.76 13.4399 112.2 13.0799 112.44 12.7999C114.2 11.6399 116.08 10.1599 117.28 8.99991C118.12 8.91991 118.52 8.79991 118.84 8.43991L113.96 3.83991Z" fill="#1E1E1E"/>
<path d="M122.56 1.75991C124.08 3.27991 125.64 5.75991 126.12 8.07991C131.52 11.3599 135.72 1.15991 122.8 1.55991L122.56 1.75991ZM128.68 20.1599C129.8 18.3199 131.24 15.7599 132.12 14.1199C132.72 14.0799 133.24 13.9999 133.68 13.8799C133.28 14.8799 132.84 15.8399 132.44 16.6799L132.88 16.9599C133.76 16.3599 134.6 15.6799 135.4 14.9199V20.1999L131.88 17.4399L129.12 20.1599H128.68ZM141.56 8.39991L140.96 8.15991C141.76 6.87991 142.52 5.43991 143.24 3.95991C143.72 3.99991 144.12 3.87991 144.36 3.75991C144.76 4.99991 145.04 6.39991 145 7.67991C145.36 7.99991 145.72 8.23991 146.08 8.39991H141.56ZM143.84 15.0399H141V9.51991H143.84V15.0399ZM143.84 21.5599H141V16.1599H143.84V21.5599ZM143.84 28.7999H141V22.6799H143.84V28.7999ZM135.4 21.7599V31.8799H136.44C139.32 31.8799 141 30.6399 141 30.2799V29.9199H157.36C157.92 29.9199 158.4 29.7199 158.48 29.2799C156.6 27.5999 153.4 25.1999 153.4 25.1999L150.6 28.7999H149.32V22.6799H156.04C156.64 22.6799 157.08 22.4799 157.16 22.0399C155.4 20.4799 152.44 18.2399 152.44 18.2399L149.84 21.5599H149.32V16.1599H156.04C156.64 16.1599 157.08 15.9599 157.16 15.5199C155.4 13.9599 152.44 11.7199 152.44 11.7199L149.84 15.0399H149.32V9.51991H156.44C157 9.51991 157.44 9.31991 157.56 8.87991C155.72 7.31991 152.72 5.11991 152.72 5.11991L150.04 8.39991H148.32C150.68 7.27991 151.12 2.59991 143.48 0.63991L143.12 0.839909C143.48 1.43991 143.8 2.11991 144.08 2.87991L137.36 0.79991C136.64 4.95991 135.36 9.43991 134 13.0799L129.84 9.27991L127.52 11.5999H121.64L122 12.7199H127.28C126.36 14.5999 124.92 17.3199 123.72 19.1199C123.16 19.3599 122.6 19.6799 122.2 19.9999L126.68 22.8399L128.28 21.2799H129.32C128.64 24.2799 127.2 27.7999 125.6 30.3599C124.2 31.0799 122.36 32.1199 120.92 32.7199L124.6 38.1999C124.88 38.0399 125.08 37.7999 125 37.3999C125.8 35.1999 126.6 33.1199 127.2 31.8399C127.56 30.9999 128.04 30.9199 128.64 31.7599C131.96 35.9199 135.36 37.7999 144.28 37.7999H155.4C155.68 35.5999 157 33.4399 159.28 32.9199V32.4799C154.68 32.7599 150.88 32.7999 146.28 32.7999C137.08 32.8399 132.12 32.2399 129.12 30.1199C128.8 29.9599 128.56 29.7999 128.28 29.7199C131.36 27.4799 133.88 24.5999 135.24 21.7599H135.4Z" fill="#1E1E1E"/>
<path d="M185.96 23.8399V28.5999H173.84V23.8399H185.96ZM173.84 34.8799V29.7199H185.96V34.8799H173.84ZM197.6 11.5999C198.2 11.5999 198.64 11.3999 198.76 10.9599C196.84 9.35991 193.72 7.07991 193.72 7.07991L190.96 10.4799H182.72V6.47991C185.84 6.23991 188.72 5.91991 191.12 5.59991C192.48 6.15991 193.48 6.11991 193.96 5.71991L189.04 0.719909C183.44 2.75991 172.52 5.27991 164.08 6.43991L164.16 7.03991C168.24 7.11991 172.72 7.03991 177.04 6.79991V10.4799H161.32L161.64 11.5999H172.88C170.32 15.7599 165.96 20.1999 160.84 23.0399L161.12 23.4799C163.6 22.7599 165.96 21.8399 168.16 20.8399V38.7599H169C171.36 38.7599 173.84 37.5199 173.84 36.9599V35.9999H185.96V38.7199H186.96C188.84 38.7199 191.72 37.7199 191.76 37.3999V24.7599C192.6 24.5999 193.08 24.1999 193.32 23.8799L188.08 19.9199L185.56 22.7199H174.16L168.64 20.5999C171.88 19.0399 174.72 17.1999 177.04 14.9999V21.3599H178.08C181 21.3599 182.72 20.1999 182.72 19.9199V13.7199C186.72 15.8799 191.36 19.3999 193.88 22.4399C199.92 23.8799 200.6 12.7999 182.72 12.6399V11.5999H197.6Z" fill="#1E1E1E"/>
<path d="M224.48 19.1199V19.3999C224.12 19.3599 223.72 19.3599 223.28 19.3599L223.08 19.9199C223.84 20.1999 224.44 20.5999 224.96 20.9999H222.08V19.1199H224.48ZM222.08 15.8799H224.48V17.9999H222.08V15.8799ZM215.16 15.8799H217.48V17.9999H215.16V15.8799ZM217.48 14.7599H215.16V12.7199H217.48V14.7599ZM224.48 14.7599H222.08V12.7199H224.48V14.7599ZM208.2 34.9199V25.9199L208.48 26.9199H211.4C212.16 27.9199 212.84 29.4799 212.84 30.9199C216 33.3999 219.6 28.4399 214.28 26.9199H221V29.4399C221 29.8399 220.88 29.9599 220.44 29.9599C219.88 29.9599 217.36 29.7999 217.36 29.7999V30.3199C218.8 30.5599 219.32 31.0399 219.72 31.5199C220.12 32.1199 220.24 32.9999 220.28 34.1999C224.96 33.7999 225.6 32.3999 225.6 29.4399V26.9199H230.6C231.12 26.9199 231.52 26.7199 231.64 26.2799C230.72 25.3999 229.36 24.3199 228.6 23.7199C230.88 23.4799 232.64 20.3599 226.48 19.5599C227.68 19.3199 228.88 18.8399 228.92 18.5999V13.1199C229.48 13.0399 229.88 12.7599 230.04 12.5599L226.08 9.63991L224.16 11.5999H222.08V9.51991H229.92C230.48 9.51991 230.88 9.31991 231 8.87991C229.56 7.59991 227.28 5.83991 227.28 5.83991L225.24 8.39991H222.08V6.87991C222.88 6.71991 223.12 6.39991 223.2 5.95991L217.48 5.43991V8.39991H208.68L209 9.51991H217.48V11.5999H215.36L210.76 9.79991V20.3599H211.36C213.08 20.3599 215 19.5199 215.16 19.1199H217.48V20.9999C213.72 21.0399 210.6 20.9999 208.68 20.9599L210.92 24.8799C211.32 24.7999 211.72 24.5599 211.96 24.0399C218.16 23.1999 222.68 22.5599 225.96 21.9999C226.2 22.3199 226.4 22.5999 226.52 22.9199C226.88 23.3199 227.28 23.5199 227.68 23.6399L226.04 25.7999H225.6V24.4799C226.44 24.3599 226.84 24.0799 226.92 23.4799L221 22.9999V25.7999H208.2V4.79991H231.64V34.9199H208.2ZM233.8 0.839909L231.24 3.67991H208.64L202.8 1.35991V38.8399H203.72C206.04 38.8399 208.2 37.5199 208.2 36.7999V36.0399H231.64V38.3199H232.52C234.52 38.3199 237.04 37.0399 237.12 36.6399V5.67991C237.92 5.47991 238.44 5.15991 238.72 4.79991L233.8 0.839909Z" fill="#1E1E1E"/>
<path d="M268.36 2.31991C269.76 3.75991 271.32 6.11991 271.84 8.27991C276.76 11.1999 280.48 1.99991 268.64 2.07991L268.36 2.31991ZM250.8 12.1199C252.36 9.75991 253.76 7.07991 255 4.07991C255.96 4.11991 256.48 3.75991 256.64 3.23991L248.64 0.759908C247.12 8.67991 243.72 16.7999 240.32 21.8399L240.72 22.1599C242.8 20.7999 244.72 19.2799 246.48 17.4799V38.7999H247.56C249.76 38.7999 252.12 37.5999 252.16 37.1999V13.8399C252.96 13.7199 253.28 13.4399 253.44 13.0799L250.8 12.1199ZM278.68 25.7199L278.32 25.6399C277.44 27.4399 276.12 29.7599 275.36 30.8399C274.92 31.4799 274.6 31.4799 274 30.9199C269.24 27.2799 267.24 21.5599 266.48 14.9599L277.68 13.6399C278.24 13.5599 278.68 13.2799 278.76 12.7999C276.32 11.2399 272.52 9.15991 272.52 9.15991L269.8 13.4399L266.36 13.8399C266.04 10.5599 266 7.03991 266.08 3.47991C267.08 3.31991 267.44 2.83991 267.52 2.31991L260.24 1.43991C260.24 5.99991 260.36 10.3999 260.84 14.5199L253.08 15.4399L253.52 16.4799L260.96 15.5999C262 23.9199 264.6 31.1199 270.68 36.4399C272.68 38.1199 276.52 39.9599 278.68 37.7999C279.48 36.9999 279.28 35.5199 277.64 32.7999L278.68 25.7199Z" fill="#1E1E1E"/>
<path d="M312.28 18.6799C311.24 20.4799 309.12 23.2399 307.08 25.4399C305.24 23.6799 303.76 21.3199 302.72 18.2399H317.52C318.12 18.2399 318.56 18.0399 318.68 17.5999C316.8 15.8399 313.64 13.2399 313.64 13.2399L310.84 17.1199H302.92V12.3599H314.6C315.16 12.3599 315.6 12.1599 315.72 11.7199C313.96 10.0399 310.88 7.51991 310.88 7.51991L308.2 11.2399H302.92V6.79991H315.92C316.48 6.79991 316.92 6.59991 317.04 6.15991C315.24 4.43991 312.12 1.87991 312.12 1.87991L309.4 5.67991H302.92V2.27991C304.04 2.11991 304.32 1.71991 304.4 1.15991L297 0.559908V5.67991H283.48L283.8 6.79991H297V11.2399H285.48L285.8 12.3599H297V17.1199H281.56L281.88 18.2399H294.08C291.32 22.4399 286.48 27.0799 280.64 29.9199L280.84 30.3199C284.36 29.4799 287.68 28.3599 290.68 27.0399V31.1599C290.68 31.9999 290.36 32.4799 288.32 33.5999L291.88 39.3199C292.2 39.1199 292.56 38.7999 292.84 38.3999C298.08 35.1999 302.2 32.1599 304.36 30.4799L304.24 30.0799C301.6 30.7599 298.88 31.3999 296.52 31.9599V23.8399C298.72 22.3199 300.6 20.6399 302.04 18.7999C303.96 28.5999 307.72 34.5199 314.52 37.6399C314.76 34.9199 316.36 32.7199 319.04 31.2399L319.12 30.6399C315.08 30.0799 311.4 28.9199 308.4 26.5999C311.56 25.6799 314.72 24.4399 317 23.2799C317.92 23.4399 318.32 23.1999 318.52 22.8399L312.28 18.6799Z" fill="#1E1E1E"/>
</svg>
