<svg width="319" height="40" viewBox="0 0 319 40" fill="none" xmlns="http://www.w3.org/2000/svg">
<path d="M14.0801 1.12006C15.8401 3.00006 17.4401 5.92006 17.9201 8.68006C23.5601 12.5201 28.3201 1.56006 14.3201 0.920059L14.0801 1.12006ZM24.4801 11.2401C23.8401 16.4801 22.2001 21.2801 19.1601 25.4801C14.7601 22.1201 11.3601 17.5601 9.60008 11.2401H24.4801ZM36.4001 11.2401C37.0001 11.2401 37.4401 11.0401 37.5601 10.6001C35.4801 8.64006 31.8401 5.72006 31.8401 5.72006L28.6001 10.1201H0.480078L0.800078 11.2401H8.92008C10.2801 18.8801 12.8401 24.5201 16.3601 28.8001C12.5201 32.7201 7.20008 35.9601 0.0800781 38.3601L0.240078 38.7601C8.28008 37.4001 14.4801 35.0001 19.1601 31.6801C22.7201 34.8801 27.0401 37.1201 32.0001 38.8401C33.0401 35.9201 35.0801 34.0801 38.0001 33.6401L38.1201 33.1601C32.8401 32.1201 27.7601 30.5601 23.3201 28.1601C27.7601 23.5601 30.2801 17.8401 31.4801 11.2401H36.4001Z" fill="#1E1E1E"/>
<path d="M65.5201 4.96006V9.72006H52.6401V4.96006H65.5201ZM52.6401 15.7601V10.8401H65.5201V15.7601H52.6401ZM52.6401 16.8801H65.5201V19.3201H66.6001C68.6801 19.3201 71.6401 18.0801 71.6801 17.7201V5.92006C72.5201 5.76006 73.0001 5.36006 73.2401 5.04006L67.8001 0.920059L65.1201 3.84006H52.9601L46.5201 1.40006V19.7201H47.4001C49.9201 19.7201 52.6401 18.4001 52.6401 17.8001V16.8801ZM49.5601 34.1601V28.8801H68.5601V34.1601H49.5601ZM68.5601 22.6401V27.7601H49.5601V22.6401H68.5601ZM70.8401 18.5601L68.1601 21.5201H49.9601L43.4401 19.0401V38.7201H44.3201C46.8401 38.7201 49.5601 37.3601 49.5601 36.7601V35.2801H68.5601V38.3601H69.6001C71.6401 38.3601 74.6801 37.3201 74.7201 37.0001V23.6001C75.5601 23.4401 76.0401 23.0401 76.2801 22.7201L70.8401 18.5601Z" fill="#1E1E1E"/>
<path d="M84.0001 0.84006C84.8401 2.52006 85.6801 4.88006 85.7201 7.12006C90.3601 11.1601 96.1601 2.48006 84.2801 0.680059L84.0001 0.84006ZM96.6401 11.8001H109.72C110.28 11.8001 110.68 11.6001 110.8 11.1601C109.24 9.68006 106.6 7.48006 106.6 7.48006L104.28 10.6801H96.3601L92.2401 6.68006L89.2801 9.52006H80.4001L80.7601 10.6401H89.4801C87.9201 16.0001 84.2001 22.5601 79.6801 27.1601L80.0001 27.4801C81.9201 26.4801 83.7201 25.2401 85.4401 23.8401V38.6001H86.4801C89.2401 38.6001 91.0001 37.2801 91.0001 36.9601V20.4001C91.5601 21.9601 91.9601 23.6801 92.0001 25.2801C95.7201 28.7601 100.4 21.6401 91.0001 18.4001V18.3601C92.7601 16.2401 94.2001 14.0801 95.2801 11.9601C95.9201 11.9201 96.3201 11.8401 96.6001 11.6801L96.6401 11.8001ZM103.92 17.0401V25.7601H101.2V17.0401H103.92ZM103.92 26.8801V29.2401H104.72C106.2 29.2401 108.4 28.3201 108.44 28.0401V17.5201C109.04 17.4001 109.44 17.1201 109.64 16.8801L105.56 13.8401L103.6 15.9201H101.36L96.8001 14.0801V30.6801H97.4401C99.3201 30.6801 101.2 29.7201 101.2 29.2801V26.8801H103.92ZM113 1.52006L110.6 4.28006H96.4001L96.7601 5.40006H111V32.6801C111 33.3201 110.8 33.6401 110.04 33.6401C108.92 33.6401 103.24 33.2801 103.24 33.2801V33.8001C105.88 34.2001 106.88 34.7601 107.76 35.4401C108.64 36.1601 108.92 37.2801 109.12 38.8001C115.44 38.3201 116.4 36.4801 116.4 33.1201V6.28006C117.2 6.08006 117.72 5.76006 118 5.40006L113 1.52006Z" fill="#1E1E1E"/>
<path d="M121.56 1.76006C123.08 3.28006 124.64 5.76006 125.12 8.08006C130.52 11.3601 134.72 1.16006 121.8 1.56006L121.56 1.76006ZM127.68 20.1601C128.8 18.3201 130.24 15.7601 131.12 14.1201C131.72 14.0801 132.24 14.0001 132.68 13.8801C132.28 14.8801 131.84 15.8401 131.44 16.6801L131.88 16.9601C132.76 16.3601 133.6 15.6801 134.4 14.9201V20.2001L130.88 17.4401L128.12 20.1601H127.68ZM140.56 8.40006L139.96 8.16006C140.76 6.88006 141.52 5.44006 142.24 3.96006C142.72 4.00006 143.12 3.88006 143.36 3.76006C143.76 5.00006 144.04 6.40006 144 7.68006C144.36 8.00006 144.72 8.24006 145.08 8.40006H140.56ZM142.84 15.0401H140V9.52006H142.84V15.0401ZM142.84 21.5601H140V16.1601H142.84V21.5601ZM142.84 28.8001H140V22.6801H142.84V28.8001ZM134.4 21.7601V31.8801H135.44C138.32 31.8801 140 30.6401 140 30.2801V29.9201H156.36C156.92 29.9201 157.4 29.7201 157.48 29.2801C155.6 27.6001 152.4 25.2001 152.4 25.2001L149.6 28.8001H148.32V22.6801H155.04C155.64 22.6801 156.08 22.4801 156.16 22.0401C154.4 20.4801 151.44 18.2401 151.44 18.2401L148.84 21.5601H148.32V16.1601H155.04C155.64 16.1601 156.08 15.9601 156.16 15.5201C154.4 13.9601 151.44 11.7201 151.44 11.7201L148.84 15.0401H148.32V9.52006H155.44C156 9.52006 156.44 9.32006 156.56 8.88006C154.72 7.32006 151.72 5.12006 151.72 5.12006L149.04 8.40006H147.32C149.68 7.28006 150.12 2.60006 142.48 0.64006L142.12 0.84006C142.48 1.44006 142.8 2.12006 143.08 2.88006L136.36 0.80006C135.64 4.96006 134.36 9.44006 133 13.0801L128.84 9.28006L126.52 11.6001H120.64L121 12.7201H126.28C125.36 14.6001 123.92 17.3201 122.72 19.1201C122.16 19.3601 121.6 19.6801 121.2 20.0001L125.68 22.8401L127.28 21.2801H128.32C127.64 24.2801 126.2 27.8001 124.6 30.3601C123.2 31.0801 121.36 32.1201 119.92 32.7201L123.6 38.2001C123.88 38.0401 124.08 37.8001 124 37.4001C124.8 35.2001 125.6 33.1201 126.2 31.8401C126.56 31.0001 127.04 30.9201 127.64 31.7601C130.96 35.9201 134.36 37.8001 143.28 37.8001H154.4C154.68 35.6001 156 33.4401 158.28 32.9201V32.4801C153.68 32.7601 149.88 32.8001 145.28 32.8001C136.08 32.8401 131.12 32.2401 128.12 30.1201C127.8 29.9601 127.56 29.8001 127.28 29.7201C130.36 27.4801 132.88 24.6001 134.24 21.7601H134.4Z" fill="#1E1E1E"/>
<path d="M184.96 23.8401V28.6001H172.84V23.8401H184.96ZM172.84 34.8801V29.7201H184.96V34.8801H172.84ZM196.6 11.6001C197.2 11.6001 197.64 11.4001 197.76 10.9601C195.84 9.36006 192.72 7.08006 192.72 7.08006L189.96 10.4801H181.72V6.48006C184.84 6.24006 187.72 5.92006 190.12 5.60006C191.48 6.16006 192.48 6.12006 192.96 5.72006L188.04 0.720059C182.44 2.76006 171.52 5.28006 163.08 6.44006L163.16 7.04006C167.24 7.12006 171.72 7.04006 176.04 6.80006V10.4801H160.32L160.64 11.6001H171.88C169.32 15.7601 164.96 20.2001 159.84 23.0401L160.12 23.4801C162.6 22.7601 164.96 21.8401 167.16 20.8401V38.7601H168C170.36 38.7601 172.84 37.5201 172.84 36.9601V36.0001H184.96V38.7201H185.96C187.84 38.7201 190.72 37.7201 190.76 37.4001V24.7601C191.6 24.6001 192.08 24.2001 192.32 23.8801L187.08 19.9201L184.56 22.7201H173.16L167.64 20.6001C170.88 19.0401 173.72 17.2001 176.04 15.0001V21.3601H177.08C180 21.3601 181.72 20.2001 181.72 19.9201V13.7201C185.72 15.8801 190.36 19.4001 192.88 22.4401C198.92 23.8801 199.6 12.8001 181.72 12.6401V11.6001H196.6Z" fill="#1E1E1E"/>
<path d="M223.48 19.1201V19.4001C223.12 19.3601 222.72 19.3601 222.28 19.3601L222.08 19.9201C222.84 20.2001 223.44 20.6001 223.96 21.0001H221.08V19.1201H223.48ZM221.08 15.8801H223.48V18.0001H221.08V15.8801ZM214.16 15.8801H216.48V18.0001H214.16V15.8801ZM216.48 14.7601H214.16V12.7201H216.48V14.7601ZM223.48 14.7601H221.08V12.7201H223.48V14.7601ZM207.2 34.9201V25.9201L207.48 26.9201H210.4C211.16 27.9201 211.84 29.4801 211.84 30.9201C215 33.4001 218.6 28.4401 213.28 26.9201H220V29.4401C220 29.8401 219.88 29.9601 219.44 29.9601C218.88 29.9601 216.36 29.8001 216.36 29.8001V30.3201C217.8 30.5601 218.32 31.0401 218.72 31.5201C219.12 32.1201 219.24 33.0001 219.28 34.2001C223.96 33.8001 224.6 32.4001 224.6 29.4401V26.9201H229.6C230.12 26.9201 230.52 26.7201 230.64 26.2801C229.72 25.4001 228.36 24.3201 227.6 23.7201C229.88 23.4801 231.64 20.3601 225.48 19.5601C226.68 19.3201 227.88 18.8401 227.92 18.6001V13.1201C228.48 13.0401 228.88 12.7601 229.04 12.5601L225.08 9.64006L223.16 11.6001H221.08V9.52006H228.92C229.48 9.52006 229.88 9.32006 230 8.88006C228.56 7.60006 226.28 5.84006 226.28 5.84006L224.24 8.40006H221.08V6.88006C221.88 6.72006 222.12 6.40006 222.2 5.96006L216.48 5.44006V8.40006H207.68L208 9.52006H216.48V11.6001H214.36L209.76 9.80006V20.3601H210.36C212.08 20.3601 214 19.5201 214.16 19.1201H216.48V21.0001C212.72 21.0401 209.6 21.0001 207.68 20.9601L209.92 24.8801C210.32 24.8001 210.72 24.5601 210.96 24.0401C217.16 23.2001 221.68 22.5601 224.96 22.0001C225.2 22.3201 225.4 22.6001 225.52 22.9201C225.88 23.3201 226.28 23.5201 226.68 23.6401L225.04 25.8001H224.6V24.4801C225.44 24.3601 225.84 24.0801 225.92 23.4801L220 23.0001V25.8001H207.2V4.80006H230.64V34.9201H207.2ZM232.8 0.84006L230.24 3.68006H207.64L201.8 1.36006V38.8401H202.72C205.04 38.8401 207.2 37.5201 207.2 36.8001V36.0401H230.64V38.3201H231.52C233.52 38.3201 236.04 37.0401 236.12 36.6401V5.68006C236.92 5.48006 237.44 5.16006 237.72 4.80006L232.8 0.84006Z" fill="#1E1E1E"/>
<path d="M267.36 2.32006C268.76 3.76006 270.32 6.12006 270.84 8.28006C275.76 11.2001 279.48 2.00006 267.64 2.08006L267.36 2.32006ZM249.8 12.1201C251.36 9.76006 252.76 7.08006 254 4.08006C254.96 4.12006 255.48 3.76006 255.64 3.24006L247.64 0.760058C246.12 8.68006 242.72 16.8001 239.32 21.8401L239.72 22.1601C241.8 20.8001 243.72 19.2801 245.48 17.4801V38.8001H246.56C248.76 38.8001 251.12 37.6001 251.16 37.2001V13.8401C251.96 13.7201 252.28 13.4401 252.44 13.0801L249.8 12.1201ZM277.68 25.7201L277.32 25.6401C276.44 27.4401 275.12 29.7601 274.36 30.8401C273.92 31.4801 273.6 31.4801 273 30.9201C268.24 27.2801 266.24 21.5601 265.48 14.9601L276.68 13.6401C277.24 13.5601 277.68 13.2801 277.76 12.8001C275.32 11.2401 271.52 9.16006 271.52 9.16006L268.8 13.4401L265.36 13.8401C265.04 10.5601 265 7.04006 265.08 3.48006C266.08 3.32006 266.44 2.84006 266.52 2.32006L259.24 1.44006C259.24 6.00006 259.36 10.4001 259.84 14.5201L252.08 15.4401L252.52 16.4801L259.96 15.6001C261 23.9201 263.6 31.1201 269.68 36.4401C271.68 38.1201 275.52 39.9601 277.68 37.8001C278.48 37.0001 278.28 35.5201 276.64 32.8001L277.68 25.7201Z" fill="#1E1E1E"/>
<path d="M311.28 18.6801C310.24 20.4801 308.12 23.2401 306.08 25.4401C304.24 23.6801 302.76 21.3201 301.72 18.2401H316.52C317.12 18.2401 317.56 18.0401 317.68 17.6001C315.8 15.8401 312.64 13.2401 312.64 13.2401L309.84 17.1201H301.92V12.3601H313.6C314.16 12.3601 314.6 12.1601 314.72 11.7201C312.96 10.0401 309.88 7.52006 309.88 7.52006L307.2 11.2401H301.92V6.80006H314.92C315.48 6.80006 315.92 6.60006 316.04 6.16006C314.24 4.44006 311.12 1.88006 311.12 1.88006L308.4 5.68006H301.92V2.28006C303.04 2.12006 303.32 1.72006 303.4 1.16006L296 0.560059V5.68006H282.48L282.8 6.80006H296V11.2401H284.48L284.8 12.3601H296V17.1201H280.56L280.88 18.2401H293.08C290.32 22.4401 285.48 27.0801 279.64 29.9201L279.84 30.3201C283.36 29.4801 286.68 28.3601 289.68 27.0401V31.1601C289.68 32.0001 289.36 32.4801 287.32 33.6001L290.88 39.3201C291.2 39.1201 291.56 38.8001 291.84 38.4001C297.08 35.2001 301.2 32.1601 303.36 30.4801L303.24 30.0801C300.6 30.7601 297.88 31.4001 295.52 31.9601V23.8401C297.72 22.3201 299.6 20.6401 301.04 18.8001C302.96 28.6001 306.72 34.5201 313.52 37.6401C313.76 34.9201 315.36 32.7201 318.04 31.2401L318.12 30.6401C314.08 30.0801 310.4 28.9201 307.4 26.6001C310.56 25.6801 313.72 24.4401 316 23.2801C316.92 23.4401 317.32 23.2001 317.52 22.8401L311.28 18.6801Z" fill="#1E1E1E"/>
</svg>
