<svg width="320" height="40" viewBox="0 0 320 40" fill="none" xmlns="http://www.w3.org/2000/svg">
<path d="M21.1198 7.36003C21.7198 7.36003 22.1598 7.16003 22.2798 6.72003C20.3598 5.00003 17.1598 2.44003 17.1598 2.44003L14.2798 6.24003H5.03984L5.35984 7.36003H21.1198ZM38.7198 25.4L38.3198 25.32C37.4798 27.08 36.2798 29.32 35.5598 30.4C35.1598 31.08 34.8798 31.08 34.3598 30.52C30.1998 26.6 28.7598 20.28 28.3598 13H37.7598C38.3598 13 38.8398 12.8 38.9598 12.36C37.5198 11.16 35.3998 9.60003 34.1998 8.72003C37.6798 8.60003 39.1198 2.44003 29.6798 2.68003L29.3998 2.88003C30.4798 4.16003 31.7598 6.20003 32.1598 8.12003C32.3998 8.28003 32.6398 8.40003 32.8798 8.48003L30.1198 11.88H28.2798C28.1598 8.96003 28.1998 5.92003 28.2798 2.84003C29.3198 2.68003 29.6398 2.20003 29.6798 1.68003L22.3598 0.96003C22.3598 4.76003 22.3998 8.40003 22.5998 11.88H1.23984L1.55984 13H22.6798C22.9198 16.28 23.2798 19.4 23.9598 22.32C22.3598 20.72 19.9198 18.44 19.9198 18.44L17.4798 22.16H17.4398V15.4C18.3998 15.24 18.6798 14.88 18.7198 14.36L11.9598 13.8V31.36L9.63984 31.64V19.08C10.4798 18.92 10.7198 18.6 10.7998 18.16L4.63984 17.64V32.2C3.11984 32.36 1.79984 32.48 0.839844 32.56L3.95984 38.88C4.43984 38.76 4.87984 38.4 5.15984 37.88C15.0798 34.56 21.3598 32.12 25.4398 30.12L25.3998 29.64C22.6798 30 19.9998 30.36 17.4398 30.68V23.28H23.1598C23.5598 23.28 23.8798 23.16 24.0798 22.96C25.2798 27.96 27.3198 32.44 30.7598 36.12C32.4398 37.84 36.0798 39.96 38.4798 37.96C39.3598 37.2 39.1198 35.48 37.6798 32.6L38.7198 25.4Z" fill="#1E1E1E"/>
<path d="M49.6798 12.92H54.0398V15.84L49.6798 15.96V12.92ZM54.0398 4.64003V7.80003H49.6798V4.64003H54.0398ZM49.6798 8.92003H54.0398V11.8H49.6798V8.92003ZM71.1999 6.16003V15.92H67.1998V6.16003H71.1999ZM43.2398 21.4C43.6798 21.36 44.1198 21.08 44.3998 20.52C48.3998 19.36 51.5598 18.4 54.0398 17.56V21.4H54.9598C57.5598 21.4 59.0798 20.56 59.1198 20.32V4.64003H61.0398C61.4398 4.64003 61.7998 4.52003 61.9998 4.32003V19.64H62.9598C65.5998 19.64 67.1998 18.52 67.1998 18.2V17.04H71.1999V18.36H72.1199C73.7999 18.36 76.4398 17.44 76.5199 17.16V7.04003C77.3199 6.84003 77.8399 6.48003 78.1199 6.16003L73.1599 2.44003L70.7999 5.04003H67.7598L61.9998 2.92003V3.88003C60.1998 2.36003 57.4398 0.280029 57.4398 0.280029L54.8398 3.52003H41.0798L41.3998 4.64003H44.6798V16.04C43.1598 16.04 41.9198 16.04 40.9998 16.04L43.2398 21.4ZM70.6798 35.84H62.9598V30.32H74.1998C74.7998 30.32 75.1999 30.12 75.3198 29.68C73.5199 28.12 70.5599 25.88 70.5599 25.88L67.9198 29.2H62.9598V24.08C66.2398 23.88 69.2799 23.64 71.7999 23.32C73.1599 23.92 74.1598 23.88 74.6398 23.48L69.6798 18.32C64.3198 20.28 53.9198 22.6 45.7598 23.56L45.8398 24.16C49.3998 24.36 53.2798 24.36 57.0798 24.28V29.2H45.5598L45.8798 30.32H57.0798V35.84H41.9598L42.2798 36.96H77.5999C78.1599 36.96 78.6398 36.76 78.7198 36.32C76.7999 34.64 73.5199 32.16 73.5199 32.16L70.6798 35.84Z" fill="#1E1E1E"/>
<path d="M112.28 25.64V32.28C112.28 32.8 112.12 33.08 111.52 33.08C111 33.08 109.24 32.96 108.08 32.92C109.44 30.8 109.76 28.36 109.84 25.64H112.28ZM112.28 11.2V17.24H109.84V11.2H112.28ZM109.84 18.36H112.28V24.52H109.84V24.4V18.36ZM99.4398 30.56H99.0798V27.24H99.6798C101.64 27.24 103.12 26.24 103.16 26V18.56C103.8 18.48 104.32 18.16 104.6 17.88L100.96 14.76L99.0798 16.72V13.32H103.96C104.44 13.32 104.8 13.16 104.96 12.88V24.44C104.96 26.68 104.88 28.68 104.52 30.48C103.16 29.28 101.48 27.96 101.48 27.96L99.4398 30.56ZM94.3598 21V17.88H98.8799V21H94.3598ZM94.3598 25.24V22.12H98.8799V25.24H94.3598ZM111.88 10.08H110.56L104.96 8.12003V12.6C103.56 11.24 101.32 9.40003 101.32 9.40003L99.2798 12.2H99.0798V9.16003C99.9198 9.00003 100.16 8.68003 100.2 8.24003L94.0798 7.72003V12.2H89.0798L89.3998 13.32H94.0798V16.6L90.1999 15.04V27.8H90.7999C92.1199 27.8 93.5199 27.28 94.0798 26.84V30.56H88.5199L88.8399 31.68H94.0798V37.88H94.9998C97.5598 37.88 99.0798 36.96 99.0798 36.76V31.68H104.08H104.24C103.48 34.2 102.04 36.32 99.2398 38.12L99.5998 38.48C103.68 37.12 106.16 35.48 107.64 33.52C109.08 33.84 109.76 34.36 110.28 35.04C110.84 35.76 111.04 37 111.12 38.6C116.6 38.12 117.32 36.24 117.32 32.84V12.04C118.16 11.88 118.68 11.52 118.96 11.2L114.16 7.48003L111.88 10.08ZM111.8 5.76003H103.88C105.72 4.12003 105.08 0.24003 97.6398 0.760028L97.3598 1.00003C98.4799 2.08003 99.7198 3.96003 100.12 5.76003H89.3198L83.5198 3.76003V21.8C83.5198 28.2 83.5998 34 81.0398 38.32L81.4398 38.6C88.3998 34.16 88.5598 28.28 88.5598 21.8V6.88003H118.04C118.64 6.88003 119.04 6.68003 119.16 6.24003C117.44 4.60003 114.44 2.12003 114.44 2.12003L111.8 5.76003Z" fill="#1E1E1E"/>
<path d="M122.56 1.76003C124.08 3.28003 125.64 5.76003 126.12 8.08003C131.52 11.36 135.72 1.16003 122.8 1.56003L122.56 1.76003ZM128.68 20.16C129.8 18.32 131.24 15.76 132.12 14.12C132.72 14.08 133.24 14 133.68 13.88C133.28 14.88 132.84 15.84 132.44 16.68L132.88 16.96C133.76 16.36 134.6 15.68 135.4 14.92V20.2L131.88 17.44L129.12 20.16H128.68ZM141.56 8.40003L140.96 8.16003C141.76 6.88003 142.52 5.44003 143.24 3.96003C143.72 4.00003 144.12 3.88003 144.36 3.76003C144.76 5.00003 145.04 6.40003 145 7.68003C145.36 8.00003 145.72 8.24003 146.08 8.40003H141.56ZM143.84 15.04H141V9.52003H143.84V15.04ZM143.84 21.56H141V16.16H143.84V21.56ZM143.84 28.8H141V22.68H143.84V28.8ZM135.4 21.76V31.88H136.44C139.32 31.88 141 30.64 141 30.28V29.92H157.36C157.92 29.92 158.4 29.72 158.48 29.28C156.6 27.6 153.4 25.2 153.4 25.2L150.6 28.8H149.32V22.68H156.04C156.64 22.68 157.08 22.48 157.16 22.04C155.4 20.48 152.44 18.24 152.44 18.24L149.84 21.56H149.32V16.16H156.04C156.64 16.16 157.08 15.96 157.16 15.52C155.4 13.96 152.44 11.72 152.44 11.72L149.84 15.04H149.32V9.52003H156.44C157 9.52003 157.44 9.32003 157.56 8.88003C155.72 7.32003 152.72 5.12003 152.72 5.12003L150.04 8.40003H148.32C150.68 7.28003 151.12 2.60003 143.48 0.640029L143.12 0.840029C143.48 1.44003 143.8 2.12003 144.08 2.88003L137.36 0.80003C136.64 4.96003 135.36 9.44003 134 13.08L129.84 9.28003L127.52 11.6H121.64L122 12.72H127.28C126.36 14.6 124.92 17.32 123.72 19.12C123.16 19.36 122.6 19.68 122.2 20L126.68 22.84L128.28 21.28H129.32C128.64 24.28 127.2 27.8 125.6 30.36C124.2 31.08 122.36 32.12 120.92 32.72L124.6 38.2C124.88 38.04 125.08 37.8 125 37.4C125.8 35.2 126.6 33.12 127.2 31.84C127.56 31 128.04 30.92 128.64 31.76C131.96 35.92 135.36 37.8 144.28 37.8H155.4C155.68 35.6 157 33.44 159.28 32.92V32.48C154.68 32.76 150.88 32.8 146.28 32.8C137.08 32.84 132.12 32.24 129.12 30.12C128.8 29.96 128.56 29.8 128.28 29.72C131.36 27.48 133.88 24.6 135.24 21.76H135.4Z" fill="#1E1E1E"/>
<path d="M185.96 23.84V28.6H173.84V23.84H185.96ZM173.84 34.88V29.72H185.96V34.88H173.84ZM197.6 11.6C198.2 11.6 198.64 11.4 198.76 10.96C196.84 9.36003 193.72 7.08003 193.72 7.08003L190.96 10.48H182.72V6.48003C185.84 6.24003 188.72 5.92003 191.12 5.60003C192.48 6.16003 193.48 6.12003 193.96 5.72003L189.04 0.720028C183.44 2.76003 172.52 5.28003 164.08 6.44003L164.16 7.04003C168.24 7.12003 172.72 7.04003 177.04 6.80003V10.48H161.32L161.64 11.6H172.88C170.32 15.76 165.96 20.2 160.84 23.04L161.12 23.48C163.6 22.76 165.96 21.84 168.16 20.84V38.76H169C171.36 38.76 173.84 37.52 173.84 36.96V36H185.96V38.72H186.96C188.84 38.72 191.72 37.72 191.76 37.4V24.76C192.6 24.6 193.08 24.2 193.32 23.88L188.08 19.92L185.56 22.72H174.16L168.64 20.6C171.88 19.04 174.72 17.2 177.04 15V21.36H178.08C181 21.36 182.72 20.2 182.72 19.92V13.72C186.72 15.88 191.36 19.4 193.88 22.44C199.92 23.88 200.6 12.8 182.72 12.64V11.6H197.6Z" fill="#1E1E1E"/>
<path d="M224.48 19.12V19.4C224.12 19.36 223.72 19.36 223.28 19.36L223.08 19.92C223.84 20.2 224.44 20.6 224.96 21H222.08V19.12H224.48ZM222.08 15.88H224.48V18H222.08V15.88ZM215.16 15.88H217.48V18H215.16V15.88ZM217.48 14.76H215.16V12.72H217.48V14.76ZM224.48 14.76H222.08V12.72H224.48V14.76ZM208.2 34.92V25.92L208.48 26.92H211.4C212.16 27.92 212.84 29.48 212.84 30.92C216 33.4 219.6 28.44 214.28 26.92H221V29.44C221 29.84 220.88 29.96 220.44 29.96C219.88 29.96 217.36 29.8 217.36 29.8V30.32C218.8 30.56 219.32 31.04 219.72 31.52C220.12 32.12 220.24 33 220.28 34.2C224.96 33.8 225.6 32.4 225.6 29.44V26.92H230.6C231.12 26.92 231.52 26.72 231.64 26.28C230.72 25.4 229.36 24.32 228.6 23.72C230.88 23.48 232.64 20.36 226.48 19.56C227.68 19.32 228.88 18.84 228.92 18.6V13.12C229.48 13.04 229.88 12.76 230.04 12.56L226.08 9.64003L224.16 11.6H222.08V9.52003H229.92C230.48 9.52003 230.88 9.32003 231 8.88003C229.56 7.60003 227.28 5.84003 227.28 5.84003L225.24 8.40003H222.08V6.88003C222.88 6.72003 223.12 6.40003 223.2 5.96003L217.48 5.44003V8.40003H208.68L209 9.52003H217.48V11.6H215.36L210.76 9.80003V20.36H211.36C213.08 20.36 215 19.52 215.16 19.12H217.48V21C213.72 21.04 210.6 21 208.68 20.96L210.92 24.88C211.32 24.8 211.72 24.56 211.96 24.04C218.16 23.2 222.68 22.56 225.96 22C226.2 22.32 226.4 22.6 226.52 22.92C226.88 23.32 227.28 23.52 227.68 23.64L226.04 25.8H225.6V24.48C226.44 24.36 226.84 24.08 226.92 23.48L221 23V25.8H208.2V4.80003H231.64V34.92H208.2ZM233.8 0.840029L231.24 3.68003H208.64L202.8 1.36003V38.84H203.72C206.04 38.84 208.2 37.52 208.2 36.8V36.04H231.64V38.32H232.52C234.52 38.32 237.04 37.04 237.12 36.64V5.68003C237.92 5.48003 238.44 5.16003 238.72 4.80003L233.8 0.840029Z" fill="#1E1E1E"/>
<path d="M268.36 2.32003C269.76 3.76003 271.32 6.12003 271.84 8.28003C276.76 11.2 280.48 2.00003 268.64 2.08003L268.36 2.32003ZM250.8 12.12C252.36 9.76003 253.76 7.08003 255 4.08003C255.96 4.12003 256.48 3.76003 256.64 3.24003L248.64 0.760028C247.12 8.68003 243.72 16.8 240.32 21.84L240.72 22.16C242.8 20.8 244.72 19.28 246.48 17.48V38.8H247.56C249.76 38.8 252.12 37.6 252.16 37.2V13.84C252.96 13.72 253.28 13.44 253.44 13.08L250.8 12.12ZM278.68 25.72L278.32 25.64C277.44 27.44 276.12 29.76 275.36 30.84C274.92 31.48 274.6 31.48 274 30.92C269.24 27.28 267.24 21.56 266.48 14.96L277.68 13.64C278.24 13.56 278.68 13.28 278.76 12.8C276.32 11.24 272.52 9.16003 272.52 9.16003L269.8 13.44L266.36 13.84C266.04 10.56 266 7.04003 266.08 3.48003C267.08 3.32003 267.44 2.84003 267.52 2.32003L260.24 1.44003C260.24 6.00003 260.36 10.4 260.84 14.52L253.08 15.44L253.52 16.48L260.96 15.6C262 23.92 264.6 31.12 270.68 36.44C272.68 38.12 276.52 39.96 278.68 37.8C279.48 37 279.28 35.52 277.64 32.8L278.68 25.72Z" fill="#1E1E1E"/>
<path d="M312.28 18.68C311.24 20.48 309.12 23.24 307.08 25.44C305.24 23.68 303.76 21.32 302.72 18.24H317.52C318.12 18.24 318.56 18.04 318.68 17.6C316.8 15.84 313.64 13.24 313.64 13.24L310.84 17.12H302.92V12.36H314.6C315.16 12.36 315.6 12.16 315.72 11.72C313.96 10.04 310.88 7.52003 310.88 7.52003L308.2 11.24H302.92V6.80003H315.92C316.48 6.80003 316.92 6.60003 317.04 6.16003C315.24 4.44003 312.12 1.88003 312.12 1.88003L309.4 5.68003H302.92V2.28003C304.04 2.12003 304.32 1.72003 304.4 1.16003L297 0.560028V5.68003H283.48L283.8 6.80003H297V11.24H285.48L285.8 12.36H297V17.12H281.56L281.88 18.24H294.08C291.32 22.44 286.48 27.08 280.64 29.92L280.84 30.32C284.36 29.48 287.68 28.36 290.68 27.04V31.16C290.68 32 290.36 32.48 288.32 33.6L291.88 39.32C292.2 39.12 292.56 38.8 292.84 38.4C298.08 35.2 302.2 32.16 304.36 30.48L304.24 30.08C301.6 30.76 298.88 31.4 296.52 31.96V23.84C298.72 22.32 300.6 20.64 302.04 18.8C303.96 28.6 307.72 34.52 314.52 37.64C314.76 34.92 316.36 32.72 319.04 31.24L319.12 30.64C315.08 30.08 311.4 28.92 308.4 26.6C311.56 25.68 314.72 24.44 317 23.28C317.92 23.44 318.32 23.2 318.52 22.84L312.28 18.68Z" fill="#1E1E1E"/>
</svg>
