<svg width="320" height="40" viewBox="0 0 320 40" fill="none" xmlns="http://www.w3.org/2000/svg">
<path d="M2.91973 1.32006C4.03973 3.12006 5.31973 5.68006 5.67973 8.08006C10.1597 11.4401 14.6797 2.92006 3.23973 1.12006L2.91973 1.32006ZM0.719727 10.4401C1.83973 12.1201 2.83973 14.6401 2.91973 16.9201C7.07973 20.3601 11.7597 12.3201 1.07973 10.2401L0.719727 10.4401ZM10.3997 10.3601C4.83973 24.0001 4.83973 24.0001 4.03973 25.4001C3.59973 26.2001 3.43973 26.2001 2.83973 26.2001H1.11973V26.9201C1.95973 27.0001 2.59973 27.2001 3.15973 27.6001C4.03973 28.2401 4.19973 32.3201 3.39973 36.6001C3.71973 38.2001 4.83973 38.7201 5.75973 38.7201C7.79973 38.7201 9.31973 37.3201 9.39973 35.2001C9.55973 31.4401 7.75973 30.0401 7.63973 27.7201C7.59973 26.7601 7.79973 25.3601 8.03973 24.1201C8.39973 22.1601 10.0397 14.6001 11.0397 10.4801L10.3997 10.3601ZM30.0797 21.7201C30.1597 20.6001 30.1597 19.4801 30.1597 18.3601V13.8801H32.4397V21.7201H30.0797ZM20.0397 29.0801V25.0401H20.1997C22.0797 25.0401 23.8397 24.2001 23.9197 24.0001V14.3201C24.5197 14.2001 25.0797 13.9601 25.3597 13.6401L21.9597 10.2401L20.0797 12.3201V8.08006H24.8397C25.1197 8.08006 25.3597 8.04006 25.5597 7.92006V18.3601C25.5597 21.9601 25.4397 25.4401 24.8397 28.6401C23.5597 27.2801 22.0397 25.7601 22.0397 25.7601L20.0397 29.0801ZM19.3597 17.8001H15.8797V13.4401H19.3597V17.8001ZM15.8797 18.9201H19.3597V23.3601H15.8797V18.9201ZM32.4397 5.16006V12.7601H30.1597V5.16006H32.4397ZM34.3197 1.44006L32.0397 4.04006H30.9197L25.5597 2.12006V7.04006C24.1997 5.60006 22.2397 3.68006 22.2397 3.68006L20.1597 6.96006H20.0797V2.64006C20.8797 2.48006 21.1597 2.16006 21.1997 1.72006L15.2397 1.20006V6.96006H10.7197L11.0397 8.08006H15.2397V12.0001L11.4397 10.4801V25.4801H12.0797C13.2797 25.4801 14.4797 25.0801 15.1997 24.6801V29.2001H9.19973L9.51973 30.3201H15.1997V38.5601H16.0797C18.5597 38.5601 19.9997 37.7601 20.0397 37.5601V30.3201H24.4797C23.7197 33.2801 22.4397 36.0401 20.3197 38.4801L20.7197 38.8001C27.8397 34.6801 29.5997 28.8401 30.0397 22.8401H32.4397V32.4801C32.4397 32.9601 32.3197 33.2001 31.7197 33.2001C31.0797 33.2001 28.2797 33.0401 28.2797 33.0401V33.5601C29.8397 33.8801 30.4797 34.4401 30.9197 35.1601C31.3597 35.8801 31.5197 37.1201 31.5997 38.7601C36.7997 38.2801 37.4797 36.4401 37.4797 33.0001V5.92006C38.2397 5.76006 38.7197 5.44006 38.9997 5.12006L34.3197 1.44006Z" fill="#1E1E1E"/>
<path d="M44.2397 1.76006C45.5597 3.48006 47.0797 6.04006 47.6397 8.44006C52.7997 11.7601 57.1197 2.20006 44.5197 1.56006L44.2397 1.76006ZM40.8397 10.8001C42.2397 12.3601 43.8397 14.8401 44.3997 17.0801C49.3597 20.0801 53.2397 10.8001 41.1197 10.6001L40.8397 10.8001ZM54.9597 7.56006C46.5597 23.5601 46.5597 23.5601 45.4397 25.1601C44.9197 25.9601 44.7197 25.9601 44.0397 25.9601H42.1197V26.6801C42.9997 26.7601 43.7597 27.0001 44.3197 27.3601C45.3597 28.0401 45.5197 32.0401 44.6797 36.3601C45.1197 37.9601 46.2797 38.4801 47.3597 38.4801C49.6397 38.4801 51.3197 37.0001 51.3997 34.8001C51.4797 31.1601 49.5997 29.9601 49.5197 27.6001C49.4797 26.5601 49.8397 25.0001 50.2397 23.6001C50.8397 21.3601 53.7597 12.5601 55.5197 7.72006L54.9597 7.56006ZM71.0797 34.6801H68.0797V6.68006H77.4797C78.0797 6.68006 78.5197 6.48006 78.6397 6.04006C76.7197 4.20006 73.3597 1.48006 73.3597 1.48006L70.3997 5.56006H53.2797L53.5997 6.68006H62.0797V34.6801H51.7197L52.0397 35.8001H78.5197C79.1197 35.8001 79.5997 35.6001 79.7197 35.1601C77.6797 33.2801 74.1597 30.4001 74.1597 30.4001L71.0797 34.6801Z" fill="#1E1E1E"/>
<path d="M82.4397 7.92006H96.7197V14.5601H85.1997L85.5197 15.6801H116.12C116.72 15.6801 117.16 15.4801 117.28 15.0401C115.12 13.2801 111.6 10.6801 111.6 10.6801L108.48 14.5601H102.72V7.92006H117.16C117.76 7.92006 118.2 7.72006 118.32 7.28006C116.28 5.56006 112.88 3.08006 112.88 3.08006L109.88 6.80006H102.72V2.40006C103.72 2.24006 103.96 1.88006 104 1.40006L96.7197 0.80006V6.80006H82.1197L82.4397 7.92006ZM88.7197 24.5601C90.3197 26.4401 92.0397 29.2001 92.6397 31.8801C98.2397 35.4401 102.72 24.8401 88.9997 24.3601L88.7197 24.5601ZM110.8 22.2401H109.56V18.1601C110.44 18.0001 110.84 17.6801 110.92 17.0801L103.56 16.4801V22.2401H81.3597L81.6797 23.3601H103.56V32.3601C103.56 32.8001 103.36 32.9601 102.8 32.9601C101.92 32.9601 97.1997 32.6801 97.1997 32.6801V33.1601C99.4797 33.6001 100.32 34.2001 101.04 35.0401C101.8 35.8801 102 37.1601 102.16 38.9601C108.64 38.4401 109.56 36.4401 109.56 32.5601V23.3601H118.16C118.76 23.3601 119.24 23.1601 119.36 22.7201C117.32 20.8801 113.88 18.1601 113.88 18.1601L110.8 22.2401Z" fill="#1E1E1E"/>
<path d="M122.56 1.76006C124.08 3.28006 125.64 5.76006 126.12 8.08006C131.52 11.3601 135.72 1.16006 122.8 1.56006L122.56 1.76006ZM128.68 20.1601C129.8 18.3201 131.24 15.7601 132.12 14.1201C132.72 14.0801 133.24 14.0001 133.68 13.8801C133.28 14.8801 132.84 15.8401 132.44 16.6801L132.88 16.9601C133.76 16.3601 134.6 15.6801 135.4 14.9201V20.2001L131.88 17.4401L129.12 20.1601H128.68ZM141.56 8.40006L140.96 8.16006C141.76 6.88006 142.52 5.44006 143.24 3.96006C143.72 4.00006 144.12 3.88006 144.36 3.76006C144.76 5.00006 145.04 6.40006 145 7.68006C145.36 8.00006 145.72 8.24006 146.08 8.40006H141.56ZM143.84 15.0401H141V9.52006H143.84V15.0401ZM143.84 21.5601H141V16.1601H143.84V21.5601ZM143.84 28.8001H141V22.6801H143.84V28.8001ZM135.4 21.7601V31.8801H136.44C139.32 31.8801 141 30.6401 141 30.2801V29.9201H157.36C157.92 29.9201 158.4 29.7201 158.48 29.2801C156.6 27.6001 153.4 25.2001 153.4 25.2001L150.6 28.8001H149.32V22.6801H156.04C156.64 22.6801 157.08 22.4801 157.16 22.0401C155.4 20.4801 152.44 18.2401 152.44 18.2401L149.84 21.5601H149.32V16.1601H156.04C156.64 16.1601 157.08 15.9601 157.16 15.5201C155.4 13.9601 152.44 11.7201 152.44 11.7201L149.84 15.0401H149.32V9.52006H156.44C157 9.52006 157.44 9.32006 157.56 8.88006C155.72 7.32006 152.72 5.12006 152.72 5.12006L150.04 8.40006H148.32C150.68 7.28006 151.12 2.60006 143.48 0.64006L143.12 0.84006C143.48 1.44006 143.8 2.12006 144.08 2.88006L137.36 0.80006C136.64 4.96006 135.36 9.44006 134 13.0801L129.84 9.28006L127.52 11.6001H121.64L122 12.7201H127.28C126.36 14.6001 124.92 17.3201 123.72 19.1201C123.16 19.3601 122.6 19.6801 122.2 20.0001L126.68 22.8401L128.28 21.2801H129.32C128.64 24.2801 127.2 27.8001 125.6 30.3601C124.2 31.0801 122.36 32.1201 120.92 32.7201L124.6 38.2001C124.88 38.0401 125.08 37.8001 125 37.4001C125.8 35.2001 126.6 33.1201 127.2 31.8401C127.56 31.0001 128.04 30.9201 128.64 31.7601C131.96 35.9201 135.36 37.8001 144.28 37.8001H155.4C155.68 35.6001 157 33.4401 159.28 32.9201V32.4801C154.68 32.7601 150.88 32.8001 146.28 32.8001C137.08 32.8401 132.12 32.2401 129.12 30.1201C128.8 29.9601 128.56 29.8001 128.28 29.7201C131.36 27.4801 133.88 24.6001 135.24 21.7601H135.4Z" fill="#1E1E1E"/>
<path d="M185.96 23.8401V28.6001H173.84V23.8401H185.96ZM173.84 34.8801V29.7201H185.96V34.8801H173.84ZM197.6 11.6001C198.2 11.6001 198.64 11.4001 198.76 10.9601C196.84 9.36006 193.72 7.08006 193.72 7.08006L190.96 10.4801H182.72V6.48006C185.84 6.24006 188.72 5.92006 191.12 5.60006C192.48 6.16006 193.48 6.12006 193.96 5.72006L189.04 0.720059C183.44 2.76006 172.52 5.28006 164.08 6.44006L164.16 7.04006C168.24 7.12006 172.72 7.04006 177.04 6.80006V10.4801H161.32L161.64 11.6001H172.88C170.32 15.7601 165.96 20.2001 160.84 23.0401L161.12 23.4801C163.6 22.7601 165.96 21.8401 168.16 20.8401V38.7601H169C171.36 38.7601 173.84 37.5201 173.84 36.9601V36.0001H185.96V38.7201H186.96C188.84 38.7201 191.72 37.7201 191.76 37.4001V24.7601C192.6 24.6001 193.08 24.2001 193.32 23.8801L188.08 19.9201L185.56 22.7201H174.16L168.64 20.6001C171.88 19.0401 174.72 17.2001 177.04 15.0001V21.3601H178.08C181 21.3601 182.72 20.2001 182.72 19.9201V13.7201C186.72 15.8801 191.36 19.4001 193.88 22.4401C199.92 23.8801 200.6 12.8001 182.72 12.6401V11.6001H197.6Z" fill="#1E1E1E"/>
<path d="M224.48 19.1201V19.4001C224.12 19.3601 223.72 19.3601 223.28 19.3601L223.08 19.9201C223.84 20.2001 224.44 20.6001 224.96 21.0001H222.08V19.1201H224.48ZM222.08 15.8801H224.48V18.0001H222.08V15.8801ZM215.16 15.8801H217.48V18.0001H215.16V15.8801ZM217.48 14.7601H215.16V12.7201H217.48V14.7601ZM224.48 14.7601H222.08V12.7201H224.48V14.7601ZM208.2 34.9201V25.9201L208.48 26.9201H211.4C212.16 27.9201 212.84 29.4801 212.84 30.9201C216 33.4001 219.6 28.4401 214.28 26.9201H221V29.4401C221 29.8401 220.88 29.9601 220.44 29.9601C219.88 29.9601 217.36 29.8001 217.36 29.8001V30.3201C218.8 30.5601 219.32 31.0401 219.72 31.5201C220.12 32.1201 220.24 33.0001 220.28 34.2001C224.96 33.8001 225.6 32.4001 225.6 29.4401V26.9201H230.6C231.12 26.9201 231.52 26.7201 231.64 26.2801C230.72 25.4001 229.36 24.3201 228.6 23.7201C230.88 23.4801 232.64 20.3601 226.48 19.5601C227.68 19.3201 228.88 18.8401 228.92 18.6001V13.1201C229.48 13.0401 229.88 12.7601 230.04 12.5601L226.08 9.64006L224.16 11.6001H222.08V9.52006H229.92C230.48 9.52006 230.88 9.32006 231 8.88006C229.56 7.60006 227.28 5.84006 227.28 5.84006L225.24 8.40006H222.08V6.88006C222.88 6.72006 223.12 6.40006 223.2 5.96006L217.48 5.44006V8.40006H208.68L209 9.52006H217.48V11.6001H215.36L210.76 9.80006V20.3601H211.36C213.08 20.3601 215 19.5201 215.16 19.1201H217.48V21.0001C213.72 21.0401 210.6 21.0001 208.68 20.9601L210.92 24.8801C211.32 24.8001 211.72 24.5601 211.96 24.0401C218.16 23.2001 222.68 22.5601 225.96 22.0001C226.2 22.3201 226.4 22.6001 226.52 22.9201C226.88 23.3201 227.28 23.5201 227.68 23.6401L226.04 25.8001H225.6V24.4801C226.44 24.3601 226.84 24.0801 226.92 23.4801L221 23.0001V25.8001H208.2V4.80006H231.64V34.9201H208.2ZM233.8 0.84006L231.24 3.68006H208.64L202.8 1.36006V38.8401H203.72C206.04 38.8401 208.2 37.5201 208.2 36.8001V36.0401H231.64V38.3201H232.52C234.52 38.3201 237.04 37.0401 237.12 36.6401V5.68006C237.92 5.48006 238.44 5.16006 238.72 4.80006L233.8 0.84006Z" fill="#1E1E1E"/>
<path d="M268.36 2.32006C269.76 3.76006 271.32 6.12006 271.84 8.28006C276.76 11.2001 280.48 2.00006 268.64 2.08006L268.36 2.32006ZM250.8 12.1201C252.36 9.76006 253.76 7.08006 255 4.08006C255.96 4.12006 256.48 3.76006 256.64 3.24006L248.64 0.760058C247.12 8.68006 243.72 16.8001 240.32 21.8401L240.72 22.1601C242.8 20.8001 244.72 19.2801 246.48 17.4801V38.8001H247.56C249.76 38.8001 252.12 37.6001 252.16 37.2001V13.8401C252.96 13.7201 253.28 13.4401 253.44 13.0801L250.8 12.1201ZM278.68 25.7201L278.32 25.6401C277.44 27.4401 276.12 29.7601 275.36 30.8401C274.92 31.4801 274.6 31.4801 274 30.9201C269.24 27.2801 267.24 21.5601 266.48 14.9601L277.68 13.6401C278.24 13.5601 278.68 13.2801 278.76 12.8001C276.32 11.2401 272.52 9.16006 272.52 9.16006L269.8 13.4401L266.36 13.8401C266.04 10.5601 266 7.04006 266.08 3.48006C267.08 3.32006 267.44 2.84006 267.52 2.32006L260.24 1.44006C260.24 6.00006 260.36 10.4001 260.84 14.5201L253.08 15.4401L253.52 16.4801L260.96 15.6001C262 23.9201 264.6 31.1201 270.68 36.4401C272.68 38.1201 276.52 39.9601 278.68 37.8001C279.48 37.0001 279.28 35.5201 277.64 32.8001L278.68 25.7201Z" fill="#1E1E1E"/>
<path d="M312.28 18.6801C311.24 20.4801 309.12 23.2401 307.08 25.4401C305.24 23.6801 303.76 21.3201 302.72 18.2401H317.52C318.12 18.2401 318.56 18.0401 318.68 17.6001C316.8 15.8401 313.64 13.2401 313.64 13.2401L310.84 17.1201H302.92V12.3601H314.6C315.16 12.3601 315.6 12.1601 315.72 11.7201C313.96 10.0401 310.88 7.52006 310.88 7.52006L308.2 11.2401H302.92V6.80006H315.92C316.48 6.80006 316.92 6.60006 317.04 6.16006C315.24 4.44006 312.12 1.88006 312.12 1.88006L309.4 5.68006H302.92V2.28006C304.04 2.12006 304.32 1.72006 304.4 1.16006L297 0.560059V5.68006H283.48L283.8 6.80006H297V11.2401H285.48L285.8 12.3601H297V17.1201H281.56L281.88 18.2401H294.08C291.32 22.4401 286.48 27.0801 280.64 29.9201L280.84 30.3201C284.36 29.4801 287.68 28.3601 290.68 27.0401V31.1601C290.68 32.0001 290.36 32.4801 288.32 33.6001L291.88 39.3201C292.2 39.1201 292.56 38.8001 292.84 38.4001C298.08 35.2001 302.2 32.1601 304.36 30.4801L304.24 30.0801C301.6 30.7601 298.88 31.4001 296.52 31.9601V23.8401C298.72 22.3201 300.6 20.6401 302.04 18.8001C303.96 28.6001 307.72 34.5201 314.52 37.6401C314.76 34.9201 316.36 32.7201 319.04 31.2401L319.12 30.6401C315.08 30.0801 311.4 28.9201 308.4 26.6001C311.56 25.6801 314.72 24.4401 317 23.2801C317.92 23.4401 318.32 23.2001 318.52 22.8401L312.28 18.6801Z" fill="#1E1E1E"/>
</svg>
