<svg width="240" height="39" viewBox="0 0 240 39" fill="none" xmlns="http://www.w3.org/2000/svg">
<path d="M2.55992 1.76001C4.07992 3.28001 5.63992 5.76001 6.11992 8.08001C11.5199 11.36 15.7199 1.16001 2.79992 1.56001L2.55992 1.76001ZM8.67992 20.16C9.79992 18.32 11.2399 15.76 12.1199 14.12C12.7199 14.08 13.2399 14 13.6799 13.88C13.2799 14.88 12.8399 15.84 12.4399 16.68L12.8799 16.96C13.7599 16.36 14.5999 15.68 15.3999 14.92V20.2L11.8799 17.44L9.11992 20.16H8.67992ZM21.5599 8.40001L20.9599 8.16001C21.7599 6.88001 22.5199 5.44001 23.2399 3.96001C23.7199 4.00001 24.1199 3.88001 24.3599 3.76001C24.7599 5.00001 25.0399 6.40001 24.9999 7.68001C25.3599 8.00001 25.7199 8.24001 26.0799 8.40001H21.5599ZM23.8399 15.04H20.9999V9.52001H23.8399V15.04ZM23.8399 21.56H20.9999V16.16H23.8399V21.56ZM23.8399 28.8H20.9999V22.68H23.8399V28.8ZM15.3999 21.76V31.88H16.4399C19.3199 31.88 20.9999 30.64 20.9999 30.28V29.92H37.3599C37.9199 29.92 38.3999 29.72 38.4799 29.28C36.5999 27.6 33.3999 25.2 33.3999 25.2L30.5999 28.8H29.3199V22.68H36.0399C36.6399 22.68 37.0799 22.48 37.1599 22.04C35.3999 20.48 32.4399 18.24 32.4399 18.24L29.8399 21.56H29.3199V16.16H36.0399C36.6399 16.16 37.0799 15.96 37.1599 15.52C35.3999 13.96 32.4399 11.72 32.4399 11.72L29.8399 15.04H29.3199V9.52001H36.4399C36.9999 9.52001 37.4399 9.32001 37.5599 8.88001C35.7199 7.32001 32.7199 5.12001 32.7199 5.12001L30.0399 8.40001H28.3199C30.6799 7.28001 31.1199 2.60001 23.4799 0.640014L23.1199 0.840013C23.4799 1.44001 23.7999 2.12001 24.0799 2.88001L17.3599 0.800014C16.6399 4.96001 15.3599 9.44001 13.9999 13.08L9.83992 9.28001L7.51992 11.6H1.63992L1.99992 12.72H7.27992C6.35992 14.6 4.91992 17.32 3.71992 19.12C3.15992 19.36 2.59992 19.68 2.19992 20L6.67992 22.84L8.27992 21.28H9.31992C8.63992 24.28 7.19992 27.8 5.59992 30.36C4.19992 31.08 2.35992 32.12 0.919922 32.72L4.59992 38.2C4.87992 38.04 5.07992 37.8 4.99992 37.4C5.79992 35.2 6.59992 33.12 7.19992 31.84C7.55992 31 8.03992 30.92 8.63992 31.76C11.9599 35.92 15.3599 37.8 24.2799 37.8H35.3999C35.6799 35.6 36.9999 33.44 39.2799 32.92V32.48C34.6799 32.76 30.8799 32.8 26.2799 32.8C17.0799 32.84 12.1199 32.24 9.11992 30.12C8.79992 29.96 8.55992 29.8 8.27992 29.72C11.3599 27.48 13.8799 24.6 15.2399 21.76H15.3999Z" fill="#1E1E1E"/>
<path d="M65.9599 23.84V28.6H53.8399V23.84H65.9599ZM53.8399 34.88V29.72H65.9599V34.88H53.8399ZM77.5999 11.6C78.1999 11.6 78.6399 11.4 78.7599 10.96C76.8399 9.36001 73.7199 7.08001 73.7199 7.08001L70.9599 10.48H62.7199V6.48001C65.8399 6.24001 68.7199 5.92001 71.1199 5.60001C72.4799 6.16001 73.4799 6.12001 73.9599 5.72001L69.0399 0.720012C63.4399 2.76001 52.5199 5.28001 44.0799 6.44001L44.1599 7.04001C48.2399 7.12001 52.7199 7.04001 57.0399 6.80001V10.48H41.3199L41.6399 11.6H52.8799C50.3199 15.76 45.9599 20.2 40.8399 23.04L41.1199 23.48C43.5999 22.76 45.9599 21.84 48.1599 20.84V38.76H48.9999C51.3599 38.76 53.8399 37.52 53.8399 36.96V36H65.9599V38.72H66.9599C68.8399 38.72 71.7199 37.72 71.7599 37.4V24.76C72.5999 24.6 73.0799 24.2 73.3199 23.88L68.0799 19.92L65.5599 22.72H54.1599L48.6399 20.6C51.8799 19.04 54.7199 17.2 57.0399 15V21.36H58.0799C60.9999 21.36 62.7199 20.2 62.7199 19.92V13.72C66.7199 15.88 71.3599 19.4 73.8799 22.44C79.9199 23.88 80.5999 12.8 62.7199 12.64V11.6H77.5999Z" fill="#1E1E1E"/>
<path d="M98.5199 1.24001C100.48 3.16001 102.6 6.16001 103.44 8.92001C108.8 12.08 112.44 1.72001 98.7999 1.00001L98.5199 1.24001ZM83.9599 1.84001C85.4799 3.44001 87.2799 6.00001 87.9999 8.32001C93.1599 11.2 96.7199 1.64001 84.2399 1.60001L83.9599 1.84001ZM80.9599 11.08C82.3999 12.6 83.9599 15.04 84.4399 17.32C89.3599 20.4 93.2799 11.04 81.2399 10.84L80.9599 11.08ZM111.4 35.84H108.2V22.8H116.72C117.32 22.8 117.76 22.6 117.84 22.16C116.12 20.52 113.16 18.08 113.16 18.08L110.52 21.68H108.2V11.16H117.68C118.28 11.16 118.72 10.96 118.84 10.52C117 8.80001 113.84 6.20001 113.84 6.20001L111.04 10.04H94.1999L95.2399 6.68001L94.6799 6.52001C86.3199 24.24 86.3199 24.24 85.2799 25.88C84.7999 26.72 84.6399 26.72 83.9599 26.72H82.0799V27.44C82.9199 27.48 83.6799 27.72 84.2399 28.12C85.2399 28.76 85.3999 32.64 84.5599 36.76C84.9999 38.36 86.1999 38.84 87.2799 38.84C89.5999 38.84 91.2399 37.32 91.2799 35.24C91.3999 31.64 89.4799 30.52 89.3999 28.2C89.3599 27.16 89.7199 25.56 90.0799 24.08C90.5199 22.12 92.5199 15.44 94.1599 10.16L94.4399 11.16H102.28V21.68H94.1599L94.4799 22.8H102.28V35.84H92.2399L92.5599 36.96H118.32C118.92 36.96 119.36 36.76 119.48 36.32C117.56 34.52 114.32 31.84 114.32 31.84L111.4 35.84Z" fill="#1E1E1E"/>
<path d="M149.08 28.56H148.68C147.76 30.68 147.12 32 146.6 32.6C146.28 33 146 33.12 145.36 33.16C144.72 33.2 143.28 33.2 141.88 33.2H137.28C135.96 33.2 135.84 33.04 135.84 32.56V28.76C136.64 28.64 137 28.32 137.08 27.76L130.52 27.28V33.64C130.52 37.04 131.6 37.8 136.32 37.8H141.24C149.04 37.8 151.08 37 151.08 34.8C151.08 33.84 150.68 33.24 149.2 32.72L149.08 28.56ZM137.52 26.32C138.68 27.64 139.8 29.76 140.04 31.72C144.36 34.76 148.48 26.56 137.84 26.12L137.52 26.32ZM150.04 27.44C151.8 29.4 153.28 32.44 153.44 35.2C158.16 38.88 162.64 29.32 150.36 27.2L150.04 27.44ZM133.12 24.36V21H146.76V24.36H133.12ZM146.76 16.52V19.88H133.12V16.52H146.76ZM150.92 11.8H143.96C145.88 10.76 147.88 9.44001 149.24 8.52001C150.12 8.56001 150.6 8.20001 150.72 7.72001L145.76 6.40001H155.24C155.8 6.40001 156.24 6.20001 156.36 5.76001C154.44 4.16001 151.32 1.88001 151.32 1.88001L148.56 5.28001H142C143.84 3.48001 142.96 -0.559988 135.24 0.640014L135 0.880013C136.24 1.84001 137.6 3.56001 138.16 5.28001H124.16L124.48 6.40001H143.6C143.36 8.04001 142.96 10.2 142.6 11.8H135.92C138.48 10.76 139 6.44001 131.16 6.40001L130.88 6.60001C131.68 7.68001 132.52 9.52001 132.56 11.24C132.88 11.48 133.24 11.68 133.56 11.8H121.64L121.96 12.92H148.64L146.36 15.4H133.4L127.52 13.16V27.52L127.36 27.12H126.88C126.88 29.2 125.12 30.88 123.56 31.48C122.12 32.08 121.08 33.28 121.48 34.96C121.96 36.72 123.96 37.36 125.56 36.64C127.8 35.64 129.36 32.28 127.52 27.56H128.32C130.6 27.56 133.12 26.36 133.12 25.88V25.48H146.76V27.04H147.76C149.64 27.04 152.4 25.92 152.44 25.6V17.44C153.28 17.24 153.8 16.88 154.04 16.56L149.16 12.92H157.56C158.16 12.92 158.6 12.72 158.72 12.28C156.8 10.68 153.68 8.40001 153.68 8.40001L150.92 11.8Z" fill="#1E1E1E"/>
<path d="M187.88 29.08H182.76V25.48H187.88V29.08ZM182.76 20.72H187.88V24.36H182.76V20.72ZM182.76 16H188.16V17.32H189.2C189.36 17.32 189.48 17.32 189.64 17.32L187.48 19.6H182.76V16ZM171.84 14.88V10.84H176.88V14.88H171.84ZM188.16 10.84V14.88H182.76V10.84H188.16ZM193.44 24.08V21.48C194.2 21.32 194.64 21 194.88 20.72L190.24 17.24C192 16.96 194 16.2 194.04 15.92V11.64C194.76 11.48 195.2 11.16 195.44 10.88L190.28 7.08001L187.76 9.72001H182.76V6.60001H197.36C197.96 6.60001 198.4 6.40001 198.52 5.96001C196.4 4.24001 193 1.84001 193 1.84001L190 5.48001H182.76V2.60001C183.76 2.44001 184.16 2.04001 184.2 1.44001L176.88 0.760012V5.48001H161.28L161.6 6.60001H176.88V9.72001H172.2L166.04 7.44001V18.48H166.84C169.16 18.48 171.84 17.28 171.84 16.8V16H176.88V19.6H165.36L165.72 20.72H176.88V24.36H161.16L161.48 25.48H176.88V29.08H165.04L165.4 30.2H176.88V32.6C176.88 33.08 176.64 33.28 176 33.28C175 33.28 170.04 33 170.04 33V33.48C172.48 33.88 173.36 34.48 174.12 35.2C174.92 36 175.16 37.16 175.32 38.84C181.8 38.32 182.76 36.44 182.76 32.72V30.2H187.88V32.72H188.84C190.72 32.72 193.4 31.6 193.44 31.24V25.48H198.6C199.16 25.48 199.6 25.28 199.68 24.84C198.2 23.32 195.56 21.04 195.56 21.04L193.44 24.08Z" fill="#1E1E1E"/>
<path d="M230.32 10.92V15.76H222.92V10.92H230.32ZM222.92 27.8V22.96H230.32V27.8H222.92ZM222.92 16.88H230.32V21.84H222.92V16.88ZM231.28 4.48001H214.72L215.04 5.60001H223.72C223.72 7.00001 223.72 8.60001 223.68 9.80001H223.12L217.24 7.48001V7.64001C215.36 5.92001 212.52 3.64001 212.52 3.64001L209.72 7.44001H201.2L201.52 8.56001H206V26.2C203.8 26.8 201.96 27.24 200.84 27.52L204.4 33.52C204.88 33.32 205.24 32.88 205.4 32.32C211 28.44 214.6 25.48 216.84 23.44L216.76 23.08C215.16 23.56 213.56 24.04 212 24.48V8.56001H216.4C216.76 8.56001 217.04 8.48001 217.24 8.36001V31.2H218.08C219.04 31.2 219.96 31 220.76 30.72C218.32 33.52 214.08 36.68 210.2 38.36L210.44 38.84C216.12 38.2 222.76 35.84 226.08 33.4C226.76 33.6 227.2 33.52 227.4 33.2L222.36 29.96C222.72 29.72 222.92 29.48 222.92 29.32V28.92H230.32V30.32C229.32 30.24 228.2 30.2 226.96 30.24L226.72 30.48C229.08 32.4 231.96 35.48 233.4 38.32C238.64 40.56 241.28 32.08 231.52 30.48C233.48 30.4 236.08 29.36 236.12 29.04V11.64C236.8 11.52 237.24 11.2 237.44 10.92L232.48 7.12001L229.96 9.80001H225.28C226.8 8.64001 228.44 7.08001 229.84 5.60001H238.28C238.88 5.60001 239.32 5.40001 239.44 4.96001C237.44 3.24001 234.16 0.760012 234.16 0.760012L231.28 4.48001Z" fill="#1E1E1E"/>
</svg>
