<svg width="150" height="147" viewBox="0 0 150 147" fill="none" xmlns="http://www.w3.org/2000/svg">
<path d="M2.22654 146.282C1.60311 146.282 1.11328 145.792 1.11328 145.168V2.22651C1.11328 1.60308 1.60311 1.11325 2.22654 1.11325C83.0934 1.11325 148.887 65.7266 148.887 145.168C148.887 145.792 148.397 146.282 147.773 146.282H2.22654Z" fill="#E6573B"/>
<path d="M2.22651 2.22651C81.4457 2.22651 147.773 65.9492 147.773 145.168H2.22651V2.22651ZM2.22651 0C1.00193 0 0 1.00193 0 2.22651V145.168C0 146.393 1.00193 147.395 2.22651 147.395H147.773C148.998 147.395 150 146.393 150 145.168C150 106.405 134.459 69.9124 106.249 42.3928C78.2396 15.0512 41.2795 0 2.22651 0Z" fill="#1E1E1E"/>
<path d="M16.543 16.2535C77.7275 22.4655 127.557 72.2948 133.769 133.479H16.543V16.2535Z" fill="#007840" stroke="#1E1E1E" stroke-miterlimit="10"/>
</svg>
