<svg width="150" height="149" viewBox="0 0 150 149" fill="none" xmlns="http://www.w3.org/2000/svg">
<path d="M2.25123 147.906C1.62088 147.906 1.12561 147.411 1.12561 146.781C1.12561 66.4565 66.9068 1.12561 147.749 1.12561C148.379 1.12561 148.874 1.62088 148.874 2.25123V146.781C148.874 147.411 148.379 147.906 147.749 147.906H2.25123Z" fill="#E6573B"/>
<path d="M147.749 2.25124V146.781H2.25124C2.25124 66.6817 67.6497 2.25124 147.749 2.25124ZM147.749 0C66.2765 0 0 65.8487 0 146.781C0 148.019 1.01306 149.032 2.25124 149.032H147.749C148.987 149.032 150 148.019 150 146.781V2.25124C150 1.6434 149.752 1.08059 149.347 0.652859C148.919 0.225124 148.357 0 147.749 0V0Z" fill="#1E1E1E"/>
<path d="M16.434 134.962C22.715 73.0977 73.0977 22.715 134.962 16.4341V134.962H16.434Z" fill="#0842C1" stroke="#1E1E1E" stroke-miterlimit="10"/>
<path d="M66.0063 82.3278C65.7136 82.3278 65.421 82.1702 65.2634 81.9001C65.1058 81.6299 65.1058 81.3147 65.2634 81.0446L80.2341 55.1103C80.3917 54.8402 80.6619 54.6826 80.977 54.6826C81.2922 54.6826 81.5624 54.8402 81.7199 55.1103L96.6907 81.0446C96.8483 81.3147 96.8483 81.6299 96.6907 81.9001C96.5331 82.1702 96.2629 82.3278 95.9478 82.3278H66.0063Z" fill="#FFDA00"/>
<path d="M80.977 55.5606L95.9478 81.4948H66.0063L80.977 55.5606ZM80.977 53.8721C80.3692 53.8721 79.8064 54.1873 79.5137 54.7276L64.543 80.6619C64.2503 81.1797 64.2503 81.8325 64.543 82.3503C64.8356 82.8681 65.3985 83.2058 66.0063 83.2058H95.9478C96.5556 83.2058 97.1184 82.8906 97.4111 82.3503C97.7037 81.81 97.7037 81.1797 97.4111 80.6619L82.4403 54.7276C82.1477 54.2098 81.5849 53.8721 80.977 53.8721Z" fill="#1E1E1E"/>
<path d="M39.4867 117.56C39.0139 117.56 38.6312 117.177 38.6312 116.704V115.916C38.6312 115.489 38.9689 115.128 39.3967 115.083L40.995 114.926C41.0175 112.832 41.0175 110.693 41.0175 108.555V107.542C41.0175 105.38 41.0175 103.219 40.995 101.103H39.2391L38.2485 104.57C38.136 104.93 37.8208 105.178 37.4381 105.178H36.0648C35.8397 105.178 35.6146 105.088 35.457 104.93C35.2994 104.773 35.2094 104.548 35.2094 104.322L35.2994 99.3472C35.2994 98.8969 35.6821 98.5142 36.1549 98.5142H51.5083C51.9586 98.5142 52.3413 98.8744 52.3638 99.3472L52.4538 104.322C52.4538 104.548 52.3638 104.773 52.2062 104.93C52.0486 105.088 51.8235 105.178 51.5984 105.178H50.2476C49.8649 105.178 49.5497 104.93 49.4372 104.57L48.4241 101.103H46.6456C46.6231 103.219 46.6231 105.358 46.6231 107.542V108.532C46.6231 110.648 46.6231 112.81 46.6456 114.926L48.2665 115.083C48.6943 115.128 49.032 115.489 49.032 115.916V116.704C49.032 117.177 48.6492 117.56 48.1765 117.56H39.4192H39.4867Z" fill="#FFDA00"/>
<path d="M51.5308 99.3472L51.6209 104.322H50.2701L49.077 100.248H45.8352C45.7902 102.634 45.7902 105.065 45.7902 107.542V108.532C45.7902 110.896 45.7902 113.327 45.8352 115.691L48.199 115.916V116.704H39.4417V115.916L41.783 115.691C41.828 113.372 41.828 110.964 41.828 108.555V107.542C41.828 105.088 41.828 102.656 41.783 100.248H38.5637L37.393 104.322H36.0198L36.1098 99.3472H51.4633M51.4633 97.6587H36.1098C35.1868 97.6587 34.4439 98.4016 34.4214 99.3246L34.3314 104.3C34.3314 104.75 34.4889 105.2 34.8041 105.516C35.1193 105.831 35.547 106.011 36.0198 106.011H37.393C38.136 106.011 38.8113 105.516 39.0139 104.795L39.8244 101.959H40.0945C40.0945 103.805 40.0945 105.673 40.0945 107.564V108.577C40.0945 110.468 40.0945 112.337 40.0945 114.183L39.2391 114.273C38.3836 114.363 37.7082 115.083 37.7082 115.961V116.749C37.7082 117.672 38.4736 118.438 39.3966 118.438H48.154C49.077 118.438 49.8424 117.672 49.8424 116.749V115.961C49.8424 115.083 49.1895 114.363 48.3115 114.273L47.4336 114.183C47.4111 112.314 47.4111 110.423 47.4111 108.555V107.564C47.4111 105.673 47.4111 103.805 47.4111 101.959H47.7262L48.5592 104.818C48.7618 105.538 49.4372 106.033 50.1801 106.033H51.5308C51.9811 106.033 52.4088 105.853 52.7465 105.538C53.0617 105.223 53.2418 104.773 53.2192 104.322L53.1292 99.3472C53.1292 98.4241 52.3638 97.6812 51.4408 97.6812L51.4633 97.6587Z" fill="#1E1E1E"/>
<path d="M61.0536 118.032C56.5286 118.032 51.9586 114.926 51.9586 108.014C51.9586 101.103 56.6862 98.0189 61.0536 98.0189C65.421 98.0189 70.126 101.148 70.126 108.014C70.126 114.881 65.556 118.032 61.0536 118.032ZM61.0536 100.608C57.9919 100.608 57.7668 106.281 57.7668 108.014C57.7668 109.748 58.0144 115.443 61.0536 115.443C64.0927 115.443 64.3404 109.748 64.3404 108.014C64.3404 106.281 64.0927 100.608 61.0536 100.608Z" fill="#FFDA00"/>
<path d="M61.0536 98.8744C65.421 98.8744 69.2931 102.004 69.2931 108.014C69.2931 114.025 65.4435 117.177 61.0536 117.177C56.6636 117.177 52.7915 114.07 52.7915 108.014C52.7915 101.959 56.7087 98.8744 61.0536 98.8744ZM61.0536 116.299C63.8901 116.299 65.1958 112.81 65.1958 108.014C65.1958 103.219 63.8901 99.7524 61.0536 99.7524C58.217 99.7524 56.9113 103.264 56.9113 108.014C56.9113 112.765 58.1945 116.299 61.0536 116.299ZM61.0536 97.1859C56.2584 97.1859 51.1031 100.585 51.1031 108.014C51.1031 115.443 56.2584 118.865 61.0536 118.865C65.8487 118.865 70.9815 115.466 70.9815 108.014C70.9815 100.563 65.8262 97.1859 61.0536 97.1859ZM61.0536 114.611C59.2526 114.611 58.5997 111.054 58.5997 108.014C58.5997 104.975 59.2526 101.441 61.0536 101.441C62.742 101.441 63.5074 104.75 63.5074 108.014C63.5074 111.054 62.8546 114.611 61.0536 114.611Z" fill="#1E1E1E"/>
<path d="M79.9639 117.56C79.4912 117.56 79.1085 117.177 79.1085 116.704V115.916C79.1085 115.489 79.4462 115.128 79.8739 115.083L81.4723 114.926C81.4948 112.832 81.4948 110.693 81.4948 108.555V107.542C81.4948 105.38 81.4948 103.219 81.4723 101.103H79.7163L78.7258 104.57C78.6132 104.93 78.298 105.178 77.9153 105.178H76.5421C76.3169 105.178 76.0918 105.088 75.9342 104.93C75.7766 104.773 75.6866 104.548 75.6866 104.322L75.7766 99.3472C75.7766 98.8969 76.1593 98.5142 76.6321 98.5142H91.9856C92.4358 98.5142 92.8185 98.8744 92.841 99.3472L92.9311 104.322C92.9311 104.548 92.841 104.773 92.6834 104.93C92.5258 105.088 92.3007 105.178 92.0756 105.178H90.7249C90.3421 105.178 90.027 104.93 89.9144 104.57L88.9014 101.103H87.1229C87.1004 103.219 87.1004 105.358 87.1004 107.542V108.532C87.1004 110.648 87.1004 112.81 87.1229 114.926L88.7438 115.083C89.1715 115.128 89.5092 115.489 89.5092 115.916V116.704C89.5092 117.177 89.1265 117.56 88.6537 117.56H79.8964H79.9639Z" fill="#FFDA00"/>
<path d="M92.0081 99.3472L92.0981 104.322H90.7474L89.5542 100.248H86.3124C86.2674 102.634 86.2674 105.065 86.2674 107.542V108.532C86.2674 110.896 86.2674 113.327 86.3124 115.691L88.6762 115.916V116.704H79.9189V115.916L82.2602 115.691C82.3052 113.372 82.3052 110.964 82.3052 108.555V107.542C82.3052 105.088 82.3052 102.656 82.2602 100.248H79.0409L77.8703 104.322H76.497L76.5871 99.3472H91.9405M91.9405 97.6587H76.5871C75.6641 97.6587 74.9212 98.4016 74.8986 99.3246L74.8086 104.3C74.8086 104.75 74.9662 105.2 75.2814 105.516C75.5965 105.831 76.0243 106.011 76.497 106.011H77.8703C78.6132 106.011 79.2886 105.516 79.4912 104.795L80.3016 101.959H80.5718C80.5718 103.805 80.5718 105.673 80.5718 107.564V108.577C80.5718 110.468 80.5718 112.337 80.5718 114.183L79.7163 114.273C78.8608 114.363 78.1855 115.083 78.1855 115.961V116.749C78.1855 117.672 78.9509 118.438 79.8739 118.438H88.6312C89.5542 118.438 90.3196 117.672 90.3196 116.749V115.961C90.3196 115.083 89.6668 114.363 88.7888 114.273L87.9108 114.183C87.8883 112.314 87.8883 110.423 87.8883 108.555V107.564C87.8883 105.673 87.8883 103.805 87.8883 101.959H88.2035L89.0364 104.818C89.239 105.538 89.9144 106.033 90.6573 106.033H92.0081C92.4583 106.033 92.886 105.853 93.2237 105.538C93.5389 105.223 93.719 104.773 93.6965 104.322L93.6064 99.3472C93.6064 98.4241 92.841 97.6812 91.918 97.6812L91.9405 97.6587Z" fill="#1E1E1E"/>
<path d="M101.531 118.032C97.0058 118.032 92.4358 114.926 92.4358 108.014C92.4358 101.103 97.1634 98.0189 101.531 98.0189C105.898 98.0189 110.603 101.148 110.603 108.014C110.603 114.881 106.033 118.032 101.531 118.032ZM101.531 100.608C98.4691 100.608 98.244 106.281 98.244 108.014C98.244 109.748 98.4916 115.443 101.531 115.443C104.57 115.443 104.818 109.748 104.818 108.014C104.818 106.281 104.57 100.608 101.531 100.608Z" fill="#FFDA00"/>
<path d="M101.531 98.8744C105.898 98.8744 109.77 102.004 109.77 108.014C109.77 114.025 105.921 117.177 101.531 117.177C97.1409 117.177 93.2688 114.07 93.2688 108.014C93.2688 101.959 97.1859 98.8744 101.531 98.8744ZM101.531 116.299C104.367 116.299 105.673 112.81 105.673 108.014C105.673 103.219 104.367 99.7524 101.531 99.7524C98.6942 99.7524 97.3885 103.264 97.3885 108.014C97.3885 112.765 98.6717 116.299 101.531 116.299ZM101.531 97.1859C96.7357 97.1859 91.5803 100.585 91.5803 108.014C91.5803 115.443 96.7357 118.865 101.531 118.865C106.326 118.865 111.459 115.466 111.459 108.014C111.459 100.563 106.303 97.1859 101.531 97.1859ZM101.531 114.611C99.7298 114.611 99.0769 111.054 99.0769 108.014C99.0769 104.975 99.7298 101.441 101.531 101.441C103.219 101.441 103.985 104.75 103.985 108.014C103.985 111.054 103.332 114.611 101.531 114.611Z" fill="#1E1E1E"/>
<path d="M111.391 117.56C110.918 117.56 110.536 117.177 110.536 116.704V115.916C110.536 115.489 110.873 115.128 111.301 115.083L112.652 114.948C112.697 112.855 112.697 110.716 112.697 108.555V107.542C112.697 105.38 112.697 103.242 112.652 101.103L111.301 100.991C110.873 100.946 110.536 100.585 110.536 100.158V99.3697C110.536 98.8969 110.918 98.5142 111.391 98.5142H118.483C123.953 98.5142 126.722 100.54 126.722 104.525C126.722 106.349 125.912 110.626 118.37 110.626H118.325C118.325 111.954 118.325 113.417 118.348 114.926L120.104 115.106C120.531 115.151 120.869 115.511 120.869 115.939V116.727C120.869 117.199 120.486 117.582 120.013 117.582H111.391V117.56ZM118.37 101.058C118.348 103.174 118.348 105.335 118.348 107.519V108.037C120.891 107.992 121.432 106.078 121.432 104.457C121.432 101.396 119.743 101.036 118.46 101.036H118.37V101.058Z" fill="#FFDA00"/>
<path d="M118.483 99.3472C123.773 99.3472 125.889 101.238 125.889 104.502C125.889 107.407 123.908 109.77 118.37 109.77H117.492C117.492 111.526 117.492 113.597 117.537 115.691L120.036 115.939V116.727H111.414V115.939L113.507 115.736C113.575 113.395 113.575 110.986 113.575 108.577V107.564C113.575 105.133 113.575 102.747 113.507 100.36L111.414 100.18V99.3922H118.505M117.515 108.96H118.28C120.982 108.96 122.287 107.136 122.287 104.548C122.287 101.733 120.937 100.293 118.483 100.293H117.582C117.537 102.679 117.537 105.133 117.537 107.609V108.982M118.528 97.7263H111.436C110.513 97.7263 109.748 98.4917 109.748 99.4147V100.203C109.748 101.081 110.423 101.801 111.279 101.891L111.864 101.936C111.909 103.805 111.909 105.651 111.909 107.609V108.622C111.909 110.558 111.909 112.427 111.864 114.25L111.256 114.318C110.401 114.408 109.725 115.128 109.725 116.006V116.794C109.725 117.717 110.491 118.483 111.414 118.483H120.036C120.959 118.483 121.724 117.717 121.724 116.794V116.006C121.724 115.151 121.072 114.408 120.216 114.318L119.226 114.205C119.226 113.282 119.226 112.359 119.226 111.504C126.79 111.189 127.623 106.596 127.623 104.57C127.623 101.441 126.047 97.7263 118.528 97.7263ZM119.226 107.181C119.226 105.448 119.226 103.737 119.226 102.049C119.968 102.206 120.599 102.769 120.599 104.548C120.599 106.326 119.878 106.956 119.203 107.159L119.226 107.181Z" fill="#1E1E1E"/>
</svg>
