<svg xmlns="http://www.w3.org/2000/svg" fill="none" viewBox="0 0 150 149">
  <g clip-path="url(#clip0_516_11362)">
    <path fill="#E74222" d="M147.761 147.881c-38.821 0-75.5595-15.359-103.4327-43.209C16.4552 76.8209 1.1193 40.0597 1.1193 1.2388c0-.6269.4926-1.1194 1.1195-1.1194H147.761c.627 0 1.12.4925 1.12 1.1194V146.761c0 .627-.493 1.12-1.12 1.12Z"/>
    <path fill="#231815" d="M147.761 1.2388V146.761C68.1045 146.761 2.2388 80.8955 2.2388 1.2388H147.761Zm0-2.2388H2.2388C1.0075-1 0 .0075 0 1.2388 0 40.3507 15.4702 77.3806 43.5448 105.455 71.6194 133.53 108.627 149 147.761 149c1.232 0 2.239-1.007 2.239-2.239V1.2388C150 .0075 148.993-1 147.761-1Z"/>
    <path fill="#007840" stroke="#000" stroke-miterlimit="10" d="M133.164 132.657C71.6418 126.41 22.5895 76.306 16.3433 14.7836H133.164V132.657Z"/>
    <path stroke="#000" stroke-linecap="round" stroke-linejoin="round" stroke-width="2" d="M67.7014 45.7015h41.4626M67.7014 60.5671h41.4626M67.7014 75.4328h41.4626"/>
  </g>
  <defs>
    <clipPath id="clip0_516_11362">
      <path fill="#fff" d="M0-1h150v150H0z"/>
    </clipPath>
  </defs>
</svg>
