<svg xmlns="http://www.w3.org/2000/svg" fill="none" viewBox="0 0 150 149">
  <g clip-path="url(#clip0_128_10892)">
    <path fill="#E74222" d="M2.2388 147.881c-.6269 0-1.1194-.493-1.1194-1.12V1.2388c0-.6269.4925-1.1194 1.1194-1.1194H147.761c.627 0 1.12.4925 1.12 1.1194 0 38.8209-15.359 75.5597-43.209 103.4332-27.8511 27.873-64.6123 43.209-103.4332 43.209Z"/>
    <path fill="#1E1E1E" d="M147.761 1.2388c0 79.6567-65.8655 145.5222-145.5222 145.5222V1.2388H147.761Zm0-2.2388H2.2388C1.0075-1 0 .0075 0 1.2388V146.761c0 .605.2463 1.164.6493 1.59.4253.425.985.649 1.5895.649 39.1119 0 76.1418-15.47 104.2162-43.545C134.53 77.3806 150 40.3731 150 1.2388 150 .0075 148.993-1 147.761-1Z"/>
    <path fill="#0842C1" stroke="#1E1E1E" stroke-miterlimit="10" d="M133.657 14.7836C127.41 76.306 78.3582 126.41 16.8358 132.657V14.7836H133.657Z"/>
    <path fill="#FFDA00" d="M42.8284 73.7537c-1.1642-.1119-2.1269-.3806-2.9329-.8731-1.1418-.6716-1.6343-1.5672-1.8134-2.3508-.1791.0672-.3358.0896-.5149.0896-.3806 0-.6941-.1567-.8956-.2463-.291-.1343-.9403-.4477-1.1865-1.1418-.1344-.3806-.112-.7388-.0672-.9179.1119-.6716.4478-1.2537.9627-1.6119.6045-.4254.9627-1.0075 1.1642-1.8134.0671-.3359.2239-.6269.3358-.806a.8186.8186 0 0 1 .6492-.4254c.5374-.0448 1.0747-.1791 1.5896-.3806.6269-.2686 1.2537-.5373 1.8806-.8283 1.3209-.6045 2.3731-1.6344 3.2239-3.1344.3134-.5597.5149-1.1418.5597-1.7462 0-.1344.0224-.2911.0448-.4254.0447-.2687.2238-.694.4701-.806 1.6119-.806 3.1567-1.2089 4.7015-1.2089.4254 0 .8507.0224 1.2761.0895.2911.0448.5373.2239.6493.4926.0224.0671.0895.2238.1119.291.1791.9179.3358 1.8358.4702 2.7537l.1791 1.0075h.1119c.2239 0 .3582.0224.5149.0448.2239.0447.4254.1791.5597.3582.3806.6045.8284 1.1194 1.3209 1.5448.1344.1119.2239.2686.2687.4477.2239 1.209.1343 2.3284-.2687 3.403-.2015.5373-.5149.9403-.9627 1.209-.5373.3358-1.1418.7388-1.9477.8283h-.112c-.2462 0-.3582-.0224-.4477-.0448-.2239-.0447-.5149-.2015-.6269-.4029-.1119-.2015-.2463-.4478-.1791-.6717l.2239-.806c.0448-.2015 0-.3134 0-.3806-.0896-.2014-.2239-.4253-.3134-.4253-.0448 0-.1344 0-.3359.1119-.4477.2239-.8059.5821-1.1194 1.1194-.1343.2239-.2462.4702-.3582.7164l-.3134.6493c-.1567.3134-.3134.6492-.4702.9627-.1343.3134-.2686.6492-.3806.985-.0671.2239-.3134 1.0747-.3134 1.0747-.2686.8731-.8283 1.1865-1.2761 1.2985-.3134.6045-.7612.8731-1.1642 1.1194-.6492.3582-1.6567.8507-2.8433.8507h-.4253Z"/>
    <path fill="#1E1E1E" d="M51.0224 56c.3806 0 .7612.0224 1.1642.0895 0 .0448.0224.0672.0448.112.2462 1.2985.4477 2.6194.6716 3.9179.0896.5821.2015 1.1642.3134 1.7463.0448.1791.1567.3582.2911.6044.2686-.6268.2239-1.2313.3134-1.8358h.0224c.1119 0 .2239 0 .3134.0448.4254.6492.9179 1.2313 1.4776 1.7239v.0671c.1791.9627.0896 1.9254-.2686 2.8657-.1343.3358-.3134.6045-.6269.806-.4925.3134-.9851.6268-1.5895.7164h-.0448c-.1119 0-.2463-.0448-.403-.0672.0896-.3134.1567-.5597.2239-.8283.0895-.3135.0895-.6269-.0448-.9179-.2686-.6493-.6492-.9403-1.097-.9403-.2239 0-.4702.0671-.7164.2015-.6493.3358-1.097.8283-1.4552 1.4328-.2239.3582-.3806.7388-.5597 1.1194-.2015.4254-.4254.8731-.6269 1.2985-.1567.3358-.2687.7164-.403 1.0746-.1119.3582-.2239.7388-.3134 1.0971-.112.3582-.2911.6268-.6717.7164-.2462.0671-.403.2462-.5373.4701-.2015.3358-.5149.5373-.8507.7388-.7612.4254-1.5448.7388-2.4179.7388h-.3359c-.9179-.0895-1.791-.291-2.5746-.7388-.8955-.5373-1.4776-1.2985-1.4776-2.4403 0-.8059.1791-1.5671.4254-2.3283.0895-.2687.2686-.4702.5149-.6269.2239-.1343.5149-.2239.5821-.6045-.0896-.0448-.2239-.1343-.3134-.1343h-.0224c-.6269.1791-1.1642.4478-1.4105 1.097-.2686.6716-.5597 1.3433-.5821 2.0821 0 .1567-.0671.3358-.0895.4701-.1343.0896-.2463.112-.3582.112-.2239 0-.4478-.1343-.6493-.2239-.291-.1343-.5597-.3134-.6716-.6269-.0672-.1567-.0672-.3358-.0448-.5149.0672-.4254.2687-.806.6045-1.0522.8059-.5821 1.2761-1.3433 1.5-2.306.0448-.2015.1343-.403.2462-.5821.6045-.0448 1.2314-.2015 1.8359-.4477a71.4892 71.4892 0 0 0 1.9253-.8284c1.612-.7388 2.7314-1.9702 3.6045-3.4702.3806-.6492.6045-1.3432.6717-2.082 0-.1791.0447-.3582.0671-.5597 1.3881-.6941 2.7985-1.1194 4.3209-1.1194m0-1.6791c-1.6791 0-3.3582.4253-5.0821 1.2985-.4925.2462-.8283.7388-.9179 1.2761v.1567c-.0448.1567-.0671.3358-.0895.4925-.0448.4702-.1791.9179-.4478 1.3881-.7612 1.3433-1.7015 2.2612-2.8433 2.7761-.6045.2911-1.2313.5597-1.8582.806-.4254.1791-.8731.291-1.3433.3134-.5373.0448-1.0298.3582-1.3209.8284-.1343.2239-.3358.6045-.4253 1.0298-.1344.6045-.403 1.0075-.8284 1.3209-.694.4926-1.1418 1.2538-1.2985 2.1493-.0448.3358-.0672.8283.1119 1.3433.2463.6716.7612 1.2089 1.5224 1.5671.3135.1567.7388.3582 1.2985.3806.3135.7388.9179 1.5 1.9478 2.1269.8955.5373 1.9701.8507 3.2686.9851.1568 0 .3359.0223.4926.0223 1.388 0 2.5074-.5373 3.2463-.9626.3358-.1791.9403-.515 1.3656-1.1642.515-.2239 1.1642-.6941 1.4776-1.7239l.112-.4254c.0671-.2015.1119-.4253.1791-.6268.1119-.3135.2015-.6269.3358-.9179.1343-.3135.291-.6045.4254-.918l.1567-.3358.1567-.3358c.0896-.2015.1791-.403.3134-.6045-.0223.3582.0672.7164.2463 1.0299.2463.403.6716.6716 1.1418.7612.2239.0447.4254.0895.694.0895h.2687c.9851-.1343 1.7463-.6045 2.2836-.9627.6044-.3806 1.0298-.9403 1.2985-1.6343.4477-1.209.5597-2.4627.3358-3.7388 0-.0672-.0448-.1567-.0672-.2463a1.5584 1.5584 0 0 0-.5149-.7836c-.4254-.3806-.8284-.8283-1.1642-1.3656-.2462-.3806-.6492-.6493-1.097-.7388h-.0672l-.0671-.3582c-.1567-.918-.3134-1.8359-.4926-2.7538-.0223-.1343-.0671-.2462-.1119-.3806-.2239-.5373-.7836-1.0074-1.3433-1.097-.4701-.0671-.9179-.0895-1.388-.0895l.0895.0224Z"/>
    <path fill="#FFDA00" d="M53.2388 103.44c-.1791 0-.3582 0-.5373-.044-.1343 0-.2686-.023-.403-.023h-.403c-.5597 0-1.4104-.045-2.2164-.537-.0895.112-.291.179-.5373.179-.2239 0-.4254-.045-.5597-.09-1.1418-.358-2.0373-.873-2.7537-1.522l-.9179-.851c-.6493-.6042-.9627-1.3431-1.209-2.0595-.0895-.2686-.0448-.5373.112-.7612.1567-.2238.4029-.3582.6716-.3582l.2239.8284.1343-.8508c.1343 0 .2463 0 .3582.0224.4254.0896.8508.112 1.2761.112.5597 0 1.0971-.0448 1.6568-.0896l.694-.0448c.7164-.0447 1.4776-.2686 2.1492-.4701.6493-.1791 1.2762-.4254 1.9254-.6717l.5821-.2014c.8731-.3135 1.5896-.4926 2.2836-.5821.1791 0 .3582-.0448.5373-.0896.3806-.0672.7836-.1343 1.1642-.1343h.7388c.5597.0448 1.1194.0671 1.6567.1343.5373.0672 1.0298.2687 1.4328.4702.3359.1567.6493.2462.9179.2462.1792 0 .3583-.0224.5374-.0895.2015-.0672.4029-.112.6268-.112h.112c.3134-.7388.7164-1.388 1.1194-2.0149.1791-.2686.3358-.5373.4925-.806.4478-.7611.806-1.5671 1.097-2.485.3582-1.1194.403-2.2836.112-3.5597-.2911-1.3433-.0896-2.5523.6492-3.7164.2015-.3359.3134-.5374.4702-.7165.4477-.4701.5149-1.1194.6044-1.8806v-.2686c.0896-.3806 0-.6045-.0447-.6941a2.1319 2.1319 0 0 1-1.2762.4254c-.3134 0-.6044-.0671-.8507-.1119-.2687-.0672-.5597-.0896-.8731-.0896-.4926 0-.9627.0672-1.4553.1568l-.2238.0447a6.9892 6.9892 0 0 1-.9179.1344c-.7612 0-1.5224.2686-2.4403.7835-1.209.6941-2.418 1.0299-3.7165 1.0299-.2015 0-.4253 0-.6492-.0224h-1.0075c-1.0522 0-2.1268-.2239-3.403-.7164-.1119-.0448-.1791-.0672-.2462-.0896-.9627-.1791-1.6791-.7164-2.306-1.2089-.9403-.7164-1.4552-1.6567-1.5-2.8433-.0448.0672-.112.1343-.1567.1567-.1791.1343-.4254.2463-.6493.2463h-.0895c.0671.7836.0447 1.6119-.0672 2.4851-.1343.9179-.5821 1.6791-1.3433 2.2835-1.0298.8284-2.194 1.2314-3.4701 1.2314-.4478 0-.9403-.0448-1.4105-.1567-.2239-.0448-.4477-.0896-.6716-.0896-.1567 0-.2911 0-.4254.0672-.3806.1119-.7388.1343-1.0075.1343h-.694c-.291 0-.5597-.0448-.7836-.1791-.5597-.2911-1.1865-.694-1.6119-1.3433-.1343-.2015-.1791-.4254-.1119-.6492.1119-.4926.4029-.7389.6492-.8732-.7164 0-1.1866-.1119-1.6791-.3134-.1567-.0672-.291-.2015-.3806-.3582L33 79.4851c-.291-.4478-.6268-1.0075-.7388-1.7015-.0448-.2911.0672-.5821.2911-.7836.1567-.1343.3134-.2239.4701-.3134a.922.922 0 0 1-.4254-.4478l-.3806-.9627c-.3582-.8283-.0671-1.5895.7836-2.0373.112-.0448.2239-.0896.3358-.0896-.4925-.4253-.7611-.985-.7835-1.5895 0-.4702-.0896-.9403-.1344-1.4104-.0895-.6493-.1791-1.3433-.1567-2.0598v-.8731c.0224-.5149.0448-1.0298.0896-1.5448.1343-1.5 1.0746-2.4626 2.6194-2.6194h.1119c.1791 0 .3806.0224.4926.0896.1791.0895.3805.1791.6044.2686.5821.1791 1.1642.2911 1.7463.3135.2687 0 .5149.1567.6716.3806.1568.2239.1791.5149.0896.7612l-.1567.4253c-.3358.918-.806 1.5672-1.4776 2.0374-.4254.3134-.6941.694-.7836 1.1641-.0672.3582 0 .5821.2686.8284.3806.3358.6717.4701 1.0075.4925.0448 0 .3134.0224.3582.0448.2911.0448.6717.291.7836.5597l.1343.403c.1567.5149.4702.9179.9627 1.2089.1567.0896.2911.2015.4478.2911.1119.0672.2239.1567.3358.2239.6492.403 1.2985.6044 1.9925.6044h.6493c.6045 0 1.0746-.0223 1.5-.1567 1.0522-.3358 1.9254-.985 2.6642-1.5671.2686-.2239.4477-.5821.6268-1.1194l.2911-.8732c.1567-.4701.291-.9403.4701-1.4104.2463-.6717.5149-1.3433.8284-1.9926.4701-.9403 1.0746-1.5447 1.903-1.8358.0895-.0447.2015-.0447.291-.0447.0672 0 .1343 0 .2239.0223.3134.0896 1.0522.403 1.0298 1.4777 0 .2238-.0671.4029-.1119.5373-.1119.3806-.1567.5149-.1119.7612.0895 0 .1791.0223.2686.0223.2463 0 .4926-.0447.7612-.1567.4478-.1791.8955-.4925 1.3433-.8059.0672-.0448.1567-.1568.2015-.2911.2239-.4925.4254-1.0522.403-1.6343v-.9179c-.0224-.3135.1343-.6045.403-.7612.1343-.0672.2686-.112.4253-.112a.807.807 0 0 1 .4478.1344c.3134.2015.6492.3582 1.0298.5149.1344.0448.2239.1119.3135.2239h.1567c.0672 0 .1567 0 .2239.0224.4253.1119.8283.1791 1.2313.2462.694.0896 1.4329.1791 2.1717.1791.5149 0 .9626-.0447 1.4104-.1343 1.9702-.3806 3.7164-.9179 5.306-1.6343.0895-.0448.2015-.0672.3134-.0672h.3806c.0448-.2015.1791-.403.3582-.5149.5373-.3582.9851-.7836 1.3657-1.2761.1567-.2015.4925-.4702.7612-.4702h.1567c.1119 0 .2463 0 .3582.0224.2015.0672.403.1567.5597.1791.806.112 1.6119.2239 2.4179.3134.2911.0224.5821.0448.8508.0672.3358.0224.6716.0448 1.0074.0896.2911.0447.7388.0895 1.1418.291.4702.2015.9179.4478 1.3881.6717l.4253.2238c.1792.0896.3359.2015.4702.3359.7836.7835 1.791 1.7462 2.306 3.0895l.1119.3134c.2239.5821.4478 1.1418.7388 1.6344.2687.4477.403.9627.4254 1.6119 0 .5597.0448 1.1194.0671 1.6791.0672 1.4105.1568 2.8657 0 4.3433-.0671.5821-.1119 1.1642-.1119 1.7463.0448 1.097-.5149 1.8806-.9851 2.4403-.1119.1119-.2238.2238-.3358.3582-.1567.1567-.4477.3358-.6716.3358s-.515 0-.6717-.1791c-.8283-.8508-1.6567-1.903-1.5671-3.4702v-.6044c0-.2015-.0224-.3806-.0224-.5821 0-.3806-.0672-.7612-.2015-1.1418-.2911-.806-.6493-1.612-1.1194-2.3955.6268 1.1417 1.0074 2.4626 1.1418 4.0522.0448.5821.0671 1.1642.0895 1.7463 0 .4253.0224.8507.0448 1.2985.0448.6716-.0448 1.3433-.2687 2.0597-.291.8955-.6044 1.7686-.9179 2.7089l-.4477 1.2761c-.112.3359-.4478.5597-.7836.5597h-.0448c-.3806-.0223-.694-.291-.7612-.6492l-.1343-.6045c-.0672-.3582-.1343-.694-.2239-1.0074.0672.9626.1343 1.9925.1567 3.1119 0 .3358.0224.5597.0896.7612.2015.8507-.1567 1.4552-.4478 1.8358-1.0522 1.4328-2.3731 2.6194-3.9403 3.5373-.8507.4926-1.7015.9851-2.4851 1.5448-.7388.5149-1.4328 1.209-2.0597 2.0821-1.0074 1.388-2.1268 2.6642-3.4925 4.1194-.0448.0448-.2239.2239-.2686.2463l-.2239.1567c-1.5 1.1191-3.0672 2.2831-5.015 2.9101-1.0746.336-2.3731.717-3.7611.896-.3359.045-.6941.067-1.0523.067h-.7388l-.0448-.157Zm14.306-25.7684c.291.112.4702.2911.6269.403.0447.0448.0671.0672.0895.112.0672-.112.112-.2239.1791-.3359l-.3806-.1119c-.2239-.0672-.4701-.1119-.6716-.1567.0672 0 .1119.0448.1791.0672l-.0224.0223Zm.694-3.403c.2239.0672.4254.1792.6045.2911.2239.1343.4254.291.6269.4701l.0447.0448c.0672-.291.1344-.6045.1792-.9179-.112.0224-.2239.0448-.3583.0448h-.3134c-.2463 0-.5149.0224-.7836.0895v-.0224Zm9-5.485c.403.3806.7612.7836 1.0747 1.2089-.0896-.1343-.1792-.2686-.2911-.403-.2239-.3134-.5149-.6044-.8283-.8507l.0447.0448Zm-8.3955.6492h.0448l-.0448-.0671v.0671Zm8.2836-6.1119c.3358.2239.6492.4478.9627.6716l.2462.1791a4.4734 4.4734 0 0 0-.4925-.4253c-.2239-.1791-.4701-.3135-.7388-.4254h.0224Z"/>
    <path fill="#1E1E1E" d="M72.1567 60.097s.0448.0672.0896.0672c.2463.1119.5149.2239.7836.2686.8283.1344 1.6343.2239 2.4627.3135.6268.0671 1.2313.0895 1.8582.1567.3134.0448.6268.0895.8955.2239.6045.2686 1.1866.5821 1.7686.8731a.9937.9937 0 0 1 .2463.1791c.8508.8284 1.6791 1.6567 2.1045 2.7985.2686.7164.5149 1.4329.9403 2.0821.2239.3582.291.7836.3134 1.1866.0448 1.9701.2911 3.9403.0672 5.9104-.0672.6269-.1343 1.2538-.112 1.8582.0224.7612-.3134 1.3209-.7835 1.8582-.1344.1568-.2911.2911-.4702.4702-.806-.806-1.388-1.6567-1.3209-2.8209.0224-.403-.0448-.8284-.0448-1.2537 0-.4926-.0895-.9627-.2462-1.4329-.4702-1.3433-1.1418-2.597-1.9926-3.7388-.3582-.5149-.8283-.9179-1.3656-1.2761-.3135-.2015-.6493-.4254-.9403-.6492-.7388-.5821-1.5896-.806-2.5075-.8956-.403-.0448-.8284-.0671-1.2313-.0895-.0448.0224-.0672.0671-.112.0895-.0224.0448-.0448.0672-.0448.112 0 .0671 0 .1567.0896.2238.291.2239.6045.4702.9627.6045 1.2313.4702 2.1492 1.3209 3.1119 2.2164 1.612 1.5 2.2388 3.3806 2.4179 5.4627.0896 1.0075.0672 2.015.1344 3.0224.0447.6045-.0672 1.1866-.2463 1.7463-.403 1.2761-.8731 2.5522-1.3433 3.9627-.1343-.6493-.2239-1.1642-.3582-1.6567-.2015-.7612-.4254-1.5224-.694-2.2836-.1791-.5597-.4478-1.097-.6717-1.6344-.2462-.6268-.6044-1.1641-1.0746-1.6343-.2239-.2239-.403-.4701-.6045-.694-.2686.291-.291.4254-.1343.6716.2015.3135.4254.6269.6045.9627.3582.7164.5373 1.5.6492 2.2836.2687 1.8806.403 3.7836.4478 5.6866 0 .3134.0224.6268.1119.9179.112.4477-.0447.7836-.3134 1.1642-1.0075 1.3656-2.2388 2.4626-3.694 3.291-.8732.5149-1.7239 1.0075-2.5523 1.5895-.8955.6269-1.6343 1.3881-2.2612 2.2612-1.0522 1.4329-2.2164 2.7538-3.4253 4.0523-.0448.0448-.0896.1119-.1568.1343-1.5447 1.1642-3.0671 2.3282-4.9701 2.9332-1.1866.38-2.3955.716-3.6269.873-.3134.045-.6268.045-.9179.045h-.7388c-.3134 0-.6269-.068-.9403-.068h-.403c-.6268 0-1.2313-.089-1.791-.425-.1343-.067-.2463-.112-.3806-.112s-.2687.045-.403.134c-.0448.023-.1119.045-.2015.045-.0895 0-.2015 0-.291-.045-.8956-.291-1.7463-.694-2.4403-1.343-.3135-.291-.6045-.56-.9179-.8506-.4926-.4478-.7612-1.0299-1.0075-1.7239H45.0448c.4701.0896.9403.1119 1.4328.1119.806 0 1.612-.0895 2.4179-.1343.7836-.0448 1.5672-.2686 2.3284-.4925.8507-.2463 1.7015-.5821 2.5298-.8955.6941-.2463 1.3657-.4478 2.1045-.5374.5373-.0671 1.0747-.2238 1.612-.2238h.1343c.7164.0223 1.4552.0223 2.1716.1119.403.0448.806.2239 1.1642.403.4254.2015.8508.3134 1.2761.3134.2687 0 .5373-.0448.8284-.1567.1119-.0448.2239-.0672.3358-.0672h.3134c.2463 0 .403-.1567.4926-.3806.403-1.0522 1.0746-1.9477 1.6343-2.888.4925-.8284.8731-1.7239 1.1642-2.6418.4254-1.3209.4254-2.6642.1343-4.0075-.2462-1.1418-.0671-2.1268.5373-3.0671.1344-.2015.2239-.4478.3806-.6045.6717-.7388.7388-1.6791.8508-2.597.0671-.4926 0-.9627-.2687-1.3657 1.3433-2.1493 1.9926-4.4552 2.0597-6.9179.0448-1.4552-.4477-2.709-1.5224-3.7164-.8059-.7612-1.6791-1.4329-2.5746-2.1045-.5373-.403-1.1418-.6493-1.791-.7612-.1344 0-.2687-.0224-.403-.0224h-.4254c.0896.3582.3582.4702.6045.6045.7388.3806 1.4776.7388 2.2164 1.1194.6493.3358 1.1194.7836 1.209 1.5672.0447.3806-.0672.694-.3359.9403-.1343.1119-.2462.2462-.3806.3358-1.1418.8507-2.4403 1.2761-3.8283 1.4328h-.1791c-.3806 0-.7612-.1119-1.1418-.1567a8.018 8.018 0 0 1-1.0075-.2015c-.2462-.0448-.4701-.0896-.694-.0896-.806 0-1.5448.3359-2.2388.7836-.0896.0448-.1567.1567-.1791.2463-.0224.0895-.0224.2239 0 .291.0448.0672.1567.1344.2463.1568h.2014c.0896-.0224.2015-.0672.2911-.112.4925-.2015.9851-.3134 1.5-.3134.3806 0 .7612.0671 1.1418.1791.694.2239 1.3656.2687 2.0373.2687.3358 0 .694-.0001 1.0298-.0224.4478 0 .8956-.0672 1.3433-.0672.6941 0 1.2761-.2687 1.7911-.7164.3582-.3135.7388-.6045 1.0298-1.0299.1567-.2462.403-.4477.6717-.7164.6492.9851.5821 1.9925.4925 2.9552-.1343.2015-.3134.2463-.4702.2463H69c-.6492 0-1.2537.2015-1.8806.3134-.403.0672-.7836.2687-1.1418.4702-.7388.4254-1.5447.6045-2.3731.6492-.3358 0-.694.0672-1.0299.0672h-.694c-.6269 0-1.2537-.0672-1.8806-.2687-.4477-.1567-.9403-.1791-1.4104-.2462 0 0-.2015.1567-.2687.2462-.0224.0672.0448.2015.112.2687.0895.0896.2238.1791.3582.2239.7612.2239 1.5224.4254 2.2835.6492.2911.0896.6045.112.8956.112.2462 0 .5149-.0224.7612-.0672 1.0522-.1791 2.1044-.4478 3.1567-.6045.6045-.1119 1.2313-.1343 1.8582-.1343.2239 0 .4701.1343.6716.2463.2687.1567.4926.3806.7388.5597.0896.4925-.2015.8059-.3134 1.2537-.2239-.0672-.3806-.0895-.5373-.1567-.4925-.1343-.9627-.2239-1.4776-.2239h-.2687c-.8955.0448-1.791.0224-2.6642.3358-.2686.112-.5821.112-.8955.112h-.1119c-1.209 0-2.4179-.1791-3.6045-.3358h-.1119c-.0672 0-.1344 0-.1791.0447-.0896.0448-.1344.1344-.1791.2239 0 .0448.0223.1343.0671.1791.0448.0448.112.0896.1567.112.7836.291 1.5448.5373 2.3956.5373h.3358c.8283-.0672 1.6567-.0448 2.485-.0672h.2015c.9851 0 1.9254.2687 2.8433.6045.1791.0671.3135.2462.4702.3582-.2911.3582-.6493.4701-1.0075.4701-.2239 0-.4477-.0447-.6716-.0895-.3582-.0896-.7165-.112-1.0523-.112-.5373 0-1.0746.0896-1.6119.1792-.3358.0671-.6716.1567-1.0299.1567-1.0298 0-1.9701.4029-2.8432.8955-1.0523.6045-2.1269.9179-3.2911.9179-.1791 0-.3806 0-.5597-.0224h-1.0746c-1.0746 0-2.1045-.2686-3.112-.6492-.1343-.0448-.2686-.112-.4029-.1344-.7836-.1567-1.3657-.6045-1.9926-1.0746-.7612-.5597-1.097-1.3209-1.1418-2.2164-.0447-1.0523.1344-2.0597.4254-3.0672.3358-1.1418.9179-2.1492 1.5-3.1791-.1343-.1343-.2239-.2015-.3134-.2015-.0448 0-.0896.0224-.1344.0672-.0895.0895-.2015.2015-.2686.3134-.5821.9403-1.2314 1.8358-1.6343 2.8881-.3359.8731-.7612 1.7015-.9851 2.6194 0 .0895-.1343.1343-.2463.2463-.1567-1.0299-.7164-1.7687-1.388-2.4403-.112-.112-.2911-.2015-.4254-.2687 0 0-.112.0448-.1567.0672-.0448.0447-.0672.1567-.0448.1791.3134.4029.4925.8955.6716 1.388.515 1.3657.5597 2.7761.3582 4.1866-.1119.7164-.4477 1.2985-1.0298 1.7463-.9179.7164-1.903 1.0522-2.9552 1.0522a5.765 5.765 0 0 1-1.2314-.1343c-.291-.0672-.5597-.112-.8283-.112-.2239 0-.4478.0224-.6717.112-.2462.0671-.4925.0895-.7612.0895h-.8059s-.2015 0-.2911-.0671c-.5149-.2687-1.0074-.5821-1.3209-1.0523.0896-.3582.3582-.3806.5597-.4701.9851-.4254 1.8806-1.0299 2.709-1.7239.0671-.0672.1567-.1567.1567-.2463 0-.0671-.0896-.2239-.1343-.2239h-.0672c-.1119 0-.2463.0224-.3358.0672-.9403.4925-1.9702.6269-3 .6716h-.1791c-.403 0-.7836-.0671-1.209-.2462-.3134-.5373-.7612-1.0747-.8731-1.7911.2463-.2238.4925-.3358.7836-.3358.1119 0 .2462.0224.3806.0672.6716.2462 1.388.4477 2.0597.6716.1567.0448.3134.0896.4701.0896.0896 0 .1567 0 .2463-.0448.1119-.0448.1791-.2463.1119-.3582 0-.0224-.0224-.0672-.0448-.0896-.8955-.6268-1.7462-1.388-2.9104-1.5-.2687-.0224-.5373-.1567-.806-.2239-.1343-.3358-.2462-.6492-.3806-.9626-.1791-.4254-.0447-.7388.403-.9627.1791.1119.403.2239.5821.3582.5597.4477 1.1866.694 1.8582.8731.5373.1567 1.0746.2463 1.612.3806.0895 0 .1567.0224.2462.0224h.0672c.1343 0 .291 0 .3134-.1791 0-.0895-.0448-.2015-.1119-.2687-.0896-.0895-.2239-.1567-.3358-.2238-.3135-.1568-.6045-.3359-.918-.4702-.694-.3134-1.3432-.7164-1.9029-1.2313-.2463-.2239-.5373-.4254-.806-.6493-.3358-.2686-.5821-.6268-.5821-1.0522-.0224-1.1418-.3358-2.2612-.291-3.403.0223-.806 0-1.5896.0895-2.3955.0896-1.1194.7388-1.7463 1.8806-1.8582h.1343c.2239.1119.4702.2238.7388.3134.6717.2239 1.3209.3358 1.9702.3582-.0448.1567-.1119.2911-.1791.4478-.2463.6716-.5821 1.2313-1.1866 1.6567-.5821.4254-.9851.9627-1.097 1.7015-.1119.6492.0672 1.1642.5373 1.5895.4478.403.9403.6941 1.5672.6941.0895 0 .2015.0223.3582.0447.0448.112.0895.2463.1343.3582.2239.7165.6717 1.2762 1.3209 1.6792.2687.1567.5149.3582.7836.5149.7388.4701 1.5672.7164 2.4403.7164h.6269c.5821 0 1.1865 0 1.7462-.2015 1.097-.3582 2.0373-1.0075 2.9329-1.7239.4701-.3806.694-.9403.8731-1.5.2463-.7612.4702-1.5224.7388-2.2612.2463-.6492.4925-1.2985.806-1.903.3134-.6268.7388-1.1641 1.4328-1.4328.3358.0896.403.3582.403.6493 0 .1343-.0672.2686-.1119.4029-.1344.4627-.1344.9777 0 1.5448.3134.1567.6492.2239.985.2239.3582 0 .7388-.0896 1.0747-.2239.5373-.2239 1.0298-.5597 1.5223-.8955.2239-.1567.403-.403.4926-.6493.2686-.6268.4925-1.2985.4925-1.9925v-.9403c.3582.2239.7388.4254 1.1642.5821-.0448 0-.0672.0448-.0896.0895-.0895.2911.1344.4478.3135.6045.4925.4254 1.0298.8284 1.4776 1.2985.6492.6493 1.3881 1.1418 2.2164 1.5.8955.3806 1.7015.9179 2.5299 1.4105.1567.0895.291.1791.4477.2463h.0672c.1567 0 .3358-.2015.3358-.5374-.2239-.6492-.5149-1.4552-1.4328-1.8134-.6493-.2463-1.2985-.4701-1.9254-.7612-.5373-.2239-1.0522-.4925-1.5672-.806-.5373-.3134-1.0746-.6716-1.5895-1.0298h.0448c.4253.1119.8731.2015 1.2985.2686.7612.112 1.5224.2015 2.2835.2015a9.254 9.254 0 0 0 1.5672-.1343c1.8806-.3806 3.7164-.8955 5.4851-1.6791h.0895c.3359 0 .6269.0896.9403.2239.3359.1567.7165.2239 1.097.291 1.2538.2015 2.5299.2239 3.806.4478.5597.0895 1.0746.2686 1.5224.5821.5821.3806 1.1418.7836 1.7015 1.1865.6269.4254 1.2313.8956 1.5896 1.612.0223.0672.0671.1343.1343.1567.0895.0224.2015.0672.291.0672h.0896c.0895-.0448.2239-.2015.2015-.3135 0-.2462-.0448-.4925-.1344-.7164-.4701-1.1418-1.1417-2.1268-2.1268-2.888-.4478-.3359-.9403-.5597-1.4776-.7165-.7836-.2238-1.5448-.3582-2.3508-.3582-.2686 0-.5597 0-.8283.0448-.3806.0448-.7612.0448-1.1418.0672h-.0672c-.7388 0-1.4552-.1344-2.1492-.2911.6044-.403 1.1194-.8731 1.5671-1.4776.0672-.0895.1343-.1791.2015-.291m5.194 19.2313h.0448s.1343-.0672.1567-.1343a2.7777 2.7777 0 0 0 .0672-.6045c0-.4254-.0224-.8283-.0448-1.2537h-.0671c0-.3806.0447-.7612.0447-1.1418 0-.4478-.0671-.8955-.291-1.2985-.9403-1.6343-2.1493-2.9552-4.0522-3.5149-.2015-.0672-.3807-.1792-.5821-.2015-.2687-.0448-.5374-.0448-.806-.0448 0 0-.2239.0448-.2687.1119-.0895.0896-.2015.2239-.1791.3358 0 .112.112.2687.2239.2911.3582.1567.7164.291 1.0746.3582.4254.0895.7612.2687 1.0747.5821.2462.2463.5149.4701.7388.7164.7612.8284 1.4328 1.7015 1.7462 2.7761.2463.8284.515 1.6567.7836 2.4627.0448.1567.1343.3134.2239.4478 0 .0224.0896.0448.1343.0448m-5.194-20.9105c-.5373 0-1.0299.2463-1.3433.6716l-.1119.1791-.0672.112c-.3134.4254-.694.7612-1.1642 1.0746-.1567.112-.291.2239-.403.3582-.1791 0-.3806.0672-.5373.1344-1.5447.694-3.2238 1.2089-5.1268 1.5671-.3806.0672-.7836.112-1.2538.112-.694 0-1.388-.0896-2.0597-.1791a27.3077 27.3077 0 0 1-1.1194-.2015c-.1119-.0224-.2239-.0448-.3358-.0448-.0895-.0672-.2015-.112-.3134-.1567-.3135-.112-.6045-.2687-.8732-.4254-.2686-.1567-.582-.2463-.8731-.2463-.291 0-.5821.0672-.8507.2239-.5374.3134-.8508.8955-.8284 1.5v.9179c.0224.3358-.0672.7164-.3134 1.2761-.2687.1791-.5373.3582-.7836.4926v-.2015c.0448-1.3657-.8284-2.0821-1.6567-2.306-.1344-.0448-.2911-.0448-.4254-.0448-.2015 0-.403.0448-.5821.112-1.0075.3806-1.791 1.1418-2.3507 2.2612-.2911.6044-.5821 1.2537-.8732 2.0821-.1791.4701-.3358.9626-.4701 1.4552-.0896.291-.1791.5821-.2687.8507-.0671.2015-.2015.6269-.3582.7388-.9403.7612-1.6567 1.1866-2.3731 1.4329-.3358.1119-.7164.1343-1.2538.1343h-.5597c-.6044 0-1.1194-.1567-1.6343-.4702-.0895-.0671-.2015-.1343-.291-.2014-.1567-.112-.3135-.2239-.4926-.3359-.3134-.2015-.4925-.4253-.6044-.7388-.0448-.1119-.0672-.2239-.112-.3358-.2015-.5821-.7612-1.097-1.3657-1.1866-.291-.0447-.4253-.0671-.582-.0671-.0448 0-.1568 0-.4478-.2687.0224-.2239.1119-.4477.4254-.694.8059-.5821 1.3656-1.3657 1.7686-2.4403l.0896-.2015.0895-.2239c.2015-.5149.1344-1.0746-.1791-1.5224-.291-.4477-.8059-.7388-1.3433-.7388-.4925 0-1.0074-.1119-1.5223-.2686-.1568-.0448-.3135-.1344-.4478-.2015-.2463-.1344-.5149-.2015-.806-.2015h-.3358c-1.9478.2239-3.2015 1.5-3.3582 3.403-.0448.5373-.0448 1.0746-.0672 1.6343v.8284c-.0224.7835.0672 1.5447.1567 2.194.0672.4701.1344.8955.1344 1.3209 0 .4477.1343.8955.3358 1.2985-.806.694-1.0522 1.7015-.6045 2.7313.0896.2015.1567.403.2463.6269l.1343.3134c-.3134.3806-.4701.8732-.3806 1.3657.1343.8955.5597 1.5448.8732 2.0373l.2014.3358c.1792.3135.4478.5597.7836.6941.1791.0895.3582.1567.5597.2015-.1119.4925-.0224.9626.2239 1.3432.5373.8284 1.3209 1.2985 1.9254 1.612.403.2015.806.2462 1.0746.2462h.806c.3358 0 .7836.0001 1.2761-.1567.0672 0 .1119-.0224.1791-.0224.1343 0 .3134.0448.4925.0672.5374.112 1.0747.1791 1.5896.1791 1.4776 0 2.8209-.4701 4.0075-1.4104.9179-.7388 1.4776-1.6791 1.6343-2.8209.0224-.2015.0448-.3806.0671-.5821.2687.403.6269.7836 1.0523 1.097.694.5149 1.5224 1.1418 2.6866 1.3657l.0895.0447c1.4105.5374 2.5746.7836 3.7388.7836H55.6791c.2463 0 .4702.0224.7164.0224 1.4105 0 2.7985-.3806 4.1194-1.1418.7836-.4477 1.4329-.6492 2.0374-.6716.4029 0 .7835-.0896 1.0746-.1343l.2239-.0448c.4253-.0896.8731-.1567 1.2985-.1567.2462 0 .4701.0223.6716.0671.2687.0672.6493.1344 1.0523.1344.1567 0 .3134 0 .4477-.0224-.0672.4925-.1567.8283-.3358 1.0298-.2463.2687-.3806.5149-.4925.7164l-.0672.1344c-.8508 1.3209-1.097 2.7985-.7612 4.3433.2463 1.1417.2239 2.1492-.0896 3.1119-.291.8731-.6268 1.6343-1.0298 2.3283-.1567.2687-.3134.515-.4702.7836-.3358.5373-.6716 1.0747-.9626 1.6791-.1568.0224-.3135.0672-.4478.112-.0896.0224-.1791.0447-.2687.0447-.1567 0-.3358-.0447-.5597-.1567-.4701-.2238-1.0522-.4701-1.6791-.5373-.6044-.0671-1.1641-.0895-1.7238-.1119h-.7612c-.4926-.0224-.9403.0448-1.3209.1343-.1568.0224-.3359.0672-.4926.0896-.7836.0895-1.5447.291-2.485.6268l-.5821.2239c-.6045.2239-1.2314.4478-1.8582.6493-.6269.1791-1.3433.4029-1.9702.4253l-.694.0448c-.5373.0448-1.0523.0896-1.5896.0896-.4253 0-.7836-.0224-1.1194-.0896-.1567-.0224-.3358-.0448-.5149-.0448h-.3134c-.5374 0-1.0747.2687-1.3881.7164-.3134.4478-.4254 1.0075-.2463 1.5224.2911.8284.6717 1.679 1.4329 2.396l.3806.358.5373.492c.8059.761 1.8134 1.321 3.0671 1.702.1791.067.4702.134.806.134.1791 0 .3806-.022.5597-.067.8284.381 1.6343.425 2.194.425h.3806c.1344 0 .2239 0 .3359.023.2015 0 .4253.045.6268.045h.7388c.3135 0 .7165-.001 1.1418-.068 1.4553-.201 2.7761-.582 3.8955-.94 2.0821-.649 3.6941-1.858 5.2389-3.022l.2238-.157c.1344-.0896.2463-.2239.3806-.3359 1.3881-1.5 2.5075-2.7761 3.5597-4.2089.5597-.7836 1.209-1.4105 1.8582-1.8806.806-.5597 1.6344-1.0523 2.4403-1.5224 1.6791-.9627 3.0896-2.2388 4.209-3.7612.2239-.2911.8955-1.209.5821-2.5299-.0448-.1791-.0448-.4253-.0672-.6044h.1791c.7164 0 1.3433-.4478 1.5896-1.1195l.4254-1.2089c.3358-.9627.6492-1.8582.9402-2.7761.112-.3135.1792-.6269.2463-.9403.0896.1119.2015.2239.2911.3134a1.6774 1.6774 0 0 0 1.1865.4925c.4478 0 .8732-.1791 1.1866-.4925l.1567-.1567c.1567-.1343.2687-.2687.403-.403.5373-.6269 1.2313-1.6119 1.1866-3.0224 0-.5373.0447-1.097.0895-1.6119.1791-1.5448.0896-3.0448 0-4.4776-.0224-.5597-.0671-1.1194-.0671-1.6568 0-.8059-.2015-1.4776-.5597-2.0373-.2687-.4253-.4702-.9403-.6717-1.5l-.1119-.3134c-.5821-1.5-1.6344-2.5522-2.4851-3.3806-.1791-.1791-.403-.3358-.6716-.4701l-.4254-.2239c-.4702-.2463-.9403-.4926-1.4329-.6941-.5149-.2238-1.0298-.3134-1.388-.3358-.3358-.0448-.694-.0671-1.0523-.0895-.2686 0-.5597-.0448-.8283-.0672-.806-.0895-1.5896-.1791-2.3955-.291-.0448 0-.0672-.0224-.112-.0448-.291-.2015-.6268-.3134-.9851-.3134l-.0895-.0896Z"/>
    <path fill="#FFDA00" d="M74.8433 90.7687c-.3134 0-.6716-.1568-.806-.4478-.1567-.2911-.1791-.6493.0224-.9179l1.2985-1.5672c.7836-.9403 1.3433-2.0149 1.9926-3.291.3134-.6493.6716-1.2761 1.0298-1.8806.694-1.1418 1.6343-2.0373 2.5523-2.8881l1.2761-1.2089c.985-.9403 1.5895-2.1045 1.8806-3.5374.3134-1.5447.4477-2.7985.4701-3.9626 0-1.0523.0896-2.0821.2463-3.0896h-.0672c-.291-.0895-.5373-.3134-.6268-.6045-.2911-1.1194-.7389-2.2612-1.4553-3.6716-.291-.6045-.7164-1.1194-1.2537-1.5448-1.5-1.4328-3.2463-1.791-5.0597-2.0597-.2687-.0448-.5149-.0448-.7836-.0448-.5821 0-1.1642.0672-1.7463.1568-.3358.0447-.6716.0895-.985.1119-.0896.0448-.2015.0448-.2911.0448-.2462 0-.4701-.112-.6492-.3359-.2239-.291-.2015-.694 0-1.0074l.3358-.4702c.4701-.694.6716-1.3209.6716-2.0149 0-.2239.1344-.5149.2911-.7164-.1344-.1567-.2015-.3806-.2015-.5821.0448-.7612.0224-1.4552-.0672-2.1493-.0448-.3805.1567-.7611.5373-.8955.7165-.291 1.3433-.4477 1.9478-.5821l.2687-.0671c.694-.1567 1.388-.3358 2.082-.4702-.8955-.2462-1.7014-.6045-2.4626-.9851a266.7292 266.7292 0 0 0-5.1045-2.485c-.3358-.1567-.6941-.3135-1.0523-.4254-.6492-.3806-1.1194-.6493-1.5895-.9403l-.2687-.1567-.3806-.1343c-.4477-.1568-.9627-.1791-1.5-.1791 0 0-1.2089-.0224-1.5671-.0224-1.2538 0-1.5896.0895-3.3135.5597l-.291.0895c-1.5896.4254-2.9776 1.4105-4.1866 2.2612-.1343.0896-.2686.2463-.403.403-.9179 1.097-1.6567 2.3955-2.3955 4.2761-.1119.2687-.3582.4926-.6268.5597-.0224.112-.0896.2015-.1568.2911-.1343.1791-.3582.291-.5821.291l-.3805.0448c-.6045.0448-1.1642.1119-1.7463.1791h-.2239c-.7612.1343-1.4552.2463-2.0821.5373-.1567.0896-.3806.2239-.694.2239-.1791 0-.5373-.112-.6717-.2463-.0895-.0671-.1567-.1343-.2015-.2239-.0447-.0447-.1119-.1567-.1567-.3134 0 0-.0447-.2239-.0447-.2463-.3583-1.5447-1.0747-2.5298-2.2836-3.0895 0 0-.5373-.2687-.6493-.3358-.4477-.1791-.8283-.3135-1.1642-.3135-.9179.0448-1.7686.112-2.6417.1567l-.6045.0448c-1.2314.4478-2.015.8508-2.6866 1.3881-.7836.6045-1.2537 1.1865-1.5224 1.8582-.1119.291-.4254.6269-.7388.6716h-.291c-.2239 0-.4254-.0447-.5373-.2239-.8284-1.1417-1.3881-2.3955-1.6568-3.694-.1791-.8507-.3358-1.5671-.291-2.3731 0-.4254.0672-.8284.1791-1.209.2015-.7836.5821-1.5447 1.1642-2.3955.2462-.3358.5149-.6492.8507-.9403-.1343-.1343-.2462-.3134-.2686-.5149-.0448-.403-.0896-.6045-.0672-.806.0224-.9179-.2463-1.8358-.5821-2.8433-.4254-1.3209-1.3209-2.2388-2.7313-2.8433l-.6717-.291c-.1567-.0672-.3358-.2463-.4253-.403-.2015-.3582-.1568-.8955.1791-1.1642.1791-.1567.3806-.3582.6716-.4253l.403-.112c.6045-.1567 1.2089-.3358 1.8134-.403.5821-.0671 1.1642-.0671 1.7463-.0671h.7164c.5821 0 1.097.1343 1.5448.4477.7164.4702 1.4552.6941 2.2388.6941h.3806c.5373-.0448 1.0746-.0896 1.6119-.112.9403-.0671 1.8582-.1119 2.7761-.2686.4254-.0672.8508-.2015 1.2762-.3806.6044-.2687 1.3209-.5597 2.1268-.6269.2239-.0224.4926-.1343.7612-.2239.806-.3358 1.6791-.4925 2.6194-.5373l2.4403-.0895c.6493 0 1.3209.0895 2.1493.291.2686.0672.4925.2463.5821.5149.0895.2687.0671.5373-.0896.7612-.1119.1791-.2686.5149-.694.6045h-.0448s.0448.1119.0672.1567c.1791-.1791.403-.3134.6716-.4254l1.3881-.5149-.0448-.0448c-.2239-.2686-.3134-.6044-.1567-.9179.3582-.694.6045-1.0074 1.2313-1.3656.4254-.2239.8508-.4478 1.2761-.6269.3583-.1567.6045-.2687.806-.4254.5373-.4477 1.1866-.5821 1.7911-.6492l.8955-.112c.9179-.1119 1.8806-.2462 2.8433-.2462h.291l.8955.0447c.3582 0 .7164.0448 1.0747.0448h2.6865c.9627 0 1.903 0 2.8433.0672.3582 0 .7164.0224 1.0746.0224.4478 0 .9179 0 1.3657-.0224.4702 0 .9403-.0224 1.4105-.0224.9179 0 1.791-.1567 2.7089-.4702.2687-.1119.5149-.2238.8508-.2238h.1119l.1791-.1791c.403-.3806.806-.7836 1.209-1.1418.9179-.806 1.791-1.3657 2.7089-1.7239 1.1418-.4254 2.306-.806 3.4926-1.1642.3358-.1119.6492-.1119.9179-.1119h.291c.2463 0 .4701.0895.6045.2686.0671-.0448.1567-.0671.2239-.0895.0895-.0448.2014-.0448.291-.0448.3134 0 .6045.1791.7612.4701.1119.2239.1567.3135.2015.4254l.2239.5821c.1119.3134.2239.6269.3582.9403.8731 2.0821 1.2313 4.2761 1.0522 6.5821-.0448.5597-.0895 1.1194-.1567 1.7015l-.1343 1.4104c-.0672.8956-.3582 1.8135-.8732 2.7761l-.1791.3359c.2687.1567.403.4701.3806.7836v.4029c-.0447.2463-.0671.4254-.0895.6045-.0448.2687.0224.5149.2239.8508.2686.4701.6492.8955 1.0522 1.3432l.4254.4702c1.2313 1.4104 2.0821 2.8209 2.6194 4.3209.0671.1791.0895.291.1567.3806.7388 1.4776.9179 3.0224 1.0522 4.6343.1567 1.8582.0896 3.7388-.2015 5.7761 0 0-.0447.2015-.0447.2239.1119.3358.0895.694-.112 1.0299.0672.3134 0 .7612-.5597 1.1641-.2686.2687-.403.5374-.4477.8732-.1791 1.1418-.3583 2.2612-.5597 3.403-.112.6492-.2239 1.2985-.2687 1.9701-.0448.7164-.2239 1.4105-.3806 2.0821-.3806 1.5672-.8955 2.9552-1.5 4.2537-.4478.9179-.8731 1.8359-1.3657 2.7314-.3582.6492-.6716 1.1642-1.0074 1.6119-1.1642 1.5224-2.4403 3.1343-3.8956 4.5896-2.1492 2.1492-4.791 3.985-8.0596 5.5522-.7836.3806-1.5896.7164-2.418 1.0746-.2462.112-.4925.112-.6716.1344h-.0672l.0672.0224ZM47.6418 46.2836c.1791.0448.3358.1119.4478.2462.1119-.1567.2462-.291.403-.4253.1567-.1344.3134-.2463.4701-.3582h-.0448s-.1343-.0448-.2015-.0896c-.0895.2687-.3358.4702-.6268.5373-.1568.0224-.2911.0672-.4478.0896Zm.2239-3.2015s.3358.1119.403.1567c.1343.0672.291.1791.403.3134.0895-.1119.2014-.2015.3358-.291l1.6791-.9627h-.4254c-.2239 0-.4701-.0895-.6269-.2463-.0447-.0447-.0671-.0671-.0895-.1119-.2911.4478-.7164.7388-1.2985.806 0 0-.9851.1567-1.1642.1791.1567.0224.7836.1791.7836.1791v-.0224Zm25.097-2.6866c.3134.1791.5373.2687.7836.2911 1.0746.1343 2.0373.4925 2.9552.8507l.3134.1119c.6493.2463 1.5448.6717 2.1269 1.6344.1791-.806.0896-1.612-.2239-2.5523-.4254-1.2761-1.0298-2.5522-1.903-4.0298.3359.7388.6269 1.5448.8284 2.3955.0895.3134.2686.8955-.1791 1.4328-.1567.2015-.403.3135-.6493.3135-.1119 0-.2238-.0224-.3358-.0672-.1343-.0448-.3358-.1119-.5373-.291-.3134-.3135-.694-.4702-1.2089-.4702-.0896 0-1.0075.0448-1.1195.0672-.3134.0448-.6044.1343-.8731.3358l.0224-.0224Zm-23.2836-1.4104c.2015.0447.3806.1567.5149.3358l.0896-.112c.2239-.291.5373-.4253.694-.4925l.112-.0448-1.097.112h-.4478s-.8955-.0224-.9179-.0224c.2015.0448 1.0522.2239 1.0522.2239Zm2.3508-.6717c.1791-.0671.3806-.1343.5821-.2015-.1344-.0447-.2463-.1119-.3359-.2015 0 0-.2015.3583-.2238.3806l-.0224.0224Z"/>
    <path fill="#1E1E1E" d="M88.1418 25.9776c-1.5 1.3657-2.7985 2.9328-4.1418 4.4552-1.0074 1.1418-1.4104 2.5299-1.6791 3.9851-.2462 1.3209-.3806 2.6642-.4701 4.0299-.0672.8059.0448 1.5895.2686 2.3731.0896.3134.1791.6716.5373.9403.0448-.1119.0896-.2015.0896-.2687-.2463-.8283-.1343-1.6567-.0448-2.485.1791-1.7463.3806-3.515.7612-5.2388.2463-1.1866.7388-2.2165 1.5224-3.1344 1.0075-1.1865 2.0149-2.3731 3.0448-3.5597.3358-.403.7164-.7388 1.2761-.9627.0672.1344.1343.2463.1791.3583.2015.5149.3806 1.0522.5821 1.5447.8284 1.9926 1.1642 4.0523 1.0075 6.2015-.0672 1.0299-.2015 2.0597-.2687 3.112-.0672.8731-.3582 1.6791-.7612 2.4626-.3806.6941-.7388 1.4105-1.1194 2.1045-.0895.1791-.1567.3582-.2687.5821.515-.1791.515-.1791.7836-.4701.2015-.2239.403-.4478.7165-.806-.0448.4478-.0448.694-.0896.9627-.0672.5149.0672.9403.3134 1.388.4254.7388 1.0299 1.2985 1.5672 1.9254 1.0522 1.209 1.9254 2.5299 2.4627 4.0523.0671.1567.1119.3358.1791.4925.694 1.3657.8507 2.8433.9627 4.3209.1567 1.8806.0671 3.7388-.2015 5.597-.0448.2463-.1343.5149-.0448.7164.1567.3134-.291.4254-.1343.7388.1343.2687-.2015.403-.3582.5597-.3359.3806-.5373.7836-.6045 1.2985-.1791 1.1194-.3358 2.2612-.5373 3.3806-.112.6717-.2463 1.3657-.2911 2.0597-.0447.6493-.2015 1.2985-.3582 1.9254-.3582 1.4104-.8283 2.7985-1.4552 4.097-.4254.8955-.8731 1.8135-1.3433 2.6866-.2686.5149-.5821 1.0298-.9403 1.5-1.2089 1.5671-2.4403 3.1119-3.8283 4.5224-2.2612 2.2836-4.9478 4.0074-7.8359 5.3731-.7835.3806-1.5671.7164-2.3731 1.0522-.1567.0672-.3582.0672-.5373.0896.4254-.5149.8731-1.0522 1.2985-1.5672.8731-1.0522 1.5-2.2388 2.1045-3.4477a23.5592 23.5592 0 0 1 1.0074-1.8135c.6493-1.0522 1.5224-1.8806 2.4179-2.7089.4254-.403.8732-.806 1.2986-1.209 1.1194-1.097 1.8134-2.4403 2.1268-3.9627.2687-1.3656.4702-2.7313.4926-4.1194a21.7857 21.7857 0 0 1 1.0074-6.3358c.403-1.2985 1.0299-2.4851 1.5896-3.7164.0448-.0896.0895-.1791.1119-.2687 0-.0447-.0448-.1343-.0895-.1567-.0224 0-.0896-.0447-.1344-.0447h-.0447c-.1792.1791-.3583.3358-.4702.5373-.8284 1.5224-1.5895 3.0671-1.9701 4.791-.0896.4254-.112.8955-.4478 1.2761-.3582-1.3433-.8955-2.597-1.5-3.8283-.3582-.7164-.8507-1.3433-1.5-1.8358-.0224 0-.0672-.0448-.0896-.0672-1.5-1.4552-3.4029-1.8582-5.3731-2.1493a6.0388 6.0388 0 0 0-.8955-.0671c-.9403 0-1.8806.1791-2.8209.2686-.0448 0-.112.0224-.1567.0448.1119-.1567.2462-.3134.3582-.4925.4925-.7388.8283-1.5672.806-2.4851v-.112c.3134-.1119.6268-.2014.9626-.2462.7388-.112 1.4777-.3358 2.2388-.4254.6045-.0672 1.209-.1343 1.7911-.1343.4925 0 1.0075.0448 1.5.1791.694.1791 1.4104.291 2.3731.4925-.3806-.6045-.7164-.9403-1.1642-1.1418-.9179-.4253-1.8582-.6716-2.8208-.6716-.3583 0-.7165.0448-1.0971.1119-.6492.1344-1.2761.2911-1.9253.3582-.6045.0672-1.1866.2015-1.7463.3806.0448-.7835.0448-1.5447-.0672-2.3059L74.0373 53c.5374-.2239 1.1194-.3582 1.6792-.4925 1.0746-.2463 2.1492-.515 3.2462-.6941.5597-.0895 1.1418-.2462 1.7015-.2462.2015 0 .4254 0 .6493.0671h.1343c.1119 0 .2463-.0224.3582-.0671.0896-.0224.1567-.1344.1791-.2239 0-.0896 0-.2239-.0672-.2687-.0895-.0895-.2238-.1791-.3582-.1791-.7612 0-1.5-.2686-2.2388-.3358-1.2761-.1119-2.3955-.5821-3.5149-1.1418-1.7015-.8507-3.403-1.6791-5.1269-2.4851-.3806-.1791-.7388-.3358-1.1194-.4701-.5597-.3582-1.1418-.694-1.7238-1.0299-.1568-.0895-.3359-.1343-.515-.1791-.6716-.2462-1.388-.2239-2.0821-.2462h-1.2985c-1.4328 0-1.8134.1343-3.8283.6716-1.6791.4702-3.0672 1.4105-4.4552 2.3731-.2015.1568-.3806.3359-.5598.5374-1.1194 1.3432-1.9029 2.888-2.5522 4.5l-.0448.1119v-.1791c-.0671-.8955-.0671-1.7911-.1119-2.709 0-.1343-.0896-.2686-.2239-.2686h-.0448s-.2238.1567-.291.2462c-.0448.0896-.0448.2015-.0448.3135 0 .8955 0 1.8134.0672 2.7089 0 .1344.0224.2687.0448.403-.7389.0672-1.4553.1343-2.1717.2239-.8731.1343-1.7463.2239-2.5522.6269-.112.0447-.2015.1343-.3358.1343-.0448 0-.112 0-.1568-.0672-.0224-.0447-.0447-.0671-.0671-.1119 0-.0672-.0224-.1343-.0448-.2239-.3806-1.6343-1.1866-2.9328-2.7537-3.6716-.2239-.112-.4478-.2463-.6941-.3359-.4701-.2014-.9626-.3806-1.5-.3806h-.1119c-1.0746.0448-2.1269.1344-3.1791.2015-.1119 0-.2239.0448-.3134.0896-1.0075.3582-1.9926.806-2.8433 1.4552-.7612.6045-1.4329 1.2761-1.7911 2.2164-.0447.0896-.0671.2015-.1119.2911-.7388-1.0299-1.2537-2.1269-1.5224-3.3806-.1567-.7164-.3134-1.4329-.2687-2.1493 0-.3358.0672-.694.1568-1.0074.2015-.7836.5821-1.4776 1.0522-2.1269.403-.5821.9403-1.0075 1.5672-1.3433.8283-.4477 1.6567-.8731 2.485-1.3209.1568-.0895.3135-.1791.4702-.2239 1.2761-.4701 1.9701-1.4552 2.4627-2.6418.0448-.0895 0-.2014 0-.3358-.112.0224-.2239 0-.2911.0672-.5597.6045-1.2761.9403-1.9701 1.3209-.5373.291-1.097.5821-1.6567.8507-.515.2463-.9627.5597-1.3209.9627-.2463.2911-.515.5597-.9627.6269-.0224-.2463-.0672-.4702-.0672-.694.0224-1.0971-.291-2.1269-.6268-3.1344-.5374-1.6119-1.6568-2.6865-3.2015-3.3582-.2239-.0895-.4478-.1791-.6717-.291-.0224 0-.0448-.0448-.0895-.1344.1343-.0895.2462-.2462.3806-.291.694-.1791 1.388-.403 2.1044-.4925.7836-.0896 1.5896-.0448 2.3956-.0672h.0447c.3806 0 .7165.1119 1.0299.3134.8283.5373 1.7239.8284 2.6866.8284h.4477c1.4776-.1343 2.9776-.1343 4.4552-.3806.515-.0896 1.0075-.2463 1.4777-.4478.6044-.2686 1.2089-.4925 1.8806-.5597.3358-.0447.6716-.1567.985-.291.7388-.2911 1.5224-.4478 2.3284-.4702.7164-.0224 1.4552-.0671 2.1716-.0895h.2463c.6492 0 1.2761.1119 1.9478.2686-.0672.112-.112.2463-.1791.2687-.9403.2015-1.8806.403-2.8433.5821-.4478.0895-.8732.2463-1.2314.5373-.1119.0896-.1791.2015-.2462.3134-.0896.1344.0671.3806.2014.403h.2239c.3806 0 .7388-.1791 1.0747-.3358.6044-.291 1.2313-.4254 1.9029-.4254 0 0 .2015.0224.3582.0672-.3582.7836-.7835 1.4776-1.2089 2.2388-.4925.0448-.9627.0895-1.4552.1343h-1.2314c-1.5671 0-3.0895.3582-4.5895.8284-.3358.1119-.6269.2686-.9403.4254-.2239.1119-.4478.2462-.3806.5373.0224.1791.2239.3134.5149.3134h.0896c.3806-.0448.7612-.0672 1.1194-.1567.1791-.0448.3358-.0672.4925-.0672.1119 0 .2015 0 .3134.0448h.1344c.1119 0 .2462-.0448.3582-.0672.5149-.1119 1.0074-.2238 1.5224-.3134.0895 0 .2014-.0224.291-.0224h.2239c.5821.112 1.1418.2239 1.7015.3358.1343.2239 0 .3582-.0896.4926-.1567.3134-.3582.6044-.4701.9179-.1567.403-.403.6268-.8284.694-.694.0896-1.3657.2463-2.0597.2687-.694.0224-1.2985.2462-1.8582.6044-.5373.3359-1.0298.7165-1.5224 1.0747-.0671.0447-.1343.2239-.1119.2462.0895.0896.2015.1791.3134.1791h.0224c.291-.0671.5821-.2014.8731-.3134.3582-.1343.6941-.3134 1.0523-.4254.1791-.0447.3582-.0895.5373-.0895h.1791c.7164.1119 1.4104.2686 2.1269.4254.0895 0 .1791.0895.3134.1343.1343.4477-.112.8507-.0896 1.3209-.985.1791-1.8582.5821-2.8433.6716-1.0298.0896-1.8805.6493-2.597 1.3881-.0224.0224-.0447.0671-.0671.0895 0 .0896-.0448.2239 0 .2911.0447.0671.1567.1119.2239.1119h.0223c.4254-.1343.8508-.2686 1.2762-.4254.6716-.2686 1.3656-.5149 2.082-.5149h.2239c.403.0224.806.0896 1.209.1344.2686.4477.1343.8731.1119 1.2761-.0448.4925 0 .9627.2239 1.388h.1119c.2015 0 .3359-.1119.3583-.3134.0671-.5373.1119-1.097.1791-1.6567.0447-.4478.2686-.7612.6044-1.0523.403-.3358.8284-.6268 1.3209-.7835 1.6791-.5597 3.3359-1.1642 5.0597-1.4777.7388-.1343 1.4776-.3134 2.2165-.4925.2238-.0448.4477-.1791.7388-.291-.1791-.2015-.3583-.2911-.5821-.2911h-.0224c-.6941.0224-1.3657 0-2.0597.2015-.9179.2687-1.8806.403-2.8433.6045-.2463.0448-.4702.1119-.694.1567-.9403.2015-1.8806.403-2.8433.5821h-.0448s-.1791-.0448-.291-.0672l.2238-.7388s.1344-.1567.1791-.1791c.8956-.5149 1.7911-1.0298 2.6866-1.5671.5149-.3135 1.0746-.4702 1.6567-.5374 1.9702-.2238 3.8732-.6716 5.8209-1.0298.0896 0 .2015-.0448.2911-.1119.0447-.0224.0895-.112.0671-.1791 0-.0672-.0447-.1344-.0895-.1568-.0448-.0447-.112-.0895-.1791-.0895-.0896 0-.2015-.0448-.2911-.0448h-.1119c-.3582.0896-.694.1119-1.0522.1119-.4254 0-.8732-.0447-1.2986-.0447h-.291c-.6493 0-1.3209.0671-1.9478.2686-.8283.2687-1.6567.4702-2.485.6941-.4478.1119-.8732.1343-1.3209.1343H50.306c0-.7388.3806-1.2537.7388-1.7239.0672-.0895.2239-.1567.3358-.2015 1.3881-.5597 2.7985-1.0522 4.2985-1.0522h.2911c.6045 0 1.1418-.1791 1.7015-.4478.7388-.3582 1.5448-.6269 2.3059-.9403.3135-.1343.6045-.3134.918-.4925.0671-.0448.0895-.1791.0671-.2687 0-.1343-.1343-.2015-.2239-.2015h-.0895c-1.1194.4254-2.3284.3582-3.4702.6269-.7388.1791-1.5.291-2.2388.4478a7.586 7.586 0 0 1-1.4328.1343h-.5821c.3806-.4926.694-.8955 1.0299-1.2985.1119-.1344.2686-.2239.4253-.2911 1.3433-.5149 2.709-1.0298 4.0747-1.5447.5597-.2015 1.1417-.2239 1.7238-.2911.2687-.0224.5373-.1343.7836-.2239.112-.0447.112-.3134 0-.3582-.2239-.0671-.4477-.1791-.694-.1791h-.5821c-1.1642 0-2.306.1343-3.3806.6045-.0896.0448-.1791.0672-.291.1119.291-.5821.4253-.7612.8955-1.0074.3806-.2239.8059-.4254 1.2089-.6045.3582-.1567.6941-.2911.9851-.5373.3806-.3135.8731-.403 1.3657-.4478 1.2089-.1343 2.4179-.3582 3.6492-.3582h.2687c.6492 0 1.3209.0672 1.9701.0896h2.6866c.9403 0 1.8806 0 2.7985.0671.3806 0 .7388.0224 1.1194.0224.9403 0 1.8582-.0448 2.7761-.0448h.0448c1.0075 0 1.9926-.2015 2.9329-.5149.1791-.0672.3582-.1791.5597-.1791.1119 0 .2238.0224.3358.1119.5821-.5597 1.1418-1.1194 1.7239-1.6343.7164-.6492 1.5223-1.2089 2.4402-1.5448 1.1418-.4253 2.2836-.7835 3.4478-1.1417.2911-.0896.6269-.0672.9627-.0896M86.306 39.6119c.2015-.0895.3134-.1343.4254-.2015 1.1865-.7611 1.8806-1.9029 2.4179-3.1567.6492-1.5.5821-3.0224.291-4.5671-.0671-.3582-.2686-.6941-.4477-1.0523-.0448-.1119-.1791-.1791-.2687-.2686-.1791.1791-.1119.3582-.0448.5149.7612 1.8358.5821 3.6493-.2015 5.4179-.4477.9851-1.0074 1.8806-1.7462 2.6642-.1567.1567-.3582.291-.403.6492m-9.2463.403s-.2015-.0448-.2686-.1119c-.515-.5149-1.1194-.7164-1.8135-.7164h-.3806c-.2686.0224-.5597 0-.8283.0447-.6045.0672-1.1194.3135-1.5672.7388-.3358.3135-.3134.6941.0672.9627.4254.2911.8955.5373 1.4104.6045 1.0746.1343 2.0597.5373 3.0672.9179.7164.2687 1.3657.6717 1.7687 1.3881.0895.1567.2014.291.3134.403.1343.1343.3134.2015.4701.2015.2239 0 .4254-.1344.5373-.403.0448-.1344.0896-.2687.112-.403.291-1.0746.1343-2.1269-.2015-3.1567-.5149-1.5672-1.2537-3-2.1045-4.3881-.9851-1.6119-2.4179-2.6194-4.097-3.3806h-.0896c-.0671 0-.1567 0-.1791.0672-.0671.0895-.1567.2686-.1343.3582.0896.2239.2239.4254.3806.5821.6269.694 1.2985 1.3433 1.9254 2.0373.2239.2463.4477.5373.6045.8507.4477.8732.7835 1.7687 1.0074 2.709.0448.2239.1791.4701 0 .7164m9.5597 17.4179c.1344-.0224.2463-.0224.3135-.0671 1.2537-1.1194 1.8134-2.4627 1.4552-4.1642-.2015-.8955-.5149-1.7239-.9179-2.5075-.3806-.7388-.6941-1.5-.9627-2.2836-.1343-.3806-.2463-.7835-.403-1.1641-.0448-.0896-.1791-.1568-.2687-.2463-.2238.3582-.1343.6716-.0223.9403.3358.9851.6492 1.9701 1.0298 2.9328.3582.8955.6493 1.8135.7164 2.7985.0448.6269-.0224 1.2314-.2686 1.8359-.2239.5373-.4254 1.097-.6269 1.6343-.0224.0895 0 .1791 0 .3134m1.5448-33.0895h-.3135c-.291 0-.694.0223-1.1418.1567-1.0522.3134-2.2835.7164-3.5373 1.1865-1.0074.3806-1.9701.9851-2.9776 1.8806-.403.3582-.7836.7388-1.1865 1.0971-.3806.0447-.6717.1567-.8508.2462-.8731.3135-1.6567.4478-2.4403.4478-.5149 0-1.0074 0-1.4776.0224-.4478 0-.8955.0224-1.3433.0224-.3358 0-.6716 0-1.0298-.0224-1.0299-.0672-2.0373-.0672-2.9105-.0672h-2.6642c-.3358 0-.694 0-1.0298-.0448-.3134 0-.6045-.0224-.9179-.0447h-.3135c-1.0298 0-2.0149.1343-2.9552.2462-.291.0448-.5821.0672-.8955.112-.4701.0447-1.4328.1567-2.2388.8283-.0896.0896-.291.1567-.5149.2687-.5821.2463-1.0075.4701-1.4329.7164-.7612.4254-1.1194.8507-1.4776 1.5672-.2239-.2239-.4925-.3582-.8059-.4478-.8732-.2239-1.6344-.3134-2.3508-.3134H50.6418l-1.7015.0895c-1.0298.0448-2.0149.2463-2.888.6045-.1344.0672-.403.1567-.5373.1791-.9403.0896-1.7239.403-2.3732.694-.3582.1567-.7164.2687-1.0746.3359-.8731.1343-1.7687.2014-2.709.2462-.5373.0224-1.097.0672-1.6343.112h-.3134c-.6269 0-1.209-.1791-1.7911-.5597-.6044-.3806-1.2537-.5821-1.9477-.5821h-.7836c-.6045 0-1.209 0-1.8582.0895-.694.0896-1.3433.2687-1.9478.4254l-.403.1119c-.4925.1344-.8283.4254-.985.5821-.6941.5373-.8732 1.5224-.3806 2.2612.1791.3135.4477.5821.8059.7388l.4254.1791.2463.112c1.1865.5149 1.903 1.2537 2.2612 2.3507.3134.9627.5597 1.7687.5373 2.5523 0 .2462 0 .5149.0672.7612v.1567l.0671.2686c-.1791.2015-.3582.403-.5149.6269-.6269.9403-1.0523 1.7686-1.2761 2.6418-.112.4254-.1791.8955-.2015 1.388-.0448.8956.1343 1.7015.2686 2.418v.1343c.3135 1.4328.9179 2.7761 1.8359 4.0298.3134.4478.8283.6941 1.3656.6941h.2239c.6045-.0896 1.1194-.4926 1.3433-1.0747l.0448-.1343.0447-.1119c.2015-.5374.6045-.9851 1.2538-1.5.6044-.4702 1.3209-.8284 2.3731-1.209l.403-.0448c.8731-.0671 1.7463-.1343 2.6194-.1567.2463 0 .5597.112.8731.2463l.2687.1343c.1119.0672.2239.112.3582.1791.9627.4478 1.5224 1.2314 1.8134 2.5075 0 .0895.0224.1791.0448.2462.0448.1792.1567.4254.2687.5821.1119.1791.2238.3135.4029.4478.3583.2687.7612.403 1.1866.403.5373 0 .9403-.2239 1.097-.3134.4702-.2463 1.097-.3135 1.8135-.4254h.2238c.5597-.112 1.1194-.1567 1.7015-.2239h.3806a1.8768 1.8768 0 0 0 1.1418-.6269c.0224-.0447.0672-.0671.0896-.1119.3358-.1567.6268-.4478.7836-.8284L54 53.7388c.7165-1.7687 1.4105-3.0224 2.2612-4.0298.1567-.1791.2239-.2239.2239-.2463 1.2313-.8508 2.4851-1.7463 3.9403-2.1493l.2911-.0895c1.7014-.4702 1.9477-.5373 3.0895-.5373H65.3732c.4925 0 .9179 0 1.2089.1343.0896.0448.1791.0672.2911.0895l.2238.112c.4702.2686.9403.5373 1.4105.8507.1119.0672.2463.1344.3582.1791.3358.112.6493.2463.9627.403 1.7015.806 3.403 1.6344 5.0821 2.4851h.0224c-.5597.1567-1.1194.291-1.6567.5149l-.1568.0672c-.7164.291-1.1418 1.0298-1.0522 1.791.0895.6269.1119 1.2538.0672 1.9702 0 .1791 0 .3582.0447.5373-.0895.2015-.1343.403-.1567.6269v.2015c0 .4925-.1567.985-.5373 1.5447-.0448.0896-.1119.1567-.1791.2463l-.1567.2239c-.4254.6045-.403 1.4104.0448 1.9925.3134.4254.8283.6493 1.3433.6493.1567 0 .3358-.0224.4925-.0672.291-.0224.5597-.0672.8507-.1119.5821-.0672 1.1194-.1344 1.6344-.1344.2238 0 .4253 0 .6492.0448 2.0149.2911 3.403.6717 4.4552 1.7015.0448.0448.1791.1567.2239.2015.4254.3358.7612.7388 1.0075 1.2537.6716 1.3657 1.097 2.4627 1.388 3.515.0896.3582.3135.6716.5821.8955-.1119.8507-.1567 1.7015-.1567 2.5746 0 1.1194-.1567 2.3284-.4478 3.806-.2462 1.2537-.7835 2.2612-1.6343 3.0895-.2462.2239-.4925.4702-.7388.6941l-.5373.5149c-.9403.8955-1.9254 1.8134-2.6866 3.0448-.3582.582-.7164 1.2089-1.0746 1.9477-.6269 1.2314-1.1642 2.2612-1.8806 3.1343l-.8955 1.0747-.403.4925c-.4254.5373-.5149 1.2761-.1791 1.8582.291.5373.8731.8732 1.4776.8732h.1791c.2911-.0224.6269-.0448 1.0075-.2015.8283-.3359 1.6343-.6941 2.4403-1.0747 3.3806-1.6119 6.0895-3.4925 8.3059-5.7089 1.5-1.5 2.7762-3.1343 3.9627-4.6791.3806-.4702.7165-1.0299 1.097-1.7463.4702-.9179.918-1.8358 1.3657-2.7537.6493-1.3657 1.1642-2.7985 1.5672-4.4329.1791-.694.3358-1.4328.403-2.2164.0448-.6268.1567-1.2761.2686-1.8806.2015-1.1418.3806-2.2836.5597-3.4253 0-.1344.0672-.2463.1567-.3583.6941-.5597.8732-1.1641.8732-1.6567.1567-.4253.1567-.8059.0895-1.097 0-.0895.0224-.1343.0224-.2015.2911-2.1045.3582-4.0522.2015-5.9776-.1343-1.6791-.3358-3.3358-1.1418-4.9478a158.3322 158.3322 0 0 1-.0671-.2014c-.6045-1.7015-1.5224-3.2015-2.7985-4.7015-.1344-.1568-.2911-.3135-.4254-.4702-.3806-.403-.7164-.7836-.9403-1.1866-.1343-.2238-.1343-.3134-.112-.3358.0224-.2015.0448-.403.0672-.6716v-.2463s.0448-.1791.0448-.2686c0-.3135-.0896-.5821-.2239-.8284.4925-1.0075.7836-1.9478.8507-2.9105.0448-.4701.0896-.9179.1344-1.388.0448-.5821.1119-1.1418.1567-1.7239.1791-2.4179-.2015-4.7686-1.1194-6.9627-.1343-.291-.2239-.6045-.3358-.8955l-.2239-.6045c-.0448-.1343-.112-.2686-.2015-.403-.2911-.6044-.9403-1.0074-1.612-1.0074-.1119 0-.2462 0-.3582.0448-.2238-.112-.4701-.1791-.7388-.1791l.112-.0224Zm-9.9851 16.9253.0448-.0447v.0895l-.0448-.0448Z"/>
    <path fill="#FFDA00" d="M51.7165 94.1268c-.2015 0-.403-.0671-.5597-.2238-.112-.112-.2239-.2015-.3359-.2687-.0895-.0672-.1567-.1119-.2462-.1343-.1344-.0448-.2687-.0896-.4254-.0896-.3806 0-.7836.112-1.3657.2911-.0895.0224-.1791.0447-.2462.0447-.1791 0-.3583-.0671-.4926-.1567l-.2463-.2015c-.1119-.0895-.2238-.1791-.3582-.2686-.1343-.0896-.2462-.1343-.3358-.1343h-.2686c-.2015 0-.403.0447-.6045.0895 0 0-.6045.0896-.6269.0896-.2686 0-.5373-.1344-.694-.3582-.2463-.3583-.4478-.7165-.6493-1.0971-.2015-.3806-.3582-.7836-.5149-1.2089-.0448-.1567-.0895-.3358-.1343-.4926-.0896-.4477-.1343-.9179-.0896-1.388h-.0895c-.112 0-.2015 0-.3135-.0672-.291-.1119-.4925-.3806-.5373-.6716-.0447-.2687-.0447-.5373-.0671-.806 0-.3134-.0224-.6045-.0224-.8955 0-.4254 0-.8284-.0672-1.2537-.0448-.3806.1791-.7165.5373-.8732.1567-.0895.3359-.1791.5821-.1791.1791 0 .3358 0 .5149-.0224.515-.0447.9851-.1119 1.4105-.2462a3.4625 3.4625 0 0 1 .694-.1344h.1791c.2239 0 .3582 0 .4702.0224.1567 0 .3134.0224.4701.0224.3358 0 .5373-.0224.7388-.0672l.4478-.1567.6716-.291s.2015-.0672.3135-.0672c.2238 0 .4477.0896.6044.2687.112.1119.2463.2015.5374.2015.2462 0 .5597-.0672.8507-.1344.0672 0 .1567-.0447.2239-.0671.1791-.0672.3358-.1344.5149-.2015l.5149-.2239s.2015-.0448.2911-.0448a.8074.8074 0 0 1 .4477.1343c.0896.0672.2015.112.2911.1568.3358.1343.7164.2015 1.2537.2015.1791 0 1.0075-.0448 1.0075-.0448s.4701-.0224.4925-.0224c.3806 0 .7164.2463.806.6269.0672.2462.1119.3806.1343.5373.0672.3358.2015.6268.4254.8731l.2463.2687c.1343.1567.2686.3134.4253.4477 1.0299 1.0075 1.7463 2.2612 2.2388 3.9403.0672.2239.1344.4926.0896.806 0 .0895-.0896.3358-.1343.403-.2239.4701-.403.8059-.5821 1.1194-.2687.4701-.5597.8283-.9179 1.1194-.1568.1343-.3582.2239-.5597.2239-.1344 0-.2687-.0224-.3806-.0896-.2239-.1119-.4254-.1791-.6493-.2015h-.2686c-.6493 0-1.2538.3135-1.7911.6045-.1343.0672-.2687.1119-.403.1119-.1343 0-.2462-.0224-.3582-.0895-.1119-.0672-.2463-.112-.3582-.1567-.2239-.0896-.403-.1344-.5597-.1344-.0672 0-.1567 0-.2239.0224l-1.7015.4926s-.1567.0447-.2462.0447Z"/>
    <path fill="#1E1E1E" d="M52.9926 83.6269c.1343.0895.2686.1567.4029.2015.515.2238 1.0299.2686 1.5896.2686h.5821c.291 0 .6045-.0448.9179-.0448l.1343.4702c.0896.4925.2911.9179.6269 1.2761.2239.2463.4478.5373.694.7612 1.0299.9851 1.612 2.2388 2.015 3.5821.0447.1567.0895.291.0671.4477 0 .0448-.0224.112-.0448.1568-.1791.3582-.3582.7164-.5597 1.0522-.2015.3358-.4477.6493-.7388.9403-.3134-.1567-.6044-.2463-.9179-.291-.1343 0-.2462-.0224-.3806-.0224h-.0671c-.7388 0-1.4329.3134-2.1269.7164-.1343-.0672-.2687-.1343-.403-.1791-.2686-.112-.5597-.2015-.8731-.2015-.1567 0-.3135 0-.4702.0672-.5597.1567-1.1194.3358-1.6791.4925-.1343-.1343-.291-.2463-.4254-.3358-.1343-.0896-.2686-.1791-.4029-.2239-.2239-.0896-.4702-.1567-.7388-.1567h-.1344c-.403 0-.8731.1343-1.4776.3358-.2015-.1567-.403-.3358-.6492-.4925-.2239-.1568-.4702-.2687-.7612-.2687h-.3806c-.3806.0224-.7612.1119-1.1866.1567A7.4961 7.4961 0 0 1 45 91.3284c-.1791-.3583-.3358-.7165-.4477-1.0971-.0448-.1343-.0896-.2686-.112-.4029-.0895-.403-.1119-.8284-.0448-1.2314a7.9493 7.9493 0 0 0 .0672-1.0298c0-.0672 0-.112-.0448-.1568-.0447-.0671-.1343-.1119-.2462-.1119-.0672 0-.1344 0-.1791.0672-.1568.1119-.3135.2686-.5374.4477-.0223-.2462-.0447-.4925-.0671-.7612-.0448-.7388-.0224-1.4552-.0896-2.1716.112-.0448.2015-.1119.3135-.1119.1791 0 .3582-.0001.5373-.0224.5373-.0448 1.0746-.1344 1.6119-.2911.1567-.0448.3358-.0895.4926-.0895h.1343c.1119 0 .2463 0 .3582.0224.1791 0 .3582.0223.5597.0223h.1791c.2463 0 .4925-.0447.7164-.0895.112 0 .2015-.0448.3135-.0896.1119-.0447.2014-.0895.3134-.1343.2015-.0895.4254-.2015.6492-.291.3359.3582.7388.4701 1.1642.4701.3358 0 .6717-.0672 1.0299-.1343.1119-.0224.2238-.0448.3134-.0896.3134-.1119.6493-.2686 1.0522-.4253m0-1.6791c-.2015 0-.4029.0447-.6044.1119-.2015.0672-.3806.1567-.5374.2239-.1567.0671-.3134.1343-.4477.1791-.0448 0-.0896.0224-.1343.0448-.1791.0447-.4702.1119-.6717.1119-.3134-.3134-.7388-.4702-1.1642-.4702-.2015 0-.4253.0448-.6268.1344l-.4702.2015-.2015.0895-.2015.0672c-.2462.0448-.3806.0671-.5373.0671h-.4701c-.2015 0-.3806-.0223-.5597-.0223h-.2463c-.3134 0-.6045.0671-.8955.1567-.3582.1119-.7612.1791-1.2314.2239h-.4701c-.4254 0-.7388.1567-.8955.2462-.6941.2687-1.1194.9851-1.0523 1.7239.0448.403.0448.7836.0672 1.1866 0 .3134 0 .6045.0224.9179 0 .291.0448.5821.0671.8731.0672.5597.403 1.0299.8956 1.2761 0 .2911.0447.6045.1119.8956.0448.2015.0896.3806.1567.5821.1567.4477.3358.8955.5597 1.3209.2015.4029.4478.8059.7164 1.1865.3135.4702.8284.7388 1.3881.7388h.2015c.2015-.0224.3806-.0448.5597-.0895.1791-.0224.3582-.0672.5373-.0672h.0896c.1343.0896.2238.1567.291.2239l.2687.2015c.291.2239.6492.3358 1.0074.3358.1791 0 .3358-.0224.515-.0896.4925-.1567.8507-.2462 1.0746-.2462l.7836-1.5224-.6717 1.5448s.0448.0223.112.0671c.0895.0672.1567.1344.2462.2015a1.6663 1.6663 0 0 0 1.1418.4478c.1567 0 .3135-.0224.4702-.0672l.5149-.1567 1.1642-.3358s.0671 0 .2239.0671c.1119.0448.2014.0896.3134.1344.2239.1119.4925.1791.7388.1791.2686 0 .5597-.0672.806-.2015.4029-.2239.9403-.4926 1.3656-.4926h.1568c.1119 0 .2462.0672.3806.1344.2462.1119.4925.1791.7611.1791.403 0 .806-.1567 1.1194-.4254.403-.3582.7389-.7836 1.0523-1.3209.2015-.3358.3806-.694.5597-1.0298l.0672-.1344c.1119-.2015.1791-.4253.2014-.6716.0672-.4925-.0447-.9179-.1119-1.1194-.5373-1.8358-1.3433-3.2687-2.4627-4.3433-.1343-.1343-.2463-.2687-.3582-.403l-.2463-.291c-.1119-.1344-.1791-.2687-.2238-.4702-.0224-.1567-.0672-.3358-.1344-.4925-.2015-.7388-.8955-1.3433-1.6567-1.3433h-.5597l-.4254.0672h-.4925c-.4254 0-.694-.0448-.9403-.1344-.0672-.0223-.1119-.0447-.1791-.0895-.2687-.1567-.5821-.2463-.8955-.2463l.0671-.0671Z"/>
    <path fill="#FFDA00" d="M60.5598 90.0522c-.2463 0-.4926-.1119-.6493-.3134l.6493-.5373-.6941.4925s-.2238-.2462-.3134-.4701c-.4701-1.1642-1.097-2.0821-1.9254-2.7985-.0895-.0672-.1791-.1568-.2686-.2463-.7612-.7164-1.0746-1.4552-1.0523-2.3507 0-.6717.2015-1.4553 1.4329-1.612 1.2313-.1567 2.4403-.2239 3.6716-.291.2463 0 .515-.0672.7388-.1344.2463-.0671.5373-.1343.8956-.1343.2014 0 .4253.0224.6492.0672.3582.0895.6045.3806.6493.7388.2015 1.9925-.2239 3.6268-1.3209 5.0373-.403.5149-.8284 1.0298-1.2538 1.5448l-.5821.694c-.1567.2015-.4029.291-.6492.291l.0224.0224Z"/>
    <path fill="#1E1E1E" d="M63.0448 82.5299c.1344 0 .2911 0 .4478.0447.1791 1.6791-.1343 3.1567-1.1418 4.4552-.5597.7389-1.1866 1.4329-1.8134 2.1941-.0896-.0896-.1791-.1791-.2239-.2911-.4702-1.2089-1.1642-2.2835-2.1717-3.1343-.1343-.1119-.2462-.2463-.3806-.3582-.4701-.4254-.6716-.9403-.6492-1.5896 0-.5149.0895-.7164.694-.8059 1.209-.1567 2.4179-.2239 3.6269-.2911.3134 0 .6269-.0671.9179-.1567.2239-.0672.4254-.1119.6716-.1119m0-1.6791c-.4253 0-.7835.0895-1.1194.1567-.2015.0448-.403.0895-.5821.0895-1.1417.0672-2.4403.1344-3.7388.2911-.9627.1119-2.1044.6268-2.1716 2.4179-.0448 1.1194.3806 2.1269 1.1866 2.8657l.0895.0895.3134.3134c.7389.6269 1.2986 1.4329 1.7015 2.4851.1568.3806.3806.6269.4926.7388.3134.3806.7836.6045 1.2985.6045.4925 0 .9851-.2239 1.2985-.6045l.5821-.694c.4254-.5149.8507-1.0299 1.2537-1.5448 1.209-1.5671 1.7015-3.4701 1.4776-5.6418-.0671-.7164-.5821-1.2985-1.2761-1.4552-.2687-.0672-.5597-.0895-.8284-.0895l.0224-.0224Z"/>
    <path fill="#FFDA00" d="M64.3209 93.2538c-.2687-.0672-.5149-.2463-.6045-.515 0 0-.3134-.8283-.403-1.0298-.1343-.3582-.3582-.5821-.7835-.7388-.3359-.112-.6941-.2463-1.0075-.403-.2015-.0896-.3358-.2015-.4478-.291-.2686-.2463-.4925-.7389-.3582-1.0747.112-.3134.1791-.5149.3358-.7388.2911-.3806.5821-.7388.8956-1.097.8283-.9403 1.2985-1.9701 1.4552-3.1567.0224-.1791.0672-.3582.0895-.5597 0-.0672.0896-.3358.112-.403.0895-.1567.2239-.3358.403-.403.1343-.0671.3806-.1567.5373-.1567.0895 0 .2015 0 .3134.0448.0896.0448.1791.0447.2463.0447.1791 0 .3806-.0895.694-.3134.1343-.0895.3582-.2686.7164-.2686.3806 0 .6493.2015.9179.4477.2911.2463.3806.6493.2239 1.0075l-.3806.8283c-.291.6493-.3358 1.3209-.1791 2.015.0672.2462.0896.4925.1343.7388l.0672.4253c.2911 1.5672-.291 2.8657-.9179 3.918-.1567.2686-.3358.4701-.4925.6492l-.806.806c-.1567.1567-.3806.2463-.5821.2463h-.1791v-.0224Z"/>
    <path fill="#1E1E1E" d="M66.5149 83.0224s.1791.0896.403.2687c-.1343.2686-.2686.5597-.3806.8507-.3582.8284-.4254 1.6567-.2239 2.5299.0896.3582.112.7612.1791 1.1194.2239 1.2313-.2238 2.3059-.8059 3.3582-.112.1791-.2463.3358-.3806.4925-.2239.2463-.4702.4925-.7836.7836-.1567-.4254-.2911-.7164-.3806-1.0075-.2239-.6268-.6717-1.0298-1.2985-1.2537-.3135-.1119-.6493-.2239-.9627-.3806-.1119-.0448-.2239-.1567-.3582-.2687.0895-.2014.1119-.4029.2463-.5597.2686-.3582.5597-.694.8507-1.0298.9179-1.0299 1.4776-2.2388 1.6567-3.6045.0224-.2015.0672-.403.112-.6045 0-.0224.0223-.0671.0447-.0895.0224 0 .0672-.0448.0896-.0672.0224 0 .0448-.0224.0672-.0224.1791.0672.3582.112.5373.112.4253 0 .8283-.2015 1.1865-.4926.0896-.0671.1567-.1119.2015-.1119m0-1.6791c-.6268 0-1.0298.3134-1.2089.4478-.0896.0671-.1567.1119-.2015.1343-.1791-.0448-.3806-.0896-.5373-.0896-.3135 0-.6269.0896-.9179.2687-.3583.1791-.6269.4701-.7836.8283-.0672.1568-.1344.3135-.1567.4702v.1343c-.0672.2015-.0896.3806-.112.5821-.1343 1.0299-.5373 1.903-1.2537 2.709a24.1734 24.1734 0 0 0-.9627 1.1641c-.2239.3135-.3358.6269-.403.8284-.291.694-.1119 1.5896.4925 2.0597.2015.1567.403.3582.7165.4925.3582.1568.7164.2911 1.0746.4254.2239.0896.2463.1343.2686.2239.0672.2015.1568.4254.2463.6716l.1567.3806c.2015.5373.6493.9179 1.209 1.0523.1119.0224.2463.0447.3582.0447.4478 0 .8731-.1791 1.1866-.4925l.2686-.2686c.2015-.2015.403-.3806.5597-.5821.1791-.2015.4254-.4702.6045-.806.6493-1.1194 1.3433-2.6418 1.0075-4.5-.0224-.1343-.0448-.2687-.0672-.3806-.0448-.2687-.0672-.5373-.1343-.806-.112-.5149-.0896-.985.1343-1.4776.0896-.1791.1567-.3582.2463-.5373l.1343-.2687c.3134-.694.1343-1.5-.4478-1.9701-.3358-.2911-.7835-.6493-1.4776-.6493v-.0895Z"/>
    <path fill="#FFDA00" d="M31.209 46.5522c-.2463-.0224-.806-.1791-.9403-.9179l-.1567-.2015c-.1344-.2015-.2687-.4253-.4254-.6044-1.0075-1.0971-1.6343-2.3508-1.9254-3.8732-.2687-1.4104-.2015-2.7761-.1119-4.0298 0-.0896.0895-.3806.1343-.4702.1343-.3134.5149-.6492.8731-.6492h.0896c.2463 0 .4701.0447.694.1343 1.6567.7388 2.7761 2.0149 3.2911 3.7612.4477 1.5.6268 2.9328.582 4.4104 0 .1568-.0671.3359-.1567.4702l-1.1642 1.6343c-.1567.2239-.4253.3582-.694.3582h-.0895v-.0224Z"/>
    <path fill="#1E1E1E" d="M28.612 36.6343c.1567.0224.3358 0 .4701.0672 1.4328.6493 2.3731 1.7239 2.8209 3.2463.403 1.3433.6045 2.6865.5597 4.1418l-1.1642 1.6343c-.2462-.0224-.1567-.2463-.2462-.3806-.2463-.3582-.4702-.7612-.7612-1.097-.9179-.9851-1.4553-2.1493-1.7015-3.4702-.2463-1.2761-.2015-2.5298-.0896-3.8059 0-.0896.0672-.2015.112-.3359Zm.0447-1.6791c-.694 0-1.3656.4478-1.6119 1.097v.0448c-.0896.1344-.1791.403-.2239.7388-.1119 1.3209-.1567 2.7538.1343 4.2538.3135 1.6567 1.0299 3.0895 2.1269 4.2985.0896.1119.2239.291.3358.4925l.112.1791c.2686.8731.985 1.2537 1.5895 1.3433h.1791c.5373 0 1.0523-.2687 1.3657-.7164l.6269-.8732.5373-.7612c.2015-.2686.291-.582.3134-.9179.0448-1.5671-.1567-3.0895-.6269-4.6567-.6044-2.0149-1.8582-3.4477-3.7611-4.2985-.3583-.1567-.6941-.1791-.8956-.2015h-.2239l.0224-.0224Z"/>
    <path fill="#FFDA00" d="M45.7612 98.2015c-2.4179 0-4.1418-1.7239-4.209-4.1642 0-.3582.2015-.694.5374-.8059.0895-.0448.2015-.0448.291-.0448.2463 0 .4925.1119.6493.3134.1343.1343.291.3358.3582.6045.0671.291.1343.5149.2015.6716h.1119c.2239 0 .5373-.0447.8731-.4701.1568-.2015.403-.2911.6493-.2911h.3582c.5821 0 1.1866-.1567 1.8134-.3358.112-.0224.2463-.0448.3806-.0448.1567 0 .3359.0224.4478.0896.5373.3134 1.097.4701 1.7015.4701.3358 0 .694-.0447 1.0522-.1567.0672 0 .1567-.0224.2239-.0224.1791 0 .3582.0672.5149.1791.2463.2015.6045.2239 1.1642.2687.3806.0224.7836.0448 1.1642.1567.3134.0672.5597.3358.6269.6493.0671.3134-.0672.6492-.3359.8507l-.2462.1791c-.1791.1344-.3359.2463-.4926.3582-.3134.2015-.6045.3806-.9403.4926-.291.0895-.5597.1791-.8507.2686-.5597.1791-1.1194.3582-1.7015.4926-.7388.1567-1.5.2238-2.5075.2686 0 0-1.388.0672-1.791.0672h-.112l.0672-.0448Z"/>
    <path fill="#1E1E1E" d="M42.3806 94.0149s.1567.1791.1791.2687c.112.4254.2015.8731.4926 1.2089.2239.0672.4477.0896.6492.0896.5821 0 1.097-.2687 1.5224-.7612h.3582c.7612 0 1.4776-.2239 2.1941-.4254.6716.403 1.388.6045 2.1268.6045.4254 0 .8508-.0672 1.2761-.1791.7388.5821 1.7015.3358 2.6642.5597-.2686.2015-.4701.3582-.694.4925-.2239.1568-.4702.3135-.7164.3806-.8284.2463-1.6344.5597-2.4851.7388-.7836.1568-1.5672.2239-2.3731.2463-.5821.0224-1.1866.0672-1.7687.0672h-.0895c-1.9702 0-3.3135-1.3433-3.3806-3.3582m0-1.6568c-.2015 0-.403.0448-.5821.112-.6717.2463-1.1194.8731-1.0971 1.5895.0896 2.9329 2.1493 4.9926 5.0598 4.9926h.1119c.403 0 .806-.0224 1.1866-.0448h.6044c1.0299-.0672 1.8582-.1567 2.6418-.3134.6493-.1344 1.2314-.3135 1.7911-.515.2686-.0895.5597-.1791.8283-.2686.4478-.1343.806-.3582 1.0523-.5149l.0895-.0672c.1791-.1119.3582-.2463.5597-.403l.2239-.1791c.5373-.3806.7836-1.0522.6493-1.6791-.1344-.6492-.6269-1.1418-1.2538-1.2985-.4925-.1119-.9403-.1343-1.3209-.1567-.2015 0-.6492-.0448-.7164-.0896-.291-.2239-.6492-.3582-1.0298-.3582-.1568 0-.2911 0-.4478.0672-.291.0895-.5821.1119-.8507.1119-.4478 0-.8508-.1119-1.2762-.3582-.2686-.1567-.5597-.2463-.8507-.2463-.1567 0-.2911 0-.4478.0672l-.1791.0448c-.6045.1567-1.1194.3134-1.5895.3134h-.3582c-.4254 0-.806.1567-1.1194.4254-.1344-.291-.3135-.5149-.403-.6045-.3358-.3806-.8284-.6045-1.3209-.6045l.0448-.0224Z"/>
    <path fill="#FFDA00" d="M60.0448 94.9552c-.7612 0-1.3657-.3806-1.7687-1.0746-.1343-.2686-.1343-.5821 0-.8283.1343-.2463.3134-.4478.4925-.6045.0896-.112.2015-.2015.2911-.3358.2239-.3582.4701-.7388.6716-1.1194.1344-.2463.2687-.4926.3806-.7389l.1791-.3582c.1567-.291.4478-.4477.7388-.4477.0896 0 .2015 0 .2911.0448l.4925.1791c.403.1567.7836.291 1.1866.4477.5373.2239.9179.6045 1.1194 1.1194.0224.0896.0671.1791.1119.2463.0672.1343.1344.2687.1791.403.3806.9851.0448 1.8806-.8507 2.3507-.5149.2687-1.1642.5597-1.903.6045 0 0-1.1418.0448-1.4328.0672h-.1791v.0447Z"/>
    <path fill="#1E1E1E" d="M61.0522 90.2761c.5821.2239 1.1194.403 1.6568.6269.291.1119.5149.3358.6492.6493.0896.2238.2015.4477.2911.6716.2238.5821.0671 1.0299-.4702 1.3209-.4925.2687-1.0074.4701-1.5672.5149-.4925.0224-.9626.0224-1.4552.0672h-.1343c-.4478 0-.7612-.1791-1.0299-.6493.2015-.3358.5374-.5821.7612-.9179.2463-.3806.4702-.7612.6941-1.1642.2015-.3582.3806-.7388.5821-1.1194m0-1.6791c-.6045 0-1.1866.3359-1.5.8956l-.1791.3582c-.112.2462-.2463.4701-.3583.694-.2014.3582-.4253.7164-.6492 1.0746-.0448.0896-.112.1344-.1791.2015-.1791.2015-.403.4254-.5821.7612-.291.5149-.3134 1.1418-.0224 1.6567.5373.9851 1.4328 1.5224 2.5075 1.5224h.2462c.2687 0 .5374-.0224.8284-.0448h.6045c.9179-.0671 1.7015-.4253 2.2612-.7164 1.2761-.6716 1.7686-2.0149 1.2537-3.403l-.2015-.4701c-.0224-.0672-.0672-.1343-.0895-.2015-.2687-.7164-.8284-1.2985-1.5672-1.5896l-1.209-.4701-.4925-.1791c-.2015-.0672-.403-.112-.6045-.112l-.0671.0224Z"/>
    <path fill="#FFDA00" d="M42.2463 89.8731c-.3582 0-.694-.2462-.806-.6044-.1791-.6045-.5597-1.097-1.1194-1.5448-.291-.2239-.5149-.4926-.6716-.694-.3358-.4478-.6717-.918-.9851-1.4105-.291-.4478-.6493-.9851-.6045-1.791.0224-.403.3135-.7165.7164-.7836.4254-.0672.8508-.0896 1.2762-.0896.6268 0 1.2537.0672 1.8582.112h.2462c.2239.0447.403.1343.5597.3134.4478.5149.5374 1.0746.6045 1.5.2239 1.2985.2687 2.4403.1343 3.8284-.0447.6044-.4701 1.0298-1.0746 1.097h-.0895l-.0448.0671Z"/>
    <path fill="#1E1E1E" d="M40.0523 83.8284c.6716 0 1.3433.0671 2.0149.1343.3582.403.3582.8731.4478 1.2985.2015 1.1194.2015 2.2612.0895 3.403 0 .2015-.0895.3358-.3358.3582-.2463-.806-.7388-1.4552-1.4328-1.9701-.2015-.1344-.3582-.3359-.4926-.515-.3358-.4477-.6492-.8955-.9627-1.3433-.2462-.3582-.4925-.7388-.4701-1.2761.3806-.0671.7612-.0895 1.1418-.0895Zm0-1.6791c-.4926 0-.9627.0447-1.4105.1119-.7835.1119-1.3656.7612-1.4104 1.5448-.0672 1.0746.4254 1.8134.694 2.2388a28.072 28.072 0 0 0 1.0523 1.4776c.1791.2239.4477.5821.8283.8507.4254.3135.694.6717.8284 1.0971.2239.7164.8731 1.1865 1.6119 1.1865h.2015c1.0075-.1119 1.7239-.8507 1.8358-1.8582.1344-1.4776.112-2.7089-.1119-3.8731v-.1791c-.112-.4702-.2239-1.2314-.8284-1.9254-.291-.3134-.6716-.5149-1.097-.5597h-.2239c-.6268-.0895-1.2537-.1567-1.9477-.1567l-.0224.0448Z"/>
    <path fill="#FFDA00" d="M43.5 95.6045s-.3582-.112-.4477-.1567c-.2015-.112-.4254-.3359-.4926-.5598-.3358-1.1865-.6716-2.597-.6492-4.0746 0-.2239 0-.7836.4701-1.0746 0-.0224.0448-.1791.0672-.2687.0224-.1567.0672-.3134.1119-.4701.0224-.0672.1568-.3358.2015-.403.1567-.2239.4702-.4254.7388-.4254h.0448c.2911 0 .6045.1344.7388.403.0896.1567.2015.3582.2239.6269.0224.7836.3582 1.5.6716 2.1045l.403.7611c.5373 1.0971.403 1.9926-.4253 2.9105-.4926.5373-1.0523.6493-1.4329.6493h-.2015l-.0224-.0224Z"/>
    <path fill="#1E1E1E" d="M43.5448 88.9328c.0672.1344.1343.2015.1343.2687.0224.8955.3582 1.6791.7612 2.4627.1344.2462.2687.4925.3806.7388.3806.7836.2911 1.3209-.291 1.9925-.2239.2463-.4926.3806-.806.3806h-.1119c-.0672 0-.1344-.0448-.2239-.1119-.3582-1.2314-.6269-2.5075-.6045-3.8284 0-.1343 0-.3358.0896-.3806.4477-.291.3806-.7836.5149-1.2089.0224-.0896.0895-.1791.1791-.3135m0-1.6791c-.5821 0-1.1194.2911-1.4328.806l-.0448.0672c-.0896.1119-.2239.3358-.3135.6268l-.1343.5373c-.5373.5374-.5597 1.2762-.5597 1.5224-.0224 1.5896.3358 3.0896.6717 4.3209.1343.4702.4477.8508.8955 1.0523.1119.0671.403.2238.7836.2686h.291c.5373 0 1.3433-.1567 2.0373-.9403 1.0746-1.1865 1.2538-2.4403.5597-3.8507a5.0368 5.0368 0 0 1-.2462-.4926l-.1568-.2686c-.3806-.7388-.5597-1.2537-.5597-1.7463 0-.4701-.2239-.806-.291-.9627-.2687-.5373-.8284-.8955-1.4328-.9403h-.0896.0224Z"/>
    <path fill="#FFDA00" d="M61.7687 82.9776c-.3358 0-.7388-.1791-.8732-.4925-.1567-.3358-.1567-.7388.1344-.9627.8731-.7164 1.9477-1.5224 3.2462-2.0149.2687-.112.5597-.2015.8508-.2463.5597-.0896 1.1418-.1791 1.7015-.2239h.291c.2911 0 .6045.0224.8955.0672.4926.0448.9403.5149.9403 1.0074 0 .3806-.1343.7389-.3582.9627a1.3893 1.3893 0 0 1-.8955.403c-.6045.0448-1.209.2911-1.7239.5149-.9179.403-1.8358.6269-2.8433.7165-.1119 0-.2462.0447-.3582.0671l-.3582.0896c-.1791.0224-.3582.0448-.5373.0895h-.1119v.0224Z"/>
    <path fill="#1E1E1E" d="M67.1194 79.8881c.2687 0 .5373.0224.806.0671.0671 0 .2015.1344.2015.2015 0 .1344-.0448.2687-.1344.3582-.0895.0896-.2462.1568-.3582.1568-.694.0671-1.3432.3134-1.9701.5821-.8284.3582-1.6791.5596-2.597.6492-.2687.0224-.5373.1119-.806.1567-.2239.0448-.4701.0672-.694.0896.9403-.7836 1.903-1.4553 3-1.8806a3.5422 3.5422 0 0 1 .694-.2015c.5373-.0896 1.097-.1567 1.6343-.2015h.2239m0-1.6791h-.3358c-.6045.0448-1.1866.1343-1.7687.2239-.3806.0671-.7164.1791-1.0074.2686-1.4329.5149-2.5747 1.3881-3.4926 2.1493-.5821.4701-.7612 1.2761-.4701 1.9701.2686.6045.8731 1.0075 1.5448 1.0075h.4253c.1791-.0448.3806-.0672.5597-.1119.1344-.0224.2687-.0672.403-.0896.0896 0 .1567-.0448.2463-.0448 1.097-.0895 2.1492-.3582 3.1119-.7836.4702-.2015.9627-.4029 1.4553-.4477.5373-.0448 1.0522-.2911 1.4104-.6717.3806-.403.6045-.985.5821-1.5671 0-.8955-.7836-1.7239-1.6791-1.8358a7.533 7.533 0 0 0-.9851-.0672Z"/>
    <path fill="#FFDA00" d="M47.1941 84.6567c-.2239 0-.4702 0-.7164-.0671-.3583-.0448-.6269-.3359-.6941-.6717-.1343-.7388-.1343-1.4104-.1119-2.0373 0-.2463.1119-.4701.3134-.6269.7612-.6044 1.5896-.6716 2.1269-.6716.291 0 .6045.0224.9179.0448.3582.0224.7836.291.8731.6268.2015.7612.1567 1.4553-.1791 2.1941-.2686.6044-.7612 1.0074-1.388 1.1194-.3806.0671-.7388.1119-1.1418.1119v-.0224Z"/>
    <path fill="#1E1E1E" d="M48.112 81.4104c.3134 0 .6492.0224.9627.0672.1791.6493.0895 1.1418-.1344 1.6343-.1567.3359-.403.5597-.7612.6269-.3134.0448-.6492.0895-.985.0895-.2015 0-.3806 0-.5821-.0447-.112-.6269-.112-1.2314-.112-1.8582.4926-.403 1.0523-.4926 1.612-.4926m0-1.6791c-1.0523 0-1.9254.2911-2.6642.8732-.3806.3134-.6269.7835-.6269 1.2761 0 .6268 0 1.388.1343 2.2164.1344.694.6717 1.2537 1.3881 1.3657.2911.0447.5821.0671.8508.0671.4925 0 .9179-.0671 1.2761-.1119.8955-.1567 1.6343-.7388 2.0149-1.5896.403-.9179.4925-1.8134.2239-2.7761-.1791-.6716-.7836-1.1642-1.4776-1.2313h-.112a7.5314 7.5314 0 0 0-.985-.0672l-.0224-.0224Z"/>
    <path fill="#FFDA00" d="M50.3284 84.5224c-.3582 0-1.1866-.1119-1.3209-1.2537-.0672-.6045-.0672-1.1194.0448-1.612.0448-.2239.1791-.4254.3582-.5373a.8075.8075 0 0 1 .4478-.1343h.1791s1.9477.4477 2.5522.5821c.7612.1791 1.0298.7612.9627 1.2537-.0224.2015-.1343.694-.5373 1.0075-.3806.291-.7388.4477-1.0747.5149-.5149.0895-1.0522.1343-1.5895.1567h-.0448l.0224.0224Z"/>
    <path fill="#1E1E1E" d="M49.8582 81.8135c.8732.2014 1.7015.3805 2.5299.582.1567.0448.3582.1344.3358.3359 0 .1567-.0896.3582-.2015.4477-.2239.1567-.4701.3134-.7388.3582a7.755 7.755 0 0 1-1.4328.1344h-.0224c-.3358 0-.4478-.1568-.4926-.515-.0447-.4477-.0671-.8955.0448-1.3656m0-1.6791c-.3134 0-.6268.0895-.9179.2686-.3806.2463-.6492.6269-.7388 1.0746-.1119.5821-.1343 1.1866-.0672 1.8806.1791 1.4776 1.2762 1.9926 2.1493 1.9926.7164 0 1.2761-.0672 1.791-.1791.4702-.0896.9403-.3135 1.4105-.6717.6492-.4925.8283-1.2537.8731-1.5671.1343-1.0299-.5149-1.9254-1.5895-2.1941-.6269-.1567-1.2538-.291-1.8806-.4253l-.6717-.1568c-.1343-.0223-.2462-.0447-.3806-.0447l.0224.0224Z"/>
    <path fill="#FFDA00" d="M62.709 96.5224c-.7612 0-1.4552-.1567-2.2164-.3358l-.6941-.1567c-.3806-.0896-.6716-.4254-.6716-.806 0-.3806.2687-.7388.6492-.8284l.3359-.0671c.1791-.0448.3134-.0672.4253-.0896.6941-.0671 1.4329-.1791 2.0821-.4477.4478-.1791.7164-.3806.9179-.6269.2015-.2687.5374-.7164 1.209-.7164.2687.0448.6269.2239.7388.4925.1119.2687.2015.5597.0672.806l-.2015.3358c-.1567.2463-.3135.5149-.4702.7612-.1567.2687-.291.5373-.4477.8284l-.1791.3582c-.112.2239-.3359.3806-.5821.4253-.3135.0672-.6269.0896-.9403.0896l-.0224-.0224Z"/>
    <path fill="#1E1E1E" d="M64.7239 93.2985h.0895c-.2238.3806-.4701.7388-.694 1.1194-.2239.3806-.4254.7836-.6492 1.1866-.2687.0448-.515.0671-.7612.0671-.8732 0-1.7239-.2686-2.7538-.4701.3806-.0896.515-.1343.6493-.1343.7836-.0672 1.5671-.2015 2.3283-.515.4926-.2015.9179-.4477 1.2538-.8955.1343-.1791.2686-.3806.5373-.3806m0-1.6791c-1.0746 0-1.6567.7612-1.8358 1.0075-.0896.1119-.2239.2462-.6045.403-.5149.2238-1.097.3134-1.8358.3806-.1568 0-.2911.0447-.5373.1119l-.3135.0672c-.7836.1791-1.3209.8507-1.3209 1.6567 0 .7836.5597 1.4776 1.3433 1.6343.2463.0448.4702.0896.694.1567.7612.1791 1.5448.3582 2.3956.3582.3806 0 .7388-.0447 1.097-.1119.4925-.0896.9179-.403 1.1418-.8508l.2015-.3805c.1343-.2687.2686-.515.4253-.7612.1344-.2463.2911-.4926.4478-.7389l.2015-.3358c.291-.4701.3358-1.0746.0895-1.5895-.2238-.5149-.7164-.8732-1.2537-.9627-.0896 0-.2463-.0224-.3358-.0224v-.0224Z"/>
    <path fill="#FFDA00" d="M64.8806 94.1493s-.1567 0-.2463-.0224c-.2239-.0896-.4478-.2687-.5373-.4702-.112-.2686-.1567-.5821 0-.8283.1343-.3135.403-.4702.7164-.4702h.1567c.3806.0672.6493.4254.6717.806.0671.291 0 .5597-.2239.7612-.1567.1567-.3582.2239-.5597.2239h.0224Z"/>
    <path fill="#1E1E1E" d="M64.8358 93.209v.0895h-.0224v-.0895m0-1.6568c-.694 0-1.3209.4254-1.5671 1.0747-.1791.4477-.1791.9403 0 1.3656.2238.515.694.8732 1.2537.9627h.3134c.4478 0 .8732-.1791 1.1866-.4925.3806-.3806.5597-.9403.4701-1.4776-.1119-.7388-.694-1.3433-1.4552-1.4329h-.2239.0224Z"/>
    <path fill="#FFDA00" d="M52.0523 95.2463c-.6045-.0896-1.0075-.6045-.9403-1.1866 0-.1343.0895-.6493.5373-.8955.7836-.4478 1.5671-.6717 2.3731-.6717.6269 0 1.097.3359 1.3433.8284.2463.5149.2015 1.097-.1119 1.5224-.2015.2686-.515.4477-.8508.4701-.2015 0-.403.0224-.6045.0448-.1119.0448-.2238.0896-.3358.0896-.0224 0-1.4104-.2015-1.4104-.2015Z"/>
    <path fill="#1E1E1E" d="M54.0224 93.3209h.0896c.4477 0 .7164.6492.4701 1.0074-.0672.0672-.1567.1344-.2463.1568-.2686.0224-.5373.0223-.8283.0447v.0672c-.4478-.0672-.8732-.1119-1.3209-.1791-.1567-.0224-.2463-.1119-.2463-.2687 0-.0895.0448-.2238.1343-.2686.6045-.3358 1.2538-.5597 1.9478-.5597Zm0-1.6791c-.9403 0-1.8806.2686-2.7761.7836-.5373.3134-.8955.8731-.9627 1.5447-.1119 1.0523.6045 1.9478 1.6567 2.1045.3134.0448.6493.0896.9627.1343l.3806.0448h.2463c.1791 0 .3806-.0224.5597-.0895.1567 0 .3134 0 .4477-.0224.5373-.0672 1.0747-.3582 1.4105-.806.5149-.6716.5821-1.5895.2015-2.3955-.3806-.7836-1.1194-1.2761-1.9478-1.3209h-.1567l-.0224.0224Z"/>
    <path fill="#FFDA00" d="M50.1493 95.1343c-.5821 0-1.1642-.1343-1.8582-.4029a.8874.8874 0 0 1-.4926-.4926c-.0895-.2239-.0671-.4925.0672-.694.1567-.3582.2911-.6269.5821-.8508.4254-.3134.9179-.4925 1.4776-.4925 1.5672.0896 2.0149.9403 2.1493 1.6343.0671.3359-.0896.6717-.3806.8508-.1791.1343-.3806.291-.6717.3582-.291.0672-.5821.0895-.8731.0895Z"/>
    <path fill="#1E1E1E" d="M49.9254 93.0299h.1119c.5821.0447 1.097.2015 1.209.9403-.1343.0895-.2463.2238-.403.2462a3.4745 3.4745 0 0 1-.694.0672c-.4926 0-.9851-.1119-1.5672-.3358.1119-.2015.1791-.4702.3582-.6045.2687-.2015.6045-.3134.9627-.3134m0-1.6791c-.7388 0-1.4328.2238-1.9925.6716-.4478.3358-.6493.7836-.7612 1.0299-.2463.4253-.2911.9627-.1344 1.4328.1568.4478.4926.8731.9403 1.0298.7836.3135 1.4777.4478 2.1717.4478.3582 0 .694-.0448 1.0522-.1119.4702-.112.7836-.3582.9403-.4702.5821-.3582.8732-1.0522.7388-1.7239-.1119-.6492-.6268-2.194-2.7761-2.3059h-.2015.0224Z"/>
    <path fill="#FFDA00" d="M43.3881 84.9478c-.3135-.0224-.5373-.1792-.6941-.2911-.2238-.1567-.4477-.4701-.4477-.7388s.0224-.5821.2462-.7388c.515-.3806 1.0523-.5821 1.5224-.7388.4478-.1567.8284-.2911 1.097-.5373.1568-.1567.3806-.2463.6045-.2463.2015 0 .3806.0672.5597.2015.515.4478.4702.9851.4702 1.209 0 .9179-.2911 1.3432-1.097 1.5671-.6717.1791-1.2314.3358-1.8583.3358h-.3582l-.0447-.0223Z"/>
    <path fill="#1E1E1E" d="M45.7164 82.4851c.2463.2239.1567.4701.1791.6716 0 .4702-.0671.5373-.4701.6493-.5373.1343-1.0747.291-1.6568.291H43.5c-.1343 0-.2687-.1567-.4702-.2686.8508-.6493 1.9702-.6269 2.709-1.3657m0-1.6791c-.4254 0-.8507.1567-1.1866.4925-.1119.112-.4253.2239-.7612.3358-.5149.1792-1.1641.403-1.7686.8732-.4478.3358-.694.8955-.6493 1.4552.0448.5597.3582 1.0746.8508 1.3433.2462.1791.6045.4254 1.1418.4701h.4477c.7388 0 1.3657-.1791 1.9254-.3134l.1343-.0448c1.1866-.3134 1.7687-1.097 1.7239-2.3283 0-.2911.0672-1.1866-.7388-1.903-.3134-.2687-.7164-.403-1.097-.403l-.0224.0224Z"/>
    <path fill="#FFDA00" d="M46.1642 94.8657c-.2239 0-.4254-.0224-.6493-.0672-.4253-.0895-.694-.5149-.6492-.9403l.1567-1.0746c.0448-.2687.2015-.5149.4478-.6269a2.943 2.943 0 0 1 1.3209-.3134c.2238 0 .4477.0224.6716.0672.4254.0895 1.0299.3582 1.3881 1.1417.1791.3582.0671.806-.2687 1.0299-.1791.1567-.3806.3358-.694.403-.1567.0224-.2911.0895-.4478.1343-.3582.1119-.7836.2463-1.2761.2463Z"/>
    <path fill="#1E1E1E" d="M46.7911 92.6716c.1567 0 .3358 0 .4925.0448.3358.0672.6269.2911.806.6717-.112.0895-.2463.2462-.3806.2686-.4926.112-.9851.3358-1.5448.3358-.1343 0-.291 0-.4478-.0447l.1568-1.0747c.3134-.1567.6044-.2238.9179-.2238m0-1.6791c-.6045 0-1.1642.1343-1.7015.4253-.4926.2463-.806.7164-.8955 1.2538l-.1568 1.0746c-.1119.8507.4254 1.6791 1.2762 1.8806.2686.0671.5597.0895.8283.0895.6269 0 1.1418-.1567 1.5224-.2686.1343-.0448.2463-.0672.3806-.112.5373-.1119.8955-.4253 1.0522-.5597.6493-.4701.8508-1.3209.515-2.0597-.403-.8507-1.097-1.4104-1.9702-1.6119-.291-.0672-.5821-.0896-.8507-.0896v-.0223Z"/>
    <path fill="#FFDA00" d="M55.4328 94.888c-.3806 0-.8507-.4029-.9403-.7835-.0672-.3135.0672-.8284.3134-1.0299.3135-.2463.806-.6045 1.4553-.7388.3134-.0672.5373-.1119.7835-.1567.0672 0 .3583-.0448.4254-.0448.4478 0 .8508.1791 1.2538.5149.3134.2687.3806.7388.1343 1.0971-.4702.7164-1.1642.8731-1.612.9626-.5149.1344-.9626.1344-1.3656.1568h-.4254l-.0224.0223Z"/>
    <path fill="#1E1E1E" d="M57.4478 92.9627c.2462 0 .4477.0895.694.3134-.3134.4702-.7836.5373-1.1866.6493-.4925.1119-1.0074.0895-1.5224.1119 0 0-.1119-.0896-.1119-.1343 0-.0672 0-.1567.0448-.1791.3134-.2687.6716-.4702 1.0746-.5597.2687-.0448.5373-.112.806-.1791.0671 0 .1567-.0224.2238-.0224m0-1.6791c-.2014 0-.4029.0224-.6044.0671l-.6717.1344c-.8955.1791-1.5.6044-1.8582.9179-.5373.4477-.7836 1.1865-.6045 1.903.1791.694.8284 1.4104 1.7463 1.4104h.4478c.4477-.0224.9403-.0448 1.4552-.1791.5821-.1343 1.5224-.3582 2.194-1.3433.4702-.694.3582-1.6343-.291-2.194-.5373-.4702-1.1418-.7164-1.7911-.7164h-.0224Z"/>
    <path fill="#FFDA00" d="M41.3732 92.4925c-.2015 0-.403-.0671-.5597-.2014-.1344-.112-.4254-.4254-.4702-.5821-.1343-.3806-.2687-.7612-.3806-1.1642-.1119-.4254-.2239-.8508-.291-1.3209-.0224-.2239.0447-.4702.1791-.6493.1343-.1791.3806-.291.6044-.291h.5374c.2015.0448.3806.0896.5149.1567.4254.1791.694.4702.8283.8955.0448.1567.0896.3359.0896.5374v.5597c0 .1791-.0224.3582-.0448.5373-.0224.1791-.0671.3358-.1119.5149l-.112.4254c-.0671.291-.291.5149-.5597.6044-.0895.0224-.1567.0448-.2462.0448l.0224-.0672Z"/>
    <path fill="#1E1E1E" d="M40.7911 89.0672h.0671c.1344.0224.2463.0671.3583.1119.2014.0896.291.2015.3582.3806.0224.0896.0447.2015.0447.3358v.4702c0 .1567-.0223.3134-.0447.4701 0 .1344-.0448.2687-.0896.403-.0448.1343-.0672.2687-.1119.4254-.0896-.0896-.2015-.1343-.2239-.2015-.1343-.3806-.2463-.7388-.3582-1.1194-.112-.3806-.2015-.7836-.2463-1.209h.2687m0-1.6791h-.3358c-.4702.0224-.918.2463-1.2314.6045-.3134.3582-.4478.8284-.3806 1.2985.0672.4702.1567.9179.3134 1.4329.112.4253.2463.8059.3806 1.2089.2015.5597.6045.8508.7388.9627.3135.2687.6941.403 1.0747.403.1791 0 .3358-.0224.5149-.0896.5597-.1791.9627-.6492 1.1194-1.2089l.0672-.2239.0447-.1791.1344-.6045.0671-.6045v-.6492c0-.2687-.0671-.5149-.1343-.7388-.1343-.4478-.4925-1.0523-1.2985-1.4105-.1791-.0671-.403-.1343-.6493-.2015-.1119-.0224-.291-.0447-.4029-.0447l-.0224.0447Z"/>
    <path fill="#FFDA00" d="M56.1493 95.8731c-.515 0-.9627 0-1.2538-.0448-.4253-.0447-.7388-.4029-.7388-.8283 0-.4254.3135-.7836.7165-.8284 1.2089-.1567 2.1492-.291 3-.7612.1343-.0671.2686-.1119.4029-.1119.2239 0 .4254.0895.5821.2463l.7388.7164c.2239.2239.3135.5373.2239.8283-.0895.2911-.3134.515-.6045.5821-.6044.1344-2.1492.2015-3.0447.2015h-.0224Z"/>
    <path fill="#1E1E1E" d="m58.2761 94.1269.7388.7164c-.4477.1119-1.791.1791-2.8656.1791-.4702 0-.8956 0-1.1642-.0448 1.1194-.1567 2.2388-.291 3.2686-.8507m0-1.6791c-.2686 0-.5597.0671-.8059.2014-.7165.3806-1.5448.515-2.4851.6269h-.2015c-.8284.1567-1.4552.8508-1.4552 1.7015s.6268 1.5448 1.4552 1.6567c.3134.0448.7836.0672 1.3657.0672.9179 0 2.5522-.0672 3.2462-.2239.6045-.1343 1.0747-.6045 1.2314-1.1866.1567-.5821 0-1.2313-.4478-1.6567l-.0895-.0895-.6493-.6269c-.3134-.3134-.7388-.4701-1.1642-.4701Z"/>
    <path fill="#FFDA00" d="M54.9627 84.3209c-.6045 0-1.1418-.0895-1.6567-.291-.3134-.112-.806-.4478-.6493-1.4329.0672-.403.4254-.7164.8284-.7164.0448 0 2.9776.3582 2.9776.3582.3134.0448.5597.2463.6716.5373.112.2911.0448.6045-.1343.8508-.1119.1791-.3134.4701-.694.5373-.4478.0896-.8955.1343-1.3209.1343l-.0224.0224Z"/>
    <path fill="#1E1E1E" d="m53.4851 82.7314 2.8657.3582s-.1567.2462-.2463.2686c-.3806.0672-.7612.1344-1.1642.1344-.4701 0-.9179-.0672-1.3656-.2239-.1344-.0448-.1568-.2015-.112-.5149m0-1.6792c-.806 0-1.5224.5821-1.6567 1.4105-.2687 1.6791.8507 2.2388 1.1866 2.3507.6044.2239 1.2761.3359 1.9477.3359.4702 0 .9627-.0448 1.4776-.1568.7389-.1567 1.1194-.694 1.2314-.8731.403-.4701.4925-1.097.2686-1.6791-.2238-.5821-.7611-.9627-1.3656-1.0298l-1.5672-.2015-1.2985-.1568H53.4627Z"/>
    <path fill="#FFDA00" d="M65.0821 83.8955c-.694 0-1.1418-.4925-1.4552-.8059-.1791-.2015-.2687-.4702-.2239-.7165.0448-.2686.2239-.4925.4478-.6044.3806-.2015.7612-.3135 1.1418-.403.2686-.0672.5149-.1343.7612-.2687.1119-.0671.2462-.0895.3806-.0895.1343 0 .291.0448.4029.1119.2463.1343.403.3806.4254.6717.0448.5597-.0671 1.5895-1.388 2.0373-.1791.0671-.3359.0895-.515.0895l.0224-.0224Z"/>
    <path fill="#1E1E1E" d="M66.1343 81.8134c.0672.6941-.3358 1.0075-.8283 1.1866-.0896.0224-.1567.0448-.2239.0448-.3134 0-.5597-.2463-.8284-.5597.6717-.3358 1.2986-.3806 1.903-.6717m0-1.6791c-.2462 0-.5149.0672-.7388.1791-.1567.0672-.3806.1344-.6268.2015-.3582.112-.806.2239-1.2762.4702-.4701.2462-.8059.6716-.9179 1.2089-.0895.515.0672 1.0523.4254 1.4553.3582.3806 1.0075 1.0746 2.0597 1.0746.2687 0 .5373-.0448.7836-.1343 1.3433-.4702 2.0597-1.5448 1.9477-2.9105-.0447-.5597-.3582-1.0522-.8507-1.3209-.2463-.1343-.5373-.2239-.8284-.2239h.0224Z"/>
    <path fill="#FFDA00" d="M67.2538 83.2239c-.5821 0-1.0522-.4254-1.1418-1.0075 0-.0895-.0224-.3806 0-.4701 0-.0896.0448-.1791.0672-.3134.0895-.2911.3582-.6493.6492-.7165l.7388-.1791s.1344-.0223.2015-.0223c.2687 0 .5149.1343.6717.3358.0895.1119.2238.3582.2462.4925.0896.6493-.3582 1.5-.9403 1.7463-.1119.0448-.3358.0895-.4701.0895l-.0224.0448Z"/>
    <path fill="#1E1E1E" d="M67.7463 81.3881s.0896.0895.0896.1119c.0447.2687-.2239.7612-.4478.8508-.0448 0-.0896.0224-.1343.0224-.1567 0-.2911-.112-.3135-.2911v-.2015c0-.0895.0448-.2015.0896-.3358l.7388-.1791m0-1.6791c-.1343 0-.2687 0-.403.0448l-.3134.0671-.4478.112c-.6045.1343-1.097.6268-1.2313 1.2313-.0672.2239-.0896.3582-.112.4925-.0447.2911 0 .5374 0 .7165.1567.985.9851 1.7015 1.9702 1.7015.2686 0 .5373-.0448.7836-.1568.9403-.403 1.5895-1.6119 1.4552-2.6417-.0448-.3135-.2239-.6717-.4254-.8956-.3134-.4253-.806-.6492-1.2985-.6492l.0224-.0224Z"/>
    <path fill="#FFDA00" d="M46.6568 81.8582c-.1791 0-.3582-.0671-.4925-.1567-.2015-.1567-.3359-.403-.3359-.6492 0-.515.112-.8956.2015-1.2314l.0672-.2239c.0895-.291.3134-.5149.6045-.5821.0671 0 .1343-.0223.2015-.0223.2238 0 .4477.0895.6044.2686l.2015.2015c.2687.2463.5597.5373.7388 1.0075.0896.2238.0672.4701-.0447.6716-.112.2015-.2911.3582-.515.4254l-1.0074.2686s-.1567.0224-.2239.0224Z"/>
    <path fill="#1E1E1E" d="M46.903 79.7985c.3135.3358.6045.5373.7612.9403l-1.0074.2687c0-.4702.1343-.7836.2462-1.209Zm0-1.6791c-.1343 0-.2686 0-.4029.0448-.5821.1567-1.0523.6045-1.209 1.1866l-.0672.2014c-.1119.3806-.2462.8508-.2462 1.5001 0 .5149.2686 1.0074.6716 1.2985.291.2238.6493.3358 1.0075.3358.1567 0 .291 0 .4477-.0672l1.0075-.2686c.4478-.1344.8283-.4254 1.0522-.8508s.2463-.9179.0672-1.3433c-.2463-.6492-.6493-1.0522-.9403-1.3209-.0672-.0447-.1119-.1119-.1791-.1791-.3134-.3358-.7612-.5373-1.2314-.5373h.0224Z"/>
    <path fill="#FFDA00" d="M42.3582 94.7537c-.2015 0-.403-.0671-.5597-.2015-.1791-.1567-.694-.7164-.2687-1.6119.1344-.291.4478-.4701.7612-.4701h.1567c.3806.0671.6493.3806.6941.7388l.0671.6268c.0224.3358-.1343.6717-.4477.8284-.112.0671-.2463.0895-.3806.0895h-.0224Z"/>
    <path fill="#1E1E1E" d="m42.291 93.2985.0672.6269c-.2015-.1791-.1791-.3806-.0672-.6269Zm0-1.6791c-.6268 0-1.2313.3582-1.5.9403-.5597 1.1418-.1343 2.1045.4702 2.6194.3134.2687.7164.403 1.097.403.2687 0 .5149-.0672.7612-.1791.6045-.3134.9627-.9627.8955-1.6567l-.0448-.3806v-.2463c-.0895-.7388-.6492-1.3657-1.388-1.5-.112 0-.2015-.0224-.2911-.0224v.0224Z"/>
    <path fill="#FFDA00" d="M42.3806 94.8433c-.2463 0-.4702-.0896-.6269-.2911-.1119-.1343-.2015-.3134-.2239-.4925-.0447-.3358.1344-.694.4254-.8507.1343-.0672.2911-.112.4254-.112a.7824.7824 0 0 1 .4925.1791c.2239.1567.3358.403.3358.6717 0 .3582-.2014.694-.5373.8283-.1119.0448-.2015.0672-.3134.0672h.0224Z"/>
    <path fill="#1E1E1E" d="M42.3582 93.903s0 .0224.0224.0448v.0671-.0448l-.0448-.0671m0-1.6791c-.2686 0-.5149.0671-.7612.1791-.6044.3134-.9626.9627-.8955 1.6567v.0672c.0448.291.1344.5821.3135.8283.0223.0448.0895.112.1119.1343.3358.3806.806.5821 1.2761.5821.2015 0 .403-.0447.6045-.1119.6493-.2687 1.097-.8955 1.0746-1.6119v-.1568c-.0224-.3806-.2015-.7388-.4701-1.0298a170.113 170.113 0 0 0-.1344-.1343c-.3134-.2687-.7164-.403-1.097-.403h-.0224Z"/>
    <path fill="#FFDA00" d="M64.7239 94.0597c-.3806-.0448-.694-.3582-.7388-.7388-.0448-.403.1119-.7836.403-1.0522.1567-.1344.3582-.2015.5373-.2015.1791 0 .3358.0447.4925.1567.3135.2239.4254.6269.2911.9851l-.112.3134c-.1343.3358-.4477.5373-.7835.5373h-.112.0224Z"/>
    <path fill="#1E1E1E" d="m64.9478 92.9179-.112.3135c0-.1344 0-.2239.112-.3135Zm0-1.6791c-.403 0-.7836.1567-1.0746.403-.515.4478-.7612 1.097-.6941 1.7687.0896.7612.6941 1.388 1.4553 1.4776h.2014c.6941 0 1.3209-.4254 1.5672-1.0747l.0672-.2014c.1119-.2239.1567-.4702.1567-.7165 0-.9179-.7388-1.6791-1.6791-1.6791v.0224Z"/>
    <path fill="#FFDA00" d="M59.2836 95.8955c-.3134 0-.5821-.2239-.7164-.4925a.826.826 0 0 1 .1119-.8732c.1568-.2014.4254-.3358.6717-.3358h.0448c.2686 0 .5373.1344.6716.3806.1567.2687.1791.6269 0 .8955-.1567.2463-.4254.4254-.7164.4254h-.112.0448Z"/>
    <path fill="#1E1E1E" d="M59.3732 95v.0448h-.0448L59.3732 95Zm0-1.6567c-.4926 0-.9851.2015-1.2985.5821l-.0448.0448c-.403.4925-.4926 1.1641-.2463 1.7238.2463.5821.806.9627 1.4328 1.0075h.112c.5821 0 1.1642-.3134 1.4776-.806.3358-.5373.3582-1.2089 0-1.7462-.2911-.4478-.7836-.7836-1.3209-.806h-.1343.0224Z"/>
    <path fill="#FFDA00" d="M64.9926 92.8284v.0671s0-.0224.0223-.0447c.0896-.112 0-.0448-.0223-.0224Z"/>
    <path fill="#1E1E1E" d="m65.0373 92.806-.0224.0672a.048.048 0 0 0-.0447.0447v-.0671s.0671-.0224.0895-.0224m0-1.6791c-.3134 0-.6492.1119-.9179.2686-.3358.2015-.5821.4926-.7164.8508-.2687.7164-.0448 1.5671.5821 1.9925.3134.2239.6492.3134 1.0074.3134.3806 0 .7388-.1343 1.0299-.3805a2.0736 2.0736 0 0 0 .3134-.3135c.3806-.5149.4926-1.2537.2015-1.8134-.291-.5821-.8731-.9403-1.5-.9403v.0224Z"/>
    <path fill="#FFDA00" d="M74.5299 90.903c-.1343 0-.291-.0448-.403-.1119-.2686-.1791-.4701-.6045-.4029-.9179.0671-.3135.3582-.6045.6716-.6941.0672 0 .1567-.0224.2239-.0224.2015 0 .4254.0672.5597.2239.2239.2015.3358.4926.2686.7612-.0671.2687-.2462.5821-.5149.694-.1343.0448-.2687.0896-.4254.0896l.0224-.0224Z"/>
    <path fill="#1E1E1E" d="M74.6418 89.9851v.1343c-.1567-.0895-.0671-.1119 0-.1343Zm0-1.6791h-.0895c-.1567 0-.3135.0448-.4478.0895-.6045.2015-1.097.7388-1.2089 1.3433-.112.6269.2238 1.3657.7388 1.7239.291.2015.6492.3134.9851.3134.2238 0 .4253-.0447.6268-.1343.5373-.2239.9179-.694 1.0299-1.2761.0447-.1343.0447-.2687.0447-.4254 0-.9179-.7388-1.6791-1.6791-1.6791v.0448Z"/>
    <path fill="#FFDA00" d="M74.6418 90.8134c-.2015 0-.3806-.0671-.5373-.2015-.2239-.2014-.3358-.4925-.2911-.7835v-.0448c.0672-.3582.3582-.6493.7165-.694h.1119c.3134 0 .6045.1567.7612.4477.1567.3135.1567.6941-.0896.9403-.0895.112-.291.2463-.4253.2911-.0896.0224-.1791.0447-.2687.0447h.0224Z"/>
    <path fill="#1E1E1E" d="m74.709 89.9403-.0448.0448v-.0448h.0671m0-1.6791H74.4403c-.7164.1119-1.2985.6717-1.4328 1.3881-.0896.5821.1119 1.1865.5597 1.5671.3134.2687.7164.4254 1.1194.4254.1567 0 .3358-.0224.4925-.0895.2015-.0672.4254-.1792.6045-.3359.0448-.0447.1119-.0895.1567-.1567.291-.291.4702-.7164.4702-1.1642 0-.9179-.7389-1.6791-1.6792-1.6791v.0448Z"/>
    <path fill="#FFDA00" d="M88.1866 26.806c-.3359 0-.6493-.2015-.7836-.4926-.1344-.3134-.112-.694.1343-.9403.1567-.2686.403-.4029.6716-.4029.112 0 .2015 0 .3135.0447.3806.1344.5821.5597.5149.9627-.0672.3806-.403.7836-.806.806h-.0447v.0224Z"/>
    <path fill="#1E1E1E" d="M88.209 25.8657v.1119h-.0448l.0448-.1119Zm0-1.6791c-.6269 0-1.1642.3358-1.4553.8507-.291.4702-.3582 1.0523-.1567 1.5672.2687.6268.8732 1.0298 1.5448 1.0298h.1119c.7836-.0447 1.4776-.6268 1.612-1.388.0224-.1344.0448-.2687.0448-.403 0-.9179-.7389-1.6791-1.6792-1.6791l-.0223.0224Z"/>
    <path fill="#FFDA00" d="M73.3657 52.1717c-.3582 0-.6717-.2239-.7836-.5597 0 0-.0448-.1792-.0672-.1792-.2015-.5597-.4701-.985-.7164-1.3656-.2015-.3135-.1791-.7164.0448-1.0075.1567-.2015.403-.3134.6493-.3134.1119 0 .2238 0 .3134.0671.8955.3583 1.7686.7388 2.6418 1.1642.3358.1567.5373.5373.4701.8955-.0671.3583-.291.806-1.0298.9627l-1.3433.3135h-.1791v.0224Z"/>
    <path fill="#1E1E1E" d="M72.4926 49.597c.8731.3582 1.7462.7388 2.597 1.1418-.0448.2015-.2015.2463-.3582.291-.4478.0896-.8955.2015-1.3657.3135-.0448-.112-.0672-.2239-.1119-.3358-.2015-.515-.4702-.9627-.7612-1.4105Zm0-1.6791c-.4926 0-.9627.2239-1.2985.6045-.4702.5597-.515 1.388-.0896 1.9925.2239.3358.4702.7164.6045 1.0746.0224.112.0448.2015.0895.2687.2463.694.8732 1.1418 1.5896 1.1418.1119 0 .2463 0 .3582-.0448l.6269-.1343.7164-.1567c1.2985-.2911 1.5895-1.2538 1.6567-1.6567.1343-.7388-.2686-1.4777-.9403-1.7911a68.283 68.283 0 0 0-2.6866-1.1642c-.2015-.0895-.4253-.1343-.6268-.1343Z"/>
    <path fill="#FFDA00" d="M60.8284 62.6717c-1.0299 0-2.0821-.3135-3.2463-.9851-.6269-.3582-.9627-.8955-1.2314-1.4552-.0671-.1568-.1567-.3359-.2462-.515-.0896-.2015-.1791-.4253-.2687-.6492-.403-1.0299-.6269-2.0597-.694-3.0448v-.7836c0-.403.0224-.8283.0672-1.2313.1343-1.5672.5149-2.9329 1.1194-4.1418.5149-1.0299 1.2761-1.7463 2.3507-2.1493.3806-.1343.7388-.2686 1.1194-.3806.7836-.2238 1.6119-.4253 2.4627-.5597h.2239c.5821-.1119 1.0746-.1567 1.5447-.1567 1.0075 0 2.015.2239 2.9553.6717 1.0298.4701 2.0149 1.1865 2.9328 2.1492.5149.5149.8508 1.1642 1.0522 2.0373l.2239.8508c.1344.5149.2687 1.0298.3806 1.5447l.0448.2687c.1343.806.1119 1.6119 0 2.4179-.0448.2463-.0896.4926-.1567.7388-.0448.1343-.0896.2911-.1791.4254-.0896.1343-.1791.2686-.2911.403-.694.7388-1.6343 1.6791-2.7761 2.3731-.3582.2239-.7388.403-1.1418.5821-.5149.2239-1.0522.4254-1.5671.5821-.2015.0672-.9179.2463-.9179.2463a32.2074 32.2074 0 0 1-2.8209.6716c-.3135.0672-.6269.0896-.918.0896h-.0223Z"/>
    <path fill="#1E1E1E" d="M64.0522 47.4478c.9403 0 1.8135.2015 2.6194.5821.9627.4477 1.8582 1.1194 2.6866 1.9701.4478.4702.694 1.0299.8284 1.6567.0447.1567.0895.3358.1343.4926.1567.6268.3358 1.2313.4701 1.8582 0 .0895 0 .1567.0224.2462a6.9162 6.9162 0 0 1 0 2.1493l-.1343.6716c0 .0896-.0672.1568-.0896.2239-.0447.0896-.1119.1567-.1791.2463-.7835.8283-1.6343 1.6343-2.597 2.2164-.3358.2015-.694.3806-1.0522.5373a19.578 19.578 0 0 1-1.4776.5373c-.2911.0896-.5821.1567-.8955.2463-.918.2463-1.8359.4701-2.7538.6493-.2686.0447-.5149.0671-.7612.0671-1.0074 0-1.9253-.3582-2.8209-.8731-.4253-.2463-.694-.6717-.8955-1.097-.0672-.1344-.1567-.2911-.2239-.4702-.0895-.1791-.1567-.403-.2462-.6045-.2911-.8059-.5597-1.7686-.6269-2.7985v-.694c0-.403.0224-.7836.0672-1.1866.1119-1.3209.4253-2.6194 1.0298-3.8507.4254-.8284 1.0299-1.4105 1.903-1.7463.3582-.1343.694-.2462 1.0522-.3582.7612-.2239 1.5448-.403 2.3508-.5149.1119 0 .2239 0 .3358-.0224.4701-.0896.8955-.1343 1.3209-.1343m-4.8582 9.5821c.0895-.112.1791-.2463.2686-.3582.515-.6941 1.0747-1.4105 1.6568-2.1493.8731-1.0746 1.8358-2.1493 2.9328-3.1119.6045-.5374 1.1642-1.1418 1.7239-1.7015.0671-.0672.0671-.1568.1567-.3135-.2015.0672-.3134.0896-.3806.1344-1.6343 1.3209-3.2463 2.6641-4.5672 4.3209-.1791.2238-.3358.4477-.5149.6716a48.4078 48.4078 0 0 0-1.2537 1.7239c-.0672.1119-.1344.2239-.1567.3358 0 .1343 0 .2687.1119.4478m2.8209 2.0597h.0672c.1119-.112.2238-.2463.3134-.3582.5373-.6045 1.0746-1.1866 1.5895-1.7911l1.0075-1.1418c.6269-.7164 1.2761-1.4104 1.9254-2.1268.4701-.5598.8955-1.1418 1.2985-2.0374-.2687.1791-.3582.2015-.403.2463-.5373.7164-1.1418 1.3881-1.7463 2.0597-.4925.5373-.985 1.0522-1.4776 1.5672-.4477.4925-.8955 1.0074-1.3433 1.5-.3134.3582-.6268.694-.9403 1.0522-.1567.1791-.2686.3806-.3806.5821-.0447.0896-.0895.1567-.1343.2463 0 .0447.0224.1567.0672.1791.0224 0 .0895.0224.1343.0224m4.7911-2.015s.1567-.0224.1791-.0671c.3358-.3806.6492-.7836.985-1.1642.0672-.0896.1567-.1567.2239-.2463.403-.4701.8284-.9403 1.3433-1.5-.2463.0448-.3358.0224-.3806.0672-.6045.5821-1.209 1.1642-1.791 1.7686-.1344.1344-.2687.2463-.403.3806-.1344.1344-.2239.2911-.3135.4478-.0447.0672 0 .2239.0672.291h.0896M64.097 45.7463c-.5373 0-1.097.0671-1.6567.1791h-.2687a18.025 18.025 0 0 0-2.5746.5821c-.403.1119-.806.2462-1.1866.403-1.2537.4925-2.1716 1.3432-2.7985 2.5522-.6492 1.2985-1.0522 2.7537-1.2089 4.4552a12.2865 12.2865 0 0 0-.0672 1.2985v.8508c.0672 1.0522.3134 2.1716.7388 3.291.0896.2463.1791.4926.2911.694.0895.2015.1791.3806.2462.5374.3135.6268.7612 1.3432 1.5672 1.791 1.2761.7388 2.4851 1.097 3.6493 1.097.3582 0 .7164-.0448 1.0746-.1119a43.821 43.821 0 0 0 2.888-.694l.2911-.0672c.2239-.0672.4254-.112.6492-.1791.5821-.1791 1.1418-.3806 1.6568-.6045.4701-.2015.8731-.403 1.2313-.6269 1.2313-.7388 2.2388-1.7238 2.9552-2.5074.1567-.1567.2911-.3582.403-.5597.112-.2239.2015-.4254.2687-.6269.0671-.2686.1343-.5373.1791-.8283a7.7357 7.7357 0 0 0 0-2.6866c0-.112-.0224-.2239-.0448-.3134-.1119-.5374-.2463-1.0747-.3806-1.612l-.0896-.3582-.0447-.1567-.0672-.2911c-.2463-1.0074-.6493-1.8134-1.2537-2.4403-1.0075-1.0298-2.0597-1.8134-3.1791-2.3283-1.0523-.4926-2.1717-.7388-3.3135-.7388h.0448Z"/>
    <path fill="#FFDA00" d="M38.3956 62.6492c-.8956 0-1.8359-.2462-2.8433-.7388-.2239-.1119-.403-.2462-.5597-.3582-.1567-.1119-.2687-.2239-.3806-.3582-.2911-.3134-.515-.694-.6717-1.097-.1343-.3358-.2015-.6493-.2462-.9627-.0896-.6492-.112-1.3657-.0896-2.2388 0-.0224.0224-.2239.0448-.2463.0224-.291.1343-.6716.291-1.097.0448-.1343.112-.2462.1791-.3582.7165-1.4104 1.7239-2.3507 2.6194-3.1119.5374-.4254 1.1418-.6493 1.7911-.6493h.6268s.1568-.0224.2239-.0224c.0224 0 1.6791.2015 2.1717.2687.5821.0895 1.1194.3582 1.6119.7836.6269.5597 1.4776 1.4776 1.7015 2.7761.0672.3582.0896.7164.1119 1.0746.0896 1.4329-.1791 2.6642-.8283 3.7612-.2463.4254-.694 1.0523-1.4776 1.3209-.3358.1119-.6493.2463-.9627.3582-.403.1567-.8284.3134-1.2314.4478l-.8731.2686c-.1119.0224-.2239.0448-.3134.0672-.3582.0672-.6493.0895-.9403.0895l.0448.0224Z"/>
    <path fill="#1E1E1E" d="M39.403 52.2388c.694.0895 1.3881.1567 2.0821.2687.4477.0671.8507.291 1.1642.582.694.6269 1.2761 1.3433 1.4328 2.306.0448.3358.0896.6717.1119.9851.0672 1.1418-.0895 2.2388-.7164 3.291-.2462.4478-.5597.7836-1.0298.9627-.7388.2463-1.4553.5597-2.1941.806-.2686.0895-.5373.1791-.8283.2463-.112.0223-.2015.0447-.3135.0671a4.1192 4.1192 0 0 1-.7388.0672c-.8507 0-1.6791-.2687-2.4626-.6493-.1568-.0895-.2911-.1791-.4254-.291-.0896-.0672-.1791-.1567-.2687-.2463-.2239-.2462-.403-.5149-.5149-.8283a4.0161 4.0161 0 0 1-.2015-.7836c-.0895-.6941-.0895-1.3881-.0672-2.1045v-.0896c.0224-.3358.1344-.6492.2463-.9626.0672-.1568.1343-.2687.2239-.403.5597-1.097 1.4104-1.9478 2.3507-2.7314.3582-.291.7836-.4701 1.2538-.4701h.8507v-.0448m-3.4254 6.6269c.1344-.112.2911-.2239.403-.3582.0672-.0896.2015-.2463.3806-.4478.2911-.3582.6717-.8731 1.0747-1.4104.9179-1.2538 1.9477-2.7314 2.1268-3.2015-.1119.0895-.2239.1567-.3134.2462-.6045.6493-1.209 1.2761-1.7687 1.9702-.2462.3134-.4701.6268-.694.9403-.3358.4701-.694.9627-1.0299 1.4328-.0447.0672-.0895.1343-.1567.2015-.1343.1791-.2462.3806 0 .6269m2.7314.2239s.1791-.0672.2462-.1568c.1344-.2238.2911-.4253.4254-.6492.5821-.8508 1.1418-1.7015 1.7015-2.5523.1791-.2686.3806-.5597.5597-.8283.112-.1791.1343-.403.2015-.6045l.1343-.0895-.0895-.0896-.0672.1567s-.2463.1344-.3358.2463c-.291.4254-.5821.8507-.8731 1.2537-.5821.8284-1.1642 1.6567-1.7463 2.5075l-.0896.1343c-.1119.1791-.2015.3806-.3134.6045.0896.0448.1791.0895.2463.0895m.694-8.5298c-.1119 0-.2463 0-.3582.0448h-.4925c-.8284 0-1.612.2686-2.2612.7835l-.0672.0672c-.9627.806-2.0597 1.8358-2.7761 3.2463-.1343.2462-.2015.3806-.2687.5373-.1791.4701-.3134.9179-.3582 1.3209 0 .1119-.0224.2015-.0448.3134-.0223.8955 0 1.6567.0896 2.3732.0448.3806.1567.7612.291 1.1641.2015.515.4702.9627.8508 1.3657.1343.1567.291.2911.4701.4254.1791.1343.403.3134.7165.4701 1.1194.5597 2.1716.8284 3.2014.8284.3583 0 .6941-.0224 1.0299-.0896.1791-.0224.3134-.0447.4254-.0895.3134-.0896.6268-.1791.9403-.2911.4253-.1343.8507-.291 1.2537-.4477.3134-.112.6269-.2463.9627-.3582 1.1642-.403 1.7463-1.3881 1.9254-1.7015.7388-1.2538 1.0298-2.6418.9403-4.2538-.0224-.3806-.0672-.7611-.1344-1.1641-.2686-1.5672-1.2537-2.6194-1.9701-3.2687-.6045-.5597-1.3209-.8955-2.0597-1.0075-.4926-.0671-.9851-.1343-1.5-.1791l-.6045-.0671h-.2015v-.0224Z"/>
  </g>
  <defs>
    <clipPath id="clip0_128_10892">
      <path fill="#fff" d="M0-1h150v150H0z"/>
    </clipPath>
  </defs>
</svg>
