<svg width="369" height="56" viewBox="0 0 369 56" fill="none" xmlns="http://www.w3.org/2000/svg">
<g clip-path="url(#clip0_554_13875)">
<path d="M73.0297 43.4952C69.759 43.5242 67.4181 42.488 64.716 41.2902C63.9648 40.9586 63.1886 40.6146 62.3668 40.283C61.4288 39.9058 60.4824 39.5535 59.5693 39.2095C57.3737 38.3889 55.2984 37.6138 53.2148 36.5113C49.9856 34.8036 47.0719 32.8722 44.5483 30.7666C45.6607 30.0413 46.8395 29.2414 48.0514 28.3834C49.3132 27.4923 50.5376 26.5431 51.6998 25.5608C53.1442 26.2281 54.2068 27.1441 54.8584 28.2839C55.5432 29.4776 56.0994 31.1024 56.5103 33.1167C56.6805 33.8338 57.1163 34.3643 57.797 34.7C58.4487 35.0192 59.2165 35.1808 60.0798 35.1808C61.4163 35.1808 62.6781 34.7995 63.832 34.0451C65.0107 33.2701 65.6084 32.1427 65.6084 30.6837V30.0745C65.6084 29.8382 65.5462 29.6019 65.4465 29.4071C65.1726 28.4207 64.3757 27.5213 63.0849 26.7421C61.8231 25.9794 60.2957 25.3453 58.5441 24.852C57.0831 24.4417 55.5723 24.1433 54.049 23.9609C54.3894 23.6832 54.6841 23.2812 54.9414 22.9247C55.1116 22.6926 55.2735 22.4688 55.4063 22.3445C55.8006 21.9673 56.2779 21.6979 56.7843 21.4119C57.3404 21.0969 57.9132 20.7736 58.3781 20.2928C59.2622 19.3851 59.8848 17.8888 59.2788 16.5957C58.7683 15.5014 57.548 14.772 55.5474 14.3575C52.9242 13.8145 50.135 13.7441 47.4786 14.1502C47.3998 14.1627 47.3334 14.2166 47.3043 14.2912C47.2753 14.3658 47.2919 14.4487 47.3417 14.5108C48.9023 16.3014 49.8196 17.6319 48.425 19.7167C47.6198 20.9228 46.9889 22.1662 46.3248 23.4801C46.0384 24.0438 45.752 24.6116 45.449 25.1753C44.623 26.7172 43.739 28.0684 42.8217 29.1958C42.3236 28.6942 41.8172 28.1803 41.3233 27.6622C40.8045 27.1192 40.3396 26.568 39.9412 26.0292V12.3804C40.7132 12.281 44.5566 12.3597 48.6118 12.4385C57.108 12.6084 67.6796 12.8156 69.2526 12.0488C69.3274 12.0115 69.3772 11.9369 69.3772 11.854C69.3855 11.0417 68.7006 10.4573 68.0614 9.97232L64.4836 7.26578C63.7241 6.6938 62.9728 6.17985 62.068 6.17985H62.0514C60.8643 6.18814 60.0466 7.04196 59.258 7.86263C59.0795 8.04914 58.9052 8.23151 58.7267 8.40559C56.7843 10.2666 54.6052 10.2707 52.0775 10.2749C51.5753 10.2749 51.0648 10.2749 50.5459 10.2915H50.3467C47.0013 10.4034 43.5439 10.5111 40.1653 10.1588C40.2981 9.69462 40.4392 9.23869 40.5804 8.78277C41.1158 7.05025 41.6222 5.41307 41.5807 3.48989C41.5641 2.81015 41.481 2.03923 40.9705 1.47968C40.323 0.762636 39.2522 0.650727 38.2975 0.60099C34.7156 0.41862 31.0797 0.447633 27.5019 0.683885C27.3939 0.692175 27.3026 0.77507 27.2943 0.882834C27.286 0.990598 27.3566 1.08593 27.4603 1.11494C29.021 1.50869 30.3201 2.94279 30.7642 4.76648C31.0133 5.7861 30.9095 6.814 30.8099 7.81289C30.731 8.58382 30.6521 9.37547 30.731 10.1754C26.6427 10.0635 22.4921 10.1091 18.4785 10.1505C17.3869 10.163 16.2953 10.1754 15.1995 10.1837C14.6516 10.1878 14.0788 10.2044 13.4895 10.221C9.78713 10.3288 5.59088 10.449 3.20014 7.79631C3.15863 7.75072 3.09637 7.72171 3.03412 7.72171C2.96771 7.74243 2.90545 7.75072 2.86394 7.79631C2.08778 8.67915 1.98817 10.0303 2.63151 11.0044C3.67746 12.5918 6.06405 12.5172 7.80314 12.4633C8.02728 12.455 8.24726 12.4509 8.44649 12.4467H30.7601V23.7868C30.1499 24.8976 29.4817 26.0209 28.7678 27.1151C28.141 28.0808 27.4437 29.0341 26.7008 29.9543C26.4601 28.6818 25.5262 27.571 23.9199 26.6467C22.2347 25.6769 20.2259 24.9184 17.9389 24.3878C18.0634 24.2718 18.2004 24.1433 18.3498 24.0024C19.0678 23.3309 19.9934 22.4647 20.8402 21.5196C21.7159 21.1839 22.5834 20.757 23.2682 20.1063C24.2561 19.1696 24.8372 17.5075 23.9655 16.2807C23.3098 15.3522 22.0895 15.0041 20.8734 14.7678C20.7945 14.7512 20.7156 14.7347 20.6326 14.7222C20.2051 14.5772 19.7859 14.4818 19.4206 14.4114C18.4577 14.2249 17.4823 14.1212 16.5069 14.1005C15.0003 13.9347 13.4812 13.8311 11.9703 13.7938C11.6756 13.7855 11.3934 13.7938 11.1444 13.9389C10.9327 14.0632 10.7916 14.258 10.7376 14.5108C10.6671 14.8424 10.7667 15.232 10.9866 15.5263C11.1651 15.7626 11.3934 15.9491 11.6092 16.1273C11.7794 16.2641 11.9413 16.3967 12.0741 16.5459C12.0866 16.5625 12.1032 16.5791 12.1156 16.5957C12.2235 16.9231 12.2692 17.2878 12.2567 17.6899H12.4186C12.3812 18.9748 11.4764 20.699 10.9202 21.7559C10.804 21.9756 10.7003 22.1745 10.6172 22.3403C9.45923 24.6821 8.08539 26.9452 6.54137 29.0631C5.67804 30.2485 4.62794 31.2972 3.6152 32.3085C2.71452 33.2079 1.78894 34.1322 0.992025 35.1518C0.892411 35.2761 0.917314 35.4088 0.971272 35.4875C1.22031 35.8481 2.86809 35.5787 2.88469 35.5746C3.46993 35.4171 3.9929 35.0772 4.49927 34.7539C4.64039 34.6627 4.78151 34.5715 4.92263 34.4886C6.45835 33.5561 8.03973 32.5116 9.62525 31.3842C11.8168 29.8258 13.9045 28.1347 15.8345 26.3566C16.5069 27.1441 16.9926 28.0518 17.2748 29.0631C17.5819 30.1615 17.7853 31.5956 17.8932 33.3488C18.0094 34.0783 18.4619 34.6088 19.238 34.9238C19.9685 35.2223 20.7986 35.3507 21.745 35.3052L22.3095 35.1932C17.4118 40.2291 10.5259 44.6102 1.29087 48.5643C0.0747445 49.0865 -0.082978 49.6751 3.38722e-05 50.0771C0.049841 50.3175 0.190961 50.5206 0.410942 50.6615C1.00033 51.0387 1.93836 50.8771 2.2123 50.819C7.80314 49.6295 13.1699 47.9094 17.7355 45.8536C21.6827 44.0755 25.8333 41.2695 30.7601 37.046V37.7257C30.7601 39.3629 30.7227 41.0291 30.6895 42.6414C30.6314 45.3852 30.5691 48.2244 30.6812 51.0263C30.7393 52.4106 30.8887 53.9691 31.9969 54.9762C32.9101 55.8093 34.2175 56.0124 35.4502 56.0124C35.8279 56.0124 36.2015 55.9917 36.5543 55.9668C37.4052 55.9047 38.3889 55.8052 39.2771 55.4322C40.2649 55.0177 40.9664 54.3089 41.1988 53.4924C41.5142 52.3858 41.0286 51.3786 40.5596 50.4046C40.2151 49.6875 39.8872 49.0078 39.8582 48.299C39.8208 47.3043 39.8789 46.2225 39.937 45.1821C39.9951 44.1501 40.0532 43.0849 40.02 42.0611C39.9702 40.4157 39.9412 38.9567 39.9412 37.7257V29.6227C41.4561 32.752 43.4443 35.7155 45.8641 38.451C48.5163 41.4477 51.4425 44.1004 54.5596 46.3385L55.0078 46.6618C58.3656 49.0865 61.5408 51.3744 66.1231 50.1932C69.3855 49.3518 72.1082 46.9022 73.2289 43.7978C73.2538 43.7315 73.2414 43.6569 73.1999 43.5988C73.1583 43.5408 73.1002 43.5242 73.0172 43.5077L73.0297 43.4952Z" fill="#1E1E1E"/>
<path d="M151.256 22.2574C151.754 22.0792 151.912 21.6523 151.725 21.159C151.513 20.6036 151.098 20.1933 150.671 19.8369C149.84 19.1364 148.923 18.5437 147.877 18.1997C146.736 17.8225 145.594 17.8018 144.495 18.3655C143.432 18.9084 142.374 19.4638 141.307 20.0068C141.178 20.0731 141.033 20.1229 140.892 20.1311C140.211 20.1726 139.535 20.2223 138.854 20.2223C137.658 20.2223 136.463 20.2306 135.268 20.1602C133.707 20.0648 132.142 20.0648 130.578 20.0275C130.54 20.0275 130.503 20.0275 130.466 20.0275C130.109 20.0027 130.05 19.9322 130.104 19.5799C130.27 18.4732 130.366 17.3583 130.403 16.2392C130.407 16.1107 130.403 15.9822 130.42 15.8537C130.449 15.5802 130.524 15.5014 130.793 15.4641C131.084 15.4227 131.379 15.3978 131.669 15.3522C132.777 15.1906 133.89 15.0289 134.998 14.859C135.23 14.8217 135.455 14.7222 135.687 14.6849C137.044 14.4611 138.401 14.2497 139.725 13.8394C140.854 13.4912 141.963 13.114 143.05 12.6581C143.573 12.4385 144.079 12.1649 144.557 11.854C145.242 11.4064 145.81 10.822 146.167 10.0801C146.462 9.47079 146.454 8.82421 146.167 8.21493C145.711 7.23676 144.934 6.52386 144.034 5.96432C142.838 5.22241 141.543 4.70016 140.178 4.36444C139.589 4.21937 138.999 4.09088 138.406 3.95825C138.011 3.87121 137.621 3.76759 137.223 3.71371C136.75 3.64739 136.272 3.6018 135.795 3.58108C135.098 3.54792 134.396 3.51476 133.699 3.53548C132.948 3.56035 132.196 3.64325 131.449 3.71785C131.271 3.73443 131.092 3.7966 130.93 3.87121C130.756 3.94996 130.735 4.12819 130.764 4.30227C130.793 4.48464 130.93 4.52194 131.088 4.53852C131.453 4.57168 131.819 4.61727 132.188 4.64628C132.869 4.70016 133.433 4.94885 133.815 5.54155C133.994 5.81511 134.068 6.10524 133.989 6.43268C133.89 6.85544 133.67 7.21189 133.388 7.53104C132.362 8.69987 131.038 9.39204 129.59 9.88527C129.287 9.98889 129.096 9.92257 128.868 9.69876C128.399 9.23454 127.892 8.80349 127.373 8.3973C127.012 8.11546 126.605 7.89164 126.153 7.77558C125.124 7.50617 124.094 7.22433 123.065 6.95077C122.978 6.92591 122.882 6.91762 122.791 6.91347C121.729 6.83887 120.662 6.76426 119.599 6.68965C118.977 6.64406 118.354 6.56531 117.752 6.38709C117.47 6.30419 117.188 6.22544 116.906 6.14254C116.536 6.03478 116.167 5.92287 115.797 5.81925C115.623 5.76951 115.445 5.71563 115.262 5.70734C115.166 5.7032 115.034 5.76122 114.98 5.83583C114.822 6.04721 114.718 6.27518 114.888 6.54459C115.063 6.82229 115.225 7.11242 115.386 7.40255C115.71 7.97868 116.059 8.54237 116.341 9.13507C116.76 10.0179 117.022 10.9588 117.221 11.9121C117.399 12.7742 117.561 13.6404 117.732 14.5025C117.815 14.9336 117.914 15.3647 117.981 15.7999C118.221 17.3624 118.391 18.9333 118.421 20.5083C118.462 22.6014 118.429 24.6945 118.429 26.7918C118.429 26.8664 118.42 26.9369 118.416 27.0115C118.35 27.799 118.296 28.5823 118.217 29.3698C118.147 30.062 118.093 30.7625 117.956 31.4422C117.769 32.3955 117.553 33.3488 117.275 34.2772C116.868 35.6492 116.441 37.0169 115.88 38.3391C115.436 39.3919 114.967 40.4239 114.345 41.3814C113.892 42.0736 113.456 42.774 112.996 43.4621C112.751 43.8268 112.489 44.1874 112.207 44.5231C111.626 45.2112 111.028 45.8826 110.426 46.5541C109.713 47.3499 108.924 48.0628 108.123 48.7674C107.625 49.2026 107.069 49.5756 106.678 50.1227C106.604 50.2263 106.521 50.3299 106.475 50.446C106.405 50.6159 106.504 50.8066 106.683 50.8149C107.011 50.8273 107.355 50.8605 107.666 50.7859C108.239 50.6491 108.804 50.4709 109.351 50.2595C110.31 49.8906 111.273 49.5259 112.195 49.0616C112.506 48.9041 112.826 48.7591 113.124 48.5809C114.046 48.0462 114.959 47.4908 115.764 46.7862C116.333 46.2929 116.939 45.8412 117.495 45.3314C118.25 44.635 118.981 43.9097 119.703 43.1802C120.052 42.8279 120.375 42.4507 120.703 42.0777C121.6 41.0498 122.33 39.9017 123.094 38.7785C124.119 37.2739 125.099 35.7404 125.854 34.0783C126.419 32.8432 126.938 31.5873 127.46 30.3356C128.013 29.0134 128.511 27.6705 128.892 26.2861C129.112 25.4903 129.295 24.6862 129.469 23.8822C129.561 23.4511 129.594 23.0118 129.656 22.5766C129.689 22.3486 129.735 22.2823 129.967 22.274C130.482 22.2533 130.997 22.2367 131.511 22.2533C131.877 22.2657 131.914 22.3196 131.918 22.6885C131.931 23.5879 131.943 24.4873 131.931 25.3909C131.918 26.2157 131.918 27.0405 131.852 27.8653C131.785 28.7233 131.889 29.5895 131.897 30.4475C131.922 32.4453 131.993 34.4472 131.844 36.4491C131.74 37.8749 131.744 39.309 131.723 40.7431C131.707 41.8083 131.715 42.8735 131.723 43.9387C131.723 44.3242 131.773 44.7055 131.79 45.091C131.798 45.3272 131.79 45.5676 131.781 45.8039C131.769 46.0981 131.719 46.3883 131.727 46.6825C131.744 47.6193 131.806 48.5518 131.802 49.4886C131.802 50.2139 131.906 50.9102 132.113 51.5982C132.259 52.079 132.462 52.5723 132.873 52.85C133.495 53.2686 134.168 53.6209 134.965 53.6126C135.774 53.6002 136.588 53.6126 137.397 53.6126C138.397 53.6167 139.369 53.4344 140.331 53.1815C141.386 52.908 142.183 51.934 142.145 50.8439C142.104 49.6129 142.129 48.3819 142.108 47.1509C142.1 46.5085 142.062 45.866 142.029 45.2277C142.008 44.8423 141.959 44.4609 141.938 44.0755C141.925 43.8185 141.913 43.5574 141.954 43.3046C142.071 42.5419 142.112 41.771 142.116 41.0001C142.137 39.0189 142.058 37.0335 142.216 35.0523C142.291 34.1032 142.307 33.1457 142.336 32.1924C142.382 30.6713 142.423 29.146 142.457 27.6207C142.469 27.0322 142.457 26.4436 142.457 25.8551H142.419C142.419 24.7899 142.419 23.7247 142.419 22.6595C142.419 22.5061 142.452 22.4025 142.623 22.4025C143.154 22.4025 143.685 22.4025 144.216 22.4108C144.254 22.4108 144.287 22.4273 144.324 22.4315C144.54 22.4605 144.76 22.502 144.976 22.5102C146.873 22.5517 148.77 22.4812 150.662 22.3859C150.862 22.3776 151.069 22.3362 151.256 22.2698V22.2574Z" fill="#1E1E1E"/>
<path d="M368.821 23.5796C368.647 23.4428 368.514 23.5382 368.377 23.6376C367.746 24.0894 367.057 24.4293 366.352 24.7484C366.082 24.8686 365.808 24.9805 365.555 25.1256C364.733 25.594 363.837 25.8758 362.944 26.1494C361.994 26.4436 361.002 26.5597 360.001 26.5514C359.578 26.5514 359.155 26.6136 358.736 26.6094C358.183 26.6011 357.631 26.568 357.084 26.5224C356.482 26.4727 355.876 26.4146 355.274 26.3317C354.548 26.2323 353.821 26.1286 353.124 25.8841C352.535 25.6769 351.924 25.5194 351.352 25.2748C350.389 24.8645 349.447 24.4003 348.496 23.9651C347.857 23.6749 347.255 23.3268 346.703 22.8916C346.487 22.7216 346.288 22.5227 346.051 22.3859C345.42 22.0253 344.931 21.4948 344.374 21.0513C343.536 20.384 342.889 19.526 342.224 18.6929C342.121 18.5644 342.005 18.4442 341.909 18.3116C341.78 18.1334 341.847 18.0049 342.083 17.9883C342.727 17.9469 343.37 17.9054 344.013 17.8722C344.989 17.8225 345.96 17.7769 346.935 17.7313C347.027 17.7272 347.118 17.723 347.209 17.7148C348.774 17.5655 350.339 17.636 351.904 17.6526C352.933 17.665 353.962 17.7438 354.992 17.7894V17.7562H355.768C356.374 17.7562 356.984 17.7811 357.59 17.7521C358.316 17.7189 358.599 17.1096 358.188 16.5086C357.382 15.3274 356.291 14.5233 354.921 14.1047C354.73 14.0466 354.539 13.9679 354.344 13.9264C353.763 13.8062 353.157 13.7441 352.597 13.9389C351.534 14.3077 350.58 14.9046 349.613 15.4766C348.753 15.9822 347.873 16.3967 346.827 16.3843C345.595 16.3718 344.358 16.3055 343.129 16.4755C343.005 16.492 342.872 16.4547 342.747 16.4423C342.565 16.4257 342.382 16.4009 342.2 16.4009C341.112 16.3926 340.025 16.3884 338.937 16.3843C338.626 16.3843 338.31 16.3843 337.999 16.376C337.684 16.3636 337.655 16.3304 337.634 16.0278C337.634 15.9739 337.634 15.9159 337.634 15.862C337.634 14.4114 337.626 12.9607 337.626 11.5059C337.626 11.0748 337.675 11.0085 338.124 10.9422C339.406 10.7474 340.635 10.3661 341.83 9.88113C342.544 9.591 343.25 9.26771 343.922 8.89468C344.632 8.50507 345.304 8.05329 345.823 7.4067C346.628 6.40367 346.645 5.37991 345.865 4.33128C345.192 3.42772 344.271 2.80186 343.229 2.39568C342.515 2.11383 341.76 1.92732 341.012 1.7408C339.971 1.47554 338.896 1.47554 337.833 1.43409C337.028 1.40093 336.214 1.47968 335.409 1.54185C334.953 1.57501 334.496 1.65791 334.044 1.73666C333.907 1.76153 333.766 1.83199 333.654 1.91903C333.483 2.05581 333.492 2.25061 333.658 2.39153C333.77 2.48686 333.898 2.55732 334.019 2.64436C334.438 2.95522 334.538 3.33654 334.276 3.78832C334.11 4.07431 333.907 4.33543 333.695 4.58826C333.143 5.25142 332.412 5.69077 331.67 6.09281C330.408 6.77255 329.092 7.35282 327.776 7.9248C326.863 8.3227 325.925 8.6377 324.958 8.86981C324.688 8.93612 324.414 8.97343 324.149 9.05218C323.19 9.33817 322.202 9.43764 321.21 9.4708C321.081 9.47495 320.953 9.48738 320.824 9.49152C320.069 9.51225 319.317 9.5537 318.562 9.54541C317.79 9.53712 317.018 9.46251 316.246 9.45008C315.781 9.44179 315.329 9.41277 314.88 9.28843C314.723 9.24698 314.552 9.22626 314.391 9.2304C314.125 9.23869 313.996 9.42935 314.075 9.68633C314.113 9.80238 314.179 9.93501 314.27 10.0096C314.499 10.192 314.735 10.3785 315.001 10.4987C315.569 10.7557 316.146 11.0044 316.74 11.195C317.562 11.4603 318.392 11.6965 319.234 11.8872C320.114 12.0903 321.011 12.2105 321.911 12.2437C323.439 12.3017 324.966 12.3224 326.494 12.3473C327.179 12.3597 327.179 12.3473 327.187 13.0602C327.187 13.4456 327.191 13.8311 327.199 14.2166C327.199 14.3616 327.212 14.5108 327.22 14.6559C327.241 15.1118 327.278 15.5719 327.282 16.0278C327.287 16.4713 327.266 16.4796 326.813 16.4962C326.776 16.4962 326.739 16.4962 326.701 16.4962C324.601 16.4962 322.501 16.5211 320.401 16.492C318.284 16.463 316.171 16.6164 314.05 16.5376C313.17 16.5045 312.286 16.5832 311.402 16.5957C310.315 16.6122 309.227 16.6205 308.14 16.6081C307.812 16.6081 307.484 16.5293 307.16 16.4672C306.866 16.4091 306.6 16.2889 306.442 16.003C306.417 15.9532 306.384 15.9076 306.347 15.8662C306.177 15.688 305.977 15.6921 305.828 15.8828C305.762 15.9698 305.703 16.0693 305.67 16.1687C305.604 16.3594 305.471 16.463 305.288 16.5376C304.965 16.6703 304.637 16.7988 304.33 16.9645C304.105 17.0847 303.894 17.2381 303.715 17.4163C303.612 17.5241 303.553 17.7065 303.541 17.8598C303.504 18.3572 303.881 18.7675 304.446 18.7509C305.33 18.7219 306.201 18.8255 307.09 18.7882C308.393 18.7385 309.705 18.6846 311.008 18.8297C311.315 18.8629 311.635 18.8297 311.946 18.8214C312.295 18.809 312.643 18.7717 312.992 18.7634C314.025 18.7427 315.055 18.7344 316.088 18.7178C317.375 18.6929 318.666 18.668 319.952 18.639C320.006 18.639 320.064 18.639 320.118 18.6473C320.26 18.668 320.301 18.7468 320.243 18.8794C320.214 18.9457 320.172 19.0079 320.139 19.0742C319.687 19.899 319.126 20.6492 318.566 21.3995C317.703 22.5517 316.707 23.5837 315.594 24.4956C314.416 25.4613 313.212 26.3939 312.021 27.3472C310.668 28.429 309.202 29.345 307.716 30.2278C306.77 30.7874 305.778 31.2806 304.761 31.7116C303.836 32.1054 302.881 32.4577 301.889 32.6815C301.565 32.7561 301.237 32.81 300.918 32.8888C300.013 33.1209 299.108 33.3613 298.203 33.6017C298.149 33.6141 298.1 33.6348 298.05 33.6638C297.892 33.7592 297.896 33.9871 298.07 34.0617C298.22 34.1239 298.382 34.1695 298.544 34.1985C299.108 34.2855 299.668 34.3767 300.237 34.4389C300.528 34.4721 300.822 34.4596 301.117 34.4389C301.445 34.414 301.773 34.3477 302.105 34.3187C303.076 34.2317 304.047 34.1529 305.014 34.0617C305.363 34.0286 305.712 33.9996 306.052 33.9332C306.866 33.7799 307.679 33.6597 308.48 33.4359C309.472 33.1623 310.485 32.9758 311.473 32.6815C312.473 32.3831 313.494 32.1468 314.499 31.836C315.731 31.4547 316.939 31.0112 318.122 30.5138C318.936 30.1739 319.724 29.7719 320.513 29.3781C321.285 28.9927 322.048 28.5906 322.816 28.1886C322.962 28.114 323.099 28.0145 323.231 27.915C323.825 27.484 324.439 27.0736 325.008 26.6094C325.647 26.0913 326.253 25.5235 326.867 24.9722C326.975 24.8728 327.058 24.7443 327.166 24.649C327.212 24.6075 327.295 24.5951 327.361 24.5992C327.386 24.5992 327.419 24.6863 327.423 24.736C327.457 25.1753 327.502 25.6147 327.511 26.054C327.523 26.8084 327.519 27.5627 327.511 28.3129C327.502 28.9761 327.428 29.631 327.262 30.2734C327.083 30.9656 327.291 31.3386 327.975 31.5832C328.287 31.6951 328.611 31.7862 328.901 31.9396C329.565 32.2919 330.292 32.4121 331.018 32.524C331.47 32.5945 331.939 32.6401 332.392 32.6028C333.678 32.4991 334.787 31.9189 335.816 31.1894C336.111 30.9822 336.36 30.692 336.58 30.406C337.028 29.8258 337.235 29.1585 337.318 28.4207C337.455 27.1938 337.518 25.9711 337.501 24.7401C337.497 24.3381 337.514 23.9319 337.526 23.5299C337.526 23.4843 337.555 23.4097 337.588 23.3972C337.626 23.3848 337.688 23.418 337.734 23.4428C337.767 23.4594 337.788 23.4926 337.817 23.5174C338.85 24.537 339.9 25.5401 340.917 26.5763C341.639 27.3099 342.349 28.0518 343.125 28.7316C343.86 29.374 344.578 30.033 345.383 30.5801C346.388 31.2599 347.409 31.9189 348.467 32.5074C349.716 33.2038 350.974 33.9042 352.352 34.3394C352.647 34.4306 352.933 34.5798 353.236 34.6296C354.195 34.7871 355.158 34.9446 356.125 35.0357C356.743 35.0938 357.378 35.0731 357.997 35.0026C358.972 34.8948 359.902 34.584 360.769 34.1239C361.533 33.7219 362.288 33.3115 362.928 32.7022C364.376 31.322 365.538 29.7222 366.605 28.0435C367.236 27.0529 367.867 26.0623 368.481 25.0593C368.672 24.7484 368.826 24.4127 368.963 24.0728C369.062 23.8324 369 23.7205 368.834 23.5879L368.821 23.5796Z" fill="#1E1E1E"/>
<path d="M110.277 43.0725C110.995 42.8818 111.668 42.5958 112.228 42.086C113.079 41.3109 113.519 40.3286 113.73 39.2137C113.942 38.107 113.722 37.1413 112.967 36.2958C112.871 36.188 112.801 36.0512 112.713 35.9352C111.962 34.9819 111.111 34.1612 109.891 33.8338C109.767 33.8006 109.646 33.755 109.526 33.7053C108.845 33.411 108.127 33.2452 107.397 33.1457C106.778 33.0628 106.156 33.0089 105.533 32.9343C105.184 32.8929 105.114 32.8266 105.118 32.4826C105.126 32.0805 105.164 31.6785 105.188 31.2723C105.209 30.92 105.292 30.8247 105.645 30.7666C105.736 30.7501 105.828 30.7542 105.919 30.7459C106.542 30.7003 107.172 30.6837 107.791 30.605C108.509 30.5138 109.223 30.5552 109.941 30.5677C111.136 30.5925 112.336 30.634 113.531 30.6216C114.004 30.6174 114.486 30.5304 114.946 30.4143C115.569 30.261 115.748 29.7056 115.386 29.175C115.337 29.1004 115.283 29.0217 115.216 28.9595C114.61 28.3875 113.975 27.8653 113.195 27.5461C113.008 27.4715 112.834 27.3638 112.664 27.2602C111.751 26.7006 110.767 26.6053 109.737 26.825C109.306 26.9161 107.837 27.6871 107.392 28.0269C106.845 28.4456 106.214 28.6196 105.533 28.6113C105.305 28.6113 105.242 28.5409 105.213 28.3171C105.205 28.2632 105.205 28.2052 105.205 28.1513C105.205 26.7752 105.205 25.395 105.209 24.0189C105.209 23.621 105.267 23.5547 105.653 23.5589C106.334 23.5672 107.015 23.5008 107.691 23.6335C107.973 23.6874 108.276 23.6335 108.571 23.621C108.7 23.6128 108.824 23.5672 108.953 23.563C110.003 23.5216 111.049 23.4677 112.099 23.4511C113.149 23.4387 114.199 23.4843 115.249 23.4718C115.689 23.4677 116.138 23.4262 116.557 23.3143C117.221 23.1361 117.478 22.531 117.142 21.9383C116.756 21.2668 116.275 20.6658 115.594 20.2472C115.025 19.8949 114.407 19.6752 113.797 19.4182C113.087 19.1198 112.369 19.1032 111.634 19.1488C111.489 19.1571 111.344 19.182 111.203 19.2234C110.24 19.497 109.364 19.9529 108.492 20.4379C107.882 20.7777 107.239 21.0513 106.508 21.0347C106.176 21.0264 105.848 21.0513 105.516 21.0637C104.964 21.0844 104.412 21.1093 103.864 21.13C103.823 21.13 103.777 21.0969 103.736 21.0762C103.777 21.043 103.81 21.0015 103.856 20.9767C104.184 20.8109 104.512 20.641 104.848 20.4917C105.674 20.1311 106.479 19.7084 107.338 19.4514C108.559 19.0867 109.767 18.6888 110.929 18.1831C111.684 17.8557 112.431 17.5034 113.037 16.9024C113.664 16.2848 113.992 15.5678 113.942 14.6849C113.913 14.1627 113.747 13.6736 113.506 13.2177C113.282 12.7908 112.975 12.4219 112.527 12.1981C112.444 12.1566 112.361 12.1069 112.298 12.0447C111.834 11.5763 111.24 11.3069 110.663 11.0375C109.845 10.6603 108.995 10.3536 108.119 10.1381C106.936 9.84797 105.753 9.56198 104.524 9.64488C104.126 9.67389 103.719 9.74021 103.337 9.85212C102.735 10.0303 102.47 10.6272 102.706 11.2075C102.789 11.4064 102.918 11.5929 103.055 11.767C103.69 12.5835 103.748 13.4871 103.437 14.4238C102.91 16.0154 101.988 17.3873 100.947 18.6805C100.751 18.925 100.561 19.1737 100.357 19.41C99.8798 19.9654 99.3735 20.4835 98.6886 20.7902C98.9916 20.2306 99.3527 19.6959 99.5893 19.1074C100.05 17.9427 100.141 16.7283 99.9379 15.4807C99.7304 14.2207 99.0373 13.3462 97.9498 12.7327C97.3812 12.4136 96.7503 12.2685 96.1567 12.0198C95.5342 11.7546 94.8825 11.6634 94.2184 11.6261C93.3385 11.5763 92.4503 11.5722 91.5745 11.4893C90.9021 11.4271 90.2256 11.3691 89.5739 11.1204C88.9887 10.9007 88.3744 10.7598 87.7809 10.5733C87.5443 10.4987 87.3533 10.5484 87.1749 10.7142C86.9341 10.9339 86.9507 11.1038 87.233 11.2738C87.5152 11.4437 87.8099 11.5971 88.0755 11.7877C88.7562 12.281 89.3249 12.8695 89.6694 13.6487C90.0471 14.5025 90.2048 15.402 90.2671 16.3221C90.3169 17.035 90.3169 17.7562 90.404 18.4649C90.4953 19.2152 90.707 19.9405 91.2383 20.5249C91.4873 20.7943 91.7322 21.0679 91.973 21.3456C92.002 21.3787 92.0062 21.4409 92.0103 21.4906C92.0103 21.4948 91.9439 21.5196 91.9107 21.5196C91.23 21.4989 90.5493 21.4741 89.8686 21.4533C88.2457 21.4077 86.6311 21.5238 85.0124 21.586C84.9585 21.586 84.9045 21.5984 84.8464 21.6067C83.4352 21.8222 82.024 21.8264 80.6086 21.6813C80.1313 21.6316 79.654 21.6025 79.1808 21.5569C78.8695 21.5238 78.5582 21.4948 78.2511 21.4326C77.6908 21.3166 77.2135 21.0637 76.9188 20.5415C76.8731 20.4627 76.8274 20.3798 76.7652 20.3135C76.5535 20.0648 76.3003 20.0565 76.1301 20.3301C75.8106 20.8482 75.3581 21.1425 74.7688 21.271C74.2084 21.3953 73.8349 21.7725 73.5858 22.2698C73.287 22.8626 73.5153 23.4221 74.1379 23.6376C74.225 23.6666 74.3163 23.6708 74.4077 23.6832C74.7729 23.7247 75.1382 23.762 75.5034 23.7993C76.9312 23.9485 78.3632 24.0355 79.7993 24.0024C80.7539 23.9816 81.7127 23.9319 82.6673 23.8987C83.6427 23.8614 84.614 23.8076 85.5893 23.7993C86.2119 23.7951 86.8387 23.8656 87.4613 23.8863C88.9347 23.9319 90.404 23.9651 91.8775 24.0065C91.9688 24.0065 92.0601 24.0148 92.1514 24.0231C92.3465 24.0438 92.442 24.1599 92.4544 24.3505C92.4586 24.4624 92.4627 24.5702 92.4627 24.6821C92.4627 25.7307 92.4627 26.7752 92.4627 27.8238C92.4627 27.9357 92.4627 28.0435 92.4544 28.1554C92.4461 28.3046 92.359 28.3875 92.2137 28.4083C91.9564 28.4414 91.7032 28.4829 91.4458 28.4994C90.5825 28.5492 89.715 28.5782 88.8517 28.6279C87.619 28.6984 86.3904 28.7854 85.1618 28.86C84.5185 28.8973 83.8752 28.9305 83.2318 28.9512C82.5179 28.9719 81.8372 28.8808 81.2852 28.3461C81.1109 28.1761 80.9075 28.1886 80.7456 28.3751C80.4634 28.6984 80.094 28.8435 79.7038 28.9678C79.3759 29.0714 79.1144 29.2704 78.9193 29.5481C78.6703 29.9045 78.6703 30.4641 78.9442 30.721C79.3759 31.1272 79.8906 31.3552 80.4924 31.3428C81.3391 31.3303 82.1859 31.3013 83.0326 31.2806C83.2526 31.2764 83.4725 31.2723 83.6967 31.2599C84.78 31.1935 85.8633 31.0941 86.9466 31.0692C88.5861 31.036 90.2256 31.036 91.8609 31.1604C92.4586 31.206 92.4627 31.177 92.4669 31.7987C92.4752 33.212 92.4835 34.6296 92.4918 36.0429C92.5001 36.9962 92.5333 37.9495 92.5706 38.9028C92.6163 40.0924 92.5125 41.2861 92.4752 42.4756C92.4752 42.5502 92.471 42.6248 92.4544 42.6953C92.442 42.7657 92.4254 42.8445 92.3922 42.9025C92.056 43.4994 91.5745 43.8973 90.873 43.9553C90.0761 44.0216 89.3871 43.7522 88.8144 43.2009C88.4989 42.8942 88.1918 42.5751 87.8763 42.2684C87.7726 42.1689 87.6563 42.0653 87.5235 42.0072C87.2371 41.8746 86.9881 42.0114 86.9756 42.3223C86.9673 42.5751 86.9839 42.8403 87.0628 43.0766C87.2828 43.7398 87.5318 44.3905 87.7892 45.0412C88.1793 46.0318 88.611 47.0058 89.1256 47.9384C89.5158 48.643 89.9101 49.3518 90.4621 49.9528C90.7734 50.2885 91.0847 50.6284 91.4002 50.96C92.305 51.905 93.351 52.6386 94.621 53.0033C95.5217 53.2644 96.4265 53.5048 97.3812 53.4551C97.8045 53.4302 98.2154 53.4095 98.6347 53.3018C99.0788 53.1857 99.5353 53.1194 99.9587 52.9329C100.739 52.593 101.445 52.1371 102.138 51.648C103.192 50.9061 103.839 49.8865 104.292 48.7176C104.57 48.0006 104.744 47.2545 104.914 46.5043C105.081 45.7748 105.085 45.0537 105.085 44.3242C105.085 41.4767 105.085 38.6293 105.085 35.7818C105.085 35.616 105.085 35.4502 105.097 35.2844C105.097 35.2513 105.126 35.1891 105.134 35.1891C105.184 35.1974 105.251 35.2015 105.271 35.2388C105.591 35.6948 105.794 36.2087 105.944 36.7351C106.118 37.3444 106.077 37.9744 106.043 38.5961C106.014 39.1722 106.06 39.7318 106.18 40.2913C106.595 42.1855 108.476 43.5491 110.285 43.0683L110.277 43.0725Z" fill="#1E1E1E"/>
<path d="M181.231 24.6489C181.231 23.6376 181.211 22.6263 181.24 21.6191C181.265 20.786 180.858 20.2182 180.198 19.812C179.027 19.0908 177.724 18.6971 176.4 18.3738C175.578 18.1748 174.732 18.1044 173.889 18.0339C173.1 17.9676 172.316 17.8557 171.527 17.8267C170.589 17.7894 169.647 17.8018 168.709 17.8184C168.174 17.8267 167.646 17.9054 167.14 18.0878C166.891 18.179 166.63 18.295 166.609 18.5851C166.588 18.8463 166.837 18.9748 167.032 19.1157C167.285 19.2939 167.555 19.468 167.763 19.6918C168.759 20.7529 169.34 22.0295 169.61 23.447C169.817 24.5495 169.963 25.6561 169.938 26.7835C169.929 27.1855 169.95 27.5917 169.95 27.9938C169.95 28.1596 169.871 28.2715 169.684 28.2839C169.17 28.3212 168.659 28.3751 168.145 28.3917C167.7 28.4083 167.626 28.3502 167.676 27.9316C167.742 27.3762 167.676 26.8332 167.663 26.2861C167.663 26.083 167.671 25.8841 167.676 25.681C167.696 24.6531 167.754 23.6252 167.734 22.5973C167.713 21.4658 167.078 20.699 166.065 20.2804C165.492 20.0441 164.87 19.9198 164.255 19.812C163.056 19.6089 161.84 19.5633 160.624 19.5923C159.984 19.6089 159.337 19.6338 158.702 19.4804C158.382 19.4058 158.05 19.3934 157.722 19.3561C157.631 19.3478 157.536 19.3478 157.448 19.3561C157.274 19.3768 157.187 19.4846 157.195 19.6545C157.204 19.8742 157.295 20.0441 157.502 20.1394C157.751 20.2555 157.884 20.471 158.013 20.699C158.387 21.3663 158.474 22.0958 158.44 22.8335C158.395 23.8946 158.304 24.9557 158.221 26.0167C158.15 26.9327 158.067 27.8446 157.992 28.7564C157.955 29.2123 157.876 29.66 157.743 30.1035C157.602 30.576 157.415 31.0402 157.469 31.5541C157.544 32.2919 157.884 32.7022 158.607 32.8432C159.038 32.9302 159.474 32.9965 159.918 32.9841C160.267 32.9758 160.611 33.0297 160.96 33.0545C161.545 33.096 162.135 33.1457 162.72 33.1747C163.106 33.1913 163.496 33.2038 163.882 33.1747C164.504 33.125 165.14 33.096 165.737 32.9468C166.526 32.7478 167.115 32.2629 167.339 31.4339C167.447 31.0278 167.547 30.6174 167.63 30.2071C167.667 30.0164 167.742 29.9045 167.945 29.9045C168.518 29.9045 169.087 29.9045 169.66 29.9045C169.842 29.9045 169.925 30.0081 169.925 30.1822C169.921 30.5677 169.925 30.9531 169.9 31.3386C169.859 32.0515 169.78 32.7644 169.747 33.4773C169.722 34.0659 169.743 34.6544 169.738 35.243C169.738 35.3881 169.751 35.5414 169.709 35.6782C169.684 35.7652 169.581 35.8771 169.498 35.8854C169.078 35.9435 168.655 35.9766 168.236 36.0139C168.053 36.0305 167.933 35.9559 167.833 35.7901C167.48 35.214 166.928 35.015 166.281 35.015C164.588 35.0192 162.89 35.0275 161.196 35.0357C160.267 35.0399 159.37 34.8741 158.519 34.4886C158.287 34.3809 158.046 34.269 157.801 34.2109C157.556 34.1571 157.287 34.1198 157.042 34.1653C156.589 34.2482 156.465 34.6834 156.759 35.0357C156.797 35.0772 156.834 35.1186 156.872 35.1559C157.175 35.4502 157.349 35.8191 157.415 36.2211C157.527 36.9258 157.648 37.6387 157.677 38.3516C157.714 39.396 157.689 40.4447 157.664 41.4933C157.656 41.858 157.594 42.2269 157.502 42.5792C157.328 43.2341 157.112 43.8765 156.917 44.5273C156.531 45.7873 155.921 46.9395 155.137 47.9882C154.348 49.0368 153.435 49.9652 152.26 50.5994C152.003 50.7403 151.746 50.8853 151.484 51.0221C150.899 51.333 150.309 51.6314 149.728 51.9506C149.305 52.1827 149.284 52.6054 149.687 52.8624C149.82 52.9494 149.986 53.0075 150.143 53.0406C151.09 53.2479 152.061 53.2313 153.003 53.1069C154.07 52.966 155.149 52.8375 156.195 52.5184C157.357 52.1661 158.523 51.8262 159.64 51.3496C160.416 51.018 161.159 50.6118 161.856 50.1269C162.616 49.6005 163.297 48.987 163.928 48.3156C164.762 47.4286 165.555 46.5168 166.152 45.4474C166.322 45.1448 166.484 44.834 166.659 44.5314C167.078 43.8102 167.373 43.0393 167.572 42.2352C167.746 41.543 167.866 40.8343 167.983 40.1297C168.099 39.4209 168.19 38.7122 168.016 37.9951C168.003 37.9412 168.012 37.8873 168.016 37.8293C168.024 37.705 168.086 37.6138 168.215 37.6096C168.638 37.6014 169.062 37.6014 169.485 37.6055C169.635 37.6055 169.718 37.7008 169.734 37.8459C169.743 37.9205 169.751 37.991 169.747 38.0656C169.693 39.7898 169.83 41.514 169.651 43.2382C169.552 44.2206 169.61 45.2153 169.518 46.2018C169.469 46.7447 169.518 47.296 169.386 47.8389C169.265 48.3156 169.253 48.8254 169.107 49.2896C168.908 49.932 168.834 50.5745 168.846 51.2377C168.846 51.5071 168.917 51.7433 169.062 51.963C169.394 52.4728 169.846 52.8334 170.432 53.0033C170.942 53.1525 171.453 53.2976 171.967 53.4344C172.2 53.4924 172.436 53.5463 172.673 53.5546C174.117 53.6209 175.533 53.48 176.902 52.9702C177.106 52.8956 177.33 52.8624 177.541 52.8002C177.72 52.7505 177.898 52.709 178.064 52.6344C178.351 52.5101 178.625 52.3567 178.915 52.2407C179.389 52.05 179.762 51.7226 180.111 51.3703C180.356 51.1216 180.547 50.8232 180.609 50.4667C180.7 49.9611 180.82 49.4595 180.895 48.9539C180.933 48.6845 180.912 48.4026 180.895 48.1291C180.879 47.7436 180.837 47.3623 180.825 46.9768C180.804 46.409 180.804 45.837 180.779 45.2692C180.762 44.7925 180.717 44.32 180.696 43.8434C180.642 42.4466 180.762 41.054 180.804 39.6613C180.816 39.2012 180.804 38.7412 180.833 38.2852C180.887 37.3154 180.957 36.3455 181.02 35.3756C181.094 34.2399 181.049 33.1043 181.115 31.9645C181.206 30.3895 181.128 28.8062 181.219 27.2311C181.269 26.369 181.227 25.5028 181.227 24.6407L181.231 24.6489Z" fill="#1E1E1E"/>
<path d="M220.795 31.637C219.981 31.2101 219.189 30.7418 218.363 30.3439C217.678 30.0123 216.968 30.0745 216.291 30.4226C216.063 30.5387 215.839 30.663 215.611 30.7832C215.399 30.8951 215.171 30.9822 214.98 31.1231C214.44 31.521 213.83 31.7738 213.237 32.0639C212.963 32.1966 212.689 32.2505 212.39 32.2505C210.327 32.2463 208.264 32.2505 206.197 32.2505C206.106 32.2505 206.015 32.2505 205.919 32.2505C205.67 32.2339 205.624 32.1924 205.6 31.9645C205.587 31.8733 205.595 31.7821 205.591 31.6909C205.546 30.4226 205.57 29.1626 205.658 27.8943C205.749 26.5597 205.732 25.2168 205.79 23.878C205.824 23.1485 205.579 22.5061 205.255 21.8885C205.114 21.6191 204.927 21.3497 204.699 21.1466C203.977 20.5042 203.113 20.0814 202.238 19.6959C201.852 19.526 201.428 19.4473 201.034 19.2939C200.548 19.1032 200.05 18.9872 199.54 18.9333C199.066 18.8794 198.589 18.8255 198.112 18.7841C197.249 18.7136 196.389 18.6349 195.526 18.5976C194.845 18.5686 194.165 18.5893 193.48 18.5934C193.26 18.5934 193.036 18.6059 192.82 18.6266C192.16 18.6929 191.504 18.7592 190.848 18.8338C190.558 18.867 190.263 18.9084 189.977 18.9748C189.782 19.0204 189.582 19.0908 189.416 19.1986C189.01 19.4597 188.972 19.8908 189.313 20.2265C189.441 20.355 189.611 20.4379 189.753 20.5581C189.96 20.7363 190.209 20.8896 190.35 21.1135C190.628 21.5652 190.911 22.0336 191.072 22.531C191.375 23.4718 191.612 24.4376 191.844 25.3992C191.965 25.8965 192.019 26.4105 192.114 26.9161C192.272 27.7492 192.367 28.5823 192.413 29.4279C192.455 30.2154 192.529 30.9987 192.587 31.7862C192.596 31.9147 192.608 32.0474 192.579 32.1676C192.563 32.238 192.479 32.3168 192.405 32.3458C192.326 32.3789 192.222 32.3665 192.131 32.3665C190.545 32.3665 188.96 32.3665 187.378 32.3665C187.009 32.3665 186.66 32.2546 186.308 32.1344C185.623 31.8982 184.979 31.5914 184.415 31.1355C184.373 31.1024 184.324 31.0733 184.274 31.0485C184.062 30.9407 183.83 30.978 183.676 31.1562C183.618 31.2226 183.585 31.3137 183.539 31.3925C183.348 31.7241 183.074 31.9437 182.701 32.0639C182.406 32.1593 182.12 32.3002 181.862 32.4701C181.563 32.6649 181.422 32.9717 181.501 33.3281C181.58 33.6928 181.854 33.8794 182.198 33.9581C182.356 33.9954 182.526 33.9788 182.692 33.9788C185.731 33.9788 188.773 33.9705 191.811 33.9705C191.923 33.9705 192.031 33.9705 192.143 33.9705C192.579 33.983 192.604 34.012 192.621 34.4472C192.621 34.5011 192.621 34.5591 192.621 34.613C192.612 36.7434 192.612 38.8738 192.596 41.0042C192.587 42.1979 192.5 43.3916 192.55 44.5812C192.579 45.265 192.55 45.9406 192.484 46.6121C192.372 47.7685 192.359 48.9207 192.392 50.0771C192.392 50.1517 192.392 50.2222 192.392 50.2968C192.384 50.446 192.297 50.533 192.147 50.5455C192.002 50.5579 191.853 50.5579 191.707 50.5579C190.786 50.5621 189.865 50.5745 188.943 50.5703C187.868 50.5662 186.86 50.3341 186.021 49.6088C185.801 49.4181 185.602 49.1984 185.399 48.9912C185.154 48.7425 184.905 48.7632 184.739 49.0782C184.598 49.3476 184.411 49.5549 184.141 49.7041C183.821 49.8823 183.51 50.0771 183.203 50.2802C182.751 50.5786 182.452 50.9641 182.439 51.5444C182.431 51.9713 182.614 52.2697 183 52.3982C183.398 52.5308 183.813 52.6552 184.228 52.6759C184.83 52.709 185.444 52.7712 186.029 52.5308C186.112 52.4977 186.212 52.506 186.303 52.506C187.686 52.4894 189.064 52.5142 190.446 52.4065C191.342 52.336 192.251 52.3899 193.152 52.3982C193.907 52.4065 194.663 52.4479 195.414 52.4479C196.315 52.4479 197.219 52.4065 198.12 52.394C199.096 52.3816 200.075 52.3899 201.05 52.3692C201.565 52.3609 202.08 52.2821 202.594 52.2863C203.624 52.2863 204.653 52.336 205.687 52.3485C207.476 52.3692 209.26 52.3816 211.049 52.3899C212.855 52.3982 214.66 52.4521 216.457 52.2821C216.565 52.2697 216.677 52.2821 216.79 52.2821C217.412 52.2821 218.039 52.278 218.661 52.2821C218.998 52.2821 219.23 52.1329 219.355 51.8345C219.483 51.5278 219.471 51.2086 219.226 50.96C218.661 50.3797 218.06 49.8409 217.296 49.5217C217.043 49.414 216.794 49.2896 216.553 49.157C216.009 48.8503 215.482 48.5104 214.93 48.2244C214.374 47.9384 213.784 47.8224 213.174 48.0835C212.971 48.1705 212.776 48.2741 212.573 48.3529C211.112 48.9124 209.7 49.5797 208.339 50.3465C208.152 50.4543 207.936 50.5538 207.725 50.5662C207.156 50.5952 206.583 50.5745 206.01 50.5745C205.815 50.5745 205.712 50.4833 205.67 50.2885C205.57 49.816 205.566 49.3393 205.616 48.8627C205.641 48.6264 205.674 48.3861 205.674 48.1498C205.678 45.8702 205.674 43.5947 205.674 41.3151H205.67C205.67 38.965 205.67 36.6108 205.67 34.2607C205.67 34.1861 205.67 34.1156 205.67 34.041C205.678 33.8711 205.766 33.7716 205.944 33.755C206.255 33.7219 206.567 33.6638 206.878 33.6514C208.331 33.6058 209.787 33.5602 211.24 33.5478C211.996 33.5395 212.747 33.6265 213.502 33.6307C215.731 33.6431 217.96 33.6431 220.189 33.6307C220.517 33.6307 220.849 33.5809 221.173 33.5229C221.579 33.4524 221.766 33.1416 221.637 32.752C221.484 32.2919 221.247 31.8857 220.787 31.6453L220.795 31.637Z" fill="#1E1E1E"/>
<path d="M349.675 33.5685C349.206 33.2784 348.708 33.0338 348.222 32.7727C347.977 32.6401 347.737 32.5116 347.488 32.3872C347.126 32.2049 346.765 32.0225 346.4 31.8484C346.168 31.7407 345.931 31.6412 345.69 31.55C345.167 31.351 344.644 31.2474 344.072 31.3303C343.453 31.4215 342.843 31.5417 342.233 31.6868C341.32 31.9064 340.411 32.1178 339.564 32.5489C339.203 32.7354 338.834 32.9012 338.564 33.2203C338.41 33.3986 338.223 33.4815 337.987 33.4897C337.252 33.5105 336.517 33.5644 335.779 33.5644C332.022 33.5768 328.262 33.6058 324.506 33.4897C324.19 33.4815 323.962 33.3696 323.717 33.1747C323.406 32.9261 323.053 32.7022 322.679 32.5655C322.235 32.3997 321.754 32.3375 321.289 32.2339C320.139 31.9769 318.994 31.9603 317.844 32.2256C317.45 32.3168 317.055 32.4163 316.657 32.4536C316.163 32.4991 315.661 32.4909 315.167 32.4826C314.993 32.4826 314.814 32.3997 314.644 32.3458C314.503 32.3002 314.374 32.2173 314.233 32.1883C313.872 32.1137 313.619 32.3955 313.756 32.7354C313.859 32.9841 313.996 33.2286 314.154 33.4483C314.627 34.099 314.955 34.7995 315.013 35.616C315.076 36.4574 315.183 37.2946 315.246 38.1319C315.325 39.2303 315.424 40.3286 315.437 41.427C315.453 43.0434 315.47 44.6558 315.379 46.2722C315.304 47.611 315.333 48.9539 315.341 50.2968C315.341 51.3288 315.3 52.3526 315.076 53.3639C315.017 53.6209 315.063 53.8613 315.146 54.1183C315.32 54.6737 315.735 54.997 316.2 55.2622C316.989 55.714 317.827 55.9378 318.745 55.714C318.848 55.6891 318.969 55.6684 319.073 55.6933C319.421 55.7803 319.762 55.7223 320.11 55.6933C321.086 55.6021 322.036 55.428 322.97 55.1255C323.783 54.8602 324.323 54.3379 324.626 53.5546C324.759 53.2147 324.879 52.8666 324.983 52.5142C325.033 52.3526 325.108 52.2573 325.278 52.2365C325.535 52.2117 325.788 52.1619 326.046 52.1578C327.814 52.1081 329.582 52.1785 331.35 52.0459C331.823 52.0127 332.305 52.1122 332.782 52.1246C334.459 52.1702 336.131 52.2075 337.808 52.2448C338.589 52.2614 338.597 52.1619 338.535 53.107C338.535 53.1443 338.518 53.1774 338.51 53.2147C338.369 53.9193 338.647 54.483 339.17 54.9141C339.614 55.2788 340.133 55.5275 340.697 55.6518C341.635 55.8549 342.577 55.9959 343.54 56.0041C344.615 56.0207 345.661 55.8052 346.707 55.6021C347.467 55.4529 348.098 55.026 348.749 54.6571C349.127 54.4416 349.442 54.1349 349.691 53.7535C350.281 52.8583 350.277 51.8718 350.173 50.8812C350.136 50.4999 350.09 50.1186 350.082 49.7331C350.077 49.4761 350.077 49.2192 350.061 48.9622C349.999 47.8099 349.928 46.6535 349.87 45.5013C349.837 44.8423 349.87 44.175 349.808 43.5201C349.675 42.1938 349.754 40.8757 349.924 39.566C350.024 38.8075 350.244 38.0614 350.443 37.3154C350.534 36.9838 350.683 36.6646 350.845 36.3579C351.107 35.8647 351.123 35.3881 350.883 34.8824C350.613 34.3104 350.177 33.8959 349.654 33.5726L349.675 33.5685ZM324.713 38.766C324.701 38.5629 324.692 38.364 324.688 38.1609C324.672 37.2242 324.717 36.2916 324.589 35.3549C324.51 34.7746 324.568 34.7332 325.166 34.7332C327.079 34.7332 328.997 34.671 330.91 34.7498C332.62 34.8202 334.33 34.8368 336.044 34.8534C336.671 34.8575 337.298 34.8617 337.925 34.8451C338.207 34.8368 338.381 34.9363 338.46 35.2015C338.493 35.3052 338.543 35.4088 338.551 35.5165C338.597 36.0263 338.634 36.5403 338.663 37.0501C338.705 37.8376 338.742 38.6251 338.771 39.4126C338.792 40.0012 338.8 40.5856 338.796 41.1742C338.796 41.4394 338.73 41.4933 338.468 41.5099C338.36 41.5182 338.248 41.5099 338.136 41.5099C336.036 41.5099 333.936 41.5099 331.84 41.5099C329.74 41.514 327.639 41.514 325.543 41.514C324.879 41.514 324.896 41.514 324.867 40.8426C324.838 40.1463 324.767 39.4541 324.717 38.7578L324.713 38.766ZM338.829 45.9738C338.825 46.2142 338.817 46.4504 338.809 46.6908C338.759 47.9384 338.713 49.1819 338.659 50.4294C338.647 50.732 338.597 50.7983 338.306 50.7983C337.7 50.79 337.094 50.761 336.488 50.7361C336.322 50.7279 336.156 50.7071 335.995 50.7071C333.969 50.6988 331.944 50.6781 329.918 50.6947C328.648 50.7071 327.382 50.7734 326.112 50.8232C325.855 50.8315 325.601 50.8895 325.344 50.8978C325.087 50.9061 325.012 50.8315 325 50.5745C324.954 49.6212 324.896 48.6679 324.879 47.7146C324.858 46.2847 324.879 44.8506 324.879 43.4206C324.879 43.3294 324.879 43.2382 324.892 43.1471C324.908 42.9979 324.995 42.9191 325.145 42.9067C325.199 42.9025 325.257 42.8984 325.311 42.8942C326.523 42.8569 327.739 42.8072 328.951 42.7906C330.109 42.774 331.271 42.7906 332.433 42.7906C333.832 42.7906 335.231 42.7823 336.634 42.7948C337.277 42.803 337.92 42.8528 338.564 42.8942C338.838 42.9108 338.896 42.9606 338.892 43.23C338.883 44.146 338.858 45.0619 338.838 45.9821L338.829 45.9738Z" fill="#1E1E1E"/>
<path d="M153.427 12.0115C153.481 12.0198 153.539 12.0115 153.593 12.0115C154.311 12.0115 155.029 12.0198 155.747 12.024C157.793 12.024 159.835 12.0281 161.881 12.024C163.114 12.024 164.355 12.0489 165.584 11.9742C166.327 11.9287 167.053 11.9867 167.788 12.0115C168.124 12.024 168.178 12.082 168.19 12.4012C168.203 12.8032 168.203 13.2094 168.19 13.6156C168.178 14.1544 168.257 14.6766 168.385 15.1947C168.485 15.6009 168.692 15.9159 169.087 16.1314C169.73 16.4838 170.39 16.8112 171.033 17.1594C171.722 17.5324 172.453 17.4951 173.171 17.607C174.13 17.4661 175.113 17.4453 176.01 16.9936C176.649 16.6744 177.317 16.405 177.973 16.119C178.359 15.9491 178.646 15.6672 178.841 15.2984C178.994 15.0082 179.139 14.7056 179.239 14.3948C179.459 13.715 179.65 13.027 179.849 12.339C179.97 11.9162 179.986 11.8955 180.41 11.8831C181.991 11.8458 183.576 11.8167 184.61 11.7919C186.615 11.7919 188.072 11.7919 189.528 11.7919C190.483 11.7919 190.396 11.7173 190.396 12.6416C190.396 13.3959 190.388 14.1502 190.412 14.9005C190.437 15.7128 190.765 16.347 191.554 16.6951C191.807 16.807 192.039 16.9563 192.284 17.0765C192.745 17.3003 193.198 17.5697 193.683 17.7189C194.185 17.8723 194.725 17.9096 195.248 17.9925C195.302 18.0007 195.356 17.9842 195.41 17.9759C195.642 17.9386 195.879 17.8971 196.111 17.864C196.879 17.7603 197.643 17.6526 198.353 17.321C198.784 17.1179 199.224 16.9355 199.664 16.749C200.428 16.4257 201.013 15.9284 201.262 15.1118C201.524 14.2539 201.806 13.4 202.03 12.5296C202.25 11.68 202.221 11.68 203.113 11.6675C205.359 11.6344 207.608 11.5929 209.854 11.5515C209.891 11.5515 209.929 11.5515 209.966 11.5515C211.273 11.5266 212.581 11.5059 213.888 11.4852C214 11.4852 214.121 11.4644 214.216 11.5059C214.797 11.7546 215.374 11.4893 215.951 11.4976C216.424 11.5017 216.64 11.1867 216.536 10.7101C216.47 10.4117 216.337 10.1215 216.183 9.85627C215.777 9.16409 215.121 8.69159 214.552 8.14862C214.303 7.90822 214.021 7.68855 213.722 7.51447C213.087 7.1373 212.406 6.86374 211.672 6.72696C210.925 6.59019 210.182 6.46999 209.447 6.78085C208.804 7.05026 208.16 7.31967 207.517 7.59737C207.384 7.65539 207.256 7.73414 207.135 7.81704C206.222 8.43876 205.301 9.04389 204.338 9.57857C204.18 9.66561 204.001 9.7485 203.827 9.76094C203.441 9.78995 203.055 9.78995 202.669 9.77752C202.445 9.77337 202.374 9.68633 202.404 9.45422C202.524 8.46362 202.499 7.47717 202.362 6.49071C202.242 5.64103 201.893 4.9157 201.25 4.33543C200.573 3.72201 199.78 3.29095 198.946 2.94693C198.195 2.63193 197.398 2.48272 196.576 2.47443C196.41 2.47443 196.236 2.47443 196.086 2.42055C195.75 2.30449 195.401 2.27962 195.053 2.27962C194.372 2.27962 193.691 2.27962 193.007 2.28791C192.861 2.28791 192.708 2.2962 192.571 2.33765C191.608 2.61535 190.628 2.7314 189.628 2.71068C189.275 2.70239 188.931 2.67338 188.599 2.55318C188.424 2.49101 188.254 2.43298 188.084 2.36252C187.901 2.28791 187.723 2.26305 187.578 2.42884C187.424 2.60292 187.507 2.78529 187.603 2.93864C187.686 3.07542 187.81 3.19562 187.93 3.30338C188.229 3.57279 188.536 3.83806 188.848 4.09918C189.553 4.69188 189.943 5.46695 190.168 6.33736C190.454 7.43572 190.412 8.55895 190.4 9.67804C190.4 9.91015 190.325 9.95989 190.097 9.98475C190.022 9.99304 189.952 9.9889 189.877 9.9889C186.914 10.0262 183.946 10.0635 180.982 10.1008C180.87 10.1008 180.762 10.1008 180.65 10.1008C180.19 10.0884 180.161 10.0594 180.169 9.58686C180.169 9.49567 180.181 9.40449 180.185 9.3133C180.214 8.89468 180.264 8.47191 180.273 8.05329C180.285 7.39427 180.264 6.7394 180.177 6.08038C180.077 5.34261 179.812 4.70432 179.301 4.16135C178.841 3.67227 178.272 3.32411 177.695 3.00082C176.786 2.4993 175.807 2.17601 174.769 2.06824C174.13 2.00193 173.482 1.99364 172.843 1.91489C171.714 1.78225 170.606 1.92317 169.498 2.13456C168.365 2.34594 167.236 2.43298 166.119 2.05166C165.965 1.99778 165.799 1.96048 165.638 1.95633C165.426 1.95219 165.306 2.12212 165.343 2.32522C165.393 2.59463 165.575 2.76871 165.775 2.94279C166.206 3.31582 166.63 3.69714 167.045 4.08675C167.431 4.44734 167.663 4.89498 167.829 5.39649C168.153 6.36637 168.219 7.37355 168.273 8.38487C168.298 8.84494 168.282 9.30501 168.277 9.76094C168.273 10.2749 168.236 10.3039 167.7 10.3288C167.518 10.3371 167.331 10.3412 167.148 10.3412C164.143 10.3412 161.143 10.3412 158.137 10.3412C157.395 10.3412 156.672 10.2086 155.954 10.0428C155.518 9.94331 155.112 9.78995 154.933 9.30501C154.854 9.08948 154.63 9.03146 154.419 9.13508C154.29 9.19725 154.153 9.29258 154.082 9.40863C153.904 9.7112 153.63 9.88528 153.352 10.0676C153.215 10.1588 153.07 10.2417 152.941 10.3453C152.63 10.6023 152.385 10.909 152.505 11.3401C152.63 11.7877 153.007 11.9452 153.427 12.0198V12.0115Z" fill="#1E1E1E"/>
<path d="M83.236 10.3578C83.3066 10.3495 83.3813 10.3744 83.456 10.3827C84.282 10.5194 85.1079 10.478 85.9339 10.42C86.5025 10.3827 87.067 10.2998 87.6356 10.2417C88.0549 10.2003 88.4782 10.163 88.9016 10.1257C89.7981 10.0428 90.6946 9.96404 91.5953 9.877C91.724 9.86456 91.8485 9.83555 91.9772 9.82726C93.0978 9.74851 94.2143 9.64903 95.335 9.5993C96.7711 9.53712 98.203 9.51226 99.6392 9.47081C100.079 9.45837 100.523 9.46666 100.967 9.44594C102.163 9.39206 103.354 9.28429 104.549 9.27186C107.036 9.24285 109.526 9.25943 112.012 9.26357C112.215 9.26357 112.423 9.26357 112.614 9.30916C113.046 9.41278 113.461 9.30916 113.872 9.21798C114.287 9.12265 114.49 8.79521 114.386 8.38902C114.332 8.18593 114.22 7.97869 114.083 7.81704C113.859 7.54763 113.602 7.31138 113.353 7.06684C112.784 6.5073 112.17 6.01407 111.398 5.75709C111.277 5.71565 111.161 5.65347 111.045 5.60374C110.451 5.34676 109.841 5.25143 109.215 5.4338C108.862 5.53328 108.521 5.67834 108.173 5.7944C107.293 6.08453 106.488 6.52388 105.67 6.9425C105.533 7.01296 105.4 7.23263 105.255 7.09585C105.172 7.0171 105.201 6.78085 105.23 6.62749C105.276 6.37466 105.355 6.13012 105.438 5.88558C105.529 5.6286 105.649 5.37577 105.753 5.12294C105.79 5.04005 105.824 4.95301 105.865 4.87011C106.259 4.08261 106.347 3.27852 106.102 2.41641C105.931 1.82785 105.633 1.38436 105.093 1.11495C104.699 0.916 104.292 0.74192 103.877 0.596853C102.727 0.198955 101.528 0.2031 100.328 0.236258C100.291 0.236258 100.258 0.252837 100.22 0.252837C99.5395 0.277706 98.8713 0.455931 98.1864 0.393759C97.8918 0.368891 97.6012 0.315009 97.3065 0.319153C95.9617 0.339877 94.6211 0.269416 93.2929 0.0290193C93.2389 0.0207298 93.1767 -0.00828362 93.131 0.00829547C93.019 0.0497432 92.911 0.111915 92.8031 0.165797C92.8571 0.256982 92.8944 0.368891 92.9692 0.439352C93.102 0.55955 93.2597 0.65488 93.4091 0.762644C93.5419 0.857974 93.7121 0.928435 93.7993 1.05692C94.2932 1.77811 94.7041 2.53246 94.6792 3.44431C94.6709 3.73859 94.6792 4.03287 94.6792 4.32715H94.6875C94.6418 5.52084 94.592 6.71039 94.5464 7.90408C94.5464 7.92066 94.5464 7.94139 94.5464 7.95797C94.5422 8.14034 94.4302 8.21909 94.2641 8.22738C94.0442 8.23981 93.8242 8.23981 93.6 8.2481C93.322 8.25639 93.048 8.26053 92.7699 8.27297C91.6327 8.33514 90.4954 8.42218 89.354 8.46777C88.5612 8.49679 87.7685 8.48021 86.9757 8.46777C86.7184 8.46777 86.4652 8.41389 86.2078 8.38902C85.7181 8.34343 85.3445 8.14034 85.0706 7.71343C84.8548 7.37355 84.6763 7.37355 84.4272 7.68027C84.2778 7.86678 84.0952 7.96211 83.8835 8.03257C83.6552 8.11132 83.4228 8.16935 83.207 8.26882C83.0119 8.36001 82.8168 8.47606 82.6508 8.61699C82.327 8.89468 82.2274 9.25942 82.381 9.66147C82.5304 10.0552 82.7213 10.4117 83.2443 10.3578H83.236Z" fill="#1E1E1E"/>
<path d="M86.7723 35.7072C86.6228 35.0772 86.2908 34.5218 86.0169 33.9415C85.9463 33.7923 85.8799 33.6348 85.7803 33.5105C85.7056 33.4193 85.581 33.3322 85.4731 33.324C85.3154 33.3157 85.2158 33.4442 85.1743 33.5975C85.1618 33.6514 85.1577 33.7053 85.1452 33.7592C85.0581 34.1488 84.863 34.4845 84.5891 34.758C84.2653 35.0813 83.925 35.3963 83.5016 35.5911C82.7835 35.9227 82.0821 36.2833 81.3225 36.5154C80.2185 36.8512 79.2223 37.3775 78.3217 38.107C77.1927 39.0189 76.5203 40.1836 76.3418 41.6094C76.2796 42.0943 76.2671 42.6165 76.3792 43.0849C76.6448 44.1957 77.3131 45.0661 78.2345 45.7375C78.8986 46.2183 79.654 46.496 80.4509 46.6867C81.3723 46.9064 82.2689 46.9437 83.1447 46.5126C83.2277 46.4712 83.319 46.4463 83.4061 46.4214C84.4894 46.0981 85.2739 45.406 85.8135 44.4402C86.2244 43.7025 86.5315 42.9108 86.7225 42.0819C86.9839 40.9338 87.1043 39.7691 87.0919 38.4883C87.1375 37.6097 87.0088 36.6522 86.7847 35.7031L86.7723 35.7072Z" fill="#1E1E1E"/>
<path d="M297.776 43.2507C296.95 43.5035 296.132 43.7481 295.294 43.947C294.21 44.204 293.115 44.4237 292.007 44.5522C291.467 44.6143 290.927 44.6599 290.388 44.6931C289.574 44.747 288.765 44.7801 287.951 44.834C287.391 44.8713 286.831 44.9169 286.266 44.9625C285.249 45.0371 284.228 45.1614 283.211 45.1822C281.286 45.2195 279.36 45.2029 277.434 45.207C274.968 45.207 272.507 45.2443 270.058 44.8423C268.888 44.6516 267.692 44.6102 266.522 44.4154C265.165 44.1916 263.82 43.889 262.475 43.5989C261.201 43.3212 259.931 43.031 258.661 42.7367C259.516 41.8912 260.209 40.7846 260.57 39.7525C261.109 39.6986 261.666 39.6157 262.222 39.5909C263.392 39.537 264.559 39.4831 265.729 39.4831C268.07 39.4831 270.411 39.4499 272.756 39.5536C275.346 39.6655 277.94 39.6282 280.53 39.4541C280.592 39.4499 280.655 39.4417 280.717 39.4375C281.609 39.367 282.502 39.2676 283.398 39.2344C283.958 39.2137 284.523 39.3049 285.083 39.3173C286.818 39.367 288.553 39.4043 290.284 39.4458C290.745 39.4541 291.205 39.4458 291.666 39.4541C291.832 39.4541 291.998 39.4831 292.164 39.4955C292.538 39.5204 292.911 39.566 293.285 39.5618C293.6 39.5536 293.891 39.4499 294.136 39.2178C294.717 38.6749 294.771 37.5516 294.21 36.8802C293.945 36.561 293.646 36.2502 293.314 36.0056C292.235 35.2181 291.143 34.4555 290.039 33.7053C289.118 33.0753 288.537 33.2494 287.711 33.7426C287.142 34.0866 286.607 34.4886 286.046 34.8492C285.561 35.1601 285.038 35.3217 284.448 35.3176C283.805 35.3176 283.157 35.3881 282.514 35.4171C282.294 35.4254 282.07 35.4046 281.804 35.3922C281.804 33.4566 281.763 31.5873 281.813 29.7056C282.016 29.689 282.141 29.6683 282.261 29.6724C283.423 29.7056 284.585 29.747 285.747 29.7843C286.229 29.8009 286.71 29.8051 287.192 29.8258C287.648 29.8465 288.105 29.9128 288.561 29.9087C289.093 29.9087 289.238 29.7636 289.446 29.1502C289.363 28.9802 289.304 28.744 289.159 28.5782C288.379 27.6746 287.445 26.9825 286.258 26.7048C285.789 26.597 285.307 26.5846 284.847 26.8042C284.282 27.0737 283.709 27.3348 283.141 27.6C282.73 27.7907 282.307 27.9358 281.763 27.9772C281.821 26.2198 281.879 24.5122 281.941 22.8087C281.941 22.7755 281.983 22.7424 282.028 22.676C282.19 22.6678 282.377 22.647 282.56 22.6512C283.763 22.6843 284.967 22.7258 286.171 22.7631C286.631 22.7755 287.092 22.7797 287.553 22.8004C288.009 22.8211 288.466 22.8791 288.923 22.8916C289.396 22.904 289.728 22.7009 289.815 22.1787C289.769 22.0378 289.724 21.8761 289.657 21.7228C289.628 21.6481 289.566 21.5818 289.512 21.5197C288.769 20.7031 287.926 20.0358 286.835 19.7416C286.275 19.5923 285.727 19.5467 285.187 19.8037C284.697 20.0358 284.208 20.2804 283.705 20.4835C283.108 20.7197 282.497 20.9187 281.883 21.1383C281.846 21.0181 281.813 20.9601 281.813 20.9021C281.854 19.1074 281.9 17.3169 281.945 15.5222C281.945 15.489 281.991 15.4559 282.028 15.402C282.132 15.3937 282.257 15.373 282.381 15.373C284.747 15.373 287.113 15.3771 289.479 15.373C289.852 15.373 290.222 15.3066 290.595 15.2652C290.894 15.232 291.098 15.0745 291.197 14.6725C291.093 14.4694 291.006 14.1503 290.811 13.9306C290.072 13.0975 289.25 12.3804 288.209 11.9079C287.229 11.4644 286.299 11.423 285.312 11.8416C284.216 12.3058 283.116 12.7576 282.087 13.4332C281.999 12.94 282.141 12.5296 282.298 12.1276C282.502 11.6012 282.742 11.0914 282.946 10.565C283.311 9.62416 283.12 8.72475 282.651 7.87922C282.278 7.20362 281.642 6.83473 280.937 6.5819C279.389 6.03065 277.774 5.78611 276.147 5.74051C274.267 5.68663 272.387 5.78196 270.502 5.82755C270.17 5.83584 269.838 5.9063 269.514 5.97677C269.398 6.00163 269.299 6.12598 269.099 6.27104C269.344 6.37466 269.477 6.4617 269.626 6.49072C270.652 6.68552 271.171 7.35283 271.332 8.32271C271.428 8.89469 271.444 9.4791 271.474 10.0635C271.519 10.9173 271.552 11.7712 271.577 12.6208C271.594 13.1804 271.577 13.7358 271.577 14.3616C271.278 14.3616 271.05 14.3533 270.826 14.3616C269.909 14.4031 268.983 14.3948 268.078 14.5108C266.763 14.6808 265.447 14.5979 264.131 14.5937C263.392 14.5896 262.674 14.4114 262.23 13.7068C262.193 13.6487 262.093 13.6322 261.989 13.5824C261.79 14.0052 261.408 14.113 261.022 14.2249C260.902 14.258 260.782 14.2953 260.665 14.3451C259.889 14.7015 259.599 14.8756 259.844 15.8786C259.856 15.9325 259.844 15.9947 259.844 16.1397C259.354 15.8786 258.91 15.6424 258.387 15.3605C258.814 15.0538 259.209 14.7927 259.578 14.5026C260.616 13.686 261.749 13.0187 262.903 12.3846C264.214 11.6634 265.621 11.1163 266.767 10.0884C267.526 9.40864 267.846 8.59626 267.8 7.6554C267.759 6.80986 267.327 6.10111 266.621 5.60374C265.659 4.92399 264.613 4.39761 263.513 3.99142C261.931 3.40701 260.271 3.19562 258.607 3.08372C257.511 3.00911 256.403 2.97595 255.299 3.05885C254.568 3.11273 253.879 3.31168 253.257 3.69714V3.87951C253.398 3.91681 253.543 3.96241 253.692 3.98313C254.228 4.06603 254.767 4.11576 255.295 4.22353C255.996 4.36859 256.473 5.04834 256.349 5.74051C256.249 6.31249 256.137 6.89276 255.954 7.44402C255.373 9.21798 254.614 10.9049 253.485 12.4095C252.846 13.2591 252.294 14.171 251.65 15.0207C250.596 16.4174 249.65 17.9013 248.417 19.1571C247.496 20.0939 246.566 21.0223 245.628 21.9424C245.321 22.245 244.976 22.5144 244.86 22.9537C245.263 23.1776 245.296 23.19 245.698 23.0864C246.528 22.8709 247.338 22.618 248.089 22.1787C249.313 21.4616 250.575 20.8109 251.82 20.127C252.099 19.9737 252.352 19.7623 252.767 19.6587C252.713 20.2845 252.642 20.8399 252.622 21.3995C252.568 22.962 252.539 24.5288 252.489 26.0913C252.456 27.111 252.414 28.1306 252.364 29.1502C252.285 30.7915 252.19 32.437 252.115 34.0783C252.057 35.3715 252.032 36.6605 251.97 37.9537C251.941 38.5754 251.903 39.2054 251.791 39.8188C251.696 40.3369 251.717 40.8136 251.845 41.2529C251.426 41.1866 251.007 41.1244 250.592 41.054C249.625 40.8923 248.662 40.7224 247.695 40.5856C246.603 40.4364 245.507 40.2665 244.407 40.2043C243.453 40.1504 242.49 40.1131 241.515 40.2747C241.432 40.196 241.34 40.1172 241.212 39.997C241.797 39.6655 242.336 39.3463 242.884 39.052C243.428 38.7619 243.897 38.3847 244.291 37.9205C244.939 37.162 245.009 36.3621 244.437 35.7114C243.997 35.214 243.523 34.7208 242.992 34.3229C242.121 33.6763 241.191 33.1084 240.29 32.5033C239.946 32.2712 239.597 32.0349 239.273 31.7697C238.734 31.3303 238.555 30.663 238.792 30.0869C239.692 27.915 241.162 26.1618 242.938 24.6614C243.424 24.2511 243.802 23.7661 244.171 23.2563C244.349 23.0118 244.399 22.7341 244.316 22.4854C244.196 22.1165 244.051 21.7103 243.793 21.4368C243.353 20.9725 242.855 20.5291 242.307 20.2016C242.249 20.1685 242.191 20.1312 242.133 20.098C241.133 19.5053 240.116 18.9375 239.016 18.5313C237.356 17.9137 235.7 18.1831 234.629 19.3768C233.811 20.2887 232.757 20.7404 231.657 21.1342C230.408 21.5818 229.133 21.387 227.884 21.1674C226.738 20.9684 225.622 20.6078 224.431 20.8358C224.078 20.9021 223.796 20.9891 223.617 21.3663C223.792 21.4658 223.949 21.557 224.107 21.6481C225.082 22.2035 225.958 22.8626 226.498 23.8863C226.871 24.5951 227.473 25.0634 228.145 25.4696C228.768 25.8468 229.465 25.9753 230.15 26.1577C230.968 26.3732 231.761 26.3276 232.533 25.9711C232.84 25.8302 233.155 25.7017 233.5 25.5525C233.525 26.0084 233.346 26.3442 233.184 26.6758C232.678 27.7078 232.184 28.744 231.649 29.7595C231.005 30.978 231.599 32.3375 232.408 32.9634C233.051 33.4649 233.716 33.9374 234.326 34.4721C234.745 34.8368 235.206 35.2306 235.451 35.7114C235.783 36.3704 235.994 37.1123 236.135 37.8418C236.235 38.3723 236.326 38.9691 235.886 39.5287C235.397 39.6613 234.861 39.8354 234.313 39.9473C233.599 40.0882 232.877 40.196 232.155 40.283C231.827 40.3245 231.487 40.2913 231.151 40.2747C230.839 40.2582 230.532 40.2043 230.221 40.1836C229.096 40.1172 227.975 40.0468 226.896 39.6696C226.108 39.3961 225.29 39.4458 224.493 39.5992C224.099 39.6738 223.704 39.8686 223.406 40.2333C223.48 40.3618 223.526 40.5069 223.626 40.598C223.887 40.8384 224.165 41.0581 224.439 41.2819C225.522 42.1689 226.435 44.7635 226.792 46.1893C226.967 46.8815 227.465 47.4245 228.22 47.5405C228.71 47.6151 229.237 47.6151 229.714 47.5032C230.628 47.2877 231.524 46.9976 232.404 46.6784C234.027 46.0899 235.675 45.6878 237.414 45.6837C238.688 45.6837 239.954 45.7707 241.22 45.9199C242.233 46.0401 243.258 46.0691 244.271 46.2142C245.777 46.4339 247.28 46.6826 248.77 46.981C251.061 47.4369 253.36 47.8638 255.602 48.5311C256.56 48.8171 257.544 49.0409 258.486 49.3808C260.08 49.9528 261.637 50.6201 263.23 51.1879C264.567 51.6646 265.924 52.0832 267.281 52.4894C268.9 52.9785 270.548 53.3598 272.225 53.5919C273.42 53.7577 274.62 53.9152 275.811 54.1058C278.467 54.5245 281.136 54.4374 283.689 53.5546C286.034 52.7464 288.171 51.4573 290.334 50.2636C293.115 48.7301 295.821 46.9437 297.755 44.3781C298.033 44.0092 298.78 42.9357 297.776 43.2424V43.2507ZM260.624 16.3801C261.657 16.6081 262.687 16.5252 263.724 16.3843C264.837 16.2351 265.957 16.1315 267.074 16.0113C267.136 16.003 267.198 16.0071 267.261 16.003C268.51 15.9201 269.755 15.8372 271.004 15.7584C271.125 15.7501 271.249 15.7709 271.424 15.7833C271.573 17.5448 271.216 19.2815 271.349 21.043C270.444 21.2751 269.581 21.2917 268.709 21.2212C268.377 21.1922 268.049 21.1342 267.717 21.1342C266.738 21.1259 265.862 20.8772 265.169 20.1477C265.115 20.0897 265.032 20.0524 264.957 20.0234C264.924 20.011 264.878 20.0234 264.799 20.0358C264.77 20.0856 264.704 20.1477 264.696 20.2182C264.662 20.6202 264.438 20.8606 264.077 21.0098C263.782 21.13 263.525 21.3 263.388 21.6108C263.176 22.0875 263.338 22.5517 263.82 22.7465C264.011 22.8253 264.222 22.8916 264.426 22.8874C265.115 22.875 265.8 22.8294 266.484 22.7962C266.609 22.7921 266.734 22.7755 266.858 22.7755C268.24 22.7755 269.618 22.7755 271 22.7755C271.079 22.7755 271.162 22.7962 271.208 22.8004C271.507 24.5744 271.158 26.311 271.208 28.0933C270.228 28.2466 269.286 28.3585 268.327 28.2591C267.995 28.2259 267.667 28.172 267.335 28.1679C266.356 28.1596 265.48 27.9109 264.783 27.1814C264.729 27.1234 264.65 27.0861 264.575 27.0529C264.542 27.0363 264.496 27.0529 264.434 27.0612C264.405 27.0944 264.334 27.1358 264.33 27.1856C264.289 27.6622 264.002 27.9067 263.592 28.1057C263.363 28.2135 263.147 28.4248 263.019 28.6445C262.761 29.0963 262.952 29.5771 263.434 29.776C263.625 29.8548 263.836 29.9211 264.04 29.917C264.729 29.9045 265.414 29.8589 266.098 29.8258C266.202 29.8216 266.306 29.8051 266.41 29.8051C267.875 29.8051 269.34 29.8051 270.805 29.8051C270.868 29.8051 270.926 29.8258 270.988 29.8382C271.088 30.1698 270.917 34.6296 270.772 35.5C269.66 35.4834 268.527 35.3466 267.427 35.4834C266.265 35.6285 265.14 35.3508 263.994 35.4295C262.882 35.5041 261.757 35.4461 260.607 35.4461C260.582 35.214 260.553 35.0523 260.553 34.8907C260.553 32.6567 260.537 30.4185 260.574 28.1844C260.591 27.1275 260.715 26.0706 260.806 25.0137C260.927 23.6045 261.056 22.1994 261.201 20.7943C261.259 20.2431 261.45 19.7125 261.898 19.3644C262.595 18.8214 262.629 18.1292 261.749 17.4661C261.3 17.1303 260.856 16.7863 260.358 16.405C260.495 16.3926 260.562 16.3719 260.616 16.3843L260.624 16.3801Z" fill="#1E1E1E"/>
<path d="M232.433 8.16106C233.097 8.61284 233.554 9.22626 233.936 9.89357C234.45 10.7971 234.911 11.7338 235.388 12.6581C235.691 13.2508 236.119 13.7358 236.704 14.0425C237.418 14.4114 238.09 14.8176 238.999 14.6476C240.448 14.3782 241.751 13.9306 242.826 12.8488C243.739 11.9287 243.98 10.8096 243.93 9.64074C243.876 8.27711 243.474 6.98394 242.598 5.869C242.361 5.56643 242.104 5.30945 241.784 5.10636C241.058 4.64629 240.265 4.46392 239.41 4.43076C237.767 4.3603 236.239 4.7955 234.733 5.39649C234.039 5.67419 233.317 5.90216 232.587 6.04722C231.794 6.20472 230.976 6.24203 230.167 6.31663C229.598 6.36637 229.478 6.47413 229.407 7.17046C229.681 7.22848 229.918 7.29894 230.163 7.32796C230.985 7.43158 231.736 7.68855 232.429 8.16106H232.433Z" fill="#1E1E1E"/>
</g>
<defs>
<clipPath id="clip0_554_13875">
<rect width="369" height="56" fill="white"/>
</clipPath>
</defs>
</svg>
