<svg width="177" height="29" viewBox="0 0 177 29" fill="none" xmlns="http://www.w3.org/2000/svg">
<path d="M11.5841 1.65911C12.4137 1.5406 12.6211 1.2147 12.6803 0.799927L7.46599 0.296271V17.3614C6.69569 17.5688 5.95502 17.7465 5.24397 17.9539V4.35516C5.89576 4.26628 6.07352 3.99964 6.1624 3.64411L1.30359 3.17008V17.628C1.30359 18.3687 1.12582 18.6946 0 19.2871L1.80724 23.1979C2.16277 23.0498 2.51829 22.7535 2.81456 22.3387C4.59218 21.124 6.1624 19.9686 7.46599 18.9612V28.4122H8.20666C9.74726 28.4122 11.5841 27.1975 11.5841 26.6939V1.65911ZM21.4203 8.26592C21.1833 11.7323 20.5315 15.0801 19.1983 18.1613C17.865 16.4133 16.8577 14.3098 16.1763 11.8212C16.8577 10.725 17.4503 9.53988 17.9836 8.26592H21.4203ZM27.9382 8.26592C28.3826 8.26592 28.7085 8.11778 28.7974 7.79189C27.4049 6.54755 25.0644 4.68106 25.0644 4.68106L23.0201 7.43636H18.3391C18.9612 5.83651 19.5242 4.08852 19.9982 2.22202C20.7092 2.16277 21.0351 1.89612 21.1536 1.51098L15.2282 0.296271C14.8727 6.10315 13.4506 12.3544 11.7619 16.5911L12.0878 16.7689C13.3914 15.6134 14.5765 14.2506 15.5838 12.7396C16.0578 15.8504 16.7688 18.5465 17.8058 20.887C16.1171 23.6719 13.7173 26.1902 10.4287 28.2345L10.6064 28.5011C14.2506 27.2568 17.0947 25.5681 19.2575 23.4942C20.7092 25.5977 22.5757 27.2272 25.0644 28.4122C25.5384 26.3384 26.6642 25.1236 28.7381 24.5904L28.827 24.2645C25.9532 23.4349 23.583 22.2795 21.6869 20.7389C24.2348 17.1836 25.4792 12.8877 26.0421 8.26592H27.9382Z" fill="#1E1E1E"/>
<path d="M46.7217 21.5092C49.1511 22.9609 52.4693 25.5681 54.2173 27.6716C58.3947 28.7381 58.9872 21.124 46.9291 21.2425L46.7217 21.5092ZM38.3965 12.5618H42.9591V15.2875H38.3965V12.5618ZM42.9591 5.83651V8.32517H38.3965V5.83651H42.9591ZM42.9591 11.7323H38.3965V9.15473H42.9591V11.7323ZM55.2839 16.1171C55.7283 16.1171 56.0542 15.9689 56.1431 15.643C54.7506 14.3987 52.4101 12.5915 52.4101 12.5915L50.3658 15.2875H47.3439V12.5618H53.8618C54.2766 12.5618 54.6025 12.4137 54.6913 12.0878C53.4174 10.9323 51.2842 9.27323 51.2842 9.27323L49.3881 11.7323H47.3439V9.15473H53.8618C54.2766 9.15473 54.6025 9.00659 54.6913 8.68069C53.4174 7.52524 51.2842 5.86613 51.2842 5.86613L49.3881 8.32517H47.3439V5.83651H54.6025C55.0172 5.83651 55.3431 5.68837 55.432 5.36248C54.0988 4.14777 51.8768 2.37016 51.8768 2.37016L49.9214 5.00695H45.4774C48.0253 4.59218 49.0326 0.237016 41.8925 0L41.7147 0.148136C42.485 1.18508 43.1961 2.81456 43.285 4.38479C43.759 4.74031 44.233 4.9477 44.7071 5.00695H38.8113L38.7224 4.97733C39.2557 4.41442 39.7594 3.82188 40.2334 3.17008C40.9148 3.25896 41.3592 3.05158 41.537 2.72568L36.293 0.177763C34.8709 4.1774 32.323 7.85114 29.8936 10.0139L30.1306 10.2805C31.5231 9.80652 32.8859 9.21398 34.1895 8.50293V18.1909H34.9598C37.1226 18.1909 38.3965 17.2429 38.3965 16.9762V16.1171H53.8322L51.7583 18.9316H46.1588V17.8354C46.9883 17.7169 47.1957 17.391 47.255 17.0059L41.5962 16.5318V18.9316H30.9009L31.1379 19.7612H41.5962V22.4572L37.2114 20.1759C35.7893 22.1313 32.086 26.2791 29.864 27.9975L30.0417 28.2048C33.7747 26.9901 38.1595 24.857 40.6482 23.4053C41.0333 23.4349 41.3296 23.4053 41.5962 23.3757V28.59H42.3665C44.1738 28.59 46.1588 27.9086 46.1588 27.6123V19.7612H56.8837C57.2985 19.7612 57.654 19.613 57.7133 19.2871C56.4986 18.1613 54.4839 16.5022 54.0099 16.1171H55.2839Z" fill="#1E1E1E"/>
<path d="M86.9254 9.21398C87.3402 9.1251 87.6661 8.88808 87.6957 8.56219C85.6811 7.34748 82.5999 5.68837 82.5999 5.68837L80.5557 9.59913L73.9488 10.8731V2.25165C74.7192 2.16277 74.9858 1.80724 75.0154 1.42209L69.5048 0.859183V11.7323L59.5205 13.6876L59.9057 14.4579L69.5048 12.5915V22.9016C69.5048 26.4272 71.1047 27.079 75.1636 27.079H78.778C85.3848 27.079 87.1625 26.2198 87.1625 24.1756C87.1625 23.3757 86.5403 22.7831 85.059 22.2498L84.9108 22.1906H84.6442C84.1701 22.3683 83.5776 22.4869 83.1036 22.5461C82.7184 22.6054 82.037 22.6646 81.6519 22.6646C81.0889 22.6942 80.0816 22.7239 79.2224 22.7239H75.7265C74.4821 22.7239 73.9488 22.4869 73.9488 21.598V11.7323L86.9254 9.21398Z" fill="#1E1E1E"/>
<path d="M110.123 18.9612H112.168V20.4722H112.819C112.938 20.4722 113.027 20.4722 113.145 20.4722L111.694 22.3683H110.123V18.9612ZM104.494 18.1317V14.6653H106.272V18.1317H104.494ZM96.969 10.6361H100.732H100.791V15.2579C100.228 14.3394 99.0429 13.421 96.969 12.7396V10.6361ZM96.969 5.15509C97.9467 4.97733 98.8651 4.76994 99.6354 4.56255C100.465 4.82919 101.087 4.82919 101.472 4.65143C103.043 4.65143 104.672 4.65143 106.272 4.59218V6.54755H99.428L99.665 7.37711H106.272V9.74727H104.672L100.791 8.23629V9.39174C99.8132 8.41405 98.6577 7.37711 98.6577 7.37711L97.0282 9.80652H96.969V5.15509ZM106.272 13.8358H104.494V10.5768H106.272V13.8358ZM112.168 10.5768V13.8358H110.123V10.5768H112.168ZM112.168 18.1317H110.123V14.6653H112.168V18.1317ZM112.582 26.5457H110.123V23.1979H115.989C116.404 23.1979 116.73 23.0498 116.789 22.7239C115.93 21.9239 114.627 20.887 113.945 20.3537C114.982 20.1463 115.989 19.7315 116.019 19.5834V11.1101C116.582 10.9916 116.908 10.7546 117.086 10.5472L113.59 7.91039L111.871 9.74727H110.123V7.37711H116.701C117.145 7.37711 117.441 7.22897 117.53 6.90308C116.256 5.74763 114.123 4.11815 114.123 4.11815L112.227 6.54755H110.123V4.41442C111.753 4.29591 113.264 4.14777 114.479 3.99964C115.456 4.38479 116.197 4.32553 116.582 4.02926L112.731 0.355524C110.153 1.51098 105.265 3.05158 101.206 3.99964L97.2653 0.651793C95.4876 2.22202 91.8139 4.50329 88.8216 5.80688L88.8808 6.10315C90.2733 6.01427 91.6954 5.89576 93.1175 5.74763V9.80652H89.0586L89.2956 10.6361H92.7323C92.0213 14.932 90.7177 19.6723 88.7031 23.0201L89.029 23.3164C90.5696 22.0128 91.962 20.5315 93.1175 18.902V28.4419H93.8285C95.7246 28.4419 96.969 27.5827 96.969 27.3457V13.5691C97.4726 14.8431 97.8874 16.4133 97.8874 17.865C98.954 18.8724 100.169 18.665 100.791 17.8947V21.0351H101.324C102.894 21.0351 104.494 20.2352 104.494 19.8797V18.9612H106.272V22.3683H100.258L100.495 23.1979H106.272V26.5457H98.8059L99.0429 27.3753H117.086C117.5 27.3753 117.826 27.2272 117.915 26.9013C116.641 25.7458 114.479 24.0275 114.479 24.0275L112.582 26.5457Z" fill="#1E1E1E"/>
<path d="M137.232 17.3614V20.887H128.255V17.3614H137.232ZM128.255 25.5384V21.7166H137.232V25.5384H128.255ZM145.853 8.29554C146.298 8.29554 146.624 8.14741 146.713 7.82151C145.291 6.63644 142.98 4.9477 142.98 4.9477L140.935 7.46599H134.832V4.5033C137.143 4.32553 139.276 4.08852 141.054 3.8515C142.061 4.26628 142.802 4.23665 143.157 3.94038L139.513 0.237015C135.365 1.74799 127.277 3.61449 121.026 4.47367L121.085 4.91807C124.107 4.97733 127.425 4.91807 130.625 4.74031V7.46599H118.982L119.219 8.29554H127.544C125.648 11.3767 122.419 14.6653 118.626 16.7689L118.834 17.0947C120.671 16.5615 122.419 15.88 124.048 15.1394V28.4122H124.67C126.418 28.4122 128.255 27.4938 128.255 27.079V26.368H137.232V28.3826H137.973C139.365 28.3826 141.498 27.6419 141.528 27.4049V18.0428C142.15 17.9243 142.506 17.628 142.683 17.391L138.802 14.4579L136.936 16.5318H128.492L124.404 14.9616C126.803 13.8062 128.907 12.4433 130.625 10.8138V15.5245H131.395C133.558 15.5245 134.832 14.6653 134.832 14.4579V9.86577C137.795 11.4656 141.232 14.0728 143.098 16.3244C147.572 17.391 148.075 9.18435 134.832 9.06585V8.29554H145.853Z" fill="#1E1E1E"/>
<path d="M148.964 6.13278C150.505 8.73995 152.134 12.0582 152.727 15.1097C156.875 18.3983 160.193 9.98428 149.261 5.98464L148.964 6.13278ZM170.148 5.00695C169.377 7.43636 167.57 11.5545 165.852 14.6061C164.489 11.4064 163.896 7.34748 163.63 2.28127V1.83687C164.37 1.71836 164.667 1.45172 164.755 0.97769L158.83 0.444405C158.83 12.5618 159.689 21.1536 148.224 28.0271L148.461 28.4122C160.608 24.3237 162.889 17.9243 163.422 9.39174C164.133 18.902 166.207 25.1829 173.021 28.4419C173.466 26.1606 174.799 24.5904 176.873 24.146L176.902 23.8201C171.392 22.1313 168.103 19.4945 166.148 15.3468C169.288 13.3025 172.221 10.6064 174.236 8.53256C174.977 8.62144 175.273 8.41405 175.391 8.11778L170.148 5.00695Z" fill="#1E1E1E"/>
</svg>
